%TF.GenerationSoftware,KiCad,Pcbnew,4.0.6-e0-6349~53~ubuntu16.04.1*%
%TF.CreationDate,2017-04-07T11:05:52-07:00*%
%TF.ProjectId,waveform-generator,77617665666F726D2D67656E65726174,rev?*%
%TF.FileFunction,Legend,Top*%
%FSLAX46Y46*%
G04 Gerber Fmt 4.6, Leading zero omitted, Abs format (unit mm)*
G04 Created by KiCad (PCBNEW 4.0.6-e0-6349~53~ubuntu16.04.1) date Fri Apr  7 11:05:52 2017*
%MOMM*%
%LPD*%
G01*
G04 APERTURE LIST*
%ADD10C,0.100000*%
%ADD11C,0.300000*%
%ADD12C,0.120000*%
%ADD13C,0.150000*%
%ADD14R,0.400000X1.350000*%
%ADD15C,1.250000*%
%ADD16C,1.550000*%
%ADD17C,3.500000*%
%ADD18R,1.500000X1.250000*%
%ADD19R,1.250000X1.500000*%
%ADD20R,1.200000X1.200000*%
%ADD21C,2.200000*%
%ADD22C,2.000000*%
%ADD23R,1.700000X1.700000*%
%ADD24O,1.700000X1.700000*%
%ADD25R,1.500000X1.300000*%
%ADD26R,1.200000X0.900000*%
%ADD27R,1.300000X1.500000*%
%ADD28R,3.800000X2.000000*%
%ADD29R,1.500000X2.000000*%
%ADD30R,0.650000X1.560000*%
%ADD31R,1.640000X2.380000*%
%ADD32R,1.000000X0.250000*%
%ADD33R,1.650000X1.950000*%
%ADD34C,2.800000*%
%ADD35C,0.558800*%
G04 APERTURE END LIST*
D10*
D11*
X69425429Y-26368572D02*
X70139714Y-25868572D01*
X69425429Y-25511429D02*
X70925429Y-25511429D01*
X70925429Y-26082857D01*
X70854000Y-26225715D01*
X70782571Y-26297143D01*
X70639714Y-26368572D01*
X70425429Y-26368572D01*
X70282571Y-26297143D01*
X70211143Y-26225715D01*
X70139714Y-26082857D01*
X70139714Y-25511429D01*
X70211143Y-27011429D02*
X70211143Y-27511429D01*
X69425429Y-27725715D02*
X69425429Y-27011429D01*
X70925429Y-27011429D01*
X70925429Y-27725715D01*
X70925429Y-28154286D02*
X69425429Y-28654286D01*
X70925429Y-29154286D01*
X70782571Y-29582857D02*
X70854000Y-29654286D01*
X70925429Y-29797143D01*
X70925429Y-30154286D01*
X70854000Y-30297143D01*
X70782571Y-30368572D01*
X70639714Y-30440000D01*
X70496857Y-30440000D01*
X70282571Y-30368572D01*
X69425429Y-29511429D01*
X69425429Y-30440000D01*
X28702143Y-33540000D02*
X28559286Y-33468571D01*
X28345000Y-33468571D01*
X28130715Y-33540000D01*
X27987857Y-33682857D01*
X27916429Y-33825714D01*
X27845000Y-34111429D01*
X27845000Y-34325714D01*
X27916429Y-34611429D01*
X27987857Y-34754286D01*
X28130715Y-34897143D01*
X28345000Y-34968571D01*
X28487857Y-34968571D01*
X28702143Y-34897143D01*
X28773572Y-34825714D01*
X28773572Y-34325714D01*
X28487857Y-34325714D01*
X29416429Y-34968571D02*
X29416429Y-33468571D01*
X30273572Y-34968571D01*
X30273572Y-33468571D01*
X30987858Y-34968571D02*
X30987858Y-33468571D01*
X31345001Y-33468571D01*
X31559286Y-33540000D01*
X31702144Y-33682857D01*
X31773572Y-33825714D01*
X31845001Y-34111429D01*
X31845001Y-34325714D01*
X31773572Y-34611429D01*
X31702144Y-34754286D01*
X31559286Y-34897143D01*
X31345001Y-34968571D01*
X30987858Y-34968571D01*
X27356929Y-37913571D02*
X27856929Y-39413571D01*
X28356929Y-37913571D01*
X29714072Y-39413571D02*
X29214072Y-38699286D01*
X28856929Y-39413571D02*
X28856929Y-37913571D01*
X29428357Y-37913571D01*
X29571215Y-37985000D01*
X29642643Y-38056429D01*
X29714072Y-38199286D01*
X29714072Y-38413571D01*
X29642643Y-38556429D01*
X29571215Y-38627857D01*
X29428357Y-38699286D01*
X28856929Y-38699286D01*
X30356929Y-38627857D02*
X30856929Y-38627857D01*
X31071215Y-39413571D02*
X30356929Y-39413571D01*
X30356929Y-37913571D01*
X31071215Y-37913571D01*
X32499786Y-37985000D02*
X32356929Y-37913571D01*
X32142643Y-37913571D01*
X31928358Y-37985000D01*
X31785500Y-38127857D01*
X31714072Y-38270714D01*
X31642643Y-38556429D01*
X31642643Y-38770714D01*
X31714072Y-39056429D01*
X31785500Y-39199286D01*
X31928358Y-39342143D01*
X32142643Y-39413571D01*
X32285500Y-39413571D01*
X32499786Y-39342143D01*
X32571215Y-39270714D01*
X32571215Y-38770714D01*
X32285500Y-38770714D01*
X27285500Y-29023571D02*
X27785500Y-30523571D01*
X28285500Y-29023571D01*
X28785500Y-29023571D02*
X28785500Y-30237857D01*
X28856928Y-30380714D01*
X28928357Y-30452143D01*
X29071214Y-30523571D01*
X29356928Y-30523571D01*
X29499786Y-30452143D01*
X29571214Y-30380714D01*
X29642643Y-30237857D01*
X29642643Y-29023571D01*
X30285500Y-30452143D02*
X30499786Y-30523571D01*
X30856929Y-30523571D01*
X30999786Y-30452143D01*
X31071215Y-30380714D01*
X31142643Y-30237857D01*
X31142643Y-30095000D01*
X31071215Y-29952143D01*
X30999786Y-29880714D01*
X30856929Y-29809286D01*
X30571215Y-29737857D01*
X30428357Y-29666429D01*
X30356929Y-29595000D01*
X30285500Y-29452143D01*
X30285500Y-29309286D01*
X30356929Y-29166429D01*
X30428357Y-29095000D01*
X30571215Y-29023571D01*
X30928357Y-29023571D01*
X31142643Y-29095000D01*
X32285500Y-29737857D02*
X32499786Y-29809286D01*
X32571214Y-29880714D01*
X32642643Y-30023571D01*
X32642643Y-30237857D01*
X32571214Y-30380714D01*
X32499786Y-30452143D01*
X32356928Y-30523571D01*
X31785500Y-30523571D01*
X31785500Y-29023571D01*
X32285500Y-29023571D01*
X32428357Y-29095000D01*
X32499786Y-29166429D01*
X32571214Y-29309286D01*
X32571214Y-29452143D01*
X32499786Y-29595000D01*
X32428357Y-29666429D01*
X32285500Y-29737857D01*
X31785500Y-29737857D01*
X72374072Y-55796571D02*
X71516929Y-55796571D01*
X71945501Y-55796571D02*
X71945501Y-54296571D01*
X71802644Y-54510857D01*
X71659786Y-54653714D01*
X71516929Y-54725143D01*
X53153571Y-54248643D02*
X53153571Y-53962929D01*
X53225000Y-53820071D01*
X53367857Y-53677214D01*
X53653571Y-53605786D01*
X54153571Y-53605786D01*
X54439286Y-53677214D01*
X54582143Y-53820071D01*
X54653571Y-53962929D01*
X54653571Y-54248643D01*
X54582143Y-54391500D01*
X54439286Y-54534357D01*
X54153571Y-54605786D01*
X53653571Y-54605786D01*
X53367857Y-54534357D01*
X53225000Y-54391500D01*
X53153571Y-54248643D01*
X54582143Y-53034357D02*
X54653571Y-52820071D01*
X54653571Y-52462928D01*
X54582143Y-52320071D01*
X54510714Y-52248642D01*
X54367857Y-52177214D01*
X54225000Y-52177214D01*
X54082143Y-52248642D01*
X54010714Y-52320071D01*
X53939286Y-52462928D01*
X53867857Y-52748642D01*
X53796429Y-52891500D01*
X53725000Y-52962928D01*
X53582143Y-53034357D01*
X53439286Y-53034357D01*
X53296429Y-52962928D01*
X53225000Y-52891500D01*
X53153571Y-52748642D01*
X53153571Y-52391500D01*
X53225000Y-52177214D01*
X54510714Y-50677214D02*
X54582143Y-50748643D01*
X54653571Y-50962929D01*
X54653571Y-51105786D01*
X54582143Y-51320071D01*
X54439286Y-51462929D01*
X54296429Y-51534357D01*
X54010714Y-51605786D01*
X53796429Y-51605786D01*
X53510714Y-51534357D01*
X53367857Y-51462929D01*
X53225000Y-51320071D01*
X53153571Y-51105786D01*
X53153571Y-50962929D01*
X53225000Y-50748643D01*
X53296429Y-50677214D01*
X58947857Y-54566142D02*
X58947857Y-54066142D01*
X59733571Y-53851856D02*
X59733571Y-54566142D01*
X58233571Y-54566142D01*
X58233571Y-53851856D01*
X58233571Y-53351856D02*
X59733571Y-52351856D01*
X58233571Y-52351856D02*
X59733571Y-53351856D01*
X58233571Y-51994714D02*
X58233571Y-51137571D01*
X59733571Y-51566142D02*
X58233571Y-51566142D01*
X57257071Y-54570000D02*
X55757071Y-54570000D01*
X55757071Y-54212857D01*
X55828500Y-53998572D01*
X55971357Y-53855714D01*
X56114214Y-53784286D01*
X56399929Y-53712857D01*
X56614214Y-53712857D01*
X56899929Y-53784286D01*
X57042786Y-53855714D01*
X57185643Y-53998572D01*
X57257071Y-54212857D01*
X57257071Y-54570000D01*
X57114214Y-52212857D02*
X57185643Y-52284286D01*
X57257071Y-52498572D01*
X57257071Y-52641429D01*
X57185643Y-52855714D01*
X57042786Y-52998572D01*
X56899929Y-53070000D01*
X56614214Y-53141429D01*
X56399929Y-53141429D01*
X56114214Y-53070000D01*
X55971357Y-52998572D01*
X55828500Y-52855714D01*
X55757071Y-52641429D01*
X55757071Y-52498572D01*
X55828500Y-52284286D01*
X55899929Y-52212857D01*
X57257071Y-50855714D02*
X57257071Y-51570000D01*
X55757071Y-51570000D01*
X57257071Y-50355714D02*
X55757071Y-50355714D01*
X57257071Y-49498571D02*
X56399929Y-50141428D01*
X55757071Y-49498571D02*
X56614214Y-50355714D01*
X26448000Y-47986071D02*
X26448000Y-46486071D01*
X27019428Y-46486071D01*
X27162286Y-46557500D01*
X27233714Y-46628929D01*
X27305143Y-46771786D01*
X27305143Y-46986071D01*
X27233714Y-47128929D01*
X27162286Y-47200357D01*
X27019428Y-47271786D01*
X26448000Y-47271786D01*
X27805143Y-46486071D02*
X28162286Y-47986071D01*
X28448000Y-46914643D01*
X28733714Y-47986071D01*
X29090857Y-46486071D01*
X30519429Y-47986071D02*
X30019429Y-47271786D01*
X29662286Y-47986071D02*
X29662286Y-46486071D01*
X30233714Y-46486071D01*
X30376572Y-46557500D01*
X30448000Y-46628929D01*
X30519429Y-46771786D01*
X30519429Y-46986071D01*
X30448000Y-47128929D01*
X30376572Y-47200357D01*
X30233714Y-47271786D01*
X29662286Y-47271786D01*
X29087001Y-49891071D02*
X28587001Y-49176786D01*
X28229858Y-49891071D02*
X28229858Y-48391071D01*
X28801286Y-48391071D01*
X28944144Y-48462500D01*
X29015572Y-48533929D01*
X29087001Y-48676786D01*
X29087001Y-48891071D01*
X29015572Y-49033929D01*
X28944144Y-49105357D01*
X28801286Y-49176786D01*
X28229858Y-49176786D01*
X29587001Y-48391071D02*
X30587001Y-49891071D01*
X30587001Y-48391071D02*
X29587001Y-49891071D01*
X28384643Y-50296071D02*
X29241786Y-50296071D01*
X28813215Y-51796071D02*
X28813215Y-50296071D01*
X29598929Y-50296071D02*
X30598929Y-51796071D01*
X30598929Y-50296071D02*
X29598929Y-51796071D01*
X32980643Y-66425071D02*
X33480643Y-67925071D01*
X33980643Y-66425071D01*
X34766357Y-66425071D02*
X35052071Y-66425071D01*
X35194929Y-66496500D01*
X35337786Y-66639357D01*
X35409214Y-66925071D01*
X35409214Y-67425071D01*
X35337786Y-67710786D01*
X35194929Y-67853643D01*
X35052071Y-67925071D01*
X34766357Y-67925071D01*
X34623500Y-67853643D01*
X34480643Y-67710786D01*
X34409214Y-67425071D01*
X34409214Y-66925071D01*
X34480643Y-66639357D01*
X34623500Y-66496500D01*
X34766357Y-66425071D01*
X36052072Y-66425071D02*
X36052072Y-67639357D01*
X36123500Y-67782214D01*
X36194929Y-67853643D01*
X36337786Y-67925071D01*
X36623500Y-67925071D01*
X36766358Y-67853643D01*
X36837786Y-67782214D01*
X36909215Y-67639357D01*
X36909215Y-66425071D01*
X37409215Y-66425071D02*
X38266358Y-66425071D01*
X37837787Y-67925071D02*
X37837787Y-66425071D01*
X56737786Y-66885357D02*
X57237786Y-66885357D01*
X57452072Y-67671071D02*
X56737786Y-67671071D01*
X56737786Y-66171071D01*
X57452072Y-66171071D01*
X57952072Y-66171071D02*
X58952072Y-67671071D01*
X58952072Y-66171071D02*
X57952072Y-67671071D01*
X59309214Y-66171071D02*
X60166357Y-66171071D01*
X59737786Y-67671071D02*
X59737786Y-66171071D01*
X60309214Y-67813929D02*
X61452071Y-67813929D01*
X62666357Y-67528214D02*
X62594928Y-67599643D01*
X62380642Y-67671071D01*
X62237785Y-67671071D01*
X62023500Y-67599643D01*
X61880642Y-67456786D01*
X61809214Y-67313929D01*
X61737785Y-67028214D01*
X61737785Y-66813929D01*
X61809214Y-66528214D01*
X61880642Y-66385357D01*
X62023500Y-66242500D01*
X62237785Y-66171071D01*
X62380642Y-66171071D01*
X62594928Y-66242500D01*
X62666357Y-66313929D01*
X64023500Y-67671071D02*
X63309214Y-67671071D01*
X63309214Y-66171071D01*
X64523500Y-67671071D02*
X64523500Y-66171071D01*
X65380643Y-67671071D02*
X64737786Y-66813929D01*
X65380643Y-66171071D02*
X64523500Y-67028214D01*
D12*
X52610000Y-17560000D02*
X43910000Y-17560000D01*
X52610000Y-23970000D02*
X43910000Y-23970000D01*
X43910000Y-23970000D02*
X43910000Y-17560000D01*
X43910000Y-18790000D02*
X52610000Y-18790000D01*
X52610000Y-17560000D02*
X52610000Y-23970000D01*
X55175507Y-27721177D02*
X54468400Y-27014070D01*
X53266319Y-28216151D02*
X53973426Y-28923258D01*
X56499211Y-31449043D02*
X57206318Y-32156150D01*
X58408399Y-30954069D02*
X57701292Y-30246962D01*
X35361500Y-19343000D02*
X34361500Y-19343000D01*
X34361500Y-21043000D02*
X35361500Y-21043000D01*
X38456500Y-20899500D02*
X38456500Y-21899500D01*
X40156500Y-21899500D02*
X40156500Y-20899500D01*
X47823500Y-54253500D02*
X48823500Y-54253500D01*
X48823500Y-52553500D02*
X47823500Y-52553500D01*
X53586000Y-62142000D02*
X52586000Y-62142000D01*
X52586000Y-63842000D02*
X53586000Y-63842000D01*
X53586000Y-60237000D02*
X52586000Y-60237000D01*
X52586000Y-61937000D02*
X53586000Y-61937000D01*
X53586000Y-63793000D02*
X52586000Y-63793000D01*
X52586000Y-65493000D02*
X53586000Y-65493000D01*
X50554000Y-67271000D02*
X51554000Y-67271000D01*
X51554000Y-65571000D02*
X50554000Y-65571000D01*
X41490000Y-64254000D02*
X41490000Y-63254000D01*
X39790000Y-63254000D02*
X39790000Y-64254000D01*
X56397784Y-20617386D02*
X55397784Y-20617386D01*
X55397784Y-22317386D02*
X56397784Y-22317386D01*
X56397783Y-22522386D02*
X55397783Y-22522386D01*
X55397783Y-24222386D02*
X56397783Y-24222386D01*
X34816728Y-33640583D02*
X35816728Y-33640583D01*
X35816728Y-31940583D02*
X34816728Y-31940583D01*
X34816728Y-35436634D02*
X35816728Y-35436634D01*
X35816728Y-33736634D02*
X34816728Y-33736634D01*
X59628594Y-43758013D02*
X58921487Y-43050906D01*
X57719406Y-44252987D02*
X58426513Y-44960094D01*
X39265000Y-48134500D02*
X39265000Y-46734500D01*
X39265000Y-46734500D02*
X36465000Y-46734500D01*
X39265000Y-48134500D02*
X36465000Y-48134500D01*
X39265000Y-51627000D02*
X39265000Y-50227000D01*
X39265000Y-50227000D02*
X36465000Y-50227000D01*
X39265000Y-51627000D02*
X36465000Y-51627000D01*
X39265000Y-49849000D02*
X39265000Y-48449000D01*
X39265000Y-48449000D02*
X36465000Y-48449000D01*
X39265000Y-49849000D02*
X36465000Y-49849000D01*
X59960000Y-58930000D02*
X61960000Y-58930000D01*
X59960000Y-65530000D02*
X61960000Y-65530000D01*
X64260000Y-61230000D02*
X64260000Y-63230000D01*
X57660000Y-61230000D02*
X57660000Y-63230000D01*
X34560000Y-59184000D02*
X36560000Y-59184000D01*
X34560000Y-65784000D02*
X36560000Y-65784000D01*
X38860000Y-61484000D02*
X38860000Y-63484000D01*
X32260000Y-61484000D02*
X32260000Y-63484000D01*
X71053000Y-53848000D02*
X71053000Y-33468000D01*
X71053000Y-33468000D02*
X65853000Y-33468000D01*
X65853000Y-33468000D02*
X65853000Y-56448000D01*
X65853000Y-56448000D02*
X68453000Y-56448000D01*
X68453000Y-56448000D02*
X68453000Y-53848000D01*
X68453000Y-53848000D02*
X71053000Y-53848000D01*
X71053000Y-55118000D02*
X71053000Y-56448000D01*
X71053000Y-56448000D02*
X69723000Y-56448000D01*
X55245000Y-57591000D02*
X60385000Y-57591000D01*
X60385000Y-57591000D02*
X60385000Y-54931000D01*
X60385000Y-54931000D02*
X55245000Y-54931000D01*
X55245000Y-54931000D02*
X55245000Y-57591000D01*
X53975000Y-57591000D02*
X52645000Y-57591000D01*
X52645000Y-57591000D02*
X52645000Y-56261000D01*
X55297784Y-18682387D02*
X56497784Y-18682387D01*
X56497784Y-20442387D02*
X55297784Y-20442387D01*
X35902200Y-31766400D02*
X34702200Y-31766400D01*
X34702200Y-30006400D02*
X35902200Y-30006400D01*
X63365000Y-57957000D02*
X62365000Y-57957000D01*
X62365000Y-56597000D02*
X63365000Y-56597000D01*
X32547000Y-46491000D02*
X33747000Y-46491000D01*
X33747000Y-48251000D02*
X32547000Y-48251000D01*
X32547000Y-50047000D02*
X33747000Y-50047000D01*
X33747000Y-51807000D02*
X32547000Y-51807000D01*
X32547000Y-48269000D02*
X33747000Y-48269000D01*
X33747000Y-50029000D02*
X32547000Y-50029000D01*
X64337519Y-31597991D02*
X64337519Y-30397991D01*
X66097519Y-30397991D02*
X66097519Y-31597991D01*
X60745416Y-31597991D02*
X60745416Y-30397991D01*
X62505416Y-30397991D02*
X62505416Y-31597991D01*
X62541467Y-31597991D02*
X62541467Y-30397991D01*
X64301467Y-30397991D02*
X64301467Y-31597991D01*
X59655000Y-38472000D02*
X58455000Y-38472000D01*
X58455000Y-36712000D02*
X59655000Y-36712000D01*
X40266490Y-38386982D02*
X41115018Y-39235510D01*
X39870510Y-40480018D02*
X39021982Y-39631490D01*
X47084018Y-35186490D02*
X46235490Y-36035018D01*
X44990982Y-34790510D02*
X45839510Y-33941982D01*
X31578500Y-27437000D02*
X32838500Y-27437000D01*
X38398500Y-27437000D02*
X37138500Y-27437000D01*
X31578500Y-23677000D02*
X31578500Y-27437000D01*
X38398500Y-21427000D02*
X38398500Y-27437000D01*
X64922000Y-37205500D02*
X64922000Y-35405500D01*
X61702000Y-35405500D02*
X61702000Y-38355500D01*
D13*
X51010000Y-64500000D02*
G75*
G03X51010000Y-64500000I-250000J0D01*
G01*
X48260000Y-36369445D02*
X47552893Y-37076552D01*
X55578555Y-43688000D02*
X54818415Y-44448140D01*
X48260000Y-51006555D02*
X49020140Y-50246415D01*
X40941445Y-43688000D02*
X41701585Y-42927860D01*
X48260000Y-36369445D02*
X49020140Y-37129585D01*
X40941445Y-43688000D02*
X41701585Y-44448140D01*
X48260000Y-51006555D02*
X47499860Y-50246415D01*
X55578555Y-43688000D02*
X54818415Y-42927860D01*
X47552893Y-37076552D02*
X46828109Y-36351767D01*
D12*
X57180862Y-32154736D02*
X52054337Y-27028212D01*
X52054337Y-27028212D02*
X49508753Y-29573796D01*
X49508753Y-29573796D02*
X54635277Y-34700321D01*
X50575500Y-54431500D02*
X46325500Y-54431500D01*
X46325500Y-54431500D02*
X46325500Y-59531500D01*
D13*
X27150000Y-29845000D02*
G75*
G03X27150000Y-29845000I-1750000J0D01*
G01*
X27150000Y-34290000D02*
G75*
G03X27150000Y-34290000I-1750000J0D01*
G01*
X27150000Y-38735000D02*
G75*
G03X27150000Y-38735000I-1750000J0D01*
G01*
X37310000Y-55753000D02*
G75*
G03X37310000Y-55753000I-1750000J0D01*
G01*
X47926667Y-24282381D02*
X47926667Y-24996667D01*
X47879047Y-25139524D01*
X47783809Y-25234762D01*
X47640952Y-25282381D01*
X47545714Y-25282381D01*
X48926667Y-25282381D02*
X48355238Y-25282381D01*
X48640952Y-25282381D02*
X48640952Y-24282381D01*
X48545714Y-24425238D01*
X48450476Y-24520476D01*
X48355238Y-24568095D01*
X55087961Y-26865915D02*
X55020618Y-26865915D01*
X54885931Y-26798571D01*
X54818587Y-26731228D01*
X54751243Y-26596540D01*
X54751243Y-26461853D01*
X54784915Y-26360838D01*
X54885930Y-26192480D01*
X54986946Y-26091464D01*
X55155305Y-25990449D01*
X55256320Y-25956777D01*
X55391007Y-25956777D01*
X55525694Y-26024121D01*
X55593038Y-26091464D01*
X55660381Y-26226151D01*
X55660381Y-26293495D01*
X55694053Y-27606693D02*
X55289991Y-27202632D01*
X55492022Y-27404662D02*
X56199128Y-26697555D01*
X56030770Y-26731227D01*
X55896083Y-26731227D01*
X55795068Y-26697555D01*
X58240111Y-30233688D02*
X58172768Y-30233688D01*
X58038081Y-30166344D01*
X57970737Y-30099001D01*
X57903393Y-29964313D01*
X57903393Y-29829626D01*
X57937065Y-29728611D01*
X58038080Y-29560253D01*
X58139096Y-29459237D01*
X58307455Y-29358222D01*
X58408470Y-29324550D01*
X58543157Y-29324550D01*
X58677844Y-29391894D01*
X58745188Y-29459237D01*
X58812531Y-29593924D01*
X58812531Y-29661268D01*
X59081905Y-29930641D02*
X59149248Y-29930641D01*
X59250263Y-29964313D01*
X59418623Y-30132672D01*
X59452294Y-30233688D01*
X59452294Y-30301031D01*
X59418623Y-30402046D01*
X59351279Y-30469390D01*
X59216592Y-30536733D01*
X58408470Y-30536733D01*
X58846203Y-30974466D01*
X34694834Y-18962643D02*
X34647215Y-19010262D01*
X34504358Y-19057881D01*
X34409120Y-19057881D01*
X34266262Y-19010262D01*
X34171024Y-18915024D01*
X34123405Y-18819786D01*
X34075786Y-18629310D01*
X34075786Y-18486452D01*
X34123405Y-18295976D01*
X34171024Y-18200738D01*
X34266262Y-18105500D01*
X34409120Y-18057881D01*
X34504358Y-18057881D01*
X34647215Y-18105500D01*
X34694834Y-18153119D01*
X35028167Y-18057881D02*
X35647215Y-18057881D01*
X35313881Y-18438833D01*
X35456739Y-18438833D01*
X35551977Y-18486452D01*
X35599596Y-18534071D01*
X35647215Y-18629310D01*
X35647215Y-18867405D01*
X35599596Y-18962643D01*
X35551977Y-19010262D01*
X35456739Y-19057881D01*
X35171024Y-19057881D01*
X35075786Y-19010262D01*
X35028167Y-18962643D01*
X41108334Y-21756643D02*
X41060715Y-21804262D01*
X40917858Y-21851881D01*
X40822620Y-21851881D01*
X40679762Y-21804262D01*
X40584524Y-21709024D01*
X40536905Y-21613786D01*
X40489286Y-21423310D01*
X40489286Y-21280452D01*
X40536905Y-21089976D01*
X40584524Y-20994738D01*
X40679762Y-20899500D01*
X40822620Y-20851881D01*
X40917858Y-20851881D01*
X41060715Y-20899500D01*
X41108334Y-20947119D01*
X41965477Y-21185214D02*
X41965477Y-21851881D01*
X41727381Y-20804262D02*
X41489286Y-21518548D01*
X42108334Y-21518548D01*
X45108834Y-53760643D02*
X45061215Y-53808262D01*
X44918358Y-53855881D01*
X44823120Y-53855881D01*
X44680262Y-53808262D01*
X44585024Y-53713024D01*
X44537405Y-53617786D01*
X44489786Y-53427310D01*
X44489786Y-53284452D01*
X44537405Y-53093976D01*
X44585024Y-52998738D01*
X44680262Y-52903500D01*
X44823120Y-52855881D01*
X44918358Y-52855881D01*
X45061215Y-52903500D01*
X45108834Y-52951119D01*
X46013596Y-52855881D02*
X45537405Y-52855881D01*
X45489786Y-53332071D01*
X45537405Y-53284452D01*
X45632643Y-53236833D01*
X45870739Y-53236833D01*
X45965977Y-53284452D01*
X46013596Y-53332071D01*
X46061215Y-53427310D01*
X46061215Y-53665405D01*
X46013596Y-53760643D01*
X45965977Y-53808262D01*
X45870739Y-53855881D01*
X45632643Y-53855881D01*
X45537405Y-53808262D01*
X45489786Y-53760643D01*
X55872143Y-63412643D02*
X55824524Y-63460262D01*
X55681667Y-63507881D01*
X55586429Y-63507881D01*
X55443571Y-63460262D01*
X55348333Y-63365024D01*
X55300714Y-63269786D01*
X55253095Y-63079310D01*
X55253095Y-62936452D01*
X55300714Y-62745976D01*
X55348333Y-62650738D01*
X55443571Y-62555500D01*
X55586429Y-62507881D01*
X55681667Y-62507881D01*
X55824524Y-62555500D01*
X55872143Y-62603119D01*
X56824524Y-63507881D02*
X56253095Y-63507881D01*
X56538809Y-63507881D02*
X56538809Y-62507881D01*
X56443571Y-62650738D01*
X56348333Y-62745976D01*
X56253095Y-62793595D01*
X57681667Y-62841214D02*
X57681667Y-63507881D01*
X57443571Y-62460262D02*
X57205476Y-63174548D01*
X57824524Y-63174548D01*
X52443143Y-59920143D02*
X52395524Y-59967762D01*
X52252667Y-60015381D01*
X52157429Y-60015381D01*
X52014571Y-59967762D01*
X51919333Y-59872524D01*
X51871714Y-59777286D01*
X51824095Y-59586810D01*
X51824095Y-59443952D01*
X51871714Y-59253476D01*
X51919333Y-59158238D01*
X52014571Y-59063000D01*
X52157429Y-59015381D01*
X52252667Y-59015381D01*
X52395524Y-59063000D01*
X52443143Y-59110619D01*
X53395524Y-60015381D02*
X52824095Y-60015381D01*
X53109809Y-60015381D02*
X53109809Y-59015381D01*
X53014571Y-59158238D01*
X52919333Y-59253476D01*
X52824095Y-59301095D01*
X54300286Y-59015381D02*
X53824095Y-59015381D01*
X53776476Y-59491571D01*
X53824095Y-59443952D01*
X53919333Y-59396333D01*
X54157429Y-59396333D01*
X54252667Y-59443952D01*
X54300286Y-59491571D01*
X54347905Y-59586810D01*
X54347905Y-59824905D01*
X54300286Y-59920143D01*
X54252667Y-59967762D01*
X54157429Y-60015381D01*
X53919333Y-60015381D01*
X53824095Y-59967762D01*
X53776476Y-59920143D01*
X54411643Y-66397143D02*
X54364024Y-66444762D01*
X54221167Y-66492381D01*
X54125929Y-66492381D01*
X53983071Y-66444762D01*
X53887833Y-66349524D01*
X53840214Y-66254286D01*
X53792595Y-66063810D01*
X53792595Y-65920952D01*
X53840214Y-65730476D01*
X53887833Y-65635238D01*
X53983071Y-65540000D01*
X54125929Y-65492381D01*
X54221167Y-65492381D01*
X54364024Y-65540000D01*
X54411643Y-65587619D01*
X55364024Y-66492381D02*
X54792595Y-66492381D01*
X55078309Y-66492381D02*
X55078309Y-65492381D01*
X54983071Y-65635238D01*
X54887833Y-65730476D01*
X54792595Y-65778095D01*
X56221167Y-65492381D02*
X56030690Y-65492381D01*
X55935452Y-65540000D01*
X55887833Y-65587619D01*
X55792595Y-65730476D01*
X55744976Y-65920952D01*
X55744976Y-66301905D01*
X55792595Y-66397143D01*
X55840214Y-66444762D01*
X55935452Y-66492381D01*
X56125929Y-66492381D01*
X56221167Y-66444762D01*
X56268786Y-66397143D01*
X56316405Y-66301905D01*
X56316405Y-66063810D01*
X56268786Y-65968571D01*
X56221167Y-65920952D01*
X56125929Y-65873333D01*
X55935452Y-65873333D01*
X55840214Y-65920952D01*
X55792595Y-65968571D01*
X55744976Y-66063810D01*
X48379143Y-68175143D02*
X48331524Y-68222762D01*
X48188667Y-68270381D01*
X48093429Y-68270381D01*
X47950571Y-68222762D01*
X47855333Y-68127524D01*
X47807714Y-68032286D01*
X47760095Y-67841810D01*
X47760095Y-67698952D01*
X47807714Y-67508476D01*
X47855333Y-67413238D01*
X47950571Y-67318000D01*
X48093429Y-67270381D01*
X48188667Y-67270381D01*
X48331524Y-67318000D01*
X48379143Y-67365619D01*
X49331524Y-68270381D02*
X48760095Y-68270381D01*
X49045809Y-68270381D02*
X49045809Y-67270381D01*
X48950571Y-67413238D01*
X48855333Y-67508476D01*
X48760095Y-67556095D01*
X49664857Y-67270381D02*
X50331524Y-67270381D01*
X49902952Y-68270381D01*
X39997143Y-67032143D02*
X39949524Y-67079762D01*
X39806667Y-67127381D01*
X39711429Y-67127381D01*
X39568571Y-67079762D01*
X39473333Y-66984524D01*
X39425714Y-66889286D01*
X39378095Y-66698810D01*
X39378095Y-66555952D01*
X39425714Y-66365476D01*
X39473333Y-66270238D01*
X39568571Y-66175000D01*
X39711429Y-66127381D01*
X39806667Y-66127381D01*
X39949524Y-66175000D01*
X39997143Y-66222619D01*
X40949524Y-67127381D02*
X40378095Y-67127381D01*
X40663809Y-67127381D02*
X40663809Y-66127381D01*
X40568571Y-66270238D01*
X40473333Y-66365476D01*
X40378095Y-66413095D01*
X41520952Y-66555952D02*
X41425714Y-66508333D01*
X41378095Y-66460714D01*
X41330476Y-66365476D01*
X41330476Y-66317857D01*
X41378095Y-66222619D01*
X41425714Y-66175000D01*
X41520952Y-66127381D01*
X41711429Y-66127381D01*
X41806667Y-66175000D01*
X41854286Y-66222619D01*
X41901905Y-66317857D01*
X41901905Y-66365476D01*
X41854286Y-66460714D01*
X41806667Y-66508333D01*
X41711429Y-66555952D01*
X41520952Y-66555952D01*
X41425714Y-66603571D01*
X41378095Y-66651190D01*
X41330476Y-66746429D01*
X41330476Y-66936905D01*
X41378095Y-67032143D01*
X41425714Y-67079762D01*
X41520952Y-67127381D01*
X41711429Y-67127381D01*
X41806667Y-67079762D01*
X41854286Y-67032143D01*
X41901905Y-66936905D01*
X41901905Y-66746429D01*
X41854286Y-66651190D01*
X41806667Y-66603571D01*
X41711429Y-66555952D01*
X58666143Y-21883643D02*
X58618524Y-21931262D01*
X58475667Y-21978881D01*
X58380429Y-21978881D01*
X58237571Y-21931262D01*
X58142333Y-21836024D01*
X58094714Y-21740786D01*
X58047095Y-21550310D01*
X58047095Y-21407452D01*
X58094714Y-21216976D01*
X58142333Y-21121738D01*
X58237571Y-21026500D01*
X58380429Y-20978881D01*
X58475667Y-20978881D01*
X58618524Y-21026500D01*
X58666143Y-21074119D01*
X59618524Y-21978881D02*
X59047095Y-21978881D01*
X59332809Y-21978881D02*
X59332809Y-20978881D01*
X59237571Y-21121738D01*
X59142333Y-21216976D01*
X59047095Y-21264595D01*
X60094714Y-21978881D02*
X60285190Y-21978881D01*
X60380429Y-21931262D01*
X60428048Y-21883643D01*
X60523286Y-21740786D01*
X60570905Y-21550310D01*
X60570905Y-21169357D01*
X60523286Y-21074119D01*
X60475667Y-21026500D01*
X60380429Y-20978881D01*
X60189952Y-20978881D01*
X60094714Y-21026500D01*
X60047095Y-21074119D01*
X59999476Y-21169357D01*
X59999476Y-21407452D01*
X60047095Y-21502690D01*
X60094714Y-21550310D01*
X60189952Y-21597929D01*
X60380429Y-21597929D01*
X60475667Y-21550310D01*
X60523286Y-21502690D01*
X60570905Y-21407452D01*
X58666143Y-23788643D02*
X58618524Y-23836262D01*
X58475667Y-23883881D01*
X58380429Y-23883881D01*
X58237571Y-23836262D01*
X58142333Y-23741024D01*
X58094714Y-23645786D01*
X58047095Y-23455310D01*
X58047095Y-23312452D01*
X58094714Y-23121976D01*
X58142333Y-23026738D01*
X58237571Y-22931500D01*
X58380429Y-22883881D01*
X58475667Y-22883881D01*
X58618524Y-22931500D01*
X58666143Y-22979119D01*
X59047095Y-22979119D02*
X59094714Y-22931500D01*
X59189952Y-22883881D01*
X59428048Y-22883881D01*
X59523286Y-22931500D01*
X59570905Y-22979119D01*
X59618524Y-23074357D01*
X59618524Y-23169595D01*
X59570905Y-23312452D01*
X58999476Y-23883881D01*
X59618524Y-23883881D01*
X60237571Y-22883881D02*
X60332810Y-22883881D01*
X60428048Y-22931500D01*
X60475667Y-22979119D01*
X60523286Y-23074357D01*
X60570905Y-23264833D01*
X60570905Y-23502929D01*
X60523286Y-23693405D01*
X60475667Y-23788643D01*
X60428048Y-23836262D01*
X60332810Y-23883881D01*
X60237571Y-23883881D01*
X60142333Y-23836262D01*
X60094714Y-23788643D01*
X60047095Y-23693405D01*
X59999476Y-23502929D01*
X59999476Y-23264833D01*
X60047095Y-23074357D01*
X60094714Y-22979119D01*
X60142333Y-22931500D01*
X60237571Y-22883881D01*
X38219143Y-33186643D02*
X38171524Y-33234262D01*
X38028667Y-33281881D01*
X37933429Y-33281881D01*
X37790571Y-33234262D01*
X37695333Y-33139024D01*
X37647714Y-33043786D01*
X37600095Y-32853310D01*
X37600095Y-32710452D01*
X37647714Y-32519976D01*
X37695333Y-32424738D01*
X37790571Y-32329500D01*
X37933429Y-32281881D01*
X38028667Y-32281881D01*
X38171524Y-32329500D01*
X38219143Y-32377119D01*
X38600095Y-32377119D02*
X38647714Y-32329500D01*
X38742952Y-32281881D01*
X38981048Y-32281881D01*
X39076286Y-32329500D01*
X39123905Y-32377119D01*
X39171524Y-32472357D01*
X39171524Y-32567595D01*
X39123905Y-32710452D01*
X38552476Y-33281881D01*
X39171524Y-33281881D01*
X40123905Y-33281881D02*
X39552476Y-33281881D01*
X39838190Y-33281881D02*
X39838190Y-32281881D01*
X39742952Y-32424738D01*
X39647714Y-32519976D01*
X39552476Y-32567595D01*
X38155643Y-34964643D02*
X38108024Y-35012262D01*
X37965167Y-35059881D01*
X37869929Y-35059881D01*
X37727071Y-35012262D01*
X37631833Y-34917024D01*
X37584214Y-34821786D01*
X37536595Y-34631310D01*
X37536595Y-34488452D01*
X37584214Y-34297976D01*
X37631833Y-34202738D01*
X37727071Y-34107500D01*
X37869929Y-34059881D01*
X37965167Y-34059881D01*
X38108024Y-34107500D01*
X38155643Y-34155119D01*
X38536595Y-34155119D02*
X38584214Y-34107500D01*
X38679452Y-34059881D01*
X38917548Y-34059881D01*
X39012786Y-34107500D01*
X39060405Y-34155119D01*
X39108024Y-34250357D01*
X39108024Y-34345595D01*
X39060405Y-34488452D01*
X38488976Y-35059881D01*
X39108024Y-35059881D01*
X39488976Y-34155119D02*
X39536595Y-34107500D01*
X39631833Y-34059881D01*
X39869929Y-34059881D01*
X39965167Y-34107500D01*
X40012786Y-34155119D01*
X40060405Y-34250357D01*
X40060405Y-34345595D01*
X40012786Y-34488452D01*
X39441357Y-35059881D01*
X40060405Y-35059881D01*
X59204330Y-42566033D02*
X59136987Y-42566033D01*
X59002300Y-42498689D01*
X58934956Y-42431346D01*
X58867612Y-42296658D01*
X58867612Y-42161971D01*
X58901284Y-42060956D01*
X59002299Y-41892598D01*
X59103315Y-41791582D01*
X59271674Y-41690567D01*
X59372689Y-41656895D01*
X59507376Y-41656895D01*
X59642063Y-41724239D01*
X59709407Y-41791582D01*
X59776750Y-41926269D01*
X59776750Y-41993613D01*
X60046124Y-42262987D02*
X60113467Y-42262987D01*
X60214482Y-42296658D01*
X60382842Y-42465018D01*
X60416513Y-42566033D01*
X60416513Y-42633376D01*
X60382842Y-42734391D01*
X60315498Y-42801735D01*
X60180811Y-42869078D01*
X59372689Y-42869078D01*
X59810422Y-43306811D01*
X60753231Y-42835406D02*
X61190964Y-43273139D01*
X60685887Y-43306810D01*
X60786903Y-43407826D01*
X60820575Y-43508841D01*
X60820575Y-43576185D01*
X60786902Y-43677201D01*
X60618544Y-43845559D01*
X60517529Y-43879231D01*
X60450185Y-43879231D01*
X60349170Y-43845559D01*
X60147139Y-43643528D01*
X60113467Y-43542513D01*
X60113467Y-43475170D01*
X39457405Y-47950381D02*
X39457405Y-46950381D01*
X39695500Y-46950381D01*
X39838358Y-46998000D01*
X39933596Y-47093238D01*
X39981215Y-47188476D01*
X40028834Y-47378952D01*
X40028834Y-47521810D01*
X39981215Y-47712286D01*
X39933596Y-47807524D01*
X39838358Y-47902762D01*
X39695500Y-47950381D01*
X39457405Y-47950381D01*
X40981215Y-47950381D02*
X40409786Y-47950381D01*
X40695500Y-47950381D02*
X40695500Y-46950381D01*
X40600262Y-47093238D01*
X40505024Y-47188476D01*
X40409786Y-47236095D01*
X39520905Y-51379381D02*
X39520905Y-50379381D01*
X39759000Y-50379381D01*
X39901858Y-50427000D01*
X39997096Y-50522238D01*
X40044715Y-50617476D01*
X40092334Y-50807952D01*
X40092334Y-50950810D01*
X40044715Y-51141286D01*
X39997096Y-51236524D01*
X39901858Y-51331762D01*
X39759000Y-51379381D01*
X39520905Y-51379381D01*
X40473286Y-50474619D02*
X40520905Y-50427000D01*
X40616143Y-50379381D01*
X40854239Y-50379381D01*
X40949477Y-50427000D01*
X40997096Y-50474619D01*
X41044715Y-50569857D01*
X41044715Y-50665095D01*
X40997096Y-50807952D01*
X40425667Y-51379381D01*
X41044715Y-51379381D01*
X39457405Y-49664881D02*
X39457405Y-48664881D01*
X39695500Y-48664881D01*
X39838358Y-48712500D01*
X39933596Y-48807738D01*
X39981215Y-48902976D01*
X40028834Y-49093452D01*
X40028834Y-49236310D01*
X39981215Y-49426786D01*
X39933596Y-49522024D01*
X39838358Y-49617262D01*
X39695500Y-49664881D01*
X39457405Y-49664881D01*
X40362167Y-48664881D02*
X40981215Y-48664881D01*
X40647881Y-49045833D01*
X40790739Y-49045833D01*
X40885977Y-49093452D01*
X40933596Y-49141071D01*
X40981215Y-49236310D01*
X40981215Y-49474405D01*
X40933596Y-49569643D01*
X40885977Y-49617262D01*
X40790739Y-49664881D01*
X40505024Y-49664881D01*
X40409786Y-49617262D01*
X40362167Y-49569643D01*
X65706667Y-58507381D02*
X65706667Y-59221667D01*
X65659047Y-59364524D01*
X65563809Y-59459762D01*
X65420952Y-59507381D01*
X65325714Y-59507381D01*
X66135238Y-58602619D02*
X66182857Y-58555000D01*
X66278095Y-58507381D01*
X66516191Y-58507381D01*
X66611429Y-58555000D01*
X66659048Y-58602619D01*
X66706667Y-58697857D01*
X66706667Y-58793095D01*
X66659048Y-58935952D01*
X66087619Y-59507381D01*
X66706667Y-59507381D01*
X39735167Y-58253381D02*
X39735167Y-58967667D01*
X39687547Y-59110524D01*
X39592309Y-59205762D01*
X39449452Y-59253381D01*
X39354214Y-59253381D01*
X40116119Y-58253381D02*
X40735167Y-58253381D01*
X40401833Y-58634333D01*
X40544691Y-58634333D01*
X40639929Y-58681952D01*
X40687548Y-58729571D01*
X40735167Y-58824810D01*
X40735167Y-59062905D01*
X40687548Y-59158143D01*
X40639929Y-59205762D01*
X40544691Y-59253381D01*
X40258976Y-59253381D01*
X40163738Y-59205762D01*
X40116119Y-59158143D01*
X69516667Y-32027881D02*
X69516667Y-32742167D01*
X69469047Y-32885024D01*
X69373809Y-32980262D01*
X69230952Y-33027881D01*
X69135714Y-33027881D01*
X70421429Y-32361214D02*
X70421429Y-33027881D01*
X70183333Y-31980262D02*
X69945238Y-32694548D01*
X70564286Y-32694548D01*
X61142667Y-54316381D02*
X61142667Y-55030667D01*
X61095047Y-55173524D01*
X60999809Y-55268762D01*
X60856952Y-55316381D01*
X60761714Y-55316381D01*
X61618857Y-55316381D02*
X61618857Y-54316381D01*
X61999810Y-54316381D01*
X62095048Y-54364000D01*
X62142667Y-54411619D01*
X62190286Y-54506857D01*
X62190286Y-54649714D01*
X62142667Y-54744952D01*
X62095048Y-54792571D01*
X61999810Y-54840190D01*
X61618857Y-54840190D01*
X63142667Y-55316381D02*
X62571238Y-55316381D01*
X62856952Y-55316381D02*
X62856952Y-54316381D01*
X62761714Y-54459238D01*
X62666476Y-54554476D01*
X62571238Y-54602095D01*
X58697834Y-20073881D02*
X58221643Y-20073881D01*
X58221643Y-19073881D01*
X59554977Y-20073881D02*
X58983548Y-20073881D01*
X59269262Y-20073881D02*
X59269262Y-19073881D01*
X59174024Y-19216738D01*
X59078786Y-19311976D01*
X58983548Y-19359595D01*
X38123834Y-31376881D02*
X37647643Y-31376881D01*
X37647643Y-30376881D01*
X38409548Y-30472119D02*
X38457167Y-30424500D01*
X38552405Y-30376881D01*
X38790501Y-30376881D01*
X38885739Y-30424500D01*
X38933358Y-30472119D01*
X38980977Y-30567357D01*
X38980977Y-30662595D01*
X38933358Y-30805452D01*
X38361929Y-31376881D01*
X38980977Y-31376881D01*
X65408334Y-57729381D02*
X65075000Y-57253190D01*
X64836905Y-57729381D02*
X64836905Y-56729381D01*
X65217858Y-56729381D01*
X65313096Y-56777000D01*
X65360715Y-56824619D01*
X65408334Y-56919857D01*
X65408334Y-57062714D01*
X65360715Y-57157952D01*
X65313096Y-57205571D01*
X65217858Y-57253190D01*
X64836905Y-57253190D01*
X66360715Y-57729381D02*
X65789286Y-57729381D01*
X66075000Y-57729381D02*
X66075000Y-56729381D01*
X65979762Y-56872238D01*
X65884524Y-56967476D01*
X65789286Y-57015095D01*
X32980334Y-46235881D02*
X32647000Y-45759690D01*
X32408905Y-46235881D02*
X32408905Y-45235881D01*
X32789858Y-45235881D01*
X32885096Y-45283500D01*
X32932715Y-45331119D01*
X32980334Y-45426357D01*
X32980334Y-45569214D01*
X32932715Y-45664452D01*
X32885096Y-45712071D01*
X32789858Y-45759690D01*
X32408905Y-45759690D01*
X33361286Y-45331119D02*
X33408905Y-45283500D01*
X33504143Y-45235881D01*
X33742239Y-45235881D01*
X33837477Y-45283500D01*
X33885096Y-45331119D01*
X33932715Y-45426357D01*
X33932715Y-45521595D01*
X33885096Y-45664452D01*
X33313667Y-46235881D01*
X33932715Y-46235881D01*
X32980334Y-53079381D02*
X32647000Y-52603190D01*
X32408905Y-53079381D02*
X32408905Y-52079381D01*
X32789858Y-52079381D01*
X32885096Y-52127000D01*
X32932715Y-52174619D01*
X32980334Y-52269857D01*
X32980334Y-52412714D01*
X32932715Y-52507952D01*
X32885096Y-52555571D01*
X32789858Y-52603190D01*
X32408905Y-52603190D01*
X33313667Y-52079381D02*
X33932715Y-52079381D01*
X33599381Y-52460333D01*
X33742239Y-52460333D01*
X33837477Y-52507952D01*
X33885096Y-52555571D01*
X33932715Y-52650810D01*
X33932715Y-52888905D01*
X33885096Y-52984143D01*
X33837477Y-53031762D01*
X33742239Y-53079381D01*
X33456524Y-53079381D01*
X33361286Y-53031762D01*
X33313667Y-52984143D01*
X33662881Y-49379166D02*
X33186690Y-49712500D01*
X33662881Y-49950595D02*
X32662881Y-49950595D01*
X32662881Y-49569642D01*
X32710500Y-49474404D01*
X32758119Y-49426785D01*
X32853357Y-49379166D01*
X32996214Y-49379166D01*
X33091452Y-49426785D01*
X33139071Y-49474404D01*
X33186690Y-49569642D01*
X33186690Y-49950595D01*
X32996214Y-48522023D02*
X33662881Y-48522023D01*
X32615262Y-48760119D02*
X33329548Y-48998214D01*
X33329548Y-48379166D01*
X65238334Y-28582881D02*
X64905000Y-28106690D01*
X64666905Y-28582881D02*
X64666905Y-27582881D01*
X65047858Y-27582881D01*
X65143096Y-27630500D01*
X65190715Y-27678119D01*
X65238334Y-27773357D01*
X65238334Y-27916214D01*
X65190715Y-28011452D01*
X65143096Y-28059071D01*
X65047858Y-28106690D01*
X64666905Y-28106690D01*
X66143096Y-27582881D02*
X65666905Y-27582881D01*
X65619286Y-28059071D01*
X65666905Y-28011452D01*
X65762143Y-27963833D01*
X66000239Y-27963833D01*
X66095477Y-28011452D01*
X66143096Y-28059071D01*
X66190715Y-28154310D01*
X66190715Y-28392405D01*
X66143096Y-28487643D01*
X66095477Y-28535262D01*
X66000239Y-28582881D01*
X65762143Y-28582881D01*
X65666905Y-28535262D01*
X65619286Y-28487643D01*
X61364834Y-28582881D02*
X61031500Y-28106690D01*
X60793405Y-28582881D02*
X60793405Y-27582881D01*
X61174358Y-27582881D01*
X61269596Y-27630500D01*
X61317215Y-27678119D01*
X61364834Y-27773357D01*
X61364834Y-27916214D01*
X61317215Y-28011452D01*
X61269596Y-28059071D01*
X61174358Y-28106690D01*
X60793405Y-28106690D01*
X62221977Y-27582881D02*
X62031500Y-27582881D01*
X61936262Y-27630500D01*
X61888643Y-27678119D01*
X61793405Y-27820976D01*
X61745786Y-28011452D01*
X61745786Y-28392405D01*
X61793405Y-28487643D01*
X61841024Y-28535262D01*
X61936262Y-28582881D01*
X62126739Y-28582881D01*
X62221977Y-28535262D01*
X62269596Y-28487643D01*
X62317215Y-28392405D01*
X62317215Y-28154310D01*
X62269596Y-28059071D01*
X62221977Y-28011452D01*
X62126739Y-27963833D01*
X61936262Y-27963833D01*
X61841024Y-28011452D01*
X61793405Y-28059071D01*
X61745786Y-28154310D01*
X63333334Y-28582881D02*
X63000000Y-28106690D01*
X62761905Y-28582881D02*
X62761905Y-27582881D01*
X63142858Y-27582881D01*
X63238096Y-27630500D01*
X63285715Y-27678119D01*
X63333334Y-27773357D01*
X63333334Y-27916214D01*
X63285715Y-28011452D01*
X63238096Y-28059071D01*
X63142858Y-28106690D01*
X62761905Y-28106690D01*
X63666667Y-27582881D02*
X64333334Y-27582881D01*
X63904762Y-28582881D01*
X58888334Y-36344381D02*
X58555000Y-35868190D01*
X58316905Y-36344381D02*
X58316905Y-35344381D01*
X58697858Y-35344381D01*
X58793096Y-35392000D01*
X58840715Y-35439619D01*
X58888334Y-35534857D01*
X58888334Y-35677714D01*
X58840715Y-35772952D01*
X58793096Y-35820571D01*
X58697858Y-35868190D01*
X58316905Y-35868190D01*
X59459762Y-35772952D02*
X59364524Y-35725333D01*
X59316905Y-35677714D01*
X59269286Y-35582476D01*
X59269286Y-35534857D01*
X59316905Y-35439619D01*
X59364524Y-35392000D01*
X59459762Y-35344381D01*
X59650239Y-35344381D01*
X59745477Y-35392000D01*
X59793096Y-35439619D01*
X59840715Y-35534857D01*
X59840715Y-35582476D01*
X59793096Y-35677714D01*
X59745477Y-35725333D01*
X59650239Y-35772952D01*
X59459762Y-35772952D01*
X59364524Y-35820571D01*
X59316905Y-35868190D01*
X59269286Y-35963429D01*
X59269286Y-36153905D01*
X59316905Y-36249143D01*
X59364524Y-36296762D01*
X59459762Y-36344381D01*
X59650239Y-36344381D01*
X59745477Y-36296762D01*
X59793096Y-36249143D01*
X59840715Y-36153905D01*
X59840715Y-35963429D01*
X59793096Y-35868190D01*
X59745477Y-35820571D01*
X59650239Y-35772952D01*
X38428686Y-40837613D02*
X38529701Y-40265192D01*
X38024624Y-40433552D02*
X38731731Y-39726445D01*
X39001106Y-39995819D01*
X39034777Y-40096835D01*
X39034777Y-40164178D01*
X39001106Y-40265193D01*
X38900090Y-40366208D01*
X38799075Y-40399880D01*
X38731732Y-40399880D01*
X38630717Y-40366208D01*
X38361342Y-40096834D01*
X38765403Y-41174330D02*
X38900090Y-41309017D01*
X39001106Y-41342689D01*
X39068449Y-41342689D01*
X39236808Y-41309018D01*
X39405166Y-41208003D01*
X39674541Y-40938628D01*
X39708212Y-40837613D01*
X39708212Y-40770270D01*
X39674541Y-40669254D01*
X39539853Y-40534567D01*
X39438838Y-40500895D01*
X39371494Y-40500895D01*
X39270479Y-40534567D01*
X39102121Y-40702925D01*
X39068449Y-40803941D01*
X39068448Y-40871285D01*
X39102120Y-40972300D01*
X39236808Y-41106987D01*
X39337823Y-41140659D01*
X39405167Y-41140658D01*
X39506182Y-41106987D01*
X44700731Y-34560868D02*
X44128311Y-34459853D01*
X44296670Y-34964930D02*
X43589563Y-34257823D01*
X43858937Y-33988448D01*
X43959953Y-33954777D01*
X44027296Y-33954777D01*
X44128311Y-33988448D01*
X44229326Y-34089463D01*
X44262998Y-34190479D01*
X44262998Y-34257822D01*
X44229326Y-34358837D01*
X43959952Y-34628212D01*
X45374166Y-33887433D02*
X44970105Y-34291494D01*
X45172135Y-34089464D02*
X44465028Y-33382357D01*
X44498700Y-33550716D01*
X44498700Y-33685403D01*
X44465028Y-33786418D01*
X45104792Y-32742594D02*
X45172136Y-32675250D01*
X45273151Y-32641578D01*
X45340494Y-32641578D01*
X45441510Y-32675250D01*
X45609868Y-32776265D01*
X45778228Y-32944624D01*
X45879243Y-33112983D01*
X45912914Y-33213998D01*
X45912914Y-33281342D01*
X45879243Y-33382357D01*
X45811899Y-33449701D01*
X45710883Y-33483373D01*
X45643540Y-33483373D01*
X45542525Y-33449701D01*
X45374166Y-33348686D01*
X45205807Y-33180326D01*
X45104792Y-33011968D01*
X45071120Y-32910953D01*
X45071120Y-32843609D01*
X45104792Y-32742594D01*
X37211095Y-27963881D02*
X37211095Y-28773405D01*
X37258714Y-28868643D01*
X37306333Y-28916262D01*
X37401571Y-28963881D01*
X37592048Y-28963881D01*
X37687286Y-28916262D01*
X37734905Y-28868643D01*
X37782524Y-28773405D01*
X37782524Y-27963881D01*
X38782524Y-28963881D02*
X38211095Y-28963881D01*
X38496809Y-28963881D02*
X38496809Y-27963881D01*
X38401571Y-28106738D01*
X38306333Y-28201976D01*
X38211095Y-28249595D01*
X62761881Y-40449405D02*
X63571405Y-40449405D01*
X63666643Y-40401786D01*
X63714262Y-40354167D01*
X63761881Y-40258929D01*
X63761881Y-40068452D01*
X63714262Y-39973214D01*
X63666643Y-39925595D01*
X63571405Y-39877976D01*
X62761881Y-39877976D01*
X62857119Y-39449405D02*
X62809500Y-39401786D01*
X62761881Y-39306548D01*
X62761881Y-39068452D01*
X62809500Y-38973214D01*
X62857119Y-38925595D01*
X62952357Y-38877976D01*
X63047595Y-38877976D01*
X63190452Y-38925595D01*
X63761881Y-39497024D01*
X63761881Y-38877976D01*
X46164595Y-64984381D02*
X46164595Y-65793905D01*
X46212214Y-65889143D01*
X46259833Y-65936762D01*
X46355071Y-65984381D01*
X46545548Y-65984381D01*
X46640786Y-65936762D01*
X46688405Y-65889143D01*
X46736024Y-65793905D01*
X46736024Y-64984381D01*
X47116976Y-64984381D02*
X47736024Y-64984381D01*
X47402690Y-65365333D01*
X47545548Y-65365333D01*
X47640786Y-65412952D01*
X47688405Y-65460571D01*
X47736024Y-65555810D01*
X47736024Y-65793905D01*
X47688405Y-65889143D01*
X47640786Y-65936762D01*
X47545548Y-65984381D01*
X47259833Y-65984381D01*
X47164595Y-65936762D01*
X47116976Y-65889143D01*
X53199646Y-37670858D02*
X52627226Y-38243278D01*
X52593554Y-38344293D01*
X52593554Y-38411636D01*
X52627226Y-38512651D01*
X52761914Y-38647339D01*
X52862929Y-38681011D01*
X52930272Y-38681011D01*
X53031287Y-38647339D01*
X53603707Y-38074919D01*
X54007769Y-38950384D02*
X53536364Y-39421789D01*
X54108783Y-38512651D02*
X53435348Y-38849369D01*
X53873081Y-39287102D01*
X48956118Y-28157946D02*
X48619400Y-28494664D01*
X49090805Y-27551855D02*
X48956118Y-28157946D01*
X49562210Y-28023260D01*
X49461195Y-29336458D02*
X49057133Y-28932397D01*
X49259164Y-29134427D02*
X49966271Y-28427320D01*
X49797912Y-28460992D01*
X49663225Y-28460992D01*
X49562210Y-28427320D01*
X47974309Y-60237690D02*
X47974309Y-60713881D01*
X47640976Y-59713881D02*
X47974309Y-60237690D01*
X48307643Y-59713881D01*
X48593357Y-59809119D02*
X48640976Y-59761500D01*
X48736214Y-59713881D01*
X48974310Y-59713881D01*
X49069548Y-59761500D01*
X49117167Y-59809119D01*
X49164786Y-59904357D01*
X49164786Y-59999595D01*
X49117167Y-60142452D01*
X48545738Y-60713881D01*
X49164786Y-60713881D01*
X27059095Y-27646381D02*
X27630524Y-27646381D01*
X27344809Y-28646381D02*
X27344809Y-27646381D01*
X27963857Y-28646381D02*
X27963857Y-27646381D01*
X28344810Y-27646381D01*
X28440048Y-27694000D01*
X28487667Y-27741619D01*
X28535286Y-27836857D01*
X28535286Y-27979714D01*
X28487667Y-28074952D01*
X28440048Y-28122571D01*
X28344810Y-28170190D01*
X27963857Y-28170190D01*
X29487667Y-28646381D02*
X28916238Y-28646381D01*
X29201952Y-28646381D02*
X29201952Y-27646381D01*
X29106714Y-27789238D01*
X29011476Y-27884476D01*
X28916238Y-27932095D01*
X27059095Y-32154881D02*
X27630524Y-32154881D01*
X27344809Y-33154881D02*
X27344809Y-32154881D01*
X27963857Y-33154881D02*
X27963857Y-32154881D01*
X28344810Y-32154881D01*
X28440048Y-32202500D01*
X28487667Y-32250119D01*
X28535286Y-32345357D01*
X28535286Y-32488214D01*
X28487667Y-32583452D01*
X28440048Y-32631071D01*
X28344810Y-32678690D01*
X27963857Y-32678690D01*
X28916238Y-32250119D02*
X28963857Y-32202500D01*
X29059095Y-32154881D01*
X29297191Y-32154881D01*
X29392429Y-32202500D01*
X29440048Y-32250119D01*
X29487667Y-32345357D01*
X29487667Y-32440595D01*
X29440048Y-32583452D01*
X28868619Y-33154881D01*
X29487667Y-33154881D01*
X27059095Y-36599881D02*
X27630524Y-36599881D01*
X27344809Y-37599881D02*
X27344809Y-36599881D01*
X27963857Y-37599881D02*
X27963857Y-36599881D01*
X28344810Y-36599881D01*
X28440048Y-36647500D01*
X28487667Y-36695119D01*
X28535286Y-36790357D01*
X28535286Y-36933214D01*
X28487667Y-37028452D01*
X28440048Y-37076071D01*
X28344810Y-37123690D01*
X27963857Y-37123690D01*
X28868619Y-36599881D02*
X29487667Y-36599881D01*
X29154333Y-36980833D01*
X29297191Y-36980833D01*
X29392429Y-37028452D01*
X29440048Y-37076071D01*
X29487667Y-37171310D01*
X29487667Y-37409405D01*
X29440048Y-37504643D01*
X29392429Y-37552262D01*
X29297191Y-37599881D01*
X29011476Y-37599881D01*
X28916238Y-37552262D01*
X28868619Y-37504643D01*
X31059595Y-55205381D02*
X31631024Y-55205381D01*
X31345309Y-56205381D02*
X31345309Y-55205381D01*
X31964357Y-56205381D02*
X31964357Y-55205381D01*
X32345310Y-55205381D01*
X32440548Y-55253000D01*
X32488167Y-55300619D01*
X32535786Y-55395857D01*
X32535786Y-55538714D01*
X32488167Y-55633952D01*
X32440548Y-55681571D01*
X32345310Y-55729190D01*
X31964357Y-55729190D01*
X33392929Y-55538714D02*
X33392929Y-56205381D01*
X33154833Y-55157762D02*
X32916738Y-55872048D01*
X33535786Y-55872048D01*
%LPC*%
D14*
X49560000Y-22940000D03*
X48910000Y-22940000D03*
X48260000Y-22940000D03*
X47610000Y-22940000D03*
X46960000Y-22940000D03*
D15*
X50760000Y-22940000D03*
X45760000Y-22940000D03*
D16*
X51760000Y-20240000D03*
X44760000Y-20240000D03*
D17*
X69850000Y-64770000D03*
X26670000Y-64770000D03*
X69850000Y-21590000D03*
D10*
G36*
X52364758Y-26996393D02*
X53248642Y-26112509D01*
X54309302Y-27173169D01*
X53425418Y-28057053D01*
X52364758Y-26996393D01*
X52364758Y-26996393D01*
G37*
G36*
X54132524Y-28764159D02*
X55016408Y-27880275D01*
X56077068Y-28940935D01*
X55193184Y-29824819D01*
X54132524Y-28764159D01*
X54132524Y-28764159D01*
G37*
G36*
X59309960Y-32173827D02*
X58426076Y-33057711D01*
X57365416Y-31997051D01*
X58249300Y-31113167D01*
X59309960Y-32173827D01*
X59309960Y-32173827D01*
G37*
G36*
X57542194Y-30406061D02*
X56658310Y-31289945D01*
X55597650Y-30229285D01*
X56481534Y-29345401D01*
X57542194Y-30406061D01*
X57542194Y-30406061D01*
G37*
D18*
X33611500Y-20193000D03*
X36111500Y-20193000D03*
D19*
X39306500Y-22649500D03*
X39306500Y-20149500D03*
D18*
X49573500Y-53403500D03*
X47073500Y-53403500D03*
X51836000Y-62992000D03*
X54336000Y-62992000D03*
X51836000Y-61087000D03*
X54336000Y-61087000D03*
X51836000Y-64643000D03*
X54336000Y-64643000D03*
X52304000Y-66421000D03*
X49804000Y-66421000D03*
D19*
X40640000Y-62504000D03*
X40640000Y-65004000D03*
D18*
X54647784Y-21467386D03*
X57147784Y-21467386D03*
X54647783Y-23372386D03*
X57147783Y-23372386D03*
X36566728Y-32790583D03*
X34066728Y-32790583D03*
X36566728Y-34586634D03*
X34066728Y-34586634D03*
D10*
G36*
X56817845Y-43033229D02*
X57701729Y-42149345D01*
X58762389Y-43210005D01*
X57878505Y-44093889D01*
X56817845Y-43033229D01*
X56817845Y-43033229D01*
G37*
G36*
X58585611Y-44800995D02*
X59469495Y-43917111D01*
X60530155Y-44977771D01*
X59646271Y-45861655D01*
X58585611Y-44800995D01*
X58585611Y-44800995D01*
G37*
D20*
X36365000Y-47434500D03*
X38565000Y-47434500D03*
X36365000Y-50927000D03*
X38565000Y-50927000D03*
X36365000Y-49149000D03*
X38565000Y-49149000D03*
D21*
X58420000Y-64770000D03*
X58420000Y-59690000D03*
X63500000Y-59690000D03*
X63500000Y-64770000D03*
D22*
X60960000Y-62230000D03*
D21*
X33020000Y-65024000D03*
X33020000Y-59944000D03*
X38100000Y-59944000D03*
X38100000Y-65024000D03*
D22*
X35560000Y-62484000D03*
D23*
X69723000Y-55118000D03*
D24*
X67183000Y-55118000D03*
X69723000Y-52578000D03*
X67183000Y-52578000D03*
X69723000Y-50038000D03*
X67183000Y-50038000D03*
X69723000Y-47498000D03*
X67183000Y-47498000D03*
X69723000Y-44958000D03*
X67183000Y-44958000D03*
X69723000Y-42418000D03*
X67183000Y-42418000D03*
X69723000Y-39878000D03*
X67183000Y-39878000D03*
X69723000Y-37338000D03*
X67183000Y-37338000D03*
X69723000Y-34798000D03*
X67183000Y-34798000D03*
D23*
X53975000Y-56261000D03*
D24*
X56515000Y-56261000D03*
X59055000Y-56261000D03*
D25*
X57247784Y-19562387D03*
X54547784Y-19562387D03*
X33952200Y-30886400D03*
X36652200Y-30886400D03*
D26*
X61765000Y-57277000D03*
X63965000Y-57277000D03*
D25*
X34497000Y-47371000D03*
X31797000Y-47371000D03*
X34497000Y-50927000D03*
X31797000Y-50927000D03*
X34497000Y-49149000D03*
X31797000Y-49149000D03*
D27*
X65217519Y-29647991D03*
X65217519Y-32347991D03*
X61625416Y-29647991D03*
X61625416Y-32347991D03*
X63421467Y-29647991D03*
X63421467Y-32347991D03*
D25*
X57705000Y-37592000D03*
X60405000Y-37592000D03*
D10*
G36*
X42013043Y-40458805D02*
X41093805Y-41378043D01*
X40033145Y-40317383D01*
X40952383Y-39398145D01*
X42013043Y-40458805D01*
X42013043Y-40458805D01*
G37*
G36*
X40103855Y-38549617D02*
X39184617Y-39468855D01*
X38123957Y-38408195D01*
X39043195Y-37488957D01*
X40103855Y-38549617D01*
X40103855Y-38549617D01*
G37*
G36*
X45012195Y-36933043D02*
X44092957Y-36013805D01*
X45153617Y-34953145D01*
X46072855Y-35872383D01*
X45012195Y-36933043D01*
X45012195Y-36933043D01*
G37*
G36*
X46921383Y-35023855D02*
X46002145Y-34104617D01*
X47062805Y-33043957D01*
X47982043Y-33963195D01*
X46921383Y-35023855D01*
X46921383Y-35023855D01*
G37*
D28*
X34988500Y-28677000D03*
D29*
X34988500Y-22377000D03*
X32688500Y-22377000D03*
X37288500Y-22377000D03*
D30*
X62362000Y-37655500D03*
X63312000Y-37655500D03*
X64262000Y-37655500D03*
X64262000Y-34955500D03*
X62362000Y-34955500D03*
X63312000Y-34955500D03*
D31*
X48260000Y-63500000D03*
D32*
X49760000Y-64500000D03*
X49760000Y-64000000D03*
X49760000Y-63500000D03*
X49760000Y-63000000D03*
X49760000Y-62500000D03*
X46760000Y-62500000D03*
X46760000Y-63000000D03*
X46760000Y-63500000D03*
X46760000Y-64000000D03*
X46760000Y-64500000D03*
D10*
G36*
X46439200Y-36740676D02*
X46615977Y-36563899D01*
X47323084Y-37271006D01*
X47146307Y-37447783D01*
X46439200Y-36740676D01*
X46439200Y-36740676D01*
G37*
G36*
X46085646Y-37094229D02*
X46262423Y-36917452D01*
X46969530Y-37624559D01*
X46792753Y-37801336D01*
X46085646Y-37094229D01*
X46085646Y-37094229D01*
G37*
G36*
X45732093Y-37447783D02*
X45908870Y-37271006D01*
X46615977Y-37978113D01*
X46439200Y-38154890D01*
X45732093Y-37447783D01*
X45732093Y-37447783D01*
G37*
G36*
X45378540Y-37801336D02*
X45555317Y-37624559D01*
X46262424Y-38331666D01*
X46085647Y-38508443D01*
X45378540Y-37801336D01*
X45378540Y-37801336D01*
G37*
G36*
X45024986Y-38154889D02*
X45201763Y-37978112D01*
X45908870Y-38685219D01*
X45732093Y-38861996D01*
X45024986Y-38154889D01*
X45024986Y-38154889D01*
G37*
G36*
X44671433Y-38508443D02*
X44848210Y-38331666D01*
X45555317Y-39038773D01*
X45378540Y-39215550D01*
X44671433Y-38508443D01*
X44671433Y-38508443D01*
G37*
G36*
X44317879Y-38861996D02*
X44494656Y-38685219D01*
X45201763Y-39392326D01*
X45024986Y-39569103D01*
X44317879Y-38861996D01*
X44317879Y-38861996D01*
G37*
G36*
X43964326Y-39215550D02*
X44141103Y-39038773D01*
X44848210Y-39745880D01*
X44671433Y-39922657D01*
X43964326Y-39215550D01*
X43964326Y-39215550D01*
G37*
G36*
X43610773Y-39569103D02*
X43787550Y-39392326D01*
X44494657Y-40099433D01*
X44317880Y-40276210D01*
X43610773Y-39569103D01*
X43610773Y-39569103D01*
G37*
G36*
X43257219Y-39922656D02*
X43433996Y-39745879D01*
X44141103Y-40452986D01*
X43964326Y-40629763D01*
X43257219Y-39922656D01*
X43257219Y-39922656D01*
G37*
G36*
X42903666Y-40276210D02*
X43080443Y-40099433D01*
X43787550Y-40806540D01*
X43610773Y-40983317D01*
X42903666Y-40276210D01*
X42903666Y-40276210D01*
G37*
G36*
X42550112Y-40629763D02*
X42726889Y-40452986D01*
X43433996Y-41160093D01*
X43257219Y-41336870D01*
X42550112Y-40629763D01*
X42550112Y-40629763D01*
G37*
G36*
X42196559Y-40983317D02*
X42373336Y-40806540D01*
X43080443Y-41513647D01*
X42903666Y-41690424D01*
X42196559Y-40983317D01*
X42196559Y-40983317D01*
G37*
G36*
X41843006Y-41336870D02*
X42019783Y-41160093D01*
X42726890Y-41867200D01*
X42550113Y-42043977D01*
X41843006Y-41336870D01*
X41843006Y-41336870D01*
G37*
G36*
X41489452Y-41690423D02*
X41666229Y-41513646D01*
X42373336Y-42220753D01*
X42196559Y-42397530D01*
X41489452Y-41690423D01*
X41489452Y-41690423D01*
G37*
G36*
X41135899Y-42043977D02*
X41312676Y-41867200D01*
X42019783Y-42574307D01*
X41843006Y-42751084D01*
X41135899Y-42043977D01*
X41135899Y-42043977D01*
G37*
G36*
X41312676Y-45508800D02*
X41135899Y-45332023D01*
X41843006Y-44624916D01*
X42019783Y-44801693D01*
X41312676Y-45508800D01*
X41312676Y-45508800D01*
G37*
G36*
X41666229Y-45862354D02*
X41489452Y-45685577D01*
X42196559Y-44978470D01*
X42373336Y-45155247D01*
X41666229Y-45862354D01*
X41666229Y-45862354D01*
G37*
G36*
X42019783Y-46215907D02*
X41843006Y-46039130D01*
X42550113Y-45332023D01*
X42726890Y-45508800D01*
X42019783Y-46215907D01*
X42019783Y-46215907D01*
G37*
G36*
X42373336Y-46569460D02*
X42196559Y-46392683D01*
X42903666Y-45685576D01*
X43080443Y-45862353D01*
X42373336Y-46569460D01*
X42373336Y-46569460D01*
G37*
G36*
X42726889Y-46923014D02*
X42550112Y-46746237D01*
X43257219Y-46039130D01*
X43433996Y-46215907D01*
X42726889Y-46923014D01*
X42726889Y-46923014D01*
G37*
G36*
X43080443Y-47276567D02*
X42903666Y-47099790D01*
X43610773Y-46392683D01*
X43787550Y-46569460D01*
X43080443Y-47276567D01*
X43080443Y-47276567D01*
G37*
G36*
X43433996Y-47630121D02*
X43257219Y-47453344D01*
X43964326Y-46746237D01*
X44141103Y-46923014D01*
X43433996Y-47630121D01*
X43433996Y-47630121D01*
G37*
G36*
X43787550Y-47983674D02*
X43610773Y-47806897D01*
X44317880Y-47099790D01*
X44494657Y-47276567D01*
X43787550Y-47983674D01*
X43787550Y-47983674D01*
G37*
G36*
X44141103Y-48337227D02*
X43964326Y-48160450D01*
X44671433Y-47453343D01*
X44848210Y-47630120D01*
X44141103Y-48337227D01*
X44141103Y-48337227D01*
G37*
G36*
X44494656Y-48690781D02*
X44317879Y-48514004D01*
X45024986Y-47806897D01*
X45201763Y-47983674D01*
X44494656Y-48690781D01*
X44494656Y-48690781D01*
G37*
G36*
X44848210Y-49044334D02*
X44671433Y-48867557D01*
X45378540Y-48160450D01*
X45555317Y-48337227D01*
X44848210Y-49044334D01*
X44848210Y-49044334D01*
G37*
G36*
X45201763Y-49397888D02*
X45024986Y-49221111D01*
X45732093Y-48514004D01*
X45908870Y-48690781D01*
X45201763Y-49397888D01*
X45201763Y-49397888D01*
G37*
G36*
X45555317Y-49751441D02*
X45378540Y-49574664D01*
X46085647Y-48867557D01*
X46262424Y-49044334D01*
X45555317Y-49751441D01*
X45555317Y-49751441D01*
G37*
G36*
X45908870Y-50104994D02*
X45732093Y-49928217D01*
X46439200Y-49221110D01*
X46615977Y-49397887D01*
X45908870Y-50104994D01*
X45908870Y-50104994D01*
G37*
G36*
X46262423Y-50458548D02*
X46085646Y-50281771D01*
X46792753Y-49574664D01*
X46969530Y-49751441D01*
X46262423Y-50458548D01*
X46262423Y-50458548D01*
G37*
G36*
X46615977Y-50812101D02*
X46439200Y-50635324D01*
X47146307Y-49928217D01*
X47323084Y-50104994D01*
X46615977Y-50812101D01*
X46615977Y-50812101D01*
G37*
G36*
X49196916Y-50104994D02*
X49373693Y-49928217D01*
X50080800Y-50635324D01*
X49904023Y-50812101D01*
X49196916Y-50104994D01*
X49196916Y-50104994D01*
G37*
G36*
X49550470Y-49751441D02*
X49727247Y-49574664D01*
X50434354Y-50281771D01*
X50257577Y-50458548D01*
X49550470Y-49751441D01*
X49550470Y-49751441D01*
G37*
G36*
X49904023Y-49397887D02*
X50080800Y-49221110D01*
X50787907Y-49928217D01*
X50611130Y-50104994D01*
X49904023Y-49397887D01*
X49904023Y-49397887D01*
G37*
G36*
X50257576Y-49044334D02*
X50434353Y-48867557D01*
X51141460Y-49574664D01*
X50964683Y-49751441D01*
X50257576Y-49044334D01*
X50257576Y-49044334D01*
G37*
G36*
X50611130Y-48690781D02*
X50787907Y-48514004D01*
X51495014Y-49221111D01*
X51318237Y-49397888D01*
X50611130Y-48690781D01*
X50611130Y-48690781D01*
G37*
G36*
X50964683Y-48337227D02*
X51141460Y-48160450D01*
X51848567Y-48867557D01*
X51671790Y-49044334D01*
X50964683Y-48337227D01*
X50964683Y-48337227D01*
G37*
G36*
X51318237Y-47983674D02*
X51495014Y-47806897D01*
X52202121Y-48514004D01*
X52025344Y-48690781D01*
X51318237Y-47983674D01*
X51318237Y-47983674D01*
G37*
G36*
X51671790Y-47630120D02*
X51848567Y-47453343D01*
X52555674Y-48160450D01*
X52378897Y-48337227D01*
X51671790Y-47630120D01*
X51671790Y-47630120D01*
G37*
G36*
X52025343Y-47276567D02*
X52202120Y-47099790D01*
X52909227Y-47806897D01*
X52732450Y-47983674D01*
X52025343Y-47276567D01*
X52025343Y-47276567D01*
G37*
G36*
X52378897Y-46923014D02*
X52555674Y-46746237D01*
X53262781Y-47453344D01*
X53086004Y-47630121D01*
X52378897Y-46923014D01*
X52378897Y-46923014D01*
G37*
G36*
X52732450Y-46569460D02*
X52909227Y-46392683D01*
X53616334Y-47099790D01*
X53439557Y-47276567D01*
X52732450Y-46569460D01*
X52732450Y-46569460D01*
G37*
G36*
X53086004Y-46215907D02*
X53262781Y-46039130D01*
X53969888Y-46746237D01*
X53793111Y-46923014D01*
X53086004Y-46215907D01*
X53086004Y-46215907D01*
G37*
G36*
X53439557Y-45862353D02*
X53616334Y-45685576D01*
X54323441Y-46392683D01*
X54146664Y-46569460D01*
X53439557Y-45862353D01*
X53439557Y-45862353D01*
G37*
G36*
X53793110Y-45508800D02*
X53969887Y-45332023D01*
X54676994Y-46039130D01*
X54500217Y-46215907D01*
X53793110Y-45508800D01*
X53793110Y-45508800D01*
G37*
G36*
X54146664Y-45155247D02*
X54323441Y-44978470D01*
X55030548Y-45685577D01*
X54853771Y-45862354D01*
X54146664Y-45155247D01*
X54146664Y-45155247D01*
G37*
G36*
X54500217Y-44801693D02*
X54676994Y-44624916D01*
X55384101Y-45332023D01*
X55207324Y-45508800D01*
X54500217Y-44801693D01*
X54500217Y-44801693D01*
G37*
G36*
X54676994Y-42751084D02*
X54500217Y-42574307D01*
X55207324Y-41867200D01*
X55384101Y-42043977D01*
X54676994Y-42751084D01*
X54676994Y-42751084D01*
G37*
G36*
X54323441Y-42397530D02*
X54146664Y-42220753D01*
X54853771Y-41513646D01*
X55030548Y-41690423D01*
X54323441Y-42397530D01*
X54323441Y-42397530D01*
G37*
G36*
X53969887Y-42043977D02*
X53793110Y-41867200D01*
X54500217Y-41160093D01*
X54676994Y-41336870D01*
X53969887Y-42043977D01*
X53969887Y-42043977D01*
G37*
G36*
X53616334Y-41690424D02*
X53439557Y-41513647D01*
X54146664Y-40806540D01*
X54323441Y-40983317D01*
X53616334Y-41690424D01*
X53616334Y-41690424D01*
G37*
G36*
X53262781Y-41336870D02*
X53086004Y-41160093D01*
X53793111Y-40452986D01*
X53969888Y-40629763D01*
X53262781Y-41336870D01*
X53262781Y-41336870D01*
G37*
G36*
X52909227Y-40983317D02*
X52732450Y-40806540D01*
X53439557Y-40099433D01*
X53616334Y-40276210D01*
X52909227Y-40983317D01*
X52909227Y-40983317D01*
G37*
G36*
X52555674Y-40629763D02*
X52378897Y-40452986D01*
X53086004Y-39745879D01*
X53262781Y-39922656D01*
X52555674Y-40629763D01*
X52555674Y-40629763D01*
G37*
G36*
X52202120Y-40276210D02*
X52025343Y-40099433D01*
X52732450Y-39392326D01*
X52909227Y-39569103D01*
X52202120Y-40276210D01*
X52202120Y-40276210D01*
G37*
G36*
X51848567Y-39922657D02*
X51671790Y-39745880D01*
X52378897Y-39038773D01*
X52555674Y-39215550D01*
X51848567Y-39922657D01*
X51848567Y-39922657D01*
G37*
G36*
X51495014Y-39569103D02*
X51318237Y-39392326D01*
X52025344Y-38685219D01*
X52202121Y-38861996D01*
X51495014Y-39569103D01*
X51495014Y-39569103D01*
G37*
G36*
X51141460Y-39215550D02*
X50964683Y-39038773D01*
X51671790Y-38331666D01*
X51848567Y-38508443D01*
X51141460Y-39215550D01*
X51141460Y-39215550D01*
G37*
G36*
X50787907Y-38861996D02*
X50611130Y-38685219D01*
X51318237Y-37978112D01*
X51495014Y-38154889D01*
X50787907Y-38861996D01*
X50787907Y-38861996D01*
G37*
G36*
X50434353Y-38508443D02*
X50257576Y-38331666D01*
X50964683Y-37624559D01*
X51141460Y-37801336D01*
X50434353Y-38508443D01*
X50434353Y-38508443D01*
G37*
G36*
X50080800Y-38154890D02*
X49904023Y-37978113D01*
X50611130Y-37271006D01*
X50787907Y-37447783D01*
X50080800Y-38154890D01*
X50080800Y-38154890D01*
G37*
G36*
X49727247Y-37801336D02*
X49550470Y-37624559D01*
X50257577Y-36917452D01*
X50434354Y-37094229D01*
X49727247Y-37801336D01*
X49727247Y-37801336D01*
G37*
G36*
X49373693Y-37447783D02*
X49196916Y-37271006D01*
X49904023Y-36563899D01*
X50080800Y-36740676D01*
X49373693Y-37447783D01*
X49373693Y-37447783D01*
G37*
G36*
X50074438Y-29290953D02*
X51771494Y-27593897D01*
X54246368Y-30068771D01*
X52549312Y-31765827D01*
X50074438Y-29290953D01*
X50074438Y-29290953D01*
G37*
G36*
X53751394Y-32967909D02*
X55448450Y-31270853D01*
X57923324Y-33745727D01*
X56226268Y-35442783D01*
X53751394Y-32967909D01*
X53751394Y-32967909D01*
G37*
D33*
X47350500Y-55606500D03*
X47350500Y-58356500D03*
X49550500Y-58356500D03*
X49550500Y-55606500D03*
D34*
X25400000Y-29845000D03*
X25400000Y-34290000D03*
X25400000Y-38735000D03*
X35560000Y-55753000D03*
D17*
X26670000Y-21590000D03*
D35*
X46990000Y-21590000D03*
X50721170Y-61987580D03*
X53441600Y-42214800D03*
X43180000Y-42037000D03*
X32893000Y-32766000D03*
X58483500Y-23304500D03*
X58483500Y-21463000D03*
X58610500Y-44069000D03*
X43307000Y-42735500D03*
X32905700Y-34569400D03*
X39814500Y-47434500D03*
X48260000Y-63055500D03*
X48260000Y-64008000D03*
X46101000Y-57785000D03*
X45974000Y-53403520D03*
X40640000Y-66230500D03*
X64960500Y-57277000D03*
X55435500Y-61087000D03*
X55435500Y-62992000D03*
X55435500Y-64643000D03*
X63317864Y-38798500D03*
X47942500Y-33083500D03*
X47244000Y-36639500D03*
X47307500Y-24003000D03*
X37020500Y-20764500D03*
X55816500Y-29564251D03*
X44132500Y-40957452D03*
X46037500Y-38989000D03*
X53975000Y-44831000D03*
X49784000Y-49085500D03*
X45021500Y-47307500D03*
X44704000Y-21717000D03*
X43942000Y-21717008D03*
X61595000Y-19304000D03*
X62166500Y-19875500D03*
X56235600Y-42418000D03*
X49784000Y-44297600D03*
X49656986Y-45656500D03*
X48196500Y-42735500D03*
X40068500Y-49911000D03*
X42164000Y-49974500D03*
X40068500Y-49149000D03*
X42227500Y-49149000D03*
X65278000Y-51435000D03*
X64643000Y-50800000D03*
X64008000Y-50165000D03*
X63373000Y-49530000D03*
X62738000Y-48895000D03*
X62103000Y-48260000D03*
X61468000Y-47625000D03*
X60833000Y-46990000D03*
X42100500Y-42989500D03*
X40703506Y-44323000D03*
X45072300Y-60439300D03*
X43827700Y-61683900D03*
M02*
