M48
;DRILL file {KiCad 4.0.6-e0-6349~53~ubuntu16.04.1} date Fri Apr  7 11:05:54 2017
;FORMAT={-:-/ absolute / inch / decimal}
FMAT,2
INCH,TZ
T1C0.010
T2C0.033
T3C0.039
T4C0.045
T5C0.059
T6C0.063
T7C0.067
%
G90
G05
M72
T1
X1.295Y-1.29
X1.2955Y-1.361
X1.4575Y-0.8175
X1.5675Y-1.8675
X1.5775Y-1.935
X1.5775Y-1.965
X1.6Y-2.6075
X1.6025Y-1.745
X1.6575Y-1.6925
X1.66Y-1.9675
X1.6625Y-1.935
X1.7Y-1.655
X1.705Y-1.6825
X1.7255Y-2.4285
X1.73Y-0.855
X1.7375Y-1.6125
X1.76Y-0.855
X1.7725Y-1.8625
X1.7745Y-2.3795
X1.81Y-2.1025
X1.8125Y-1.535
X1.815Y-2.275
X1.85Y-0.85
X1.86Y-1.4425
X1.8625Y-0.945
X1.8875Y-1.3025
X1.8975Y-1.6825
X1.9Y-2.4825
X1.9Y-2.52
X1.955Y-1.7975
X1.96Y-1.744
X1.96Y-1.9325
X1.9969Y-2.4405
X2.104Y-1.662
X2.125Y-1.765
X2.1825Y-2.405
X2.1825Y-2.48
X2.1825Y-2.545
X2.1975Y-1.1639
X2.214Y-1.67
X2.3025Y-0.845
X2.3025Y-0.9175
X2.3075Y-1.735
X2.395Y-1.85
X2.42Y-1.875
X2.425Y-0.76
X2.445Y-1.9
X2.4475Y-0.7825
X2.47Y-1.925
X2.4928Y-1.5275
X2.495Y-1.95
X2.52Y-1.975
X2.545Y-2.
X2.5575Y-2.255
X2.57Y-2.025
T2
X1.8016Y-0.9031
X1.9984Y-0.9031
T3
X2.125Y-2.215
X2.225Y-2.215
X2.325Y-2.215
X2.645Y-1.37
X2.645Y-1.47
X2.645Y-1.57
X2.645Y-1.67
X2.645Y-1.77
X2.645Y-1.87
X2.645Y-1.97
X2.645Y-2.07
X2.645Y-2.17
X2.745Y-1.37
X2.745Y-1.47
X2.745Y-1.57
X2.745Y-1.67
X2.745Y-1.77
X2.745Y-1.87
X2.745Y-1.97
X2.745Y-2.07
X2.745Y-2.17
T4
X1.7622Y-0.7969
X2.0378Y-0.7969
T5
X1.4Y-2.46
X2.4Y-2.45
T6
X1.Y-1.175
X1.Y-1.35
X1.Y-1.525
X1.4Y-2.195
T7
X1.3Y-2.36
X1.3Y-2.56
X1.5Y-2.36
X1.5Y-2.56
X2.3Y-2.35
X2.3Y-2.55
X2.5Y-2.35
X2.5Y-2.55
T0
M30
