%TF.GenerationSoftware,KiCad,Pcbnew,4.0.6-e0-6349~53~ubuntu16.04.1*%
%TF.CreationDate,2017-04-07T11:05:52-07:00*%
%TF.ProjectId,waveform-generator,77617665666F726D2D67656E65726174,rev?*%
%TF.FileFunction,Soldermask,Top*%
%FSLAX46Y46*%
G04 Gerber Fmt 4.6, Leading zero omitted, Abs format (unit mm)*
G04 Created by KiCad (PCBNEW 4.0.6-e0-6349~53~ubuntu16.04.1) date Fri Apr  7 11:05:52 2017*
%MOMM*%
%LPD*%
G01*
G04 APERTURE LIST*
%ADD10C,0.100000*%
%ADD11R,0.400000X1.350000*%
%ADD12C,1.250000*%
%ADD13C,1.550000*%
%ADD14C,3.500000*%
%ADD15R,1.500000X1.250000*%
%ADD16R,1.250000X1.500000*%
%ADD17R,1.200000X1.200000*%
%ADD18C,2.200000*%
%ADD19C,2.000000*%
%ADD20R,1.700000X1.700000*%
%ADD21O,1.700000X1.700000*%
%ADD22R,1.500000X1.300000*%
%ADD23R,1.200000X0.900000*%
%ADD24R,1.300000X1.500000*%
%ADD25R,3.800000X2.000000*%
%ADD26R,1.500000X2.000000*%
%ADD27R,0.650000X1.560000*%
%ADD28R,1.640000X2.380000*%
%ADD29R,1.000000X0.250000*%
%ADD30R,1.650000X1.950000*%
%ADD31C,2.800000*%
%ADD32C,0.558800*%
G04 APERTURE END LIST*
D10*
D11*
X49560000Y-22940000D03*
X48910000Y-22940000D03*
X48260000Y-22940000D03*
X47610000Y-22940000D03*
X46960000Y-22940000D03*
D12*
X50760000Y-22940000D03*
X45760000Y-22940000D03*
D13*
X51760000Y-20240000D03*
X44760000Y-20240000D03*
D14*
X69850000Y-64770000D03*
X26670000Y-64770000D03*
X69850000Y-21590000D03*
D10*
G36*
X52364758Y-26996393D02*
X53248642Y-26112509D01*
X54309302Y-27173169D01*
X53425418Y-28057053D01*
X52364758Y-26996393D01*
X52364758Y-26996393D01*
G37*
G36*
X54132524Y-28764159D02*
X55016408Y-27880275D01*
X56077068Y-28940935D01*
X55193184Y-29824819D01*
X54132524Y-28764159D01*
X54132524Y-28764159D01*
G37*
G36*
X59309960Y-32173827D02*
X58426076Y-33057711D01*
X57365416Y-31997051D01*
X58249300Y-31113167D01*
X59309960Y-32173827D01*
X59309960Y-32173827D01*
G37*
G36*
X57542194Y-30406061D02*
X56658310Y-31289945D01*
X55597650Y-30229285D01*
X56481534Y-29345401D01*
X57542194Y-30406061D01*
X57542194Y-30406061D01*
G37*
D15*
X33611500Y-20193000D03*
X36111500Y-20193000D03*
D16*
X39306500Y-22649500D03*
X39306500Y-20149500D03*
D15*
X49573500Y-53403500D03*
X47073500Y-53403500D03*
X51836000Y-62992000D03*
X54336000Y-62992000D03*
X51836000Y-61087000D03*
X54336000Y-61087000D03*
X51836000Y-64643000D03*
X54336000Y-64643000D03*
X52304000Y-66421000D03*
X49804000Y-66421000D03*
D16*
X40640000Y-62504000D03*
X40640000Y-65004000D03*
D15*
X54647784Y-21467386D03*
X57147784Y-21467386D03*
X54647783Y-23372386D03*
X57147783Y-23372386D03*
X36566728Y-32790583D03*
X34066728Y-32790583D03*
X36566728Y-34586634D03*
X34066728Y-34586634D03*
D10*
G36*
X56817845Y-43033229D02*
X57701729Y-42149345D01*
X58762389Y-43210005D01*
X57878505Y-44093889D01*
X56817845Y-43033229D01*
X56817845Y-43033229D01*
G37*
G36*
X58585611Y-44800995D02*
X59469495Y-43917111D01*
X60530155Y-44977771D01*
X59646271Y-45861655D01*
X58585611Y-44800995D01*
X58585611Y-44800995D01*
G37*
D17*
X36365000Y-47434500D03*
X38565000Y-47434500D03*
X36365000Y-50927000D03*
X38565000Y-50927000D03*
X36365000Y-49149000D03*
X38565000Y-49149000D03*
D18*
X58420000Y-64770000D03*
X58420000Y-59690000D03*
X63500000Y-59690000D03*
X63500000Y-64770000D03*
D19*
X60960000Y-62230000D03*
D18*
X33020000Y-65024000D03*
X33020000Y-59944000D03*
X38100000Y-59944000D03*
X38100000Y-65024000D03*
D19*
X35560000Y-62484000D03*
D20*
X69723000Y-55118000D03*
D21*
X67183000Y-55118000D03*
X69723000Y-52578000D03*
X67183000Y-52578000D03*
X69723000Y-50038000D03*
X67183000Y-50038000D03*
X69723000Y-47498000D03*
X67183000Y-47498000D03*
X69723000Y-44958000D03*
X67183000Y-44958000D03*
X69723000Y-42418000D03*
X67183000Y-42418000D03*
X69723000Y-39878000D03*
X67183000Y-39878000D03*
X69723000Y-37338000D03*
X67183000Y-37338000D03*
X69723000Y-34798000D03*
X67183000Y-34798000D03*
D20*
X53975000Y-56261000D03*
D21*
X56515000Y-56261000D03*
X59055000Y-56261000D03*
D22*
X57247784Y-19562387D03*
X54547784Y-19562387D03*
X33952200Y-30886400D03*
X36652200Y-30886400D03*
D23*
X61765000Y-57277000D03*
X63965000Y-57277000D03*
D22*
X34497000Y-47371000D03*
X31797000Y-47371000D03*
X34497000Y-50927000D03*
X31797000Y-50927000D03*
X34497000Y-49149000D03*
X31797000Y-49149000D03*
D24*
X65217519Y-29647991D03*
X65217519Y-32347991D03*
X61625416Y-29647991D03*
X61625416Y-32347991D03*
X63421467Y-29647991D03*
X63421467Y-32347991D03*
D22*
X57705000Y-37592000D03*
X60405000Y-37592000D03*
D10*
G36*
X42013043Y-40458805D02*
X41093805Y-41378043D01*
X40033145Y-40317383D01*
X40952383Y-39398145D01*
X42013043Y-40458805D01*
X42013043Y-40458805D01*
G37*
G36*
X40103855Y-38549617D02*
X39184617Y-39468855D01*
X38123957Y-38408195D01*
X39043195Y-37488957D01*
X40103855Y-38549617D01*
X40103855Y-38549617D01*
G37*
G36*
X45012195Y-36933043D02*
X44092957Y-36013805D01*
X45153617Y-34953145D01*
X46072855Y-35872383D01*
X45012195Y-36933043D01*
X45012195Y-36933043D01*
G37*
G36*
X46921383Y-35023855D02*
X46002145Y-34104617D01*
X47062805Y-33043957D01*
X47982043Y-33963195D01*
X46921383Y-35023855D01*
X46921383Y-35023855D01*
G37*
D25*
X34988500Y-28677000D03*
D26*
X34988500Y-22377000D03*
X32688500Y-22377000D03*
X37288500Y-22377000D03*
D27*
X62362000Y-37655500D03*
X63312000Y-37655500D03*
X64262000Y-37655500D03*
X64262000Y-34955500D03*
X62362000Y-34955500D03*
X63312000Y-34955500D03*
D28*
X48260000Y-63500000D03*
D29*
X49760000Y-64500000D03*
X49760000Y-64000000D03*
X49760000Y-63500000D03*
X49760000Y-63000000D03*
X49760000Y-62500000D03*
X46760000Y-62500000D03*
X46760000Y-63000000D03*
X46760000Y-63500000D03*
X46760000Y-64000000D03*
X46760000Y-64500000D03*
D10*
G36*
X46439200Y-36740676D02*
X46615977Y-36563899D01*
X47323084Y-37271006D01*
X47146307Y-37447783D01*
X46439200Y-36740676D01*
X46439200Y-36740676D01*
G37*
G36*
X46085646Y-37094229D02*
X46262423Y-36917452D01*
X46969530Y-37624559D01*
X46792753Y-37801336D01*
X46085646Y-37094229D01*
X46085646Y-37094229D01*
G37*
G36*
X45732093Y-37447783D02*
X45908870Y-37271006D01*
X46615977Y-37978113D01*
X46439200Y-38154890D01*
X45732093Y-37447783D01*
X45732093Y-37447783D01*
G37*
G36*
X45378540Y-37801336D02*
X45555317Y-37624559D01*
X46262424Y-38331666D01*
X46085647Y-38508443D01*
X45378540Y-37801336D01*
X45378540Y-37801336D01*
G37*
G36*
X45024986Y-38154889D02*
X45201763Y-37978112D01*
X45908870Y-38685219D01*
X45732093Y-38861996D01*
X45024986Y-38154889D01*
X45024986Y-38154889D01*
G37*
G36*
X44671433Y-38508443D02*
X44848210Y-38331666D01*
X45555317Y-39038773D01*
X45378540Y-39215550D01*
X44671433Y-38508443D01*
X44671433Y-38508443D01*
G37*
G36*
X44317879Y-38861996D02*
X44494656Y-38685219D01*
X45201763Y-39392326D01*
X45024986Y-39569103D01*
X44317879Y-38861996D01*
X44317879Y-38861996D01*
G37*
G36*
X43964326Y-39215550D02*
X44141103Y-39038773D01*
X44848210Y-39745880D01*
X44671433Y-39922657D01*
X43964326Y-39215550D01*
X43964326Y-39215550D01*
G37*
G36*
X43610773Y-39569103D02*
X43787550Y-39392326D01*
X44494657Y-40099433D01*
X44317880Y-40276210D01*
X43610773Y-39569103D01*
X43610773Y-39569103D01*
G37*
G36*
X43257219Y-39922656D02*
X43433996Y-39745879D01*
X44141103Y-40452986D01*
X43964326Y-40629763D01*
X43257219Y-39922656D01*
X43257219Y-39922656D01*
G37*
G36*
X42903666Y-40276210D02*
X43080443Y-40099433D01*
X43787550Y-40806540D01*
X43610773Y-40983317D01*
X42903666Y-40276210D01*
X42903666Y-40276210D01*
G37*
G36*
X42550112Y-40629763D02*
X42726889Y-40452986D01*
X43433996Y-41160093D01*
X43257219Y-41336870D01*
X42550112Y-40629763D01*
X42550112Y-40629763D01*
G37*
G36*
X42196559Y-40983317D02*
X42373336Y-40806540D01*
X43080443Y-41513647D01*
X42903666Y-41690424D01*
X42196559Y-40983317D01*
X42196559Y-40983317D01*
G37*
G36*
X41843006Y-41336870D02*
X42019783Y-41160093D01*
X42726890Y-41867200D01*
X42550113Y-42043977D01*
X41843006Y-41336870D01*
X41843006Y-41336870D01*
G37*
G36*
X41489452Y-41690423D02*
X41666229Y-41513646D01*
X42373336Y-42220753D01*
X42196559Y-42397530D01*
X41489452Y-41690423D01*
X41489452Y-41690423D01*
G37*
G36*
X41135899Y-42043977D02*
X41312676Y-41867200D01*
X42019783Y-42574307D01*
X41843006Y-42751084D01*
X41135899Y-42043977D01*
X41135899Y-42043977D01*
G37*
G36*
X41312676Y-45508800D02*
X41135899Y-45332023D01*
X41843006Y-44624916D01*
X42019783Y-44801693D01*
X41312676Y-45508800D01*
X41312676Y-45508800D01*
G37*
G36*
X41666229Y-45862354D02*
X41489452Y-45685577D01*
X42196559Y-44978470D01*
X42373336Y-45155247D01*
X41666229Y-45862354D01*
X41666229Y-45862354D01*
G37*
G36*
X42019783Y-46215907D02*
X41843006Y-46039130D01*
X42550113Y-45332023D01*
X42726890Y-45508800D01*
X42019783Y-46215907D01*
X42019783Y-46215907D01*
G37*
G36*
X42373336Y-46569460D02*
X42196559Y-46392683D01*
X42903666Y-45685576D01*
X43080443Y-45862353D01*
X42373336Y-46569460D01*
X42373336Y-46569460D01*
G37*
G36*
X42726889Y-46923014D02*
X42550112Y-46746237D01*
X43257219Y-46039130D01*
X43433996Y-46215907D01*
X42726889Y-46923014D01*
X42726889Y-46923014D01*
G37*
G36*
X43080443Y-47276567D02*
X42903666Y-47099790D01*
X43610773Y-46392683D01*
X43787550Y-46569460D01*
X43080443Y-47276567D01*
X43080443Y-47276567D01*
G37*
G36*
X43433996Y-47630121D02*
X43257219Y-47453344D01*
X43964326Y-46746237D01*
X44141103Y-46923014D01*
X43433996Y-47630121D01*
X43433996Y-47630121D01*
G37*
G36*
X43787550Y-47983674D02*
X43610773Y-47806897D01*
X44317880Y-47099790D01*
X44494657Y-47276567D01*
X43787550Y-47983674D01*
X43787550Y-47983674D01*
G37*
G36*
X44141103Y-48337227D02*
X43964326Y-48160450D01*
X44671433Y-47453343D01*
X44848210Y-47630120D01*
X44141103Y-48337227D01*
X44141103Y-48337227D01*
G37*
G36*
X44494656Y-48690781D02*
X44317879Y-48514004D01*
X45024986Y-47806897D01*
X45201763Y-47983674D01*
X44494656Y-48690781D01*
X44494656Y-48690781D01*
G37*
G36*
X44848210Y-49044334D02*
X44671433Y-48867557D01*
X45378540Y-48160450D01*
X45555317Y-48337227D01*
X44848210Y-49044334D01*
X44848210Y-49044334D01*
G37*
G36*
X45201763Y-49397888D02*
X45024986Y-49221111D01*
X45732093Y-48514004D01*
X45908870Y-48690781D01*
X45201763Y-49397888D01*
X45201763Y-49397888D01*
G37*
G36*
X45555317Y-49751441D02*
X45378540Y-49574664D01*
X46085647Y-48867557D01*
X46262424Y-49044334D01*
X45555317Y-49751441D01*
X45555317Y-49751441D01*
G37*
G36*
X45908870Y-50104994D02*
X45732093Y-49928217D01*
X46439200Y-49221110D01*
X46615977Y-49397887D01*
X45908870Y-50104994D01*
X45908870Y-50104994D01*
G37*
G36*
X46262423Y-50458548D02*
X46085646Y-50281771D01*
X46792753Y-49574664D01*
X46969530Y-49751441D01*
X46262423Y-50458548D01*
X46262423Y-50458548D01*
G37*
G36*
X46615977Y-50812101D02*
X46439200Y-50635324D01*
X47146307Y-49928217D01*
X47323084Y-50104994D01*
X46615977Y-50812101D01*
X46615977Y-50812101D01*
G37*
G36*
X49196916Y-50104994D02*
X49373693Y-49928217D01*
X50080800Y-50635324D01*
X49904023Y-50812101D01*
X49196916Y-50104994D01*
X49196916Y-50104994D01*
G37*
G36*
X49550470Y-49751441D02*
X49727247Y-49574664D01*
X50434354Y-50281771D01*
X50257577Y-50458548D01*
X49550470Y-49751441D01*
X49550470Y-49751441D01*
G37*
G36*
X49904023Y-49397887D02*
X50080800Y-49221110D01*
X50787907Y-49928217D01*
X50611130Y-50104994D01*
X49904023Y-49397887D01*
X49904023Y-49397887D01*
G37*
G36*
X50257576Y-49044334D02*
X50434353Y-48867557D01*
X51141460Y-49574664D01*
X50964683Y-49751441D01*
X50257576Y-49044334D01*
X50257576Y-49044334D01*
G37*
G36*
X50611130Y-48690781D02*
X50787907Y-48514004D01*
X51495014Y-49221111D01*
X51318237Y-49397888D01*
X50611130Y-48690781D01*
X50611130Y-48690781D01*
G37*
G36*
X50964683Y-48337227D02*
X51141460Y-48160450D01*
X51848567Y-48867557D01*
X51671790Y-49044334D01*
X50964683Y-48337227D01*
X50964683Y-48337227D01*
G37*
G36*
X51318237Y-47983674D02*
X51495014Y-47806897D01*
X52202121Y-48514004D01*
X52025344Y-48690781D01*
X51318237Y-47983674D01*
X51318237Y-47983674D01*
G37*
G36*
X51671790Y-47630120D02*
X51848567Y-47453343D01*
X52555674Y-48160450D01*
X52378897Y-48337227D01*
X51671790Y-47630120D01*
X51671790Y-47630120D01*
G37*
G36*
X52025343Y-47276567D02*
X52202120Y-47099790D01*
X52909227Y-47806897D01*
X52732450Y-47983674D01*
X52025343Y-47276567D01*
X52025343Y-47276567D01*
G37*
G36*
X52378897Y-46923014D02*
X52555674Y-46746237D01*
X53262781Y-47453344D01*
X53086004Y-47630121D01*
X52378897Y-46923014D01*
X52378897Y-46923014D01*
G37*
G36*
X52732450Y-46569460D02*
X52909227Y-46392683D01*
X53616334Y-47099790D01*
X53439557Y-47276567D01*
X52732450Y-46569460D01*
X52732450Y-46569460D01*
G37*
G36*
X53086004Y-46215907D02*
X53262781Y-46039130D01*
X53969888Y-46746237D01*
X53793111Y-46923014D01*
X53086004Y-46215907D01*
X53086004Y-46215907D01*
G37*
G36*
X53439557Y-45862353D02*
X53616334Y-45685576D01*
X54323441Y-46392683D01*
X54146664Y-46569460D01*
X53439557Y-45862353D01*
X53439557Y-45862353D01*
G37*
G36*
X53793110Y-45508800D02*
X53969887Y-45332023D01*
X54676994Y-46039130D01*
X54500217Y-46215907D01*
X53793110Y-45508800D01*
X53793110Y-45508800D01*
G37*
G36*
X54146664Y-45155247D02*
X54323441Y-44978470D01*
X55030548Y-45685577D01*
X54853771Y-45862354D01*
X54146664Y-45155247D01*
X54146664Y-45155247D01*
G37*
G36*
X54500217Y-44801693D02*
X54676994Y-44624916D01*
X55384101Y-45332023D01*
X55207324Y-45508800D01*
X54500217Y-44801693D01*
X54500217Y-44801693D01*
G37*
G36*
X54676994Y-42751084D02*
X54500217Y-42574307D01*
X55207324Y-41867200D01*
X55384101Y-42043977D01*
X54676994Y-42751084D01*
X54676994Y-42751084D01*
G37*
G36*
X54323441Y-42397530D02*
X54146664Y-42220753D01*
X54853771Y-41513646D01*
X55030548Y-41690423D01*
X54323441Y-42397530D01*
X54323441Y-42397530D01*
G37*
G36*
X53969887Y-42043977D02*
X53793110Y-41867200D01*
X54500217Y-41160093D01*
X54676994Y-41336870D01*
X53969887Y-42043977D01*
X53969887Y-42043977D01*
G37*
G36*
X53616334Y-41690424D02*
X53439557Y-41513647D01*
X54146664Y-40806540D01*
X54323441Y-40983317D01*
X53616334Y-41690424D01*
X53616334Y-41690424D01*
G37*
G36*
X53262781Y-41336870D02*
X53086004Y-41160093D01*
X53793111Y-40452986D01*
X53969888Y-40629763D01*
X53262781Y-41336870D01*
X53262781Y-41336870D01*
G37*
G36*
X52909227Y-40983317D02*
X52732450Y-40806540D01*
X53439557Y-40099433D01*
X53616334Y-40276210D01*
X52909227Y-40983317D01*
X52909227Y-40983317D01*
G37*
G36*
X52555674Y-40629763D02*
X52378897Y-40452986D01*
X53086004Y-39745879D01*
X53262781Y-39922656D01*
X52555674Y-40629763D01*
X52555674Y-40629763D01*
G37*
G36*
X52202120Y-40276210D02*
X52025343Y-40099433D01*
X52732450Y-39392326D01*
X52909227Y-39569103D01*
X52202120Y-40276210D01*
X52202120Y-40276210D01*
G37*
G36*
X51848567Y-39922657D02*
X51671790Y-39745880D01*
X52378897Y-39038773D01*
X52555674Y-39215550D01*
X51848567Y-39922657D01*
X51848567Y-39922657D01*
G37*
G36*
X51495014Y-39569103D02*
X51318237Y-39392326D01*
X52025344Y-38685219D01*
X52202121Y-38861996D01*
X51495014Y-39569103D01*
X51495014Y-39569103D01*
G37*
G36*
X51141460Y-39215550D02*
X50964683Y-39038773D01*
X51671790Y-38331666D01*
X51848567Y-38508443D01*
X51141460Y-39215550D01*
X51141460Y-39215550D01*
G37*
G36*
X50787907Y-38861996D02*
X50611130Y-38685219D01*
X51318237Y-37978112D01*
X51495014Y-38154889D01*
X50787907Y-38861996D01*
X50787907Y-38861996D01*
G37*
G36*
X50434353Y-38508443D02*
X50257576Y-38331666D01*
X50964683Y-37624559D01*
X51141460Y-37801336D01*
X50434353Y-38508443D01*
X50434353Y-38508443D01*
G37*
G36*
X50080800Y-38154890D02*
X49904023Y-37978113D01*
X50611130Y-37271006D01*
X50787907Y-37447783D01*
X50080800Y-38154890D01*
X50080800Y-38154890D01*
G37*
G36*
X49727247Y-37801336D02*
X49550470Y-37624559D01*
X50257577Y-36917452D01*
X50434354Y-37094229D01*
X49727247Y-37801336D01*
X49727247Y-37801336D01*
G37*
G36*
X49373693Y-37447783D02*
X49196916Y-37271006D01*
X49904023Y-36563899D01*
X50080800Y-36740676D01*
X49373693Y-37447783D01*
X49373693Y-37447783D01*
G37*
G36*
X50074438Y-29290953D02*
X51771494Y-27593897D01*
X54246368Y-30068771D01*
X52549312Y-31765827D01*
X50074438Y-29290953D01*
X50074438Y-29290953D01*
G37*
G36*
X53751394Y-32967909D02*
X55448450Y-31270853D01*
X57923324Y-33745727D01*
X56226268Y-35442783D01*
X53751394Y-32967909D01*
X53751394Y-32967909D01*
G37*
D30*
X47350500Y-55606500D03*
X47350500Y-58356500D03*
X49550500Y-58356500D03*
X49550500Y-55606500D03*
D31*
X25400000Y-29845000D03*
X25400000Y-34290000D03*
X25400000Y-38735000D03*
X35560000Y-55753000D03*
D14*
X26670000Y-21590000D03*
D32*
X46990000Y-21590000D03*
X50721170Y-61987580D03*
X53441600Y-42214800D03*
X43180000Y-42037000D03*
X32893000Y-32766000D03*
X58483500Y-23304500D03*
X58483500Y-21463000D03*
X58610500Y-44069000D03*
X43307000Y-42735500D03*
X32905700Y-34569400D03*
X39814500Y-47434500D03*
X48260000Y-63055500D03*
X48260000Y-64008000D03*
X46101000Y-57785000D03*
X45974000Y-53403520D03*
X40640000Y-66230500D03*
X64960500Y-57277000D03*
X55435500Y-61087000D03*
X55435500Y-62992000D03*
X55435500Y-64643000D03*
X63317864Y-38798500D03*
X47942500Y-33083500D03*
X47244000Y-36639500D03*
X47307500Y-24003000D03*
X37020500Y-20764500D03*
X55816500Y-29564251D03*
X44132500Y-40957452D03*
X46037500Y-38989000D03*
X53975000Y-44831000D03*
X49784000Y-49085500D03*
X45021500Y-47307500D03*
X44704000Y-21717000D03*
X43942000Y-21717008D03*
X61595000Y-19304000D03*
X62166500Y-19875500D03*
X56235600Y-42418000D03*
X49784000Y-44297600D03*
X49656986Y-45656500D03*
X48196500Y-42735500D03*
X40068500Y-49911000D03*
X42164000Y-49974500D03*
X40068500Y-49149000D03*
X42227500Y-49149000D03*
X65278000Y-51435000D03*
X64643000Y-50800000D03*
X64008000Y-50165000D03*
X63373000Y-49530000D03*
X62738000Y-48895000D03*
X62103000Y-48260000D03*
X61468000Y-47625000D03*
X60833000Y-46990000D03*
X42100500Y-42989500D03*
X40703506Y-44323000D03*
X45072300Y-60439300D03*
X43827700Y-61683900D03*
M02*
