%TF.GenerationSoftware,KiCad,Pcbnew,4.0.6*%
%TF.CreationDate,2017-05-01T22:06:23-07:00*%
%TF.ProjectId,rev3,726576332E6B696361645F7063620000,rev?*%
%TF.FileFunction,Copper,L2,Inr,Plane*%
%FSLAX46Y46*%
G04 Gerber Fmt 4.6, Leading zero omitted, Abs format (unit mm)*
G04 Created by KiCad (PCBNEW 4.0.6) date 05/01/17 22:06:23*
%MOMM*%
%LPD*%
G01*
G04 APERTURE LIST*
%ADD10C,0.100000*%
%ADD11C,0.609600*%
%ADD12C,7.000000*%
%ADD13C,0.600000*%
%ADD14R,1.700000X1.700000*%
%ADD15O,1.700000X1.700000*%
%ADD16C,2.800000*%
%ADD17C,2.200000*%
%ADD18C,2.000000*%
%ADD19C,0.970000*%
%ADD20C,1.250000*%
%ADD21C,1.550000*%
%ADD22C,0.254000*%
G04 APERTURE END LIST*
D10*
D11*
X156210000Y-103124000D03*
X143510000Y-103124000D03*
D12*
X127000000Y-104140000D03*
D13*
X129625000Y-104140000D03*
X128856155Y-105996155D03*
X127000000Y-106765000D03*
X125143845Y-105996155D03*
X124375000Y-104140000D03*
X125143845Y-102283845D03*
X127000000Y-101515000D03*
X128856155Y-102283845D03*
D12*
X172720000Y-104140000D03*
D13*
X175345000Y-104140000D03*
X174576155Y-105996155D03*
X172720000Y-106765000D03*
X170863845Y-105996155D03*
X170095000Y-104140000D03*
X170863845Y-102283845D03*
X172720000Y-101515000D03*
X174576155Y-102283845D03*
D12*
X172720000Y-38100000D03*
D13*
X175345000Y-38100000D03*
X174576155Y-39956155D03*
X172720000Y-40725000D03*
X170863845Y-39956155D03*
X170095000Y-38100000D03*
X170863845Y-36243845D03*
X172720000Y-35475000D03*
X174576155Y-36243845D03*
D14*
X124460000Y-53848000D03*
D15*
X127000000Y-53848000D03*
X124460000Y-56388000D03*
X127000000Y-56388000D03*
X124460000Y-58928000D03*
X127000000Y-58928000D03*
X124460000Y-61468000D03*
X127000000Y-61468000D03*
X124460000Y-64008000D03*
X127000000Y-64008000D03*
X124460000Y-66548000D03*
X127000000Y-66548000D03*
X124460000Y-69088000D03*
X127000000Y-69088000D03*
X124460000Y-71628000D03*
X127000000Y-71628000D03*
X124460000Y-74168000D03*
X127000000Y-74168000D03*
D16*
X175260000Y-50546000D03*
X175298100Y-43180000D03*
X175260000Y-46863000D03*
D17*
X128524000Y-83312000D03*
X128524000Y-78232000D03*
X133604000Y-78232000D03*
X133604000Y-83312000D03*
D18*
X131064000Y-80772000D03*
D19*
X158180000Y-102986000D03*
X166940000Y-102986000D03*
D14*
X175260000Y-74168000D03*
D15*
X172720000Y-74168000D03*
X175260000Y-71628000D03*
X172720000Y-71628000D03*
X175260000Y-69088000D03*
X172720000Y-69088000D03*
X175260000Y-66548000D03*
X172720000Y-66548000D03*
X175260000Y-64008000D03*
X172720000Y-64008000D03*
X175260000Y-61468000D03*
X172720000Y-61468000D03*
X175260000Y-58928000D03*
X172720000Y-58928000D03*
X175260000Y-56388000D03*
X172720000Y-56388000D03*
X175260000Y-53848000D03*
X172720000Y-53848000D03*
D19*
X132780000Y-102986000D03*
X141540000Y-102986000D03*
X145480000Y-102986000D03*
X154240000Y-102986000D03*
D14*
X153924000Y-40132000D03*
D15*
X156464000Y-40132000D03*
D16*
X124460000Y-80772000D03*
X162560000Y-99060000D03*
X137160000Y-99060000D03*
X149860000Y-99060000D03*
D12*
X127000000Y-38100000D03*
D13*
X129625000Y-38100000D03*
X128856155Y-39956155D03*
X127000000Y-40725000D03*
X125143845Y-39956155D03*
X124375000Y-38100000D03*
X125143845Y-36243845D03*
X127000000Y-35475000D03*
X128856155Y-36243845D03*
D20*
X149820000Y-38180000D03*
X144820000Y-38180000D03*
D21*
X150820000Y-35480000D03*
X143820000Y-35480000D03*
D11*
X169926000Y-84328000D03*
X147066000Y-90932000D03*
X139954000Y-97790000D03*
X142240000Y-95631000D03*
X144526000Y-93472000D03*
X142748000Y-97790000D03*
X144526000Y-95885000D03*
X147066000Y-94869000D03*
X153924000Y-85217000D03*
X151765000Y-84963000D03*
X151003000Y-80391000D03*
X154305000Y-79629000D03*
X134239000Y-88138000D03*
X132588000Y-88138000D03*
X131318000Y-89535000D03*
X131318000Y-91694000D03*
X132588000Y-93091000D03*
X139700000Y-100076000D03*
X141795500Y-100076000D03*
X143891000Y-100076000D03*
X145986500Y-100838000D03*
X148082000Y-100838000D03*
X160782000Y-89471500D03*
X159004000Y-86106000D03*
X159893000Y-82550000D03*
X161036000Y-86918800D03*
X161036000Y-84328000D03*
X152019000Y-89281000D03*
X153162000Y-90551000D03*
X155638500Y-89852500D03*
X156591000Y-87757000D03*
X154178000Y-88265000D03*
X157099000Y-91440000D03*
X158496000Y-94234000D03*
X156337000Y-97282000D03*
X158686500Y-97282000D03*
X161036000Y-97282000D03*
X161036000Y-94691200D03*
X161036000Y-92100400D03*
X134239000Y-93091000D03*
X136017000Y-92392500D03*
X137985500Y-92392500D03*
X139827000Y-92392500D03*
X143764000Y-90551000D03*
X145732500Y-89027000D03*
X147129500Y-87693500D03*
X148488400Y-83921600D03*
X141668500Y-93154500D03*
X139827000Y-94996000D03*
X138366500Y-96520000D03*
X136017000Y-96837500D03*
X134747000Y-98298000D03*
X135064500Y-100076000D03*
X159829500Y-100139500D03*
X157384750Y-100139500D03*
X154940000Y-99123500D03*
X153289000Y-97790000D03*
X152082500Y-99250500D03*
X152971500Y-100520500D03*
X154749500Y-101663500D03*
X158813500Y-101663500D03*
X161099500Y-101663500D03*
X160337500Y-103251000D03*
X164592000Y-103314500D03*
X166243000Y-101473000D03*
X164973000Y-99060000D03*
X163830000Y-96139000D03*
X163830000Y-93586300D03*
X163830000Y-91033600D03*
X163830000Y-88480900D03*
X163830000Y-85928200D03*
X163830000Y-83375500D03*
X162179000Y-81534000D03*
X159956500Y-79311500D03*
X157734000Y-77978000D03*
X155384500Y-77216000D03*
X153416000Y-77279500D03*
X148463000Y-80391000D03*
X148526500Y-77914500D03*
X146621500Y-76517500D03*
X146748500Y-73215500D03*
X144462500Y-72771000D03*
X140716000Y-72707500D03*
X136080500Y-72644000D03*
X137160000Y-75057000D03*
X132334000Y-72707500D03*
X129286000Y-72898000D03*
X137668000Y-80137000D03*
X136715500Y-78041500D03*
X135128000Y-80454500D03*
X151955500Y-103251000D03*
X147701000Y-103251000D03*
X139319000Y-103251000D03*
X134937500Y-103124000D03*
X135699500Y-101663500D03*
X123190000Y-99060000D03*
X123190000Y-93980000D03*
X123190000Y-88900000D03*
X123126500Y-83820000D03*
X176530000Y-90170000D03*
X176530000Y-100330000D03*
X176530000Y-95250000D03*
X176530000Y-85090000D03*
X176530000Y-80010000D03*
X170815000Y-70929500D03*
X169291000Y-68770500D03*
X165544500Y-64706500D03*
X162179000Y-61722000D03*
X160909000Y-65024000D03*
X165227000Y-57340500D03*
X168084500Y-57340500D03*
X166497000Y-54165500D03*
X170751500Y-54546500D03*
X153543000Y-74485500D03*
X156972000Y-73279000D03*
X160845500Y-71310500D03*
X163385500Y-68643500D03*
X167640000Y-71501000D03*
X166878000Y-76835000D03*
X170434000Y-92837000D03*
X150939500Y-64897000D03*
X152527000Y-66357500D03*
X148082000Y-62230000D03*
X151130000Y-59182000D03*
X151193500Y-63055500D03*
X143637000Y-63944500D03*
X145859500Y-65214500D03*
X140017500Y-66992500D03*
X139319000Y-59944000D03*
X132842000Y-58229500D03*
X139192000Y-55943500D03*
X129730500Y-55245000D03*
X136017000Y-50609500D03*
X141605000Y-55181500D03*
X141224000Y-49593500D03*
X139319000Y-54165500D03*
X123063000Y-52133500D03*
X123190000Y-47625000D03*
X123126500Y-42545000D03*
X135826500Y-34290000D03*
X132016500Y-34290000D03*
X144462500Y-46228000D03*
X145923000Y-43307000D03*
X148653500Y-49276000D03*
X151447500Y-46418500D03*
X158051500Y-53784500D03*
X155892500Y-55880000D03*
X160845500Y-51054000D03*
X150177500Y-54927500D03*
X149860000Y-57150000D03*
X155384500Y-51244500D03*
X154178000Y-47561500D03*
X159702500Y-46101000D03*
X152273000Y-38735000D03*
X158178500Y-49530000D03*
X137096500Y-42354500D03*
X130175000Y-47307500D03*
X137541000Y-61849000D03*
X141287500Y-61849000D03*
X129159000Y-96774000D03*
X148971000Y-40957500D03*
X147891500Y-47244000D03*
X144970500Y-50927000D03*
X138747500Y-89916000D03*
X139573000Y-86423500D03*
X144272000Y-55499000D03*
X138938000Y-84264500D03*
X133096000Y-85750400D03*
X173355000Y-52070000D03*
X158242000Y-41148000D03*
X154178000Y-34290000D03*
X159385000Y-34290000D03*
X164465000Y-34290000D03*
X168910000Y-34290000D03*
X163322000Y-43434000D03*
X168275000Y-43561000D03*
X142557500Y-38735000D03*
X149324600Y-93131744D03*
X150113000Y-93131744D03*
X150901400Y-93131744D03*
X149324600Y-93978544D03*
X150113000Y-93978544D03*
X150901400Y-93978544D03*
X143035306Y-80291684D03*
X143035306Y-81141684D03*
X143035306Y-81991684D03*
X143035306Y-82841684D03*
X142185306Y-80291684D03*
X142185306Y-81141684D03*
X142185306Y-81991684D03*
X142185306Y-82841684D03*
X141335306Y-80291684D03*
X141335306Y-81141684D03*
X141335306Y-81991684D03*
X141335306Y-82841684D03*
X140485306Y-80291684D03*
X140485306Y-81141684D03*
X140485306Y-81991684D03*
X140485306Y-82841684D03*
X138303000Y-74549000D03*
X135001000Y-60833000D03*
X158559500Y-81026000D03*
X153733500Y-93408500D03*
X148590000Y-91440000D03*
X152754792Y-83727779D03*
X144018000Y-85090000D03*
X141698692Y-77453332D03*
X144879717Y-65686283D03*
X148653500Y-69088000D03*
X145351500Y-81144500D03*
X158432500Y-51752500D03*
X144847960Y-75179540D03*
X155130500Y-63246000D03*
X134683500Y-55118000D03*
X138239500Y-81343500D03*
X153626946Y-66711752D03*
X162814000Y-56388000D03*
X153289000Y-60960000D03*
X166941500Y-46736000D03*
X157861000Y-45847000D03*
X161417000Y-42037000D03*
X161417000Y-41148000D03*
X137541000Y-34607500D03*
X150558500Y-41783000D03*
X136652000Y-88067458D03*
X149225004Y-66929000D03*
X149034484Y-68008500D03*
X145633858Y-69286885D03*
X144977944Y-69745094D03*
X144292729Y-70158203D03*
X143670419Y-70771728D03*
X151241999Y-71732760D03*
X151986381Y-72200255D03*
X156972000Y-72148721D03*
X156972000Y-71348618D03*
X156972000Y-70548515D03*
X156972000Y-69748412D03*
X156972000Y-68948309D03*
X156972000Y-68148206D03*
X156972000Y-67348103D03*
X156972000Y-66548000D03*
X150876000Y-81851556D03*
X155194000Y-94488000D03*
X149987000Y-73533000D03*
X146761755Y-92737644D03*
X148717000Y-88392000D03*
X141605000Y-73660000D03*
X147574000Y-66802000D03*
X146339547Y-61425879D03*
X140425790Y-57313210D03*
X145505790Y-62393210D03*
X148082000Y-85153500D03*
X146367500Y-37084000D03*
X146367500Y-39560500D03*
X155384500Y-64960500D03*
X154051000Y-62484000D03*
X149606000Y-58420000D03*
X148082000Y-59690000D03*
X134874000Y-53530500D03*
X151447500Y-67754500D03*
X157543500Y-83312000D03*
X154876500Y-72707500D03*
X160782000Y-62801500D03*
X169672000Y-49403000D03*
X155003500Y-43942000D03*
X140906500Y-34544000D03*
X152463500Y-42164000D03*
X146050000Y-53086000D03*
X146685000Y-78232000D03*
X135453000Y-86050000D03*
X157353000Y-81280000D03*
X153289000Y-49834800D03*
X141605000Y-70027800D03*
X145694400Y-77266800D03*
X132524500Y-74930000D03*
X133108734Y-69469000D03*
X148590000Y-95377000D03*
X138658600Y-67005200D03*
X143961698Y-78359000D03*
X137642600Y-67703647D03*
X143129000Y-77914500D03*
X135966200Y-68325957D03*
X140080984Y-77724000D03*
X138430000Y-73025000D03*
X134620000Y-68580000D03*
X137541000Y-76962000D03*
X133891614Y-68911084D03*
X151320500Y-91503516D03*
X149415500Y-77851000D03*
X151433329Y-95463604D03*
X151384012Y-77470000D03*
X154696457Y-81014641D03*
X154842246Y-83446115D03*
D22*
G36*
X137009341Y-33810312D02*
X136744741Y-34074451D01*
X136601363Y-34419742D01*
X136601037Y-34793618D01*
X136743812Y-35139159D01*
X137007951Y-35403759D01*
X137353242Y-35547137D01*
X137727118Y-35547463D01*
X138072659Y-35404688D01*
X138337259Y-35140549D01*
X138480637Y-34795258D01*
X138480963Y-34421382D01*
X138338188Y-34075841D01*
X138074049Y-33811241D01*
X137878400Y-33730000D01*
X177090000Y-33730000D01*
X177090000Y-42187789D01*
X177024295Y-42028771D01*
X176452340Y-41455817D01*
X175704662Y-41145354D01*
X174895089Y-41144648D01*
X174146871Y-41453805D01*
X173573917Y-42025760D01*
X173263454Y-42773438D01*
X173262748Y-43583011D01*
X173571905Y-44331229D01*
X174143860Y-44904183D01*
X174396283Y-45008998D01*
X174145455Y-45112894D01*
X173997882Y-45421276D01*
X175260000Y-46683395D01*
X176522118Y-45421276D01*
X176374545Y-45112894D01*
X176155313Y-45027680D01*
X176449329Y-44906195D01*
X177022283Y-44334240D01*
X177090000Y-44171159D01*
X177090000Y-45941336D01*
X177010106Y-45748455D01*
X176701724Y-45600882D01*
X175439605Y-46863000D01*
X176701724Y-48125118D01*
X177010106Y-47977545D01*
X177090000Y-47772000D01*
X177090000Y-49645999D01*
X176986195Y-49394771D01*
X176414240Y-48821817D01*
X176142791Y-48709102D01*
X176374545Y-48613106D01*
X176522118Y-48304724D01*
X175260000Y-47042605D01*
X173997882Y-48304724D01*
X174145455Y-48613106D01*
X174384319Y-48705951D01*
X174108771Y-48819805D01*
X173535817Y-49391760D01*
X173225354Y-50139438D01*
X173224648Y-50949011D01*
X173533805Y-51697229D01*
X174105760Y-52270183D01*
X174639202Y-52491688D01*
X174180853Y-52797946D01*
X173990000Y-53083578D01*
X173799147Y-52797946D01*
X173317378Y-52476039D01*
X172749093Y-52363000D01*
X172690907Y-52363000D01*
X172122622Y-52476039D01*
X171640853Y-52797946D01*
X171318946Y-53279715D01*
X171205907Y-53848000D01*
X171318946Y-54416285D01*
X171640853Y-54898054D01*
X171970026Y-55118000D01*
X171640853Y-55337946D01*
X171318946Y-55819715D01*
X171205907Y-56388000D01*
X171318946Y-56956285D01*
X171640853Y-57438054D01*
X171970026Y-57658000D01*
X171640853Y-57877946D01*
X171318946Y-58359715D01*
X171205907Y-58928000D01*
X171318946Y-59496285D01*
X171640853Y-59978054D01*
X171970026Y-60198000D01*
X171640853Y-60417946D01*
X171318946Y-60899715D01*
X171205907Y-61468000D01*
X171318946Y-62036285D01*
X171640853Y-62518054D01*
X171970026Y-62738000D01*
X171640853Y-62957946D01*
X171318946Y-63439715D01*
X171205907Y-64008000D01*
X171318946Y-64576285D01*
X171640853Y-65058054D01*
X171970026Y-65278000D01*
X171640853Y-65497946D01*
X171318946Y-65979715D01*
X171205907Y-66548000D01*
X171318946Y-67116285D01*
X171640853Y-67598054D01*
X171970026Y-67818000D01*
X171640853Y-68037946D01*
X171318946Y-68519715D01*
X171205907Y-69088000D01*
X171318946Y-69656285D01*
X171640853Y-70138054D01*
X171970026Y-70358000D01*
X171640853Y-70577946D01*
X171318946Y-71059715D01*
X171205907Y-71628000D01*
X171318946Y-72196285D01*
X171640853Y-72678054D01*
X171981553Y-72905702D01*
X171838642Y-72972817D01*
X171448355Y-73401076D01*
X171278524Y-73811110D01*
X171399845Y-74041000D01*
X172593000Y-74041000D01*
X172593000Y-74021000D01*
X172847000Y-74021000D01*
X172847000Y-74041000D01*
X172867000Y-74041000D01*
X172867000Y-74295000D01*
X172847000Y-74295000D01*
X172847000Y-75488819D01*
X173076892Y-75609486D01*
X173601358Y-75363183D01*
X173788808Y-75157496D01*
X173806838Y-75253317D01*
X173945910Y-75469441D01*
X174158110Y-75614431D01*
X174410000Y-75665440D01*
X176110000Y-75665440D01*
X176345317Y-75621162D01*
X176561441Y-75482090D01*
X176706431Y-75269890D01*
X176757440Y-75018000D01*
X176757440Y-73318000D01*
X176713162Y-73082683D01*
X176574090Y-72866559D01*
X176361890Y-72721569D01*
X176294459Y-72707914D01*
X176339147Y-72678054D01*
X176661054Y-72196285D01*
X176774093Y-71628000D01*
X176661054Y-71059715D01*
X176339147Y-70577946D01*
X176009974Y-70358000D01*
X176339147Y-70138054D01*
X176661054Y-69656285D01*
X176774093Y-69088000D01*
X176661054Y-68519715D01*
X176339147Y-68037946D01*
X176009974Y-67818000D01*
X176339147Y-67598054D01*
X176661054Y-67116285D01*
X176774093Y-66548000D01*
X176661054Y-65979715D01*
X176339147Y-65497946D01*
X176009974Y-65278000D01*
X176339147Y-65058054D01*
X176661054Y-64576285D01*
X176774093Y-64008000D01*
X176661054Y-63439715D01*
X176339147Y-62957946D01*
X176009974Y-62738000D01*
X176339147Y-62518054D01*
X176661054Y-62036285D01*
X176774093Y-61468000D01*
X176661054Y-60899715D01*
X176339147Y-60417946D01*
X176009974Y-60198000D01*
X176339147Y-59978054D01*
X176661054Y-59496285D01*
X176774093Y-58928000D01*
X176661054Y-58359715D01*
X176339147Y-57877946D01*
X176009974Y-57658000D01*
X176339147Y-57438054D01*
X176661054Y-56956285D01*
X176774093Y-56388000D01*
X176661054Y-55819715D01*
X176339147Y-55337946D01*
X176009974Y-55118000D01*
X176339147Y-54898054D01*
X176661054Y-54416285D01*
X176774093Y-53848000D01*
X176661054Y-53279715D01*
X176339147Y-52797946D01*
X175880499Y-52491488D01*
X176411229Y-52272195D01*
X176984183Y-51700240D01*
X177090000Y-51445404D01*
X177090000Y-108510000D01*
X122630000Y-108510000D01*
X122630000Y-103765200D01*
X132180405Y-103765200D01*
X132215692Y-103978768D01*
X132638564Y-104119149D01*
X133082968Y-104087018D01*
X133344308Y-103978768D01*
X133379595Y-103765200D01*
X140940405Y-103765200D01*
X140975692Y-103978768D01*
X141398564Y-104119149D01*
X141842968Y-104087018D01*
X142104308Y-103978768D01*
X142139595Y-103765200D01*
X144880405Y-103765200D01*
X144915692Y-103978768D01*
X145338564Y-104119149D01*
X145782968Y-104087018D01*
X146044308Y-103978768D01*
X146079595Y-103765200D01*
X153640405Y-103765200D01*
X153675692Y-103978768D01*
X154098564Y-104119149D01*
X154542968Y-104087018D01*
X154804308Y-103978768D01*
X154839595Y-103765200D01*
X157580405Y-103765200D01*
X157615692Y-103978768D01*
X158038564Y-104119149D01*
X158482968Y-104087018D01*
X158744308Y-103978768D01*
X158779595Y-103765200D01*
X166340405Y-103765200D01*
X166375692Y-103978768D01*
X166798564Y-104119149D01*
X167242968Y-104087018D01*
X167504308Y-103978768D01*
X167539595Y-103765200D01*
X166940000Y-103165605D01*
X166340405Y-103765200D01*
X158779595Y-103765200D01*
X158180000Y-103165605D01*
X157580405Y-103765200D01*
X154839595Y-103765200D01*
X154240000Y-103165605D01*
X153640405Y-103765200D01*
X146079595Y-103765200D01*
X145480000Y-103165605D01*
X144880405Y-103765200D01*
X142139595Y-103765200D01*
X141540000Y-103165605D01*
X140940405Y-103765200D01*
X133379595Y-103765200D01*
X132780000Y-103165605D01*
X132180405Y-103765200D01*
X122630000Y-103765200D01*
X122630000Y-102844564D01*
X131646851Y-102844564D01*
X131678982Y-103288968D01*
X131787232Y-103550308D01*
X132000800Y-103585595D01*
X132600395Y-102986000D01*
X132959605Y-102986000D01*
X133559200Y-103585595D01*
X133772768Y-103550308D01*
X133913149Y-103127436D01*
X133892697Y-102844564D01*
X140406851Y-102844564D01*
X140438982Y-103288968D01*
X140547232Y-103550308D01*
X140760800Y-103585595D01*
X141360395Y-102986000D01*
X141719605Y-102986000D01*
X142319200Y-103585595D01*
X142532768Y-103550308D01*
X142673149Y-103127436D01*
X142652697Y-102844564D01*
X144346851Y-102844564D01*
X144378982Y-103288968D01*
X144487232Y-103550308D01*
X144700800Y-103585595D01*
X145300395Y-102986000D01*
X145659605Y-102986000D01*
X146259200Y-103585595D01*
X146472768Y-103550308D01*
X146613149Y-103127436D01*
X146592697Y-102844564D01*
X153106851Y-102844564D01*
X153138982Y-103288968D01*
X153247232Y-103550308D01*
X153460800Y-103585595D01*
X154060395Y-102986000D01*
X154419605Y-102986000D01*
X155019200Y-103585595D01*
X155232768Y-103550308D01*
X155373149Y-103127436D01*
X155352697Y-102844564D01*
X157046851Y-102844564D01*
X157078982Y-103288968D01*
X157187232Y-103550308D01*
X157400800Y-103585595D01*
X158000395Y-102986000D01*
X158359605Y-102986000D01*
X158959200Y-103585595D01*
X159172768Y-103550308D01*
X159313149Y-103127436D01*
X159292697Y-102844564D01*
X165806851Y-102844564D01*
X165838982Y-103288968D01*
X165947232Y-103550308D01*
X166160800Y-103585595D01*
X166760395Y-102986000D01*
X167119605Y-102986000D01*
X167719200Y-103585595D01*
X167932768Y-103550308D01*
X168073149Y-103127436D01*
X168041018Y-102683032D01*
X167932768Y-102421692D01*
X167719200Y-102386405D01*
X167119605Y-102986000D01*
X166760395Y-102986000D01*
X166160800Y-102386405D01*
X165947232Y-102421692D01*
X165806851Y-102844564D01*
X159292697Y-102844564D01*
X159281018Y-102683032D01*
X159172768Y-102421692D01*
X158959200Y-102386405D01*
X158359605Y-102986000D01*
X158000395Y-102986000D01*
X157400800Y-102386405D01*
X157187232Y-102421692D01*
X157046851Y-102844564D01*
X155352697Y-102844564D01*
X155341018Y-102683032D01*
X155232768Y-102421692D01*
X155019200Y-102386405D01*
X154419605Y-102986000D01*
X154060395Y-102986000D01*
X153460800Y-102386405D01*
X153247232Y-102421692D01*
X153106851Y-102844564D01*
X146592697Y-102844564D01*
X146581018Y-102683032D01*
X146472768Y-102421692D01*
X146259200Y-102386405D01*
X145659605Y-102986000D01*
X145300395Y-102986000D01*
X144700800Y-102386405D01*
X144487232Y-102421692D01*
X144346851Y-102844564D01*
X142652697Y-102844564D01*
X142641018Y-102683032D01*
X142532768Y-102421692D01*
X142319200Y-102386405D01*
X141719605Y-102986000D01*
X141360395Y-102986000D01*
X140760800Y-102386405D01*
X140547232Y-102421692D01*
X140406851Y-102844564D01*
X133892697Y-102844564D01*
X133881018Y-102683032D01*
X133772768Y-102421692D01*
X133559200Y-102386405D01*
X132959605Y-102986000D01*
X132600395Y-102986000D01*
X132000800Y-102386405D01*
X131787232Y-102421692D01*
X131646851Y-102844564D01*
X122630000Y-102844564D01*
X122630000Y-102206800D01*
X132180405Y-102206800D01*
X132780000Y-102806395D01*
X133379595Y-102206800D01*
X140940405Y-102206800D01*
X141540000Y-102806395D01*
X142139595Y-102206800D01*
X144880405Y-102206800D01*
X145480000Y-102806395D01*
X146079595Y-102206800D01*
X153640405Y-102206800D01*
X154240000Y-102806395D01*
X154839595Y-102206800D01*
X157580405Y-102206800D01*
X158180000Y-102806395D01*
X158779595Y-102206800D01*
X166340405Y-102206800D01*
X166940000Y-102806395D01*
X167539595Y-102206800D01*
X167504308Y-101993232D01*
X167081436Y-101852851D01*
X166637032Y-101884982D01*
X166375692Y-101993232D01*
X166340405Y-102206800D01*
X158779595Y-102206800D01*
X158744308Y-101993232D01*
X158321436Y-101852851D01*
X157877032Y-101884982D01*
X157615692Y-101993232D01*
X157580405Y-102206800D01*
X154839595Y-102206800D01*
X154804308Y-101993232D01*
X154381436Y-101852851D01*
X153937032Y-101884982D01*
X153675692Y-101993232D01*
X153640405Y-102206800D01*
X146079595Y-102206800D01*
X146044308Y-101993232D01*
X145621436Y-101852851D01*
X145177032Y-101884982D01*
X144915692Y-101993232D01*
X144880405Y-102206800D01*
X142139595Y-102206800D01*
X142104308Y-101993232D01*
X141681436Y-101852851D01*
X141237032Y-101884982D01*
X140975692Y-101993232D01*
X140940405Y-102206800D01*
X133379595Y-102206800D01*
X133344308Y-101993232D01*
X132921436Y-101852851D01*
X132477032Y-101884982D01*
X132215692Y-101993232D01*
X132180405Y-102206800D01*
X122630000Y-102206800D01*
X122630000Y-99463011D01*
X135124648Y-99463011D01*
X135433805Y-100211229D01*
X136005760Y-100784183D01*
X136753438Y-101094646D01*
X137563011Y-101095352D01*
X138311229Y-100786195D01*
X138884183Y-100214240D01*
X139194646Y-99466562D01*
X139194649Y-99463011D01*
X147824648Y-99463011D01*
X148133805Y-100211229D01*
X148705760Y-100784183D01*
X149453438Y-101094646D01*
X150263011Y-101095352D01*
X151011229Y-100786195D01*
X151584183Y-100214240D01*
X151894646Y-99466562D01*
X151894649Y-99463011D01*
X160524648Y-99463011D01*
X160833805Y-100211229D01*
X161405760Y-100784183D01*
X162153438Y-101094646D01*
X162963011Y-101095352D01*
X163711229Y-100786195D01*
X164284183Y-100214240D01*
X164594646Y-99466562D01*
X164595352Y-98656989D01*
X164286195Y-97908771D01*
X163714240Y-97335817D01*
X162966562Y-97025354D01*
X162156989Y-97024648D01*
X161408771Y-97333805D01*
X160835817Y-97905760D01*
X160525354Y-98653438D01*
X160524648Y-99463011D01*
X151894649Y-99463011D01*
X151895352Y-98656989D01*
X151586195Y-97908771D01*
X151014240Y-97335817D01*
X150266562Y-97025354D01*
X149456989Y-97024648D01*
X148708771Y-97333805D01*
X148135817Y-97905760D01*
X147825354Y-98653438D01*
X147824648Y-99463011D01*
X139194649Y-99463011D01*
X139195352Y-98656989D01*
X138886195Y-97908771D01*
X138314240Y-97335817D01*
X137566562Y-97025354D01*
X136756989Y-97024648D01*
X136008771Y-97333805D01*
X135435817Y-97905760D01*
X135125354Y-98653438D01*
X135124648Y-99463011D01*
X122630000Y-99463011D01*
X122630000Y-91626118D01*
X147650037Y-91626118D01*
X147792812Y-91971659D01*
X148056951Y-92236259D01*
X148402242Y-92379637D01*
X148776118Y-92379963D01*
X148865524Y-92343021D01*
X148856276Y-92483815D01*
X149217836Y-92845375D01*
X149159835Y-93033518D01*
X149161377Y-93049938D01*
X149071620Y-93058369D01*
X148676671Y-92663420D01*
X148481580Y-92676234D01*
X148371435Y-93033518D01*
X148406401Y-93405755D01*
X148470230Y-93559852D01*
X148371435Y-93880318D01*
X148406401Y-94252555D01*
X148481580Y-94434054D01*
X148528652Y-94437146D01*
X148403882Y-94437037D01*
X148058341Y-94579812D01*
X147793741Y-94843951D01*
X147650363Y-95189242D01*
X147650037Y-95563118D01*
X147792812Y-95908659D01*
X148056951Y-96173259D01*
X148402242Y-96316637D01*
X148776118Y-96316963D01*
X149121659Y-96174188D01*
X149386259Y-95910049D01*
X149529637Y-95564758D01*
X149529963Y-95190882D01*
X149415533Y-94913940D01*
X149598611Y-94896743D01*
X149727789Y-94843236D01*
X150014774Y-94931709D01*
X150387011Y-94896743D01*
X150516189Y-94843236D01*
X150675380Y-94892312D01*
X150637070Y-94930555D01*
X150493692Y-95275846D01*
X150493366Y-95649722D01*
X150636141Y-95995263D01*
X150900280Y-96259863D01*
X151245571Y-96403241D01*
X151619447Y-96403567D01*
X151964988Y-96260792D01*
X152229588Y-95996653D01*
X152372966Y-95651362D01*
X152373292Y-95277486D01*
X152230517Y-94931945D01*
X151966378Y-94667345D01*
X151630226Y-94527762D01*
X151549332Y-94446868D01*
X151744420Y-94434054D01*
X151854565Y-94076770D01*
X151819599Y-93704533D01*
X151774071Y-93594618D01*
X152793537Y-93594618D01*
X152936312Y-93940159D01*
X153200451Y-94204759D01*
X153545742Y-94348137D01*
X153919618Y-94348463D01*
X154265159Y-94205688D01*
X154529759Y-93941549D01*
X154673137Y-93596258D01*
X154673463Y-93222382D01*
X154530688Y-92876841D01*
X154266549Y-92612241D01*
X153921258Y-92468863D01*
X153547382Y-92468537D01*
X153201841Y-92611312D01*
X152937241Y-92875451D01*
X152793863Y-93220742D01*
X152793537Y-93594618D01*
X151774071Y-93594618D01*
X151755770Y-93550436D01*
X151854565Y-93229970D01*
X151819599Y-92857733D01*
X151744420Y-92676234D01*
X151549329Y-92663420D01*
X151143130Y-93069619D01*
X151048358Y-93040402D01*
X151031199Y-92857733D01*
X151020833Y-92832706D01*
X151369724Y-92483815D01*
X151367067Y-92443357D01*
X151506618Y-92443479D01*
X151852159Y-92300704D01*
X152116759Y-92036565D01*
X152260137Y-91691274D01*
X152260463Y-91317398D01*
X152117688Y-90971857D01*
X151853549Y-90707257D01*
X151508258Y-90563879D01*
X151134382Y-90563553D01*
X150788841Y-90706328D01*
X150524241Y-90970467D01*
X150380863Y-91315758D01*
X150380537Y-91689634D01*
X150523312Y-92035175D01*
X150695029Y-92207191D01*
X150627389Y-92213545D01*
X150498211Y-92267052D01*
X150211226Y-92178579D01*
X149838989Y-92213545D01*
X149709811Y-92267052D01*
X149422826Y-92178579D01*
X149155186Y-92203720D01*
X149386259Y-91973049D01*
X149529637Y-91627758D01*
X149529963Y-91253882D01*
X149387188Y-90908341D01*
X149123049Y-90643741D01*
X148777758Y-90500363D01*
X148403882Y-90500037D01*
X148058341Y-90642812D01*
X147793741Y-90906951D01*
X147650363Y-91252242D01*
X147650037Y-91626118D01*
X122630000Y-91626118D01*
X122630000Y-88253576D01*
X135712037Y-88253576D01*
X135854812Y-88599117D01*
X136118951Y-88863717D01*
X136464242Y-89007095D01*
X136838118Y-89007421D01*
X137183659Y-88864646D01*
X137448259Y-88600507D01*
X137591637Y-88255216D01*
X137591963Y-87881340D01*
X137449188Y-87535799D01*
X137185049Y-87271199D01*
X136839758Y-87127821D01*
X136465882Y-87127495D01*
X136120341Y-87270270D01*
X135855741Y-87534409D01*
X135712363Y-87879700D01*
X135712037Y-88253576D01*
X122630000Y-88253576D01*
X122630000Y-85276118D01*
X143078037Y-85276118D01*
X143220812Y-85621659D01*
X143484951Y-85886259D01*
X143830242Y-86029637D01*
X144204118Y-86029963D01*
X144549659Y-85887188D01*
X144814259Y-85623049D01*
X144957637Y-85277758D01*
X144957963Y-84903882D01*
X144815188Y-84558341D01*
X144551049Y-84293741D01*
X144205758Y-84150363D01*
X143831882Y-84150037D01*
X143486341Y-84292812D01*
X143221741Y-84556951D01*
X143078363Y-84902242D01*
X143078037Y-85276118D01*
X122630000Y-85276118D01*
X122630000Y-84536868D01*
X127478737Y-84536868D01*
X127589641Y-84814099D01*
X128235593Y-85057323D01*
X128925453Y-85034836D01*
X129458359Y-84814099D01*
X129569263Y-84536868D01*
X132558737Y-84536868D01*
X132669641Y-84814099D01*
X133315593Y-85057323D01*
X134005453Y-85034836D01*
X134538359Y-84814099D01*
X134649263Y-84536868D01*
X133604000Y-83491605D01*
X132558737Y-84536868D01*
X129569263Y-84536868D01*
X128524000Y-83491605D01*
X127478737Y-84536868D01*
X122630000Y-84536868D01*
X122630000Y-83023593D01*
X126778677Y-83023593D01*
X126801164Y-83713453D01*
X127021901Y-84246359D01*
X127299132Y-84357263D01*
X128344395Y-83312000D01*
X128703605Y-83312000D01*
X129748868Y-84357263D01*
X130026099Y-84246359D01*
X130269323Y-83600407D01*
X130250521Y-83023593D01*
X131858677Y-83023593D01*
X131881164Y-83713453D01*
X132101901Y-84246359D01*
X132379132Y-84357263D01*
X133424395Y-83312000D01*
X133783605Y-83312000D01*
X134828868Y-84357263D01*
X135106099Y-84246359D01*
X135231282Y-83913897D01*
X151814829Y-83913897D01*
X151957604Y-84259438D01*
X152221743Y-84524038D01*
X152567034Y-84667416D01*
X152940910Y-84667742D01*
X153286451Y-84524967D01*
X153551051Y-84260828D01*
X153694429Y-83915537D01*
X153694676Y-83632233D01*
X153902283Y-83632233D01*
X154045058Y-83977774D01*
X154309197Y-84242374D01*
X154654488Y-84385752D01*
X155028364Y-84386078D01*
X155373905Y-84243303D01*
X155638505Y-83979164D01*
X155781883Y-83633873D01*
X155782209Y-83259997D01*
X155639434Y-82914456D01*
X155375295Y-82649856D01*
X155030004Y-82506478D01*
X154656128Y-82506152D01*
X154310587Y-82648927D01*
X154045987Y-82913066D01*
X153902609Y-83258357D01*
X153902283Y-83632233D01*
X153694676Y-83632233D01*
X153694755Y-83541661D01*
X153551980Y-83196120D01*
X153287841Y-82931520D01*
X152942550Y-82788142D01*
X152568674Y-82787816D01*
X152223133Y-82930591D01*
X151958533Y-83194730D01*
X151815155Y-83540021D01*
X151814829Y-83913897D01*
X135231282Y-83913897D01*
X135349323Y-83600407D01*
X135326836Y-82910547D01*
X135106099Y-82377641D01*
X134828868Y-82266737D01*
X133783605Y-83312000D01*
X133424395Y-83312000D01*
X132379132Y-82266737D01*
X132101901Y-82377641D01*
X131858677Y-83023593D01*
X130250521Y-83023593D01*
X130246836Y-82910547D01*
X130026099Y-82377641D01*
X129748868Y-82266737D01*
X128703605Y-83312000D01*
X128344395Y-83312000D01*
X127299132Y-82266737D01*
X127021901Y-82377641D01*
X126778677Y-83023593D01*
X122630000Y-83023593D01*
X122630000Y-81672001D01*
X122733805Y-81923229D01*
X123305760Y-82496183D01*
X124053438Y-82806646D01*
X124863011Y-82807352D01*
X125611229Y-82498195D01*
X126023009Y-82087132D01*
X127478737Y-82087132D01*
X128524000Y-83132395D01*
X129569263Y-82087132D01*
X129458359Y-81809901D01*
X128812407Y-81566677D01*
X128122547Y-81589164D01*
X127589641Y-81809901D01*
X127478737Y-82087132D01*
X126023009Y-82087132D01*
X126184183Y-81926240D01*
X126494646Y-81178562D01*
X126494718Y-81095795D01*
X129428716Y-81095795D01*
X129677106Y-81696943D01*
X130136637Y-82157278D01*
X130737352Y-82406716D01*
X131387795Y-82407284D01*
X131988943Y-82158894D01*
X132060830Y-82087132D01*
X132558737Y-82087132D01*
X133604000Y-83132395D01*
X134649263Y-82087132D01*
X134538359Y-81809901D01*
X133892407Y-81566677D01*
X133202547Y-81589164D01*
X132669641Y-81809901D01*
X132558737Y-82087132D01*
X132060830Y-82087132D01*
X132449278Y-81699363D01*
X132519762Y-81529618D01*
X137299537Y-81529618D01*
X137442312Y-81875159D01*
X137706451Y-82139759D01*
X138051742Y-82283137D01*
X138425618Y-82283463D01*
X138771159Y-82140688D01*
X139035759Y-81876549D01*
X139179137Y-81531258D01*
X139179311Y-81330618D01*
X144411537Y-81330618D01*
X144554312Y-81676159D01*
X144818451Y-81940759D01*
X145163742Y-82084137D01*
X145537618Y-82084463D01*
X145883159Y-81941688D01*
X146147759Y-81677549D01*
X146291137Y-81332258D01*
X146291251Y-81200759D01*
X153756494Y-81200759D01*
X153899269Y-81546300D01*
X154163408Y-81810900D01*
X154508699Y-81954278D01*
X154882575Y-81954604D01*
X155228116Y-81811829D01*
X155492716Y-81547690D01*
X155632058Y-81212118D01*
X157619537Y-81212118D01*
X157762312Y-81557659D01*
X158026451Y-81822259D01*
X158371742Y-81965637D01*
X158745618Y-81965963D01*
X159091159Y-81823188D01*
X159355759Y-81559049D01*
X159499137Y-81213758D01*
X159499463Y-80839882D01*
X159356688Y-80494341D01*
X159092549Y-80229741D01*
X158747258Y-80086363D01*
X158373382Y-80086037D01*
X158027841Y-80228812D01*
X157763241Y-80492951D01*
X157619863Y-80838242D01*
X157619537Y-81212118D01*
X155632058Y-81212118D01*
X155636094Y-81202399D01*
X155636420Y-80828523D01*
X155493645Y-80482982D01*
X155229506Y-80218382D01*
X154884215Y-80075004D01*
X154510339Y-80074678D01*
X154164798Y-80217453D01*
X153900198Y-80481592D01*
X153756820Y-80826883D01*
X153756494Y-81200759D01*
X146291251Y-81200759D01*
X146291463Y-80958382D01*
X146148688Y-80612841D01*
X145884549Y-80348241D01*
X145539258Y-80204863D01*
X145165382Y-80204537D01*
X144819841Y-80347312D01*
X144555241Y-80611451D01*
X144411863Y-80956742D01*
X144411537Y-81330618D01*
X139179311Y-81330618D01*
X139179463Y-81157382D01*
X139036688Y-80811841D01*
X138772549Y-80547241D01*
X138427258Y-80403863D01*
X138053382Y-80403537D01*
X137707841Y-80546312D01*
X137443241Y-80810451D01*
X137299863Y-81155742D01*
X137299537Y-81529618D01*
X132519762Y-81529618D01*
X132698716Y-81098648D01*
X132699284Y-80448205D01*
X132450894Y-79847057D01*
X132061387Y-79456868D01*
X132558737Y-79456868D01*
X132669641Y-79734099D01*
X133315593Y-79977323D01*
X134005453Y-79954836D01*
X134538359Y-79734099D01*
X134649263Y-79456868D01*
X133604000Y-78411605D01*
X132558737Y-79456868D01*
X132061387Y-79456868D01*
X131991363Y-79386722D01*
X131390648Y-79137284D01*
X130740205Y-79136716D01*
X130139057Y-79385106D01*
X129678722Y-79844637D01*
X129429284Y-80445352D01*
X129428716Y-81095795D01*
X126494718Y-81095795D01*
X126495352Y-80368989D01*
X126186195Y-79620771D01*
X126022578Y-79456868D01*
X127478737Y-79456868D01*
X127589641Y-79734099D01*
X128235593Y-79977323D01*
X128925453Y-79954836D01*
X129458359Y-79734099D01*
X129569263Y-79456868D01*
X128524000Y-78411605D01*
X127478737Y-79456868D01*
X126022578Y-79456868D01*
X125614240Y-79047817D01*
X124866562Y-78737354D01*
X124056989Y-78736648D01*
X123308771Y-79045805D01*
X122735817Y-79617760D01*
X122630000Y-79872596D01*
X122630000Y-77943593D01*
X126778677Y-77943593D01*
X126801164Y-78633453D01*
X127021901Y-79166359D01*
X127299132Y-79277263D01*
X128344395Y-78232000D01*
X128703605Y-78232000D01*
X129748868Y-79277263D01*
X130026099Y-79166359D01*
X130269323Y-78520407D01*
X130250521Y-77943593D01*
X131858677Y-77943593D01*
X131881164Y-78633453D01*
X132101901Y-79166359D01*
X132379132Y-79277263D01*
X133424395Y-78232000D01*
X133783605Y-78232000D01*
X134828868Y-79277263D01*
X135106099Y-79166359D01*
X135349323Y-78520407D01*
X135329430Y-77910118D01*
X139141021Y-77910118D01*
X139283796Y-78255659D01*
X139547935Y-78520259D01*
X139893226Y-78663637D01*
X140267102Y-78663963D01*
X140612643Y-78521188D01*
X140877243Y-78257049D01*
X140964152Y-78047749D01*
X141165643Y-78249591D01*
X141510934Y-78392969D01*
X141884810Y-78393295D01*
X142230351Y-78250520D01*
X142244953Y-78235944D01*
X142331812Y-78446159D01*
X142595951Y-78710759D01*
X142941242Y-78854137D01*
X143149494Y-78854319D01*
X143164510Y-78890659D01*
X143428649Y-79155259D01*
X143773940Y-79298637D01*
X144147816Y-79298963D01*
X144493357Y-79156188D01*
X144757957Y-78892049D01*
X144901335Y-78546758D01*
X144901661Y-78172882D01*
X144758886Y-77827341D01*
X144494747Y-77562741D01*
X144230266Y-77452918D01*
X144754437Y-77452918D01*
X144897212Y-77798459D01*
X145161351Y-78063059D01*
X145506642Y-78206437D01*
X145880518Y-78206763D01*
X146226059Y-78063988D01*
X146252975Y-78037118D01*
X148475537Y-78037118D01*
X148618312Y-78382659D01*
X148882451Y-78647259D01*
X149227742Y-78790637D01*
X149601618Y-78790963D01*
X149947159Y-78648188D01*
X150211759Y-78384049D01*
X150355137Y-78038758D01*
X150355463Y-77664882D01*
X150351842Y-77656118D01*
X150444049Y-77656118D01*
X150586824Y-78001659D01*
X150850963Y-78266259D01*
X151196254Y-78409637D01*
X151570130Y-78409963D01*
X151915671Y-78267188D01*
X152180271Y-78003049D01*
X152323649Y-77657758D01*
X152323975Y-77283882D01*
X152181200Y-76938341D01*
X151917061Y-76673741D01*
X151571770Y-76530363D01*
X151197894Y-76530037D01*
X150852353Y-76672812D01*
X150587753Y-76936951D01*
X150444375Y-77282242D01*
X150444049Y-77656118D01*
X150351842Y-77656118D01*
X150212688Y-77319341D01*
X149948549Y-77054741D01*
X149603258Y-76911363D01*
X149229382Y-76911037D01*
X148883841Y-77053812D01*
X148619241Y-77317951D01*
X148475863Y-77663242D01*
X148475537Y-78037118D01*
X146252975Y-78037118D01*
X146490659Y-77799849D01*
X146634037Y-77454558D01*
X146634363Y-77080682D01*
X146491588Y-76735141D01*
X146227449Y-76470541D01*
X145882158Y-76327163D01*
X145508282Y-76326837D01*
X145162741Y-76469612D01*
X144898141Y-76733751D01*
X144754763Y-77079042D01*
X144754437Y-77452918D01*
X144230266Y-77452918D01*
X144149456Y-77419363D01*
X143941204Y-77419181D01*
X143926188Y-77382841D01*
X143662049Y-77118241D01*
X143316758Y-76974863D01*
X142942882Y-76974537D01*
X142597341Y-77117312D01*
X142582739Y-77131888D01*
X142495880Y-76921673D01*
X142231741Y-76657073D01*
X141886450Y-76513695D01*
X141512574Y-76513369D01*
X141167033Y-76656144D01*
X140902433Y-76920283D01*
X140815524Y-77129583D01*
X140614033Y-76927741D01*
X140268742Y-76784363D01*
X139894866Y-76784037D01*
X139549325Y-76926812D01*
X139284725Y-77190951D01*
X139141347Y-77536242D01*
X139141021Y-77910118D01*
X135329430Y-77910118D01*
X135326836Y-77830547D01*
X135106099Y-77297641D01*
X134828868Y-77186737D01*
X133783605Y-78232000D01*
X133424395Y-78232000D01*
X132379132Y-77186737D01*
X132101901Y-77297641D01*
X131858677Y-77943593D01*
X130250521Y-77943593D01*
X130246836Y-77830547D01*
X130026099Y-77297641D01*
X129748868Y-77186737D01*
X128703605Y-78232000D01*
X128344395Y-78232000D01*
X127299132Y-77186737D01*
X127021901Y-77297641D01*
X126778677Y-77943593D01*
X122630000Y-77943593D01*
X122630000Y-77007132D01*
X127478737Y-77007132D01*
X128524000Y-78052395D01*
X129569263Y-77007132D01*
X132558737Y-77007132D01*
X133604000Y-78052395D01*
X134508277Y-77148118D01*
X136601037Y-77148118D01*
X136743812Y-77493659D01*
X137007951Y-77758259D01*
X137353242Y-77901637D01*
X137727118Y-77901963D01*
X138072659Y-77759188D01*
X138337259Y-77495049D01*
X138480637Y-77149758D01*
X138480963Y-76775882D01*
X138338188Y-76430341D01*
X138074049Y-76165741D01*
X137728758Y-76022363D01*
X137354882Y-76022037D01*
X137009341Y-76164812D01*
X136744741Y-76428951D01*
X136601363Y-76774242D01*
X136601037Y-77148118D01*
X134508277Y-77148118D01*
X134649263Y-77007132D01*
X134538359Y-76729901D01*
X133892407Y-76486677D01*
X133202547Y-76509164D01*
X132669641Y-76729901D01*
X132558737Y-77007132D01*
X129569263Y-77007132D01*
X129458359Y-76729901D01*
X128812407Y-76486677D01*
X128122547Y-76509164D01*
X127589641Y-76729901D01*
X127478737Y-77007132D01*
X122630000Y-77007132D01*
X122630000Y-56388000D01*
X122945907Y-56388000D01*
X123058946Y-56956285D01*
X123380853Y-57438054D01*
X123710026Y-57658000D01*
X123380853Y-57877946D01*
X123058946Y-58359715D01*
X122945907Y-58928000D01*
X123058946Y-59496285D01*
X123380853Y-59978054D01*
X123710026Y-60198000D01*
X123380853Y-60417946D01*
X123058946Y-60899715D01*
X122945907Y-61468000D01*
X123058946Y-62036285D01*
X123380853Y-62518054D01*
X123710026Y-62738000D01*
X123380853Y-62957946D01*
X123058946Y-63439715D01*
X122945907Y-64008000D01*
X123058946Y-64576285D01*
X123380853Y-65058054D01*
X123710026Y-65278000D01*
X123380853Y-65497946D01*
X123058946Y-65979715D01*
X122945907Y-66548000D01*
X123058946Y-67116285D01*
X123380853Y-67598054D01*
X123710026Y-67818000D01*
X123380853Y-68037946D01*
X123058946Y-68519715D01*
X122945907Y-69088000D01*
X123058946Y-69656285D01*
X123380853Y-70138054D01*
X123710026Y-70358000D01*
X123380853Y-70577946D01*
X123058946Y-71059715D01*
X122945907Y-71628000D01*
X123058946Y-72196285D01*
X123380853Y-72678054D01*
X123710026Y-72898000D01*
X123380853Y-73117946D01*
X123058946Y-73599715D01*
X122945907Y-74168000D01*
X123058946Y-74736285D01*
X123380853Y-75218054D01*
X123862622Y-75539961D01*
X124430907Y-75653000D01*
X124489093Y-75653000D01*
X125057378Y-75539961D01*
X125539147Y-75218054D01*
X125730000Y-74932422D01*
X125920853Y-75218054D01*
X126402622Y-75539961D01*
X126970907Y-75653000D01*
X127029093Y-75653000D01*
X127597378Y-75539961D01*
X128079147Y-75218054D01*
X128147258Y-75116118D01*
X131584537Y-75116118D01*
X131727312Y-75461659D01*
X131991451Y-75726259D01*
X132336742Y-75869637D01*
X132710618Y-75869963D01*
X133056159Y-75727188D01*
X133320759Y-75463049D01*
X133464137Y-75117758D01*
X133464463Y-74743882D01*
X133460842Y-74735118D01*
X137363037Y-74735118D01*
X137505812Y-75080659D01*
X137769951Y-75345259D01*
X138115242Y-75488637D01*
X138489118Y-75488963D01*
X138787538Y-75365658D01*
X143907997Y-75365658D01*
X144050772Y-75711199D01*
X144314911Y-75975799D01*
X144660202Y-76119177D01*
X145034078Y-76119503D01*
X145379619Y-75976728D01*
X145644219Y-75712589D01*
X145787597Y-75367298D01*
X145787923Y-74993422D01*
X145645148Y-74647881D01*
X145522372Y-74524890D01*
X171278524Y-74524890D01*
X171448355Y-74934924D01*
X171838642Y-75363183D01*
X172363108Y-75609486D01*
X172593000Y-75488819D01*
X172593000Y-74295000D01*
X171399845Y-74295000D01*
X171278524Y-74524890D01*
X145522372Y-74524890D01*
X145381009Y-74383281D01*
X145035718Y-74239903D01*
X144661842Y-74239577D01*
X144316301Y-74382352D01*
X144051701Y-74646491D01*
X143908323Y-74991782D01*
X143907997Y-75365658D01*
X138787538Y-75365658D01*
X138834659Y-75346188D01*
X139099259Y-75082049D01*
X139242637Y-74736758D01*
X139242963Y-74362882D01*
X139100188Y-74017341D01*
X138921811Y-73838653D01*
X138961659Y-73822188D01*
X139226259Y-73558049D01*
X139369637Y-73212758D01*
X139369963Y-72838882D01*
X139227188Y-72493341D01*
X138963049Y-72228741D01*
X138617758Y-72085363D01*
X138243882Y-72085037D01*
X137898341Y-72227812D01*
X137633741Y-72491951D01*
X137490363Y-72837242D01*
X137490037Y-73211118D01*
X137632812Y-73556659D01*
X137811189Y-73735347D01*
X137771341Y-73751812D01*
X137506741Y-74015951D01*
X137363363Y-74361242D01*
X137363037Y-74735118D01*
X133460842Y-74735118D01*
X133321688Y-74398341D01*
X133057549Y-74133741D01*
X132712258Y-73990363D01*
X132338382Y-73990037D01*
X131992841Y-74132812D01*
X131728241Y-74396951D01*
X131584863Y-74742242D01*
X131584537Y-75116118D01*
X128147258Y-75116118D01*
X128401054Y-74736285D01*
X128514093Y-74168000D01*
X128401054Y-73599715D01*
X128079147Y-73117946D01*
X127749974Y-72898000D01*
X128079147Y-72678054D01*
X128401054Y-72196285D01*
X128456233Y-71918878D01*
X150302036Y-71918878D01*
X150444811Y-72264419D01*
X150708950Y-72529019D01*
X151054241Y-72672397D01*
X151164641Y-72672493D01*
X151189193Y-72731914D01*
X151453332Y-72996514D01*
X151798623Y-73139892D01*
X152172499Y-73140218D01*
X152518040Y-72997443D01*
X152782640Y-72733304D01*
X152926018Y-72388013D01*
X152926344Y-72014137D01*
X152783569Y-71668596D01*
X152519430Y-71403996D01*
X152174139Y-71260618D01*
X152063739Y-71260522D01*
X152039187Y-71201101D01*
X151775048Y-70936501D01*
X151429757Y-70793123D01*
X151055881Y-70792797D01*
X150710340Y-70935572D01*
X150445740Y-71199711D01*
X150302362Y-71545002D01*
X150302036Y-71918878D01*
X128456233Y-71918878D01*
X128514093Y-71628000D01*
X128401054Y-71059715D01*
X128079147Y-70577946D01*
X127749974Y-70358000D01*
X128079147Y-70138054D01*
X128401054Y-69656285D01*
X128401286Y-69655118D01*
X132168771Y-69655118D01*
X132311546Y-70000659D01*
X132575685Y-70265259D01*
X132920976Y-70408637D01*
X133294852Y-70408963D01*
X133640393Y-70266188D01*
X133692754Y-70213918D01*
X140665037Y-70213918D01*
X140807812Y-70559459D01*
X141071951Y-70824059D01*
X141417242Y-70967437D01*
X141791118Y-70967763D01*
X141815118Y-70957846D01*
X142730456Y-70957846D01*
X142873231Y-71303387D01*
X143137370Y-71567987D01*
X143482661Y-71711365D01*
X143856537Y-71711691D01*
X144202078Y-71568916D01*
X144466678Y-71304777D01*
X144567719Y-71061445D01*
X144824388Y-70955391D01*
X145088988Y-70691252D01*
X145091587Y-70684994D01*
X145164062Y-70685057D01*
X145509603Y-70542282D01*
X145774203Y-70278143D01*
X145795511Y-70226827D01*
X145819976Y-70226848D01*
X146165517Y-70084073D01*
X146430117Y-69819934D01*
X146573495Y-69474643D01*
X146573669Y-69274118D01*
X147713537Y-69274118D01*
X147856312Y-69619659D01*
X148120451Y-69884259D01*
X148465742Y-70027637D01*
X148839618Y-70027963D01*
X149185159Y-69885188D01*
X149449759Y-69621049D01*
X149593137Y-69275758D01*
X149593463Y-68901882D01*
X149555529Y-68810074D01*
X149566143Y-68805688D01*
X149830743Y-68541549D01*
X149974121Y-68196258D01*
X149974447Y-67822382D01*
X149882710Y-67600361D01*
X150021263Y-67462049D01*
X150164641Y-67116758D01*
X150164831Y-66897870D01*
X152686983Y-66897870D01*
X152829758Y-67243411D01*
X153093897Y-67508011D01*
X153439188Y-67651389D01*
X153813064Y-67651715D01*
X154158605Y-67508940D01*
X154423205Y-67244801D01*
X154566583Y-66899510D01*
X154566727Y-66734118D01*
X156032037Y-66734118D01*
X156120474Y-66948151D01*
X156032363Y-67160345D01*
X156032037Y-67534221D01*
X156120474Y-67748254D01*
X156032363Y-67960448D01*
X156032037Y-68334324D01*
X156120474Y-68548357D01*
X156032363Y-68760551D01*
X156032037Y-69134427D01*
X156120474Y-69348460D01*
X156032363Y-69560654D01*
X156032037Y-69934530D01*
X156120474Y-70148563D01*
X156032363Y-70360757D01*
X156032037Y-70734633D01*
X156120474Y-70948666D01*
X156032363Y-71160860D01*
X156032037Y-71534736D01*
X156120474Y-71748769D01*
X156032363Y-71960963D01*
X156032037Y-72334839D01*
X156174812Y-72680380D01*
X156438951Y-72944980D01*
X156784242Y-73088358D01*
X157158118Y-73088684D01*
X157503659Y-72945909D01*
X157768259Y-72681770D01*
X157911637Y-72336479D01*
X157911963Y-71962603D01*
X157823526Y-71748570D01*
X157911637Y-71536376D01*
X157911963Y-71162500D01*
X157823526Y-70948467D01*
X157911637Y-70736273D01*
X157911963Y-70362397D01*
X157823526Y-70148364D01*
X157911637Y-69936170D01*
X157911963Y-69562294D01*
X157823526Y-69348261D01*
X157911637Y-69136067D01*
X157911963Y-68762191D01*
X157823526Y-68548158D01*
X157911637Y-68335964D01*
X157911963Y-67962088D01*
X157823526Y-67748055D01*
X157911637Y-67535861D01*
X157911963Y-67161985D01*
X157823526Y-66947952D01*
X157911637Y-66735758D01*
X157911963Y-66361882D01*
X157769188Y-66016341D01*
X157505049Y-65751741D01*
X157159758Y-65608363D01*
X156785882Y-65608037D01*
X156440341Y-65750812D01*
X156175741Y-66014951D01*
X156032363Y-66360242D01*
X156032037Y-66734118D01*
X154566727Y-66734118D01*
X154566909Y-66525634D01*
X154424134Y-66180093D01*
X154159995Y-65915493D01*
X153814704Y-65772115D01*
X153440828Y-65771789D01*
X153095287Y-65914564D01*
X152830687Y-66178703D01*
X152687309Y-66523994D01*
X152686983Y-66897870D01*
X150164831Y-66897870D01*
X150164967Y-66742882D01*
X150022192Y-66397341D01*
X149758053Y-66132741D01*
X149412762Y-65989363D01*
X149038886Y-65989037D01*
X148693345Y-66131812D01*
X148428745Y-66395951D01*
X148285367Y-66741242D01*
X148285041Y-67115118D01*
X148376778Y-67337139D01*
X148238225Y-67475451D01*
X148094847Y-67820742D01*
X148094521Y-68194618D01*
X148132455Y-68286426D01*
X148121841Y-68290812D01*
X147857241Y-68554951D01*
X147713863Y-68900242D01*
X147713537Y-69274118D01*
X146573669Y-69274118D01*
X146573821Y-69100767D01*
X146431046Y-68755226D01*
X146166907Y-68490626D01*
X145821616Y-68347248D01*
X145447740Y-68346922D01*
X145102199Y-68489697D01*
X144837599Y-68753836D01*
X144816291Y-68805152D01*
X144791826Y-68805131D01*
X144446285Y-68947906D01*
X144181685Y-69212045D01*
X144179086Y-69218303D01*
X144106611Y-69218240D01*
X143761070Y-69361015D01*
X143496470Y-69625154D01*
X143395429Y-69868486D01*
X143138760Y-69974540D01*
X142874160Y-70238679D01*
X142730782Y-70583970D01*
X142730456Y-70957846D01*
X141815118Y-70957846D01*
X142136659Y-70824988D01*
X142401259Y-70560849D01*
X142544637Y-70215558D01*
X142544963Y-69841682D01*
X142402188Y-69496141D01*
X142138049Y-69231541D01*
X141792758Y-69088163D01*
X141418882Y-69087837D01*
X141073341Y-69230612D01*
X140808741Y-69494751D01*
X140665363Y-69840042D01*
X140665037Y-70213918D01*
X133692754Y-70213918D01*
X133904993Y-70002049D01*
X133967735Y-69850951D01*
X134077732Y-69851047D01*
X134423273Y-69708272D01*
X134612080Y-69519794D01*
X134806118Y-69519963D01*
X135151659Y-69377188D01*
X135416259Y-69113049D01*
X135418533Y-69107573D01*
X135433151Y-69122216D01*
X135778442Y-69265594D01*
X136152318Y-69265920D01*
X136497859Y-69123145D01*
X136762459Y-68859006D01*
X136905837Y-68513715D01*
X136906027Y-68296027D01*
X137109551Y-68499906D01*
X137454842Y-68643284D01*
X137828718Y-68643610D01*
X138174259Y-68500835D01*
X138438859Y-68236696D01*
X138560018Y-67944915D01*
X138844718Y-67945163D01*
X139190259Y-67802388D01*
X139454859Y-67538249D01*
X139598237Y-67192958D01*
X139598563Y-66819082D01*
X139455788Y-66473541D01*
X139191649Y-66208941D01*
X138846358Y-66065563D01*
X138472482Y-66065237D01*
X138126941Y-66208012D01*
X137862341Y-66472151D01*
X137741182Y-66763932D01*
X137456482Y-66763684D01*
X137110941Y-66906459D01*
X136846341Y-67170598D01*
X136702963Y-67515889D01*
X136702773Y-67733577D01*
X136499249Y-67529698D01*
X136153958Y-67386320D01*
X135780082Y-67385994D01*
X135434541Y-67528769D01*
X135169941Y-67792908D01*
X135167667Y-67798384D01*
X135153049Y-67783741D01*
X134807758Y-67640363D01*
X134433882Y-67640037D01*
X134088341Y-67782812D01*
X133899534Y-67971290D01*
X133705496Y-67971121D01*
X133359955Y-68113896D01*
X133095355Y-68378035D01*
X133032613Y-68529133D01*
X132922616Y-68529037D01*
X132577075Y-68671812D01*
X132312475Y-68935951D01*
X132169097Y-69281242D01*
X132168771Y-69655118D01*
X128401286Y-69655118D01*
X128514093Y-69088000D01*
X128401054Y-68519715D01*
X128079147Y-68037946D01*
X127749974Y-67818000D01*
X128079147Y-67598054D01*
X128401054Y-67116285D01*
X128514093Y-66548000D01*
X128401054Y-65979715D01*
X128329350Y-65872401D01*
X143939754Y-65872401D01*
X144082529Y-66217942D01*
X144346668Y-66482542D01*
X144691959Y-66625920D01*
X145065835Y-66626246D01*
X145411376Y-66483471D01*
X145675976Y-66219332D01*
X145819354Y-65874041D01*
X145819680Y-65500165D01*
X145676905Y-65154624D01*
X145412766Y-64890024D01*
X145067475Y-64746646D01*
X144693599Y-64746320D01*
X144348058Y-64889095D01*
X144083458Y-65153234D01*
X143940080Y-65498525D01*
X143939754Y-65872401D01*
X128329350Y-65872401D01*
X128079147Y-65497946D01*
X127749974Y-65278000D01*
X128079147Y-65058054D01*
X128401054Y-64576285D01*
X128514093Y-64008000D01*
X128401054Y-63439715D01*
X128395978Y-63432118D01*
X154190537Y-63432118D01*
X154333312Y-63777659D01*
X154597451Y-64042259D01*
X154942742Y-64185637D01*
X155316618Y-64185963D01*
X155662159Y-64043188D01*
X155926759Y-63779049D01*
X156070137Y-63433758D01*
X156070463Y-63059882D01*
X155927688Y-62714341D01*
X155663549Y-62449741D01*
X155318258Y-62306363D01*
X154944382Y-62306037D01*
X154598841Y-62448812D01*
X154334241Y-62712951D01*
X154190863Y-63058242D01*
X154190537Y-63432118D01*
X128395978Y-63432118D01*
X128079147Y-62957946D01*
X127749974Y-62738000D01*
X128079147Y-62518054D01*
X128401054Y-62036285D01*
X128514093Y-61468000D01*
X128424805Y-61019118D01*
X134061037Y-61019118D01*
X134203812Y-61364659D01*
X134467951Y-61629259D01*
X134813242Y-61772637D01*
X135187118Y-61772963D01*
X135532659Y-61630188D01*
X135797259Y-61366049D01*
X135888582Y-61146118D01*
X152349037Y-61146118D01*
X152491812Y-61491659D01*
X152755951Y-61756259D01*
X153101242Y-61899637D01*
X153475118Y-61899963D01*
X153820659Y-61757188D01*
X154085259Y-61493049D01*
X154228637Y-61147758D01*
X154228963Y-60773882D01*
X154086188Y-60428341D01*
X153822049Y-60163741D01*
X153476758Y-60020363D01*
X153102882Y-60020037D01*
X152757341Y-60162812D01*
X152492741Y-60426951D01*
X152349363Y-60772242D01*
X152349037Y-61146118D01*
X135888582Y-61146118D01*
X135940637Y-61020758D01*
X135940963Y-60646882D01*
X135798188Y-60301341D01*
X135534049Y-60036741D01*
X135188758Y-59893363D01*
X134814882Y-59893037D01*
X134469341Y-60035812D01*
X134204741Y-60299951D01*
X134061363Y-60645242D01*
X134061037Y-61019118D01*
X128424805Y-61019118D01*
X128401054Y-60899715D01*
X128079147Y-60417946D01*
X127749974Y-60198000D01*
X128079147Y-59978054D01*
X128401054Y-59496285D01*
X128514093Y-58928000D01*
X128401054Y-58359715D01*
X128079147Y-57877946D01*
X127749974Y-57658000D01*
X128079147Y-57438054D01*
X128401054Y-56956285D01*
X128477071Y-56574118D01*
X161874037Y-56574118D01*
X162016812Y-56919659D01*
X162280951Y-57184259D01*
X162626242Y-57327637D01*
X163000118Y-57327963D01*
X163345659Y-57185188D01*
X163610259Y-56921049D01*
X163753637Y-56575758D01*
X163753963Y-56201882D01*
X163611188Y-55856341D01*
X163347049Y-55591741D01*
X163001758Y-55448363D01*
X162627882Y-55448037D01*
X162282341Y-55590812D01*
X162017741Y-55854951D01*
X161874363Y-56200242D01*
X161874037Y-56574118D01*
X128477071Y-56574118D01*
X128514093Y-56388000D01*
X128401054Y-55819715D01*
X128079147Y-55337946D01*
X128028520Y-55304118D01*
X133743537Y-55304118D01*
X133886312Y-55649659D01*
X134150451Y-55914259D01*
X134495742Y-56057637D01*
X134869618Y-56057963D01*
X135215159Y-55915188D01*
X135479759Y-55651049D01*
X135623137Y-55305758D01*
X135623463Y-54931882D01*
X135480688Y-54586341D01*
X135216549Y-54321741D01*
X134871258Y-54178363D01*
X134497382Y-54178037D01*
X134151841Y-54320812D01*
X133887241Y-54584951D01*
X133743863Y-54930242D01*
X133743537Y-55304118D01*
X128028520Y-55304118D01*
X127738447Y-55110298D01*
X127881358Y-55043183D01*
X128271645Y-54614924D01*
X128441476Y-54204890D01*
X128320155Y-53975000D01*
X127127000Y-53975000D01*
X127127000Y-53995000D01*
X126873000Y-53995000D01*
X126873000Y-53975000D01*
X126853000Y-53975000D01*
X126853000Y-53721000D01*
X126873000Y-53721000D01*
X126873000Y-52527181D01*
X127127000Y-52527181D01*
X127127000Y-53721000D01*
X128320155Y-53721000D01*
X128441476Y-53491110D01*
X128271645Y-53081076D01*
X127881358Y-52652817D01*
X127356892Y-52406514D01*
X127127000Y-52527181D01*
X126873000Y-52527181D01*
X126643108Y-52406514D01*
X126118642Y-52652817D01*
X125931192Y-52858504D01*
X125913162Y-52762683D01*
X125774090Y-52546559D01*
X125561890Y-52401569D01*
X125310000Y-52350560D01*
X123610000Y-52350560D01*
X123374683Y-52394838D01*
X123158559Y-52533910D01*
X123013569Y-52746110D01*
X122962560Y-52998000D01*
X122962560Y-54698000D01*
X123006838Y-54933317D01*
X123145910Y-55149441D01*
X123358110Y-55294431D01*
X123425541Y-55308086D01*
X123380853Y-55337946D01*
X123058946Y-55819715D01*
X122945907Y-56388000D01*
X122630000Y-56388000D01*
X122630000Y-51938618D01*
X157492537Y-51938618D01*
X157635312Y-52284159D01*
X157899451Y-52548759D01*
X158244742Y-52692137D01*
X158618618Y-52692463D01*
X158964159Y-52549688D01*
X159228759Y-52285549D01*
X159372137Y-51940258D01*
X159372463Y-51566382D01*
X159229688Y-51220841D01*
X158965549Y-50956241D01*
X158620258Y-50812863D01*
X158246382Y-50812537D01*
X157900841Y-50955312D01*
X157636241Y-51219451D01*
X157492863Y-51564742D01*
X157492537Y-51938618D01*
X122630000Y-51938618D01*
X122630000Y-46922118D01*
X166001537Y-46922118D01*
X166144312Y-47267659D01*
X166408451Y-47532259D01*
X166753742Y-47675637D01*
X167127618Y-47675963D01*
X167473159Y-47533188D01*
X167737759Y-47269049D01*
X167881137Y-46923758D01*
X167881463Y-46549882D01*
X167862105Y-46503031D01*
X173216595Y-46503031D01*
X173234386Y-47312409D01*
X173509894Y-47977545D01*
X173818276Y-48125118D01*
X175080395Y-46863000D01*
X173818276Y-45600882D01*
X173509894Y-45748455D01*
X173216595Y-46503031D01*
X167862105Y-46503031D01*
X167738688Y-46204341D01*
X167474549Y-45939741D01*
X167129258Y-45796363D01*
X166755382Y-45796037D01*
X166409841Y-45938812D01*
X166145241Y-46202951D01*
X166001863Y-46548242D01*
X166001537Y-46922118D01*
X122630000Y-46922118D01*
X122630000Y-46033118D01*
X156921037Y-46033118D01*
X157063812Y-46378659D01*
X157327951Y-46643259D01*
X157673242Y-46786637D01*
X158047118Y-46786963D01*
X158392659Y-46644188D01*
X158657259Y-46380049D01*
X158800637Y-46034758D01*
X158800963Y-45660882D01*
X158658188Y-45315341D01*
X158394049Y-45050741D01*
X158048758Y-44907363D01*
X157674882Y-44907037D01*
X157329341Y-45049812D01*
X157064741Y-45313951D01*
X156921363Y-45659242D01*
X156921037Y-46033118D01*
X122630000Y-46033118D01*
X122630000Y-41969118D01*
X149618537Y-41969118D01*
X149761312Y-42314659D01*
X150025451Y-42579259D01*
X150370742Y-42722637D01*
X150744618Y-42722963D01*
X151090159Y-42580188D01*
X151354759Y-42316049D01*
X151498137Y-41970758D01*
X151498463Y-41596882D01*
X151355688Y-41251341D01*
X151091549Y-40986741D01*
X150746258Y-40843363D01*
X150372382Y-40843037D01*
X150026841Y-40985812D01*
X149762241Y-41249951D01*
X149618863Y-41595242D01*
X149618537Y-41969118D01*
X122630000Y-41969118D01*
X122630000Y-38429530D01*
X143559782Y-38429530D01*
X143751201Y-38892800D01*
X144105335Y-39247553D01*
X144568271Y-39439781D01*
X145069530Y-39440218D01*
X145532800Y-39248799D01*
X145887553Y-38894665D01*
X146079781Y-38431729D01*
X146079782Y-38429530D01*
X148559782Y-38429530D01*
X148751201Y-38892800D01*
X149105335Y-39247553D01*
X149568271Y-39439781D01*
X150069530Y-39440218D01*
X150452447Y-39282000D01*
X152426560Y-39282000D01*
X152426560Y-40982000D01*
X152470838Y-41217317D01*
X152609910Y-41433441D01*
X152822110Y-41578431D01*
X153074000Y-41629440D01*
X154774000Y-41629440D01*
X155009317Y-41585162D01*
X155225441Y-41446090D01*
X155370431Y-41233890D01*
X155384086Y-41166459D01*
X155413946Y-41211147D01*
X155895715Y-41533054D01*
X156464000Y-41646093D01*
X157032285Y-41533054D01*
X157330014Y-41334118D01*
X160477037Y-41334118D01*
X160583885Y-41592709D01*
X160477363Y-41849242D01*
X160477037Y-42223118D01*
X160619812Y-42568659D01*
X160883951Y-42833259D01*
X161229242Y-42976637D01*
X161603118Y-42976963D01*
X161948659Y-42834188D01*
X162213259Y-42570049D01*
X162356637Y-42224758D01*
X162356963Y-41850882D01*
X162250115Y-41592291D01*
X162356637Y-41335758D01*
X162356963Y-40961882D01*
X162214188Y-40616341D01*
X161950049Y-40351741D01*
X161604758Y-40208363D01*
X161230882Y-40208037D01*
X160885341Y-40350812D01*
X160620741Y-40614951D01*
X160477363Y-40960242D01*
X160477037Y-41334118D01*
X157330014Y-41334118D01*
X157514054Y-41211147D01*
X157835961Y-40729378D01*
X157949000Y-40161093D01*
X157949000Y-40102907D01*
X157835961Y-39534622D01*
X157514054Y-39052853D01*
X157032285Y-38730946D01*
X156464000Y-38617907D01*
X155895715Y-38730946D01*
X155413946Y-39052853D01*
X155386150Y-39094452D01*
X155377162Y-39046683D01*
X155238090Y-38830559D01*
X155025890Y-38685569D01*
X154774000Y-38634560D01*
X153074000Y-38634560D01*
X152838683Y-38678838D01*
X152622559Y-38817910D01*
X152477569Y-39030110D01*
X152426560Y-39282000D01*
X150452447Y-39282000D01*
X150532800Y-39248799D01*
X150887553Y-38894665D01*
X151079781Y-38431729D01*
X151080218Y-37930470D01*
X150888799Y-37467200D01*
X150534665Y-37112447D01*
X150071729Y-36920219D01*
X149570470Y-36919782D01*
X149107200Y-37111201D01*
X148752447Y-37465335D01*
X148560219Y-37928271D01*
X148559782Y-38429530D01*
X146079782Y-38429530D01*
X146080218Y-37930470D01*
X145888799Y-37467200D01*
X145534665Y-37112447D01*
X145071729Y-36920219D01*
X144570470Y-36919782D01*
X144107200Y-37111201D01*
X143752447Y-37465335D01*
X143560219Y-37928271D01*
X143559782Y-38429530D01*
X122630000Y-38429530D01*
X122630000Y-35759236D01*
X142409755Y-35759236D01*
X142623963Y-36277658D01*
X143020256Y-36674643D01*
X143538303Y-36889755D01*
X144099236Y-36890245D01*
X144617658Y-36676037D01*
X145014643Y-36279744D01*
X145229755Y-35761697D01*
X145229757Y-35759236D01*
X149409755Y-35759236D01*
X149623963Y-36277658D01*
X150020256Y-36674643D01*
X150538303Y-36889755D01*
X151099236Y-36890245D01*
X151617658Y-36676037D01*
X152014643Y-36279744D01*
X152229755Y-35761697D01*
X152230245Y-35200764D01*
X152016037Y-34682342D01*
X151619744Y-34285357D01*
X151101697Y-34070245D01*
X150540764Y-34069755D01*
X150022342Y-34283963D01*
X149625357Y-34680256D01*
X149410245Y-35198303D01*
X149409755Y-35759236D01*
X145229757Y-35759236D01*
X145230245Y-35200764D01*
X145016037Y-34682342D01*
X144619744Y-34285357D01*
X144101697Y-34070245D01*
X143540764Y-34069755D01*
X143022342Y-34283963D01*
X142625357Y-34680256D01*
X142410245Y-35198303D01*
X142409755Y-35759236D01*
X122630000Y-35759236D01*
X122630000Y-33730000D01*
X137203710Y-33730000D01*
X137009341Y-33810312D01*
X137009341Y-33810312D01*
G37*
X137009341Y-33810312D02*
X136744741Y-34074451D01*
X136601363Y-34419742D01*
X136601037Y-34793618D01*
X136743812Y-35139159D01*
X137007951Y-35403759D01*
X137353242Y-35547137D01*
X137727118Y-35547463D01*
X138072659Y-35404688D01*
X138337259Y-35140549D01*
X138480637Y-34795258D01*
X138480963Y-34421382D01*
X138338188Y-34075841D01*
X138074049Y-33811241D01*
X137878400Y-33730000D01*
X177090000Y-33730000D01*
X177090000Y-42187789D01*
X177024295Y-42028771D01*
X176452340Y-41455817D01*
X175704662Y-41145354D01*
X174895089Y-41144648D01*
X174146871Y-41453805D01*
X173573917Y-42025760D01*
X173263454Y-42773438D01*
X173262748Y-43583011D01*
X173571905Y-44331229D01*
X174143860Y-44904183D01*
X174396283Y-45008998D01*
X174145455Y-45112894D01*
X173997882Y-45421276D01*
X175260000Y-46683395D01*
X176522118Y-45421276D01*
X176374545Y-45112894D01*
X176155313Y-45027680D01*
X176449329Y-44906195D01*
X177022283Y-44334240D01*
X177090000Y-44171159D01*
X177090000Y-45941336D01*
X177010106Y-45748455D01*
X176701724Y-45600882D01*
X175439605Y-46863000D01*
X176701724Y-48125118D01*
X177010106Y-47977545D01*
X177090000Y-47772000D01*
X177090000Y-49645999D01*
X176986195Y-49394771D01*
X176414240Y-48821817D01*
X176142791Y-48709102D01*
X176374545Y-48613106D01*
X176522118Y-48304724D01*
X175260000Y-47042605D01*
X173997882Y-48304724D01*
X174145455Y-48613106D01*
X174384319Y-48705951D01*
X174108771Y-48819805D01*
X173535817Y-49391760D01*
X173225354Y-50139438D01*
X173224648Y-50949011D01*
X173533805Y-51697229D01*
X174105760Y-52270183D01*
X174639202Y-52491688D01*
X174180853Y-52797946D01*
X173990000Y-53083578D01*
X173799147Y-52797946D01*
X173317378Y-52476039D01*
X172749093Y-52363000D01*
X172690907Y-52363000D01*
X172122622Y-52476039D01*
X171640853Y-52797946D01*
X171318946Y-53279715D01*
X171205907Y-53848000D01*
X171318946Y-54416285D01*
X171640853Y-54898054D01*
X171970026Y-55118000D01*
X171640853Y-55337946D01*
X171318946Y-55819715D01*
X171205907Y-56388000D01*
X171318946Y-56956285D01*
X171640853Y-57438054D01*
X171970026Y-57658000D01*
X171640853Y-57877946D01*
X171318946Y-58359715D01*
X171205907Y-58928000D01*
X171318946Y-59496285D01*
X171640853Y-59978054D01*
X171970026Y-60198000D01*
X171640853Y-60417946D01*
X171318946Y-60899715D01*
X171205907Y-61468000D01*
X171318946Y-62036285D01*
X171640853Y-62518054D01*
X171970026Y-62738000D01*
X171640853Y-62957946D01*
X171318946Y-63439715D01*
X171205907Y-64008000D01*
X171318946Y-64576285D01*
X171640853Y-65058054D01*
X171970026Y-65278000D01*
X171640853Y-65497946D01*
X171318946Y-65979715D01*
X171205907Y-66548000D01*
X171318946Y-67116285D01*
X171640853Y-67598054D01*
X171970026Y-67818000D01*
X171640853Y-68037946D01*
X171318946Y-68519715D01*
X171205907Y-69088000D01*
X171318946Y-69656285D01*
X171640853Y-70138054D01*
X171970026Y-70358000D01*
X171640853Y-70577946D01*
X171318946Y-71059715D01*
X171205907Y-71628000D01*
X171318946Y-72196285D01*
X171640853Y-72678054D01*
X171981553Y-72905702D01*
X171838642Y-72972817D01*
X171448355Y-73401076D01*
X171278524Y-73811110D01*
X171399845Y-74041000D01*
X172593000Y-74041000D01*
X172593000Y-74021000D01*
X172847000Y-74021000D01*
X172847000Y-74041000D01*
X172867000Y-74041000D01*
X172867000Y-74295000D01*
X172847000Y-74295000D01*
X172847000Y-75488819D01*
X173076892Y-75609486D01*
X173601358Y-75363183D01*
X173788808Y-75157496D01*
X173806838Y-75253317D01*
X173945910Y-75469441D01*
X174158110Y-75614431D01*
X174410000Y-75665440D01*
X176110000Y-75665440D01*
X176345317Y-75621162D01*
X176561441Y-75482090D01*
X176706431Y-75269890D01*
X176757440Y-75018000D01*
X176757440Y-73318000D01*
X176713162Y-73082683D01*
X176574090Y-72866559D01*
X176361890Y-72721569D01*
X176294459Y-72707914D01*
X176339147Y-72678054D01*
X176661054Y-72196285D01*
X176774093Y-71628000D01*
X176661054Y-71059715D01*
X176339147Y-70577946D01*
X176009974Y-70358000D01*
X176339147Y-70138054D01*
X176661054Y-69656285D01*
X176774093Y-69088000D01*
X176661054Y-68519715D01*
X176339147Y-68037946D01*
X176009974Y-67818000D01*
X176339147Y-67598054D01*
X176661054Y-67116285D01*
X176774093Y-66548000D01*
X176661054Y-65979715D01*
X176339147Y-65497946D01*
X176009974Y-65278000D01*
X176339147Y-65058054D01*
X176661054Y-64576285D01*
X176774093Y-64008000D01*
X176661054Y-63439715D01*
X176339147Y-62957946D01*
X176009974Y-62738000D01*
X176339147Y-62518054D01*
X176661054Y-62036285D01*
X176774093Y-61468000D01*
X176661054Y-60899715D01*
X176339147Y-60417946D01*
X176009974Y-60198000D01*
X176339147Y-59978054D01*
X176661054Y-59496285D01*
X176774093Y-58928000D01*
X176661054Y-58359715D01*
X176339147Y-57877946D01*
X176009974Y-57658000D01*
X176339147Y-57438054D01*
X176661054Y-56956285D01*
X176774093Y-56388000D01*
X176661054Y-55819715D01*
X176339147Y-55337946D01*
X176009974Y-55118000D01*
X176339147Y-54898054D01*
X176661054Y-54416285D01*
X176774093Y-53848000D01*
X176661054Y-53279715D01*
X176339147Y-52797946D01*
X175880499Y-52491488D01*
X176411229Y-52272195D01*
X176984183Y-51700240D01*
X177090000Y-51445404D01*
X177090000Y-108510000D01*
X122630000Y-108510000D01*
X122630000Y-103765200D01*
X132180405Y-103765200D01*
X132215692Y-103978768D01*
X132638564Y-104119149D01*
X133082968Y-104087018D01*
X133344308Y-103978768D01*
X133379595Y-103765200D01*
X140940405Y-103765200D01*
X140975692Y-103978768D01*
X141398564Y-104119149D01*
X141842968Y-104087018D01*
X142104308Y-103978768D01*
X142139595Y-103765200D01*
X144880405Y-103765200D01*
X144915692Y-103978768D01*
X145338564Y-104119149D01*
X145782968Y-104087018D01*
X146044308Y-103978768D01*
X146079595Y-103765200D01*
X153640405Y-103765200D01*
X153675692Y-103978768D01*
X154098564Y-104119149D01*
X154542968Y-104087018D01*
X154804308Y-103978768D01*
X154839595Y-103765200D01*
X157580405Y-103765200D01*
X157615692Y-103978768D01*
X158038564Y-104119149D01*
X158482968Y-104087018D01*
X158744308Y-103978768D01*
X158779595Y-103765200D01*
X166340405Y-103765200D01*
X166375692Y-103978768D01*
X166798564Y-104119149D01*
X167242968Y-104087018D01*
X167504308Y-103978768D01*
X167539595Y-103765200D01*
X166940000Y-103165605D01*
X166340405Y-103765200D01*
X158779595Y-103765200D01*
X158180000Y-103165605D01*
X157580405Y-103765200D01*
X154839595Y-103765200D01*
X154240000Y-103165605D01*
X153640405Y-103765200D01*
X146079595Y-103765200D01*
X145480000Y-103165605D01*
X144880405Y-103765200D01*
X142139595Y-103765200D01*
X141540000Y-103165605D01*
X140940405Y-103765200D01*
X133379595Y-103765200D01*
X132780000Y-103165605D01*
X132180405Y-103765200D01*
X122630000Y-103765200D01*
X122630000Y-102844564D01*
X131646851Y-102844564D01*
X131678982Y-103288968D01*
X131787232Y-103550308D01*
X132000800Y-103585595D01*
X132600395Y-102986000D01*
X132959605Y-102986000D01*
X133559200Y-103585595D01*
X133772768Y-103550308D01*
X133913149Y-103127436D01*
X133892697Y-102844564D01*
X140406851Y-102844564D01*
X140438982Y-103288968D01*
X140547232Y-103550308D01*
X140760800Y-103585595D01*
X141360395Y-102986000D01*
X141719605Y-102986000D01*
X142319200Y-103585595D01*
X142532768Y-103550308D01*
X142673149Y-103127436D01*
X142652697Y-102844564D01*
X144346851Y-102844564D01*
X144378982Y-103288968D01*
X144487232Y-103550308D01*
X144700800Y-103585595D01*
X145300395Y-102986000D01*
X145659605Y-102986000D01*
X146259200Y-103585595D01*
X146472768Y-103550308D01*
X146613149Y-103127436D01*
X146592697Y-102844564D01*
X153106851Y-102844564D01*
X153138982Y-103288968D01*
X153247232Y-103550308D01*
X153460800Y-103585595D01*
X154060395Y-102986000D01*
X154419605Y-102986000D01*
X155019200Y-103585595D01*
X155232768Y-103550308D01*
X155373149Y-103127436D01*
X155352697Y-102844564D01*
X157046851Y-102844564D01*
X157078982Y-103288968D01*
X157187232Y-103550308D01*
X157400800Y-103585595D01*
X158000395Y-102986000D01*
X158359605Y-102986000D01*
X158959200Y-103585595D01*
X159172768Y-103550308D01*
X159313149Y-103127436D01*
X159292697Y-102844564D01*
X165806851Y-102844564D01*
X165838982Y-103288968D01*
X165947232Y-103550308D01*
X166160800Y-103585595D01*
X166760395Y-102986000D01*
X167119605Y-102986000D01*
X167719200Y-103585595D01*
X167932768Y-103550308D01*
X168073149Y-103127436D01*
X168041018Y-102683032D01*
X167932768Y-102421692D01*
X167719200Y-102386405D01*
X167119605Y-102986000D01*
X166760395Y-102986000D01*
X166160800Y-102386405D01*
X165947232Y-102421692D01*
X165806851Y-102844564D01*
X159292697Y-102844564D01*
X159281018Y-102683032D01*
X159172768Y-102421692D01*
X158959200Y-102386405D01*
X158359605Y-102986000D01*
X158000395Y-102986000D01*
X157400800Y-102386405D01*
X157187232Y-102421692D01*
X157046851Y-102844564D01*
X155352697Y-102844564D01*
X155341018Y-102683032D01*
X155232768Y-102421692D01*
X155019200Y-102386405D01*
X154419605Y-102986000D01*
X154060395Y-102986000D01*
X153460800Y-102386405D01*
X153247232Y-102421692D01*
X153106851Y-102844564D01*
X146592697Y-102844564D01*
X146581018Y-102683032D01*
X146472768Y-102421692D01*
X146259200Y-102386405D01*
X145659605Y-102986000D01*
X145300395Y-102986000D01*
X144700800Y-102386405D01*
X144487232Y-102421692D01*
X144346851Y-102844564D01*
X142652697Y-102844564D01*
X142641018Y-102683032D01*
X142532768Y-102421692D01*
X142319200Y-102386405D01*
X141719605Y-102986000D01*
X141360395Y-102986000D01*
X140760800Y-102386405D01*
X140547232Y-102421692D01*
X140406851Y-102844564D01*
X133892697Y-102844564D01*
X133881018Y-102683032D01*
X133772768Y-102421692D01*
X133559200Y-102386405D01*
X132959605Y-102986000D01*
X132600395Y-102986000D01*
X132000800Y-102386405D01*
X131787232Y-102421692D01*
X131646851Y-102844564D01*
X122630000Y-102844564D01*
X122630000Y-102206800D01*
X132180405Y-102206800D01*
X132780000Y-102806395D01*
X133379595Y-102206800D01*
X140940405Y-102206800D01*
X141540000Y-102806395D01*
X142139595Y-102206800D01*
X144880405Y-102206800D01*
X145480000Y-102806395D01*
X146079595Y-102206800D01*
X153640405Y-102206800D01*
X154240000Y-102806395D01*
X154839595Y-102206800D01*
X157580405Y-102206800D01*
X158180000Y-102806395D01*
X158779595Y-102206800D01*
X166340405Y-102206800D01*
X166940000Y-102806395D01*
X167539595Y-102206800D01*
X167504308Y-101993232D01*
X167081436Y-101852851D01*
X166637032Y-101884982D01*
X166375692Y-101993232D01*
X166340405Y-102206800D01*
X158779595Y-102206800D01*
X158744308Y-101993232D01*
X158321436Y-101852851D01*
X157877032Y-101884982D01*
X157615692Y-101993232D01*
X157580405Y-102206800D01*
X154839595Y-102206800D01*
X154804308Y-101993232D01*
X154381436Y-101852851D01*
X153937032Y-101884982D01*
X153675692Y-101993232D01*
X153640405Y-102206800D01*
X146079595Y-102206800D01*
X146044308Y-101993232D01*
X145621436Y-101852851D01*
X145177032Y-101884982D01*
X144915692Y-101993232D01*
X144880405Y-102206800D01*
X142139595Y-102206800D01*
X142104308Y-101993232D01*
X141681436Y-101852851D01*
X141237032Y-101884982D01*
X140975692Y-101993232D01*
X140940405Y-102206800D01*
X133379595Y-102206800D01*
X133344308Y-101993232D01*
X132921436Y-101852851D01*
X132477032Y-101884982D01*
X132215692Y-101993232D01*
X132180405Y-102206800D01*
X122630000Y-102206800D01*
X122630000Y-99463011D01*
X135124648Y-99463011D01*
X135433805Y-100211229D01*
X136005760Y-100784183D01*
X136753438Y-101094646D01*
X137563011Y-101095352D01*
X138311229Y-100786195D01*
X138884183Y-100214240D01*
X139194646Y-99466562D01*
X139194649Y-99463011D01*
X147824648Y-99463011D01*
X148133805Y-100211229D01*
X148705760Y-100784183D01*
X149453438Y-101094646D01*
X150263011Y-101095352D01*
X151011229Y-100786195D01*
X151584183Y-100214240D01*
X151894646Y-99466562D01*
X151894649Y-99463011D01*
X160524648Y-99463011D01*
X160833805Y-100211229D01*
X161405760Y-100784183D01*
X162153438Y-101094646D01*
X162963011Y-101095352D01*
X163711229Y-100786195D01*
X164284183Y-100214240D01*
X164594646Y-99466562D01*
X164595352Y-98656989D01*
X164286195Y-97908771D01*
X163714240Y-97335817D01*
X162966562Y-97025354D01*
X162156989Y-97024648D01*
X161408771Y-97333805D01*
X160835817Y-97905760D01*
X160525354Y-98653438D01*
X160524648Y-99463011D01*
X151894649Y-99463011D01*
X151895352Y-98656989D01*
X151586195Y-97908771D01*
X151014240Y-97335817D01*
X150266562Y-97025354D01*
X149456989Y-97024648D01*
X148708771Y-97333805D01*
X148135817Y-97905760D01*
X147825354Y-98653438D01*
X147824648Y-99463011D01*
X139194649Y-99463011D01*
X139195352Y-98656989D01*
X138886195Y-97908771D01*
X138314240Y-97335817D01*
X137566562Y-97025354D01*
X136756989Y-97024648D01*
X136008771Y-97333805D01*
X135435817Y-97905760D01*
X135125354Y-98653438D01*
X135124648Y-99463011D01*
X122630000Y-99463011D01*
X122630000Y-91626118D01*
X147650037Y-91626118D01*
X147792812Y-91971659D01*
X148056951Y-92236259D01*
X148402242Y-92379637D01*
X148776118Y-92379963D01*
X148865524Y-92343021D01*
X148856276Y-92483815D01*
X149217836Y-92845375D01*
X149159835Y-93033518D01*
X149161377Y-93049938D01*
X149071620Y-93058369D01*
X148676671Y-92663420D01*
X148481580Y-92676234D01*
X148371435Y-93033518D01*
X148406401Y-93405755D01*
X148470230Y-93559852D01*
X148371435Y-93880318D01*
X148406401Y-94252555D01*
X148481580Y-94434054D01*
X148528652Y-94437146D01*
X148403882Y-94437037D01*
X148058341Y-94579812D01*
X147793741Y-94843951D01*
X147650363Y-95189242D01*
X147650037Y-95563118D01*
X147792812Y-95908659D01*
X148056951Y-96173259D01*
X148402242Y-96316637D01*
X148776118Y-96316963D01*
X149121659Y-96174188D01*
X149386259Y-95910049D01*
X149529637Y-95564758D01*
X149529963Y-95190882D01*
X149415533Y-94913940D01*
X149598611Y-94896743D01*
X149727789Y-94843236D01*
X150014774Y-94931709D01*
X150387011Y-94896743D01*
X150516189Y-94843236D01*
X150675380Y-94892312D01*
X150637070Y-94930555D01*
X150493692Y-95275846D01*
X150493366Y-95649722D01*
X150636141Y-95995263D01*
X150900280Y-96259863D01*
X151245571Y-96403241D01*
X151619447Y-96403567D01*
X151964988Y-96260792D01*
X152229588Y-95996653D01*
X152372966Y-95651362D01*
X152373292Y-95277486D01*
X152230517Y-94931945D01*
X151966378Y-94667345D01*
X151630226Y-94527762D01*
X151549332Y-94446868D01*
X151744420Y-94434054D01*
X151854565Y-94076770D01*
X151819599Y-93704533D01*
X151774071Y-93594618D01*
X152793537Y-93594618D01*
X152936312Y-93940159D01*
X153200451Y-94204759D01*
X153545742Y-94348137D01*
X153919618Y-94348463D01*
X154265159Y-94205688D01*
X154529759Y-93941549D01*
X154673137Y-93596258D01*
X154673463Y-93222382D01*
X154530688Y-92876841D01*
X154266549Y-92612241D01*
X153921258Y-92468863D01*
X153547382Y-92468537D01*
X153201841Y-92611312D01*
X152937241Y-92875451D01*
X152793863Y-93220742D01*
X152793537Y-93594618D01*
X151774071Y-93594618D01*
X151755770Y-93550436D01*
X151854565Y-93229970D01*
X151819599Y-92857733D01*
X151744420Y-92676234D01*
X151549329Y-92663420D01*
X151143130Y-93069619D01*
X151048358Y-93040402D01*
X151031199Y-92857733D01*
X151020833Y-92832706D01*
X151369724Y-92483815D01*
X151367067Y-92443357D01*
X151506618Y-92443479D01*
X151852159Y-92300704D01*
X152116759Y-92036565D01*
X152260137Y-91691274D01*
X152260463Y-91317398D01*
X152117688Y-90971857D01*
X151853549Y-90707257D01*
X151508258Y-90563879D01*
X151134382Y-90563553D01*
X150788841Y-90706328D01*
X150524241Y-90970467D01*
X150380863Y-91315758D01*
X150380537Y-91689634D01*
X150523312Y-92035175D01*
X150695029Y-92207191D01*
X150627389Y-92213545D01*
X150498211Y-92267052D01*
X150211226Y-92178579D01*
X149838989Y-92213545D01*
X149709811Y-92267052D01*
X149422826Y-92178579D01*
X149155186Y-92203720D01*
X149386259Y-91973049D01*
X149529637Y-91627758D01*
X149529963Y-91253882D01*
X149387188Y-90908341D01*
X149123049Y-90643741D01*
X148777758Y-90500363D01*
X148403882Y-90500037D01*
X148058341Y-90642812D01*
X147793741Y-90906951D01*
X147650363Y-91252242D01*
X147650037Y-91626118D01*
X122630000Y-91626118D01*
X122630000Y-88253576D01*
X135712037Y-88253576D01*
X135854812Y-88599117D01*
X136118951Y-88863717D01*
X136464242Y-89007095D01*
X136838118Y-89007421D01*
X137183659Y-88864646D01*
X137448259Y-88600507D01*
X137591637Y-88255216D01*
X137591963Y-87881340D01*
X137449188Y-87535799D01*
X137185049Y-87271199D01*
X136839758Y-87127821D01*
X136465882Y-87127495D01*
X136120341Y-87270270D01*
X135855741Y-87534409D01*
X135712363Y-87879700D01*
X135712037Y-88253576D01*
X122630000Y-88253576D01*
X122630000Y-85276118D01*
X143078037Y-85276118D01*
X143220812Y-85621659D01*
X143484951Y-85886259D01*
X143830242Y-86029637D01*
X144204118Y-86029963D01*
X144549659Y-85887188D01*
X144814259Y-85623049D01*
X144957637Y-85277758D01*
X144957963Y-84903882D01*
X144815188Y-84558341D01*
X144551049Y-84293741D01*
X144205758Y-84150363D01*
X143831882Y-84150037D01*
X143486341Y-84292812D01*
X143221741Y-84556951D01*
X143078363Y-84902242D01*
X143078037Y-85276118D01*
X122630000Y-85276118D01*
X122630000Y-84536868D01*
X127478737Y-84536868D01*
X127589641Y-84814099D01*
X128235593Y-85057323D01*
X128925453Y-85034836D01*
X129458359Y-84814099D01*
X129569263Y-84536868D01*
X132558737Y-84536868D01*
X132669641Y-84814099D01*
X133315593Y-85057323D01*
X134005453Y-85034836D01*
X134538359Y-84814099D01*
X134649263Y-84536868D01*
X133604000Y-83491605D01*
X132558737Y-84536868D01*
X129569263Y-84536868D01*
X128524000Y-83491605D01*
X127478737Y-84536868D01*
X122630000Y-84536868D01*
X122630000Y-83023593D01*
X126778677Y-83023593D01*
X126801164Y-83713453D01*
X127021901Y-84246359D01*
X127299132Y-84357263D01*
X128344395Y-83312000D01*
X128703605Y-83312000D01*
X129748868Y-84357263D01*
X130026099Y-84246359D01*
X130269323Y-83600407D01*
X130250521Y-83023593D01*
X131858677Y-83023593D01*
X131881164Y-83713453D01*
X132101901Y-84246359D01*
X132379132Y-84357263D01*
X133424395Y-83312000D01*
X133783605Y-83312000D01*
X134828868Y-84357263D01*
X135106099Y-84246359D01*
X135231282Y-83913897D01*
X151814829Y-83913897D01*
X151957604Y-84259438D01*
X152221743Y-84524038D01*
X152567034Y-84667416D01*
X152940910Y-84667742D01*
X153286451Y-84524967D01*
X153551051Y-84260828D01*
X153694429Y-83915537D01*
X153694676Y-83632233D01*
X153902283Y-83632233D01*
X154045058Y-83977774D01*
X154309197Y-84242374D01*
X154654488Y-84385752D01*
X155028364Y-84386078D01*
X155373905Y-84243303D01*
X155638505Y-83979164D01*
X155781883Y-83633873D01*
X155782209Y-83259997D01*
X155639434Y-82914456D01*
X155375295Y-82649856D01*
X155030004Y-82506478D01*
X154656128Y-82506152D01*
X154310587Y-82648927D01*
X154045987Y-82913066D01*
X153902609Y-83258357D01*
X153902283Y-83632233D01*
X153694676Y-83632233D01*
X153694755Y-83541661D01*
X153551980Y-83196120D01*
X153287841Y-82931520D01*
X152942550Y-82788142D01*
X152568674Y-82787816D01*
X152223133Y-82930591D01*
X151958533Y-83194730D01*
X151815155Y-83540021D01*
X151814829Y-83913897D01*
X135231282Y-83913897D01*
X135349323Y-83600407D01*
X135326836Y-82910547D01*
X135106099Y-82377641D01*
X134828868Y-82266737D01*
X133783605Y-83312000D01*
X133424395Y-83312000D01*
X132379132Y-82266737D01*
X132101901Y-82377641D01*
X131858677Y-83023593D01*
X130250521Y-83023593D01*
X130246836Y-82910547D01*
X130026099Y-82377641D01*
X129748868Y-82266737D01*
X128703605Y-83312000D01*
X128344395Y-83312000D01*
X127299132Y-82266737D01*
X127021901Y-82377641D01*
X126778677Y-83023593D01*
X122630000Y-83023593D01*
X122630000Y-81672001D01*
X122733805Y-81923229D01*
X123305760Y-82496183D01*
X124053438Y-82806646D01*
X124863011Y-82807352D01*
X125611229Y-82498195D01*
X126023009Y-82087132D01*
X127478737Y-82087132D01*
X128524000Y-83132395D01*
X129569263Y-82087132D01*
X129458359Y-81809901D01*
X128812407Y-81566677D01*
X128122547Y-81589164D01*
X127589641Y-81809901D01*
X127478737Y-82087132D01*
X126023009Y-82087132D01*
X126184183Y-81926240D01*
X126494646Y-81178562D01*
X126494718Y-81095795D01*
X129428716Y-81095795D01*
X129677106Y-81696943D01*
X130136637Y-82157278D01*
X130737352Y-82406716D01*
X131387795Y-82407284D01*
X131988943Y-82158894D01*
X132060830Y-82087132D01*
X132558737Y-82087132D01*
X133604000Y-83132395D01*
X134649263Y-82087132D01*
X134538359Y-81809901D01*
X133892407Y-81566677D01*
X133202547Y-81589164D01*
X132669641Y-81809901D01*
X132558737Y-82087132D01*
X132060830Y-82087132D01*
X132449278Y-81699363D01*
X132519762Y-81529618D01*
X137299537Y-81529618D01*
X137442312Y-81875159D01*
X137706451Y-82139759D01*
X138051742Y-82283137D01*
X138425618Y-82283463D01*
X138771159Y-82140688D01*
X139035759Y-81876549D01*
X139179137Y-81531258D01*
X139179311Y-81330618D01*
X144411537Y-81330618D01*
X144554312Y-81676159D01*
X144818451Y-81940759D01*
X145163742Y-82084137D01*
X145537618Y-82084463D01*
X145883159Y-81941688D01*
X146147759Y-81677549D01*
X146291137Y-81332258D01*
X146291251Y-81200759D01*
X153756494Y-81200759D01*
X153899269Y-81546300D01*
X154163408Y-81810900D01*
X154508699Y-81954278D01*
X154882575Y-81954604D01*
X155228116Y-81811829D01*
X155492716Y-81547690D01*
X155632058Y-81212118D01*
X157619537Y-81212118D01*
X157762312Y-81557659D01*
X158026451Y-81822259D01*
X158371742Y-81965637D01*
X158745618Y-81965963D01*
X159091159Y-81823188D01*
X159355759Y-81559049D01*
X159499137Y-81213758D01*
X159499463Y-80839882D01*
X159356688Y-80494341D01*
X159092549Y-80229741D01*
X158747258Y-80086363D01*
X158373382Y-80086037D01*
X158027841Y-80228812D01*
X157763241Y-80492951D01*
X157619863Y-80838242D01*
X157619537Y-81212118D01*
X155632058Y-81212118D01*
X155636094Y-81202399D01*
X155636420Y-80828523D01*
X155493645Y-80482982D01*
X155229506Y-80218382D01*
X154884215Y-80075004D01*
X154510339Y-80074678D01*
X154164798Y-80217453D01*
X153900198Y-80481592D01*
X153756820Y-80826883D01*
X153756494Y-81200759D01*
X146291251Y-81200759D01*
X146291463Y-80958382D01*
X146148688Y-80612841D01*
X145884549Y-80348241D01*
X145539258Y-80204863D01*
X145165382Y-80204537D01*
X144819841Y-80347312D01*
X144555241Y-80611451D01*
X144411863Y-80956742D01*
X144411537Y-81330618D01*
X139179311Y-81330618D01*
X139179463Y-81157382D01*
X139036688Y-80811841D01*
X138772549Y-80547241D01*
X138427258Y-80403863D01*
X138053382Y-80403537D01*
X137707841Y-80546312D01*
X137443241Y-80810451D01*
X137299863Y-81155742D01*
X137299537Y-81529618D01*
X132519762Y-81529618D01*
X132698716Y-81098648D01*
X132699284Y-80448205D01*
X132450894Y-79847057D01*
X132061387Y-79456868D01*
X132558737Y-79456868D01*
X132669641Y-79734099D01*
X133315593Y-79977323D01*
X134005453Y-79954836D01*
X134538359Y-79734099D01*
X134649263Y-79456868D01*
X133604000Y-78411605D01*
X132558737Y-79456868D01*
X132061387Y-79456868D01*
X131991363Y-79386722D01*
X131390648Y-79137284D01*
X130740205Y-79136716D01*
X130139057Y-79385106D01*
X129678722Y-79844637D01*
X129429284Y-80445352D01*
X129428716Y-81095795D01*
X126494718Y-81095795D01*
X126495352Y-80368989D01*
X126186195Y-79620771D01*
X126022578Y-79456868D01*
X127478737Y-79456868D01*
X127589641Y-79734099D01*
X128235593Y-79977323D01*
X128925453Y-79954836D01*
X129458359Y-79734099D01*
X129569263Y-79456868D01*
X128524000Y-78411605D01*
X127478737Y-79456868D01*
X126022578Y-79456868D01*
X125614240Y-79047817D01*
X124866562Y-78737354D01*
X124056989Y-78736648D01*
X123308771Y-79045805D01*
X122735817Y-79617760D01*
X122630000Y-79872596D01*
X122630000Y-77943593D01*
X126778677Y-77943593D01*
X126801164Y-78633453D01*
X127021901Y-79166359D01*
X127299132Y-79277263D01*
X128344395Y-78232000D01*
X128703605Y-78232000D01*
X129748868Y-79277263D01*
X130026099Y-79166359D01*
X130269323Y-78520407D01*
X130250521Y-77943593D01*
X131858677Y-77943593D01*
X131881164Y-78633453D01*
X132101901Y-79166359D01*
X132379132Y-79277263D01*
X133424395Y-78232000D01*
X133783605Y-78232000D01*
X134828868Y-79277263D01*
X135106099Y-79166359D01*
X135349323Y-78520407D01*
X135329430Y-77910118D01*
X139141021Y-77910118D01*
X139283796Y-78255659D01*
X139547935Y-78520259D01*
X139893226Y-78663637D01*
X140267102Y-78663963D01*
X140612643Y-78521188D01*
X140877243Y-78257049D01*
X140964152Y-78047749D01*
X141165643Y-78249591D01*
X141510934Y-78392969D01*
X141884810Y-78393295D01*
X142230351Y-78250520D01*
X142244953Y-78235944D01*
X142331812Y-78446159D01*
X142595951Y-78710759D01*
X142941242Y-78854137D01*
X143149494Y-78854319D01*
X143164510Y-78890659D01*
X143428649Y-79155259D01*
X143773940Y-79298637D01*
X144147816Y-79298963D01*
X144493357Y-79156188D01*
X144757957Y-78892049D01*
X144901335Y-78546758D01*
X144901661Y-78172882D01*
X144758886Y-77827341D01*
X144494747Y-77562741D01*
X144230266Y-77452918D01*
X144754437Y-77452918D01*
X144897212Y-77798459D01*
X145161351Y-78063059D01*
X145506642Y-78206437D01*
X145880518Y-78206763D01*
X146226059Y-78063988D01*
X146252975Y-78037118D01*
X148475537Y-78037118D01*
X148618312Y-78382659D01*
X148882451Y-78647259D01*
X149227742Y-78790637D01*
X149601618Y-78790963D01*
X149947159Y-78648188D01*
X150211759Y-78384049D01*
X150355137Y-78038758D01*
X150355463Y-77664882D01*
X150351842Y-77656118D01*
X150444049Y-77656118D01*
X150586824Y-78001659D01*
X150850963Y-78266259D01*
X151196254Y-78409637D01*
X151570130Y-78409963D01*
X151915671Y-78267188D01*
X152180271Y-78003049D01*
X152323649Y-77657758D01*
X152323975Y-77283882D01*
X152181200Y-76938341D01*
X151917061Y-76673741D01*
X151571770Y-76530363D01*
X151197894Y-76530037D01*
X150852353Y-76672812D01*
X150587753Y-76936951D01*
X150444375Y-77282242D01*
X150444049Y-77656118D01*
X150351842Y-77656118D01*
X150212688Y-77319341D01*
X149948549Y-77054741D01*
X149603258Y-76911363D01*
X149229382Y-76911037D01*
X148883841Y-77053812D01*
X148619241Y-77317951D01*
X148475863Y-77663242D01*
X148475537Y-78037118D01*
X146252975Y-78037118D01*
X146490659Y-77799849D01*
X146634037Y-77454558D01*
X146634363Y-77080682D01*
X146491588Y-76735141D01*
X146227449Y-76470541D01*
X145882158Y-76327163D01*
X145508282Y-76326837D01*
X145162741Y-76469612D01*
X144898141Y-76733751D01*
X144754763Y-77079042D01*
X144754437Y-77452918D01*
X144230266Y-77452918D01*
X144149456Y-77419363D01*
X143941204Y-77419181D01*
X143926188Y-77382841D01*
X143662049Y-77118241D01*
X143316758Y-76974863D01*
X142942882Y-76974537D01*
X142597341Y-77117312D01*
X142582739Y-77131888D01*
X142495880Y-76921673D01*
X142231741Y-76657073D01*
X141886450Y-76513695D01*
X141512574Y-76513369D01*
X141167033Y-76656144D01*
X140902433Y-76920283D01*
X140815524Y-77129583D01*
X140614033Y-76927741D01*
X140268742Y-76784363D01*
X139894866Y-76784037D01*
X139549325Y-76926812D01*
X139284725Y-77190951D01*
X139141347Y-77536242D01*
X139141021Y-77910118D01*
X135329430Y-77910118D01*
X135326836Y-77830547D01*
X135106099Y-77297641D01*
X134828868Y-77186737D01*
X133783605Y-78232000D01*
X133424395Y-78232000D01*
X132379132Y-77186737D01*
X132101901Y-77297641D01*
X131858677Y-77943593D01*
X130250521Y-77943593D01*
X130246836Y-77830547D01*
X130026099Y-77297641D01*
X129748868Y-77186737D01*
X128703605Y-78232000D01*
X128344395Y-78232000D01*
X127299132Y-77186737D01*
X127021901Y-77297641D01*
X126778677Y-77943593D01*
X122630000Y-77943593D01*
X122630000Y-77007132D01*
X127478737Y-77007132D01*
X128524000Y-78052395D01*
X129569263Y-77007132D01*
X132558737Y-77007132D01*
X133604000Y-78052395D01*
X134508277Y-77148118D01*
X136601037Y-77148118D01*
X136743812Y-77493659D01*
X137007951Y-77758259D01*
X137353242Y-77901637D01*
X137727118Y-77901963D01*
X138072659Y-77759188D01*
X138337259Y-77495049D01*
X138480637Y-77149758D01*
X138480963Y-76775882D01*
X138338188Y-76430341D01*
X138074049Y-76165741D01*
X137728758Y-76022363D01*
X137354882Y-76022037D01*
X137009341Y-76164812D01*
X136744741Y-76428951D01*
X136601363Y-76774242D01*
X136601037Y-77148118D01*
X134508277Y-77148118D01*
X134649263Y-77007132D01*
X134538359Y-76729901D01*
X133892407Y-76486677D01*
X133202547Y-76509164D01*
X132669641Y-76729901D01*
X132558737Y-77007132D01*
X129569263Y-77007132D01*
X129458359Y-76729901D01*
X128812407Y-76486677D01*
X128122547Y-76509164D01*
X127589641Y-76729901D01*
X127478737Y-77007132D01*
X122630000Y-77007132D01*
X122630000Y-56388000D01*
X122945907Y-56388000D01*
X123058946Y-56956285D01*
X123380853Y-57438054D01*
X123710026Y-57658000D01*
X123380853Y-57877946D01*
X123058946Y-58359715D01*
X122945907Y-58928000D01*
X123058946Y-59496285D01*
X123380853Y-59978054D01*
X123710026Y-60198000D01*
X123380853Y-60417946D01*
X123058946Y-60899715D01*
X122945907Y-61468000D01*
X123058946Y-62036285D01*
X123380853Y-62518054D01*
X123710026Y-62738000D01*
X123380853Y-62957946D01*
X123058946Y-63439715D01*
X122945907Y-64008000D01*
X123058946Y-64576285D01*
X123380853Y-65058054D01*
X123710026Y-65278000D01*
X123380853Y-65497946D01*
X123058946Y-65979715D01*
X122945907Y-66548000D01*
X123058946Y-67116285D01*
X123380853Y-67598054D01*
X123710026Y-67818000D01*
X123380853Y-68037946D01*
X123058946Y-68519715D01*
X122945907Y-69088000D01*
X123058946Y-69656285D01*
X123380853Y-70138054D01*
X123710026Y-70358000D01*
X123380853Y-70577946D01*
X123058946Y-71059715D01*
X122945907Y-71628000D01*
X123058946Y-72196285D01*
X123380853Y-72678054D01*
X123710026Y-72898000D01*
X123380853Y-73117946D01*
X123058946Y-73599715D01*
X122945907Y-74168000D01*
X123058946Y-74736285D01*
X123380853Y-75218054D01*
X123862622Y-75539961D01*
X124430907Y-75653000D01*
X124489093Y-75653000D01*
X125057378Y-75539961D01*
X125539147Y-75218054D01*
X125730000Y-74932422D01*
X125920853Y-75218054D01*
X126402622Y-75539961D01*
X126970907Y-75653000D01*
X127029093Y-75653000D01*
X127597378Y-75539961D01*
X128079147Y-75218054D01*
X128147258Y-75116118D01*
X131584537Y-75116118D01*
X131727312Y-75461659D01*
X131991451Y-75726259D01*
X132336742Y-75869637D01*
X132710618Y-75869963D01*
X133056159Y-75727188D01*
X133320759Y-75463049D01*
X133464137Y-75117758D01*
X133464463Y-74743882D01*
X133460842Y-74735118D01*
X137363037Y-74735118D01*
X137505812Y-75080659D01*
X137769951Y-75345259D01*
X138115242Y-75488637D01*
X138489118Y-75488963D01*
X138787538Y-75365658D01*
X143907997Y-75365658D01*
X144050772Y-75711199D01*
X144314911Y-75975799D01*
X144660202Y-76119177D01*
X145034078Y-76119503D01*
X145379619Y-75976728D01*
X145644219Y-75712589D01*
X145787597Y-75367298D01*
X145787923Y-74993422D01*
X145645148Y-74647881D01*
X145522372Y-74524890D01*
X171278524Y-74524890D01*
X171448355Y-74934924D01*
X171838642Y-75363183D01*
X172363108Y-75609486D01*
X172593000Y-75488819D01*
X172593000Y-74295000D01*
X171399845Y-74295000D01*
X171278524Y-74524890D01*
X145522372Y-74524890D01*
X145381009Y-74383281D01*
X145035718Y-74239903D01*
X144661842Y-74239577D01*
X144316301Y-74382352D01*
X144051701Y-74646491D01*
X143908323Y-74991782D01*
X143907997Y-75365658D01*
X138787538Y-75365658D01*
X138834659Y-75346188D01*
X139099259Y-75082049D01*
X139242637Y-74736758D01*
X139242963Y-74362882D01*
X139100188Y-74017341D01*
X138921811Y-73838653D01*
X138961659Y-73822188D01*
X139226259Y-73558049D01*
X139369637Y-73212758D01*
X139369963Y-72838882D01*
X139227188Y-72493341D01*
X138963049Y-72228741D01*
X138617758Y-72085363D01*
X138243882Y-72085037D01*
X137898341Y-72227812D01*
X137633741Y-72491951D01*
X137490363Y-72837242D01*
X137490037Y-73211118D01*
X137632812Y-73556659D01*
X137811189Y-73735347D01*
X137771341Y-73751812D01*
X137506741Y-74015951D01*
X137363363Y-74361242D01*
X137363037Y-74735118D01*
X133460842Y-74735118D01*
X133321688Y-74398341D01*
X133057549Y-74133741D01*
X132712258Y-73990363D01*
X132338382Y-73990037D01*
X131992841Y-74132812D01*
X131728241Y-74396951D01*
X131584863Y-74742242D01*
X131584537Y-75116118D01*
X128147258Y-75116118D01*
X128401054Y-74736285D01*
X128514093Y-74168000D01*
X128401054Y-73599715D01*
X128079147Y-73117946D01*
X127749974Y-72898000D01*
X128079147Y-72678054D01*
X128401054Y-72196285D01*
X128456233Y-71918878D01*
X150302036Y-71918878D01*
X150444811Y-72264419D01*
X150708950Y-72529019D01*
X151054241Y-72672397D01*
X151164641Y-72672493D01*
X151189193Y-72731914D01*
X151453332Y-72996514D01*
X151798623Y-73139892D01*
X152172499Y-73140218D01*
X152518040Y-72997443D01*
X152782640Y-72733304D01*
X152926018Y-72388013D01*
X152926344Y-72014137D01*
X152783569Y-71668596D01*
X152519430Y-71403996D01*
X152174139Y-71260618D01*
X152063739Y-71260522D01*
X152039187Y-71201101D01*
X151775048Y-70936501D01*
X151429757Y-70793123D01*
X151055881Y-70792797D01*
X150710340Y-70935572D01*
X150445740Y-71199711D01*
X150302362Y-71545002D01*
X150302036Y-71918878D01*
X128456233Y-71918878D01*
X128514093Y-71628000D01*
X128401054Y-71059715D01*
X128079147Y-70577946D01*
X127749974Y-70358000D01*
X128079147Y-70138054D01*
X128401054Y-69656285D01*
X128401286Y-69655118D01*
X132168771Y-69655118D01*
X132311546Y-70000659D01*
X132575685Y-70265259D01*
X132920976Y-70408637D01*
X133294852Y-70408963D01*
X133640393Y-70266188D01*
X133692754Y-70213918D01*
X140665037Y-70213918D01*
X140807812Y-70559459D01*
X141071951Y-70824059D01*
X141417242Y-70967437D01*
X141791118Y-70967763D01*
X141815118Y-70957846D01*
X142730456Y-70957846D01*
X142873231Y-71303387D01*
X143137370Y-71567987D01*
X143482661Y-71711365D01*
X143856537Y-71711691D01*
X144202078Y-71568916D01*
X144466678Y-71304777D01*
X144567719Y-71061445D01*
X144824388Y-70955391D01*
X145088988Y-70691252D01*
X145091587Y-70684994D01*
X145164062Y-70685057D01*
X145509603Y-70542282D01*
X145774203Y-70278143D01*
X145795511Y-70226827D01*
X145819976Y-70226848D01*
X146165517Y-70084073D01*
X146430117Y-69819934D01*
X146573495Y-69474643D01*
X146573669Y-69274118D01*
X147713537Y-69274118D01*
X147856312Y-69619659D01*
X148120451Y-69884259D01*
X148465742Y-70027637D01*
X148839618Y-70027963D01*
X149185159Y-69885188D01*
X149449759Y-69621049D01*
X149593137Y-69275758D01*
X149593463Y-68901882D01*
X149555529Y-68810074D01*
X149566143Y-68805688D01*
X149830743Y-68541549D01*
X149974121Y-68196258D01*
X149974447Y-67822382D01*
X149882710Y-67600361D01*
X150021263Y-67462049D01*
X150164641Y-67116758D01*
X150164831Y-66897870D01*
X152686983Y-66897870D01*
X152829758Y-67243411D01*
X153093897Y-67508011D01*
X153439188Y-67651389D01*
X153813064Y-67651715D01*
X154158605Y-67508940D01*
X154423205Y-67244801D01*
X154566583Y-66899510D01*
X154566727Y-66734118D01*
X156032037Y-66734118D01*
X156120474Y-66948151D01*
X156032363Y-67160345D01*
X156032037Y-67534221D01*
X156120474Y-67748254D01*
X156032363Y-67960448D01*
X156032037Y-68334324D01*
X156120474Y-68548357D01*
X156032363Y-68760551D01*
X156032037Y-69134427D01*
X156120474Y-69348460D01*
X156032363Y-69560654D01*
X156032037Y-69934530D01*
X156120474Y-70148563D01*
X156032363Y-70360757D01*
X156032037Y-70734633D01*
X156120474Y-70948666D01*
X156032363Y-71160860D01*
X156032037Y-71534736D01*
X156120474Y-71748769D01*
X156032363Y-71960963D01*
X156032037Y-72334839D01*
X156174812Y-72680380D01*
X156438951Y-72944980D01*
X156784242Y-73088358D01*
X157158118Y-73088684D01*
X157503659Y-72945909D01*
X157768259Y-72681770D01*
X157911637Y-72336479D01*
X157911963Y-71962603D01*
X157823526Y-71748570D01*
X157911637Y-71536376D01*
X157911963Y-71162500D01*
X157823526Y-70948467D01*
X157911637Y-70736273D01*
X157911963Y-70362397D01*
X157823526Y-70148364D01*
X157911637Y-69936170D01*
X157911963Y-69562294D01*
X157823526Y-69348261D01*
X157911637Y-69136067D01*
X157911963Y-68762191D01*
X157823526Y-68548158D01*
X157911637Y-68335964D01*
X157911963Y-67962088D01*
X157823526Y-67748055D01*
X157911637Y-67535861D01*
X157911963Y-67161985D01*
X157823526Y-66947952D01*
X157911637Y-66735758D01*
X157911963Y-66361882D01*
X157769188Y-66016341D01*
X157505049Y-65751741D01*
X157159758Y-65608363D01*
X156785882Y-65608037D01*
X156440341Y-65750812D01*
X156175741Y-66014951D01*
X156032363Y-66360242D01*
X156032037Y-66734118D01*
X154566727Y-66734118D01*
X154566909Y-66525634D01*
X154424134Y-66180093D01*
X154159995Y-65915493D01*
X153814704Y-65772115D01*
X153440828Y-65771789D01*
X153095287Y-65914564D01*
X152830687Y-66178703D01*
X152687309Y-66523994D01*
X152686983Y-66897870D01*
X150164831Y-66897870D01*
X150164967Y-66742882D01*
X150022192Y-66397341D01*
X149758053Y-66132741D01*
X149412762Y-65989363D01*
X149038886Y-65989037D01*
X148693345Y-66131812D01*
X148428745Y-66395951D01*
X148285367Y-66741242D01*
X148285041Y-67115118D01*
X148376778Y-67337139D01*
X148238225Y-67475451D01*
X148094847Y-67820742D01*
X148094521Y-68194618D01*
X148132455Y-68286426D01*
X148121841Y-68290812D01*
X147857241Y-68554951D01*
X147713863Y-68900242D01*
X147713537Y-69274118D01*
X146573669Y-69274118D01*
X146573821Y-69100767D01*
X146431046Y-68755226D01*
X146166907Y-68490626D01*
X145821616Y-68347248D01*
X145447740Y-68346922D01*
X145102199Y-68489697D01*
X144837599Y-68753836D01*
X144816291Y-68805152D01*
X144791826Y-68805131D01*
X144446285Y-68947906D01*
X144181685Y-69212045D01*
X144179086Y-69218303D01*
X144106611Y-69218240D01*
X143761070Y-69361015D01*
X143496470Y-69625154D01*
X143395429Y-69868486D01*
X143138760Y-69974540D01*
X142874160Y-70238679D01*
X142730782Y-70583970D01*
X142730456Y-70957846D01*
X141815118Y-70957846D01*
X142136659Y-70824988D01*
X142401259Y-70560849D01*
X142544637Y-70215558D01*
X142544963Y-69841682D01*
X142402188Y-69496141D01*
X142138049Y-69231541D01*
X141792758Y-69088163D01*
X141418882Y-69087837D01*
X141073341Y-69230612D01*
X140808741Y-69494751D01*
X140665363Y-69840042D01*
X140665037Y-70213918D01*
X133692754Y-70213918D01*
X133904993Y-70002049D01*
X133967735Y-69850951D01*
X134077732Y-69851047D01*
X134423273Y-69708272D01*
X134612080Y-69519794D01*
X134806118Y-69519963D01*
X135151659Y-69377188D01*
X135416259Y-69113049D01*
X135418533Y-69107573D01*
X135433151Y-69122216D01*
X135778442Y-69265594D01*
X136152318Y-69265920D01*
X136497859Y-69123145D01*
X136762459Y-68859006D01*
X136905837Y-68513715D01*
X136906027Y-68296027D01*
X137109551Y-68499906D01*
X137454842Y-68643284D01*
X137828718Y-68643610D01*
X138174259Y-68500835D01*
X138438859Y-68236696D01*
X138560018Y-67944915D01*
X138844718Y-67945163D01*
X139190259Y-67802388D01*
X139454859Y-67538249D01*
X139598237Y-67192958D01*
X139598563Y-66819082D01*
X139455788Y-66473541D01*
X139191649Y-66208941D01*
X138846358Y-66065563D01*
X138472482Y-66065237D01*
X138126941Y-66208012D01*
X137862341Y-66472151D01*
X137741182Y-66763932D01*
X137456482Y-66763684D01*
X137110941Y-66906459D01*
X136846341Y-67170598D01*
X136702963Y-67515889D01*
X136702773Y-67733577D01*
X136499249Y-67529698D01*
X136153958Y-67386320D01*
X135780082Y-67385994D01*
X135434541Y-67528769D01*
X135169941Y-67792908D01*
X135167667Y-67798384D01*
X135153049Y-67783741D01*
X134807758Y-67640363D01*
X134433882Y-67640037D01*
X134088341Y-67782812D01*
X133899534Y-67971290D01*
X133705496Y-67971121D01*
X133359955Y-68113896D01*
X133095355Y-68378035D01*
X133032613Y-68529133D01*
X132922616Y-68529037D01*
X132577075Y-68671812D01*
X132312475Y-68935951D01*
X132169097Y-69281242D01*
X132168771Y-69655118D01*
X128401286Y-69655118D01*
X128514093Y-69088000D01*
X128401054Y-68519715D01*
X128079147Y-68037946D01*
X127749974Y-67818000D01*
X128079147Y-67598054D01*
X128401054Y-67116285D01*
X128514093Y-66548000D01*
X128401054Y-65979715D01*
X128329350Y-65872401D01*
X143939754Y-65872401D01*
X144082529Y-66217942D01*
X144346668Y-66482542D01*
X144691959Y-66625920D01*
X145065835Y-66626246D01*
X145411376Y-66483471D01*
X145675976Y-66219332D01*
X145819354Y-65874041D01*
X145819680Y-65500165D01*
X145676905Y-65154624D01*
X145412766Y-64890024D01*
X145067475Y-64746646D01*
X144693599Y-64746320D01*
X144348058Y-64889095D01*
X144083458Y-65153234D01*
X143940080Y-65498525D01*
X143939754Y-65872401D01*
X128329350Y-65872401D01*
X128079147Y-65497946D01*
X127749974Y-65278000D01*
X128079147Y-65058054D01*
X128401054Y-64576285D01*
X128514093Y-64008000D01*
X128401054Y-63439715D01*
X128395978Y-63432118D01*
X154190537Y-63432118D01*
X154333312Y-63777659D01*
X154597451Y-64042259D01*
X154942742Y-64185637D01*
X155316618Y-64185963D01*
X155662159Y-64043188D01*
X155926759Y-63779049D01*
X156070137Y-63433758D01*
X156070463Y-63059882D01*
X155927688Y-62714341D01*
X155663549Y-62449741D01*
X155318258Y-62306363D01*
X154944382Y-62306037D01*
X154598841Y-62448812D01*
X154334241Y-62712951D01*
X154190863Y-63058242D01*
X154190537Y-63432118D01*
X128395978Y-63432118D01*
X128079147Y-62957946D01*
X127749974Y-62738000D01*
X128079147Y-62518054D01*
X128401054Y-62036285D01*
X128514093Y-61468000D01*
X128424805Y-61019118D01*
X134061037Y-61019118D01*
X134203812Y-61364659D01*
X134467951Y-61629259D01*
X134813242Y-61772637D01*
X135187118Y-61772963D01*
X135532659Y-61630188D01*
X135797259Y-61366049D01*
X135888582Y-61146118D01*
X152349037Y-61146118D01*
X152491812Y-61491659D01*
X152755951Y-61756259D01*
X153101242Y-61899637D01*
X153475118Y-61899963D01*
X153820659Y-61757188D01*
X154085259Y-61493049D01*
X154228637Y-61147758D01*
X154228963Y-60773882D01*
X154086188Y-60428341D01*
X153822049Y-60163741D01*
X153476758Y-60020363D01*
X153102882Y-60020037D01*
X152757341Y-60162812D01*
X152492741Y-60426951D01*
X152349363Y-60772242D01*
X152349037Y-61146118D01*
X135888582Y-61146118D01*
X135940637Y-61020758D01*
X135940963Y-60646882D01*
X135798188Y-60301341D01*
X135534049Y-60036741D01*
X135188758Y-59893363D01*
X134814882Y-59893037D01*
X134469341Y-60035812D01*
X134204741Y-60299951D01*
X134061363Y-60645242D01*
X134061037Y-61019118D01*
X128424805Y-61019118D01*
X128401054Y-60899715D01*
X128079147Y-60417946D01*
X127749974Y-60198000D01*
X128079147Y-59978054D01*
X128401054Y-59496285D01*
X128514093Y-58928000D01*
X128401054Y-58359715D01*
X128079147Y-57877946D01*
X127749974Y-57658000D01*
X128079147Y-57438054D01*
X128401054Y-56956285D01*
X128477071Y-56574118D01*
X161874037Y-56574118D01*
X162016812Y-56919659D01*
X162280951Y-57184259D01*
X162626242Y-57327637D01*
X163000118Y-57327963D01*
X163345659Y-57185188D01*
X163610259Y-56921049D01*
X163753637Y-56575758D01*
X163753963Y-56201882D01*
X163611188Y-55856341D01*
X163347049Y-55591741D01*
X163001758Y-55448363D01*
X162627882Y-55448037D01*
X162282341Y-55590812D01*
X162017741Y-55854951D01*
X161874363Y-56200242D01*
X161874037Y-56574118D01*
X128477071Y-56574118D01*
X128514093Y-56388000D01*
X128401054Y-55819715D01*
X128079147Y-55337946D01*
X128028520Y-55304118D01*
X133743537Y-55304118D01*
X133886312Y-55649659D01*
X134150451Y-55914259D01*
X134495742Y-56057637D01*
X134869618Y-56057963D01*
X135215159Y-55915188D01*
X135479759Y-55651049D01*
X135623137Y-55305758D01*
X135623463Y-54931882D01*
X135480688Y-54586341D01*
X135216549Y-54321741D01*
X134871258Y-54178363D01*
X134497382Y-54178037D01*
X134151841Y-54320812D01*
X133887241Y-54584951D01*
X133743863Y-54930242D01*
X133743537Y-55304118D01*
X128028520Y-55304118D01*
X127738447Y-55110298D01*
X127881358Y-55043183D01*
X128271645Y-54614924D01*
X128441476Y-54204890D01*
X128320155Y-53975000D01*
X127127000Y-53975000D01*
X127127000Y-53995000D01*
X126873000Y-53995000D01*
X126873000Y-53975000D01*
X126853000Y-53975000D01*
X126853000Y-53721000D01*
X126873000Y-53721000D01*
X126873000Y-52527181D01*
X127127000Y-52527181D01*
X127127000Y-53721000D01*
X128320155Y-53721000D01*
X128441476Y-53491110D01*
X128271645Y-53081076D01*
X127881358Y-52652817D01*
X127356892Y-52406514D01*
X127127000Y-52527181D01*
X126873000Y-52527181D01*
X126643108Y-52406514D01*
X126118642Y-52652817D01*
X125931192Y-52858504D01*
X125913162Y-52762683D01*
X125774090Y-52546559D01*
X125561890Y-52401569D01*
X125310000Y-52350560D01*
X123610000Y-52350560D01*
X123374683Y-52394838D01*
X123158559Y-52533910D01*
X123013569Y-52746110D01*
X122962560Y-52998000D01*
X122962560Y-54698000D01*
X123006838Y-54933317D01*
X123145910Y-55149441D01*
X123358110Y-55294431D01*
X123425541Y-55308086D01*
X123380853Y-55337946D01*
X123058946Y-55819715D01*
X122945907Y-56388000D01*
X122630000Y-56388000D01*
X122630000Y-51938618D01*
X157492537Y-51938618D01*
X157635312Y-52284159D01*
X157899451Y-52548759D01*
X158244742Y-52692137D01*
X158618618Y-52692463D01*
X158964159Y-52549688D01*
X159228759Y-52285549D01*
X159372137Y-51940258D01*
X159372463Y-51566382D01*
X159229688Y-51220841D01*
X158965549Y-50956241D01*
X158620258Y-50812863D01*
X158246382Y-50812537D01*
X157900841Y-50955312D01*
X157636241Y-51219451D01*
X157492863Y-51564742D01*
X157492537Y-51938618D01*
X122630000Y-51938618D01*
X122630000Y-46922118D01*
X166001537Y-46922118D01*
X166144312Y-47267659D01*
X166408451Y-47532259D01*
X166753742Y-47675637D01*
X167127618Y-47675963D01*
X167473159Y-47533188D01*
X167737759Y-47269049D01*
X167881137Y-46923758D01*
X167881463Y-46549882D01*
X167862105Y-46503031D01*
X173216595Y-46503031D01*
X173234386Y-47312409D01*
X173509894Y-47977545D01*
X173818276Y-48125118D01*
X175080395Y-46863000D01*
X173818276Y-45600882D01*
X173509894Y-45748455D01*
X173216595Y-46503031D01*
X167862105Y-46503031D01*
X167738688Y-46204341D01*
X167474549Y-45939741D01*
X167129258Y-45796363D01*
X166755382Y-45796037D01*
X166409841Y-45938812D01*
X166145241Y-46202951D01*
X166001863Y-46548242D01*
X166001537Y-46922118D01*
X122630000Y-46922118D01*
X122630000Y-46033118D01*
X156921037Y-46033118D01*
X157063812Y-46378659D01*
X157327951Y-46643259D01*
X157673242Y-46786637D01*
X158047118Y-46786963D01*
X158392659Y-46644188D01*
X158657259Y-46380049D01*
X158800637Y-46034758D01*
X158800963Y-45660882D01*
X158658188Y-45315341D01*
X158394049Y-45050741D01*
X158048758Y-44907363D01*
X157674882Y-44907037D01*
X157329341Y-45049812D01*
X157064741Y-45313951D01*
X156921363Y-45659242D01*
X156921037Y-46033118D01*
X122630000Y-46033118D01*
X122630000Y-41969118D01*
X149618537Y-41969118D01*
X149761312Y-42314659D01*
X150025451Y-42579259D01*
X150370742Y-42722637D01*
X150744618Y-42722963D01*
X151090159Y-42580188D01*
X151354759Y-42316049D01*
X151498137Y-41970758D01*
X151498463Y-41596882D01*
X151355688Y-41251341D01*
X151091549Y-40986741D01*
X150746258Y-40843363D01*
X150372382Y-40843037D01*
X150026841Y-40985812D01*
X149762241Y-41249951D01*
X149618863Y-41595242D01*
X149618537Y-41969118D01*
X122630000Y-41969118D01*
X122630000Y-38429530D01*
X143559782Y-38429530D01*
X143751201Y-38892800D01*
X144105335Y-39247553D01*
X144568271Y-39439781D01*
X145069530Y-39440218D01*
X145532800Y-39248799D01*
X145887553Y-38894665D01*
X146079781Y-38431729D01*
X146079782Y-38429530D01*
X148559782Y-38429530D01*
X148751201Y-38892800D01*
X149105335Y-39247553D01*
X149568271Y-39439781D01*
X150069530Y-39440218D01*
X150452447Y-39282000D01*
X152426560Y-39282000D01*
X152426560Y-40982000D01*
X152470838Y-41217317D01*
X152609910Y-41433441D01*
X152822110Y-41578431D01*
X153074000Y-41629440D01*
X154774000Y-41629440D01*
X155009317Y-41585162D01*
X155225441Y-41446090D01*
X155370431Y-41233890D01*
X155384086Y-41166459D01*
X155413946Y-41211147D01*
X155895715Y-41533054D01*
X156464000Y-41646093D01*
X157032285Y-41533054D01*
X157330014Y-41334118D01*
X160477037Y-41334118D01*
X160583885Y-41592709D01*
X160477363Y-41849242D01*
X160477037Y-42223118D01*
X160619812Y-42568659D01*
X160883951Y-42833259D01*
X161229242Y-42976637D01*
X161603118Y-42976963D01*
X161948659Y-42834188D01*
X162213259Y-42570049D01*
X162356637Y-42224758D01*
X162356963Y-41850882D01*
X162250115Y-41592291D01*
X162356637Y-41335758D01*
X162356963Y-40961882D01*
X162214188Y-40616341D01*
X161950049Y-40351741D01*
X161604758Y-40208363D01*
X161230882Y-40208037D01*
X160885341Y-40350812D01*
X160620741Y-40614951D01*
X160477363Y-40960242D01*
X160477037Y-41334118D01*
X157330014Y-41334118D01*
X157514054Y-41211147D01*
X157835961Y-40729378D01*
X157949000Y-40161093D01*
X157949000Y-40102907D01*
X157835961Y-39534622D01*
X157514054Y-39052853D01*
X157032285Y-38730946D01*
X156464000Y-38617907D01*
X155895715Y-38730946D01*
X155413946Y-39052853D01*
X155386150Y-39094452D01*
X155377162Y-39046683D01*
X155238090Y-38830559D01*
X155025890Y-38685569D01*
X154774000Y-38634560D01*
X153074000Y-38634560D01*
X152838683Y-38678838D01*
X152622559Y-38817910D01*
X152477569Y-39030110D01*
X152426560Y-39282000D01*
X150452447Y-39282000D01*
X150532800Y-39248799D01*
X150887553Y-38894665D01*
X151079781Y-38431729D01*
X151080218Y-37930470D01*
X150888799Y-37467200D01*
X150534665Y-37112447D01*
X150071729Y-36920219D01*
X149570470Y-36919782D01*
X149107200Y-37111201D01*
X148752447Y-37465335D01*
X148560219Y-37928271D01*
X148559782Y-38429530D01*
X146079782Y-38429530D01*
X146080218Y-37930470D01*
X145888799Y-37467200D01*
X145534665Y-37112447D01*
X145071729Y-36920219D01*
X144570470Y-36919782D01*
X144107200Y-37111201D01*
X143752447Y-37465335D01*
X143560219Y-37928271D01*
X143559782Y-38429530D01*
X122630000Y-38429530D01*
X122630000Y-35759236D01*
X142409755Y-35759236D01*
X142623963Y-36277658D01*
X143020256Y-36674643D01*
X143538303Y-36889755D01*
X144099236Y-36890245D01*
X144617658Y-36676037D01*
X145014643Y-36279744D01*
X145229755Y-35761697D01*
X145229757Y-35759236D01*
X149409755Y-35759236D01*
X149623963Y-36277658D01*
X150020256Y-36674643D01*
X150538303Y-36889755D01*
X151099236Y-36890245D01*
X151617658Y-36676037D01*
X152014643Y-36279744D01*
X152229755Y-35761697D01*
X152230245Y-35200764D01*
X152016037Y-34682342D01*
X151619744Y-34285357D01*
X151101697Y-34070245D01*
X150540764Y-34069755D01*
X150022342Y-34283963D01*
X149625357Y-34680256D01*
X149410245Y-35198303D01*
X149409755Y-35759236D01*
X145229757Y-35759236D01*
X145230245Y-35200764D01*
X145016037Y-34682342D01*
X144619744Y-34285357D01*
X144101697Y-34070245D01*
X143540764Y-34069755D01*
X143022342Y-34283963D01*
X142625357Y-34680256D01*
X142410245Y-35198303D01*
X142409755Y-35759236D01*
X122630000Y-35759236D01*
X122630000Y-33730000D01*
X137203710Y-33730000D01*
X137009341Y-33810312D01*
M02*
