M48
;DRILL file {KiCad 4.0.6} date 05/01/17 22:06:25
;FORMAT={-:-/ absolute / inch / decimal}
FMAT,2
INCH,TZ
T1C0.012
T2C0.018
T3C0.020
T4C0.033
T5C0.039
T6C0.045
T7C0.059
T8C0.063
T9C0.067
T10C0.138
%
G90
G05
M72
T1
X4.845Y-2.0525
X4.8475Y-1.675
X4.8475Y-3.3
X4.85Y-1.875
X4.85Y-3.5
X4.85Y-3.7
X4.85Y-3.9
X5.085Y-3.81
X5.09Y-2.87
X5.1075Y-2.175
X5.125Y-1.8625
X5.17Y-3.525
X5.17Y-3.61
X5.1975Y-1.35
X5.21Y-2.8625
X5.2175Y-2.95
X5.22Y-3.47
X5.22Y-3.665
X5.23Y-2.2925
X5.24Y-3.376
X5.2405Y-2.735
X5.2713Y-2.713
X5.285Y-3.47
X5.285Y-3.665
X5.3Y-2.7
X5.3025Y-2.17
X5.305Y-3.87
X5.31Y-2.1075
X5.3125Y-4.06
X5.315Y-2.395
X5.3175Y-3.94
X5.32Y-3.1675
X5.3328Y-3.3878
X5.3425Y-4.0025
X5.3475Y-1.35
X5.353Y-2.69
X5.355Y-1.9925
X5.355Y-3.6375
X5.355Y-3.8125
X5.3575Y-2.86
X5.38Y-3.4672
X5.3825Y-3.0725
X5.3975Y-1.6675
X5.4Y-2.955
X5.415Y-1.3625
X5.415Y-2.435
X5.415Y-3.03
X5.419Y-2.6655
X5.42Y-3.155
X5.4325Y-3.6375
X5.4425Y-3.2025
X5.445Y-2.935
X5.4475Y-3.8
X5.45Y-2.875
X5.459Y-2.638
X5.4625Y-3.54
X5.47Y-3.3175
X5.48Y-2.2025
X5.485Y-2.1325
X5.485Y-2.36
X5.485Y-4.065
X5.495Y-3.4025
X5.5Y-3.94
X5.505Y-3.6375
X5.505Y-3.74
X5.51Y-3.85
X5.5125Y-2.6375
X5.515Y-3.06
X5.5286Y-2.2564
X5.5309Y-3.1611
X5.5309Y-3.1946
X5.5309Y-3.228
X5.5309Y-3.2615
X5.54Y-2.8625
X5.5475Y-1.36
X5.56Y-1.9525
X5.5625Y-2.435
X5.5644Y-3.1611
X5.5644Y-3.1946
X5.5644Y-3.228
X5.5644Y-3.2615
X5.575Y-2.1725
X5.575Y-2.757
X5.575Y-2.9
X5.5775Y-3.6675
X5.5787Y-3.0493
X5.5825Y-3.94
X5.5978Y-3.1611
X5.5978Y-3.1946
X5.5978Y-3.228
X5.5978Y-3.2615
X5.6Y-3.765
X5.6125Y-1.525
X5.62Y-3.85
X5.6313Y-3.1611
X5.6313Y-3.1946
X5.6313Y-3.228
X5.6313Y-3.2615
X5.635Y-3.0675
X5.65Y-4.06
X5.655Y-2.5175
X5.6563Y-2.7863
X5.66Y-3.565
X5.665Y-3.94
X5.6678Y-3.085
X5.67Y-3.35
X5.68Y-2.185
X5.6808Y-2.7621
X5.6875Y-1.82
X5.6875Y-2.865
X5.69Y-3.68
X5.69Y-3.775
X5.7027Y-2.9598
X5.7039Y-2.5861
X5.7075Y-2.005
X5.7078Y-2.7459
X5.7225Y-3.1947
X5.7286Y-2.4564
X5.7336Y-2.7278
X5.736Y-3.042
X5.7375Y-3.505
X5.7425Y-2.5675
X5.745Y-1.705
X5.7475Y-3.97
X5.75Y-2.09
X5.7614Y-2.4183
X5.7625Y-1.46
X5.7625Y-1.5575
X5.7725Y-3.0125
X5.775Y-3.08
X5.7775Y-2.8825
X5.778Y-3.6511
X5.79Y-3.58
X5.79Y-3.735
X5.7925Y-3.4525
X5.81Y-2.63
X5.815Y-4.065
X5.8225Y-1.86
X5.83Y-2.35
X5.83Y-2.45
X5.83Y-3.3525
X5.83Y-3.97
X5.845Y-3.165
X5.846Y-3.304
X5.8475Y-3.0675
X5.85Y-3.6
X5.85Y-3.755
X5.8525Y-1.94
X5.8525Y-2.72
X5.855Y-3.48
X5.865Y-1.6125
X5.8675Y-2.6775
X5.875Y-2.635
X5.8789Y-3.6666
X5.8789Y-3.6999
X5.8825Y-3.065
X5.89Y-2.3
X5.9Y-2.25
X5.905Y-2.895
X5.91Y-3.6666
X5.91Y-3.6999
X5.9125Y-2.1625
X5.9275Y-1.645
X5.94Y-3.2225
X5.941Y-3.6666
X5.941Y-3.6999
X5.9425Y-2.555
X5.945Y-3.165
X5.95Y-2.33
X5.9525Y-2.4825
X5.9544Y-2.8241
X5.9575Y-3.6025
X5.96Y-3.05
X5.9619Y-3.7584
X5.9625Y-1.8275
X5.9625Y-2.6675
X5.975Y-3.345
X5.9825Y-4.065
X5.9837Y-2.8425
X5.985Y-3.515
X5.9875Y-3.9075
X5.995Y-1.525
X6.0025Y-1.66
X6.005Y-2.6125
X6.014Y-3.2964
X6.0225Y-3.9575
X6.03Y-3.565
X6.035Y-1.962
X6.035Y-2.4
X6.035Y-3.85
X6.04Y-3.0425
X6.045Y-2.9325
X6.0483Y-2.6264
X6.0525Y-3.6775
X6.06Y-3.355
X6.065Y-2.46
X6.07Y-1.35
X6.07Y-1.8725
X6.07Y-3.475
X6.075Y-3.135
X6.0904Y-3.1896
X6.0925Y-4.0025
X6.0962Y-3.2853
X6.0975Y-2.8625
X6.1Y-3.9025
X6.1025Y-1.73
X6.1075Y-2.49
X6.11Y-3.72
X6.1175Y-2.0175
X6.1175Y-2.5575
X6.1175Y-3.04
X6.1275Y-3.5375
X6.1375Y-2.2
X6.15Y-4.06
X6.155Y-3.83
X6.165Y-3.455
X6.18Y-2.62
X6.18Y-2.6515
X6.18Y-2.683
X6.18Y-2.7145
X6.18Y-2.746
X6.18Y-2.7775
X6.18Y-2.809
X6.18Y-2.8405
X6.18Y-2.885
X6.185Y-3.6
X6.195Y-3.2
X6.1963Y-3.9425
X6.2025Y-3.28
X6.21Y-3.07
X6.215Y-1.805
X6.2225Y-2.1175
X6.2275Y-1.95
X6.23Y-1.62
X6.2375Y-2.0375
X6.24Y-3.71
X6.2425Y-3.19
X6.2475Y-3.83
X6.2525Y-4.0025
X6.26Y-3.39
X6.275Y-1.35
X6.2875Y-1.815
X6.2925Y-3.9425
X6.295Y-3.25
X6.2975Y-3.1225
X6.3125Y-4.065
X6.33Y-2.4725
X6.33Y-3.5225
X6.3325Y-2.01
X6.3325Y-2.8075
X6.335Y-2.56
X6.34Y-3.32
X6.34Y-3.422
X6.34Y-3.626
X6.34Y-3.728
X6.34Y-3.83
X6.3425Y-4.0025
X6.355Y-1.62
X6.355Y-1.655
X6.385Y-2.43
X6.385Y-3.21
X6.41Y-2.22
X6.43Y-1.71
X6.4325Y-2.7025
X6.45Y-3.2825
X6.45Y-3.383
X6.45Y-3.4835
X6.45Y-3.584
X6.45Y-3.6845
X6.45Y-3.785
X6.475Y-1.35
X6.48Y-4.0675
X6.495Y-3.9
X6.505Y-2.2575
X6.5175Y-2.5475
X6.545Y-3.995
X6.555Y-2.1325
X6.57Y-3.025
X6.5725Y-1.84
X6.6Y-2.815
X6.6175Y-2.2575
X6.625Y-1.715
X6.65Y-1.35
X6.665Y-2.7075
X6.68Y-1.945
X6.69Y-3.32
X6.71Y-3.655
X6.7225Y-2.1475
X6.725Y-2.7925
X6.825Y-2.05
X6.95Y-3.15
X6.95Y-3.35
X6.95Y-3.55
X6.95Y-3.75
X6.95Y-3.95
T2
X5.2276Y-4.0546
X5.5724Y-4.0546
X5.7276Y-4.0546
X6.0724Y-4.0546
X6.2276Y-4.0546
X6.5724Y-4.0546
T3
X4.8967Y-1.5
X4.8967Y-4.1
X4.9269Y-1.4269
X4.9269Y-1.5731
X4.9269Y-4.0269
X4.9269Y-4.1731
X5.Y-1.3967
X5.Y-1.6033
X5.Y-3.9967
X5.Y-4.2033
X5.0731Y-1.4269
X5.0731Y-1.5731
X5.0731Y-4.0269
X5.0731Y-4.1731
X5.1033Y-1.5
X5.1033Y-4.1
X6.6967Y-1.5
X6.6967Y-4.1
X6.7269Y-1.4269
X6.7269Y-1.5731
X6.7269Y-4.0269
X6.7269Y-4.1731
X6.8Y-1.3967
X6.8Y-1.6033
X6.8Y-3.9967
X6.8Y-4.2033
X6.8731Y-1.4269
X6.8731Y-1.5731
X6.8731Y-4.0269
X6.8731Y-4.1731
X6.9033Y-1.5
X6.9033Y-4.1
T4
X5.7016Y-1.5031
X5.8984Y-1.5031
T5
X4.9Y-2.12
X4.9Y-2.22
X4.9Y-2.32
X4.9Y-2.42
X4.9Y-2.52
X4.9Y-2.62
X4.9Y-2.72
X4.9Y-2.82
X4.9Y-2.92
X5.Y-2.12
X5.Y-2.22
X5.Y-2.32
X5.Y-2.42
X5.Y-2.52
X5.Y-2.62
X5.Y-2.72
X5.Y-2.82
X5.Y-2.92
X6.06Y-1.58
X6.16Y-1.58
X6.8Y-2.12
X6.8Y-2.22
X6.8Y-2.32
X6.8Y-2.42
X6.8Y-2.52
X6.8Y-2.62
X6.8Y-2.72
X6.8Y-2.82
X6.8Y-2.92
X6.9Y-2.12
X6.9Y-2.22
X6.9Y-2.32
X6.9Y-2.42
X6.9Y-2.52
X6.9Y-2.62
X6.9Y-2.72
X6.9Y-2.82
X6.9Y-2.92
T6
X5.6622Y-1.3969
X5.9378Y-1.3969
T7
X5.16Y-3.18
T8
X4.9Y-3.18
X5.4Y-3.9
X5.9Y-3.9
X6.4Y-3.9
X6.9Y-1.845
X6.9Y-1.99
X6.9015Y-1.7
T9
X5.06Y-3.08
X5.06Y-3.28
X5.26Y-3.08
X5.26Y-3.28
T10
X5.Y-1.5
X5.Y-4.1
X6.8Y-1.5
X6.8Y-4.1
T0
M30
