%TF.GenerationSoftware,KiCad,Pcbnew,4.0.6*%
%TF.CreationDate,2017-05-01T22:06:23-07:00*%
%TF.ProjectId,rev3,726576332E6B696361645F7063620000,rev?*%
%TF.FileFunction,Copper,L4,Bot,Signal*%
%FSLAX46Y46*%
G04 Gerber Fmt 4.6, Leading zero omitted, Abs format (unit mm)*
G04 Created by KiCad (PCBNEW 4.0.6) date 05/01/17 22:06:23*
%MOMM*%
%LPD*%
G01*
G04 APERTURE LIST*
%ADD10C,0.100000*%
%ADD11C,0.609600*%
%ADD12C,7.000000*%
%ADD13C,0.600000*%
%ADD14R,1.700000X1.700000*%
%ADD15O,1.700000X1.700000*%
%ADD16C,2.800000*%
%ADD17C,2.200000*%
%ADD18C,2.000000*%
%ADD19R,2.420000X5.080000*%
%ADD20C,0.970000*%
%ADD21R,0.460000X0.890000*%
%ADD22R,1.200000X0.900000*%
%ADD23C,1.250000*%
%ADD24C,1.550000*%
%ADD25R,2.380000X1.650000*%
%ADD26R,3.600000X3.600000*%
%ADD27C,0.361950*%
%ADD28C,0.254000*%
%ADD29C,0.457200*%
%ADD30C,0.508000*%
G04 APERTURE END LIST*
D10*
D11*
X156210000Y-103124000D03*
X143510000Y-103124000D03*
D12*
X127000000Y-104140000D03*
D13*
X129625000Y-104140000D03*
X128856155Y-105996155D03*
X127000000Y-106765000D03*
X125143845Y-105996155D03*
X124375000Y-104140000D03*
X125143845Y-102283845D03*
X127000000Y-101515000D03*
X128856155Y-102283845D03*
D12*
X172720000Y-104140000D03*
D13*
X175345000Y-104140000D03*
X174576155Y-105996155D03*
X172720000Y-106765000D03*
X170863845Y-105996155D03*
X170095000Y-104140000D03*
X170863845Y-102283845D03*
X172720000Y-101515000D03*
X174576155Y-102283845D03*
D12*
X172720000Y-38100000D03*
D13*
X175345000Y-38100000D03*
X174576155Y-39956155D03*
X172720000Y-40725000D03*
X170863845Y-39956155D03*
X170095000Y-38100000D03*
X170863845Y-36243845D03*
X172720000Y-35475000D03*
X174576155Y-36243845D03*
D14*
X124460000Y-53848000D03*
D15*
X127000000Y-53848000D03*
X124460000Y-56388000D03*
X127000000Y-56388000D03*
X124460000Y-58928000D03*
X127000000Y-58928000D03*
X124460000Y-61468000D03*
X127000000Y-61468000D03*
X124460000Y-64008000D03*
X127000000Y-64008000D03*
X124460000Y-66548000D03*
X127000000Y-66548000D03*
X124460000Y-69088000D03*
X127000000Y-69088000D03*
X124460000Y-71628000D03*
X127000000Y-71628000D03*
X124460000Y-74168000D03*
X127000000Y-74168000D03*
D16*
X175260000Y-50546000D03*
X175298100Y-43180000D03*
X175260000Y-46863000D03*
D17*
X128524000Y-83312000D03*
X128524000Y-78232000D03*
X133604000Y-78232000D03*
X133604000Y-83312000D03*
D18*
X131064000Y-80772000D03*
D19*
X158180000Y-106426000D03*
X166940000Y-106426000D03*
D20*
X158180000Y-102986000D03*
X166940000Y-102986000D03*
D21*
X158180000Y-103436000D03*
X166940000Y-103436000D03*
D14*
X175260000Y-74168000D03*
D15*
X172720000Y-74168000D03*
X175260000Y-71628000D03*
X172720000Y-71628000D03*
X175260000Y-69088000D03*
X172720000Y-69088000D03*
X175260000Y-66548000D03*
X172720000Y-66548000D03*
X175260000Y-64008000D03*
X172720000Y-64008000D03*
X175260000Y-61468000D03*
X172720000Y-61468000D03*
X175260000Y-58928000D03*
X172720000Y-58928000D03*
X175260000Y-56388000D03*
X172720000Y-56388000D03*
X175260000Y-53848000D03*
X172720000Y-53848000D03*
D19*
X132780000Y-106426000D03*
X141540000Y-106426000D03*
D20*
X132780000Y-102986000D03*
X141540000Y-102986000D03*
D21*
X132780000Y-103436000D03*
X141540000Y-103436000D03*
D19*
X145480000Y-106426000D03*
X154240000Y-106426000D03*
D20*
X145480000Y-102986000D03*
X154240000Y-102986000D03*
D21*
X145480000Y-103436000D03*
X154240000Y-103436000D03*
D14*
X153924000Y-40132000D03*
D15*
X156464000Y-40132000D03*
D22*
X151650093Y-83966739D03*
X153850093Y-83966739D03*
X153840093Y-82606739D03*
X151640093Y-82606739D03*
D16*
X124460000Y-80772000D03*
X162560000Y-99060000D03*
X137160000Y-99060000D03*
X149860000Y-99060000D03*
D12*
X127000000Y-38100000D03*
D13*
X129625000Y-38100000D03*
X128856155Y-39956155D03*
X127000000Y-40725000D03*
X125143845Y-39956155D03*
X124375000Y-38100000D03*
X125143845Y-36243845D03*
X127000000Y-35475000D03*
X128856155Y-36243845D03*
D23*
X149820000Y-38180000D03*
X144820000Y-38180000D03*
D24*
X150820000Y-35480000D03*
X143820000Y-35480000D03*
D11*
X169926000Y-84328000D03*
X147066000Y-90932000D03*
X139954000Y-97790000D03*
X142240000Y-95631000D03*
X144526000Y-93472000D03*
X142748000Y-97790000D03*
X144526000Y-95885000D03*
X147066000Y-94869000D03*
X153924000Y-85217000D03*
X151765000Y-84963000D03*
X151003000Y-80391000D03*
X154305000Y-79629000D03*
X134239000Y-88138000D03*
X132588000Y-88138000D03*
X131318000Y-89535000D03*
X131318000Y-91694000D03*
X132588000Y-93091000D03*
X139700000Y-100076000D03*
X141795500Y-100076000D03*
X143891000Y-100076000D03*
X145986500Y-100838000D03*
X148082000Y-100838000D03*
X160782000Y-89471500D03*
X159004000Y-86106000D03*
X159893000Y-82550000D03*
X161036000Y-86918800D03*
X161036000Y-84328000D03*
X152019000Y-89281000D03*
X153162000Y-90551000D03*
X155638500Y-89852500D03*
X156591000Y-87757000D03*
X154178000Y-88265000D03*
X157099000Y-91440000D03*
X158496000Y-94234000D03*
X156337000Y-97282000D03*
X158686500Y-97282000D03*
X161036000Y-97282000D03*
X161036000Y-94691200D03*
X161036000Y-92100400D03*
X134239000Y-93091000D03*
X136017000Y-92392500D03*
X137985500Y-92392500D03*
X139827000Y-92392500D03*
X143764000Y-90551000D03*
X145732500Y-89027000D03*
X147129500Y-87693500D03*
X148488400Y-83921600D03*
X141668500Y-93154500D03*
X139827000Y-94996000D03*
X138366500Y-96520000D03*
X136017000Y-96837500D03*
X134747000Y-98298000D03*
X135064500Y-100076000D03*
X159829500Y-100139500D03*
X157384750Y-100139500D03*
X154940000Y-99123500D03*
X153289000Y-97790000D03*
X152082500Y-99250500D03*
X152971500Y-100520500D03*
X154749500Y-101663500D03*
X158813500Y-101663500D03*
X161099500Y-101663500D03*
X160337500Y-103251000D03*
X164592000Y-103314500D03*
X166243000Y-101473000D03*
X164973000Y-99060000D03*
X163830000Y-96139000D03*
X163830000Y-93586300D03*
X163830000Y-91033600D03*
X163830000Y-88480900D03*
X163830000Y-85928200D03*
X163830000Y-83375500D03*
X162179000Y-81534000D03*
X159956500Y-79311500D03*
X157734000Y-77978000D03*
X155384500Y-77216000D03*
X153416000Y-77279500D03*
X148463000Y-80391000D03*
X148526500Y-77914500D03*
X146621500Y-76517500D03*
X146748500Y-73215500D03*
X144462500Y-72771000D03*
X140716000Y-72707500D03*
X136080500Y-72644000D03*
X137160000Y-75057000D03*
X132334000Y-72707500D03*
X129286000Y-72898000D03*
X137668000Y-80137000D03*
X136715500Y-78041500D03*
X135128000Y-80454500D03*
X151955500Y-103251000D03*
X147701000Y-103251000D03*
X139319000Y-103251000D03*
X134937500Y-103124000D03*
X135699500Y-101663500D03*
X123190000Y-99060000D03*
X123190000Y-93980000D03*
X123190000Y-88900000D03*
X123126500Y-83820000D03*
X176530000Y-90170000D03*
X176530000Y-100330000D03*
X176530000Y-95250000D03*
X176530000Y-85090000D03*
X176530000Y-80010000D03*
X170815000Y-70929500D03*
X169291000Y-68770500D03*
X165544500Y-64706500D03*
X162179000Y-61722000D03*
X160909000Y-65024000D03*
X165227000Y-57340500D03*
X168084500Y-57340500D03*
X166497000Y-54165500D03*
X170751500Y-54546500D03*
X153543000Y-74485500D03*
X156972000Y-73279000D03*
X160845500Y-71310500D03*
X163385500Y-68643500D03*
X167640000Y-71501000D03*
X166878000Y-76835000D03*
X170434000Y-92837000D03*
X150939500Y-64897000D03*
X152527000Y-66357500D03*
X148082000Y-62230000D03*
X151130000Y-59182000D03*
X151193500Y-63055500D03*
X143637000Y-63944500D03*
X145859500Y-65214500D03*
X140017500Y-66992500D03*
X139319000Y-59944000D03*
X132842000Y-58229500D03*
X139192000Y-55943500D03*
X129730500Y-55245000D03*
X136017000Y-50609500D03*
X141605000Y-55181500D03*
X141224000Y-49593500D03*
X139319000Y-54165500D03*
X123063000Y-52133500D03*
X123190000Y-47625000D03*
X123126500Y-42545000D03*
X135826500Y-34290000D03*
X132016500Y-34290000D03*
X144462500Y-46228000D03*
X145923000Y-43307000D03*
X148653500Y-49276000D03*
X151447500Y-46418500D03*
X158051500Y-53784500D03*
X155892500Y-55880000D03*
X160845500Y-51054000D03*
X150177500Y-54927500D03*
X149860000Y-57150000D03*
X155384500Y-51244500D03*
X154178000Y-47561500D03*
X159702500Y-46101000D03*
X152273000Y-38735000D03*
X158178500Y-49530000D03*
X137096500Y-42354500D03*
X130175000Y-47307500D03*
X137541000Y-61849000D03*
X141287500Y-61849000D03*
X129159000Y-96774000D03*
X148971000Y-40957500D03*
X147891500Y-47244000D03*
X144970500Y-50927000D03*
X138747500Y-89916000D03*
X139573000Y-86423500D03*
X144272000Y-55499000D03*
X138938000Y-84264500D03*
X133096000Y-85750400D03*
X173355000Y-52070000D03*
X158242000Y-41148000D03*
X154178000Y-34290000D03*
X159385000Y-34290000D03*
X164465000Y-34290000D03*
X168910000Y-34290000D03*
X163322000Y-43434000D03*
X168275000Y-43561000D03*
X142557500Y-38735000D03*
D25*
X150113000Y-93555144D03*
D11*
X149324600Y-93131744D03*
X150113000Y-93131744D03*
X150901400Y-93131744D03*
X149324600Y-93978544D03*
X150113000Y-93978544D03*
X150901400Y-93978544D03*
D26*
X141758306Y-81564684D03*
D11*
X143035306Y-80291684D03*
X143035306Y-81141684D03*
X143035306Y-81991684D03*
X143035306Y-82841684D03*
X142185306Y-80291684D03*
X142185306Y-81141684D03*
X142185306Y-81991684D03*
X142185306Y-82841684D03*
X141335306Y-80291684D03*
X141335306Y-81141684D03*
X141335306Y-81991684D03*
X141335306Y-82841684D03*
X140485306Y-80291684D03*
X140485306Y-81141684D03*
X140485306Y-81991684D03*
X140485306Y-82841684D03*
X138303000Y-74549000D03*
X135001000Y-60833000D03*
X158559500Y-81026000D03*
X153733500Y-93408500D03*
X148590000Y-91440000D03*
X152754792Y-83727779D03*
X144018000Y-85090000D03*
X141698692Y-77453332D03*
X144879717Y-65686283D03*
X148653500Y-69088000D03*
X145351500Y-81144500D03*
X158432500Y-51752500D03*
X144847960Y-75179540D03*
X155130500Y-63246000D03*
X134683500Y-55118000D03*
X138239500Y-81343500D03*
X153626946Y-66711752D03*
X162814000Y-56388000D03*
X153289000Y-60960000D03*
X166941500Y-46736000D03*
X157861000Y-45847000D03*
X161417000Y-42037000D03*
X161417000Y-41148000D03*
X137541000Y-34607500D03*
X150558500Y-41783000D03*
X136652000Y-88067458D03*
X149225004Y-66929000D03*
X149034484Y-68008500D03*
X145633858Y-69286885D03*
X144977944Y-69745094D03*
X144292729Y-70158203D03*
X143670419Y-70771728D03*
X151241999Y-71732760D03*
X151986381Y-72200255D03*
X156972000Y-72148721D03*
X156972000Y-71348618D03*
X156972000Y-70548515D03*
X156972000Y-69748412D03*
X156972000Y-68948309D03*
X156972000Y-68148206D03*
X156972000Y-67348103D03*
X156972000Y-66548000D03*
X150876000Y-81851556D03*
X155194000Y-94488000D03*
X149987000Y-73533000D03*
X146761755Y-92737644D03*
X148717000Y-88392000D03*
X141605000Y-73660000D03*
X147574000Y-66802000D03*
X146339547Y-61425879D03*
X140425790Y-57313210D03*
X145505790Y-62393210D03*
X148082000Y-85153500D03*
X146367500Y-37084000D03*
X146367500Y-39560500D03*
X155384500Y-64960500D03*
X154051000Y-62484000D03*
X149606000Y-58420000D03*
X148082000Y-59690000D03*
X134874000Y-53530500D03*
X151447500Y-67754500D03*
X157543500Y-83312000D03*
X154876500Y-72707500D03*
X160782000Y-62801500D03*
X169672000Y-49403000D03*
X155003500Y-43942000D03*
X140906500Y-34544000D03*
X152463500Y-42164000D03*
X146050000Y-53086000D03*
X146685000Y-78232000D03*
X135453000Y-86050000D03*
X157353000Y-81280000D03*
X153289000Y-49834800D03*
X141605000Y-70027800D03*
X145694400Y-77266800D03*
X132524500Y-74930000D03*
X133108734Y-69469000D03*
X148590000Y-95377000D03*
X138658600Y-67005200D03*
X143961698Y-78359000D03*
X137642600Y-67703647D03*
X143129000Y-77914500D03*
X135966200Y-68325957D03*
X140080984Y-77724000D03*
X138430000Y-73025000D03*
X134620000Y-68580000D03*
X137541000Y-76962000D03*
X133891614Y-68911084D03*
X151320500Y-91503516D03*
X149415500Y-77851000D03*
X151433329Y-95463604D03*
X151384012Y-77470000D03*
X154696457Y-81014641D03*
X154842246Y-83446115D03*
D27*
X151650093Y-83966739D02*
X152515832Y-83966739D01*
X152515832Y-83966739D02*
X152754792Y-83727779D01*
D28*
X127000000Y-56388000D02*
X137998200Y-56388000D01*
X137998200Y-56388000D02*
X144665700Y-63055500D01*
X144665700Y-63055500D02*
X146812000Y-63055500D01*
X146812000Y-63055500D02*
X149225004Y-65468504D01*
X149225004Y-65468504D02*
X149225004Y-66929000D01*
X127000000Y-58928000D02*
X139852400Y-58928000D01*
X139852400Y-58928000D02*
X144551400Y-63627000D01*
X144551400Y-63627000D02*
X146754868Y-63627000D01*
X146754868Y-63627000D02*
X148602703Y-65474835D01*
X148602703Y-65474835D02*
X148602703Y-67436271D01*
X148602703Y-67436271D02*
X148603432Y-67437000D01*
X148603432Y-67437000D02*
X148603432Y-68008500D01*
X148603432Y-68008500D02*
X149034484Y-68008500D01*
X127000000Y-61468000D02*
X133629400Y-61468000D01*
X133629400Y-61468000D02*
X135255000Y-63093600D01*
X135255000Y-63093600D02*
X140277765Y-63093600D01*
X140277765Y-63093600D02*
X145633858Y-68449693D01*
X145633858Y-68449693D02*
X145633858Y-69286885D01*
X144977944Y-68422412D02*
X144977944Y-69745094D01*
X127000000Y-64008000D02*
X140563532Y-64008000D01*
X140563532Y-64008000D02*
X144977944Y-68422412D01*
X127000000Y-66548000D02*
X128651011Y-64896989D01*
X144292729Y-68365830D02*
X144292729Y-70158203D01*
X128651011Y-64896989D02*
X140823888Y-64896989D01*
X140823888Y-64896989D02*
X144292729Y-68365830D01*
X143670419Y-70771728D02*
X143670419Y-68372153D01*
X143670419Y-68372153D02*
X140639766Y-65341500D01*
X140639766Y-65341500D02*
X132575300Y-65341500D01*
X132575300Y-65341500D02*
X128828800Y-69088000D01*
X128828800Y-69088000D02*
X127000000Y-69088000D01*
X140455643Y-65786009D02*
X142798812Y-68129178D01*
X127000000Y-71628000D02*
X132841990Y-65786010D01*
X150927279Y-71418040D02*
X151241999Y-71732760D01*
X132841990Y-65786010D02*
X140455643Y-65786009D01*
X142798812Y-70821127D02*
X143395725Y-71418040D01*
X142798812Y-68129178D02*
X142798812Y-70821127D01*
X143395725Y-71418040D02*
X150927279Y-71418040D01*
X151681582Y-72505054D02*
X151986381Y-72200255D01*
X127000000Y-74168000D02*
X134937480Y-66230520D01*
X134937480Y-66230520D02*
X140271521Y-66230520D01*
X150683357Y-72085200D02*
X151103211Y-72505054D01*
X151103211Y-72505054D02*
X151681582Y-72505054D01*
X140271521Y-66230520D02*
X142354301Y-68313300D01*
X142354301Y-71005249D02*
X143434252Y-72085200D01*
X142354301Y-68313300D02*
X142354301Y-71005249D01*
X143434252Y-72085200D02*
X150683357Y-72085200D01*
X156972000Y-72148721D02*
X156984721Y-72136000D01*
X156984721Y-72136000D02*
X171500098Y-72136000D01*
X171500098Y-72136000D02*
X172262098Y-72898000D01*
X172262098Y-72898000D02*
X173990000Y-72898000D01*
X173990000Y-72898000D02*
X175260000Y-71628000D01*
X175260000Y-69088000D02*
X174092499Y-70255501D01*
X174092499Y-70255501D02*
X160922527Y-70255501D01*
X160922527Y-70255501D02*
X159829410Y-71348618D01*
X159829410Y-71348618D02*
X156972000Y-71348618D01*
X175260000Y-66548000D02*
X173887501Y-67920499D01*
X173887501Y-67920499D02*
X162628897Y-67920499D01*
X162628897Y-67920499D02*
X160000881Y-70548515D01*
X160000881Y-70548515D02*
X156972000Y-70548515D01*
X175260000Y-64008000D02*
X173887501Y-65380499D01*
X160172352Y-69748412D02*
X156972000Y-69748412D01*
X173887501Y-65380499D02*
X164540265Y-65380499D01*
X164540265Y-65380499D02*
X160172352Y-69748412D01*
X175260000Y-61468000D02*
X173887501Y-62840499D01*
X173887501Y-62840499D02*
X166451633Y-62840499D01*
X166451633Y-62840499D02*
X160343823Y-68948309D01*
X160343823Y-68948309D02*
X156972000Y-68948309D01*
X156972000Y-68148206D02*
X160515294Y-68148206D01*
X160515294Y-68148206D02*
X168567999Y-60095501D01*
X168567999Y-60095501D02*
X174092499Y-60095501D01*
X174092499Y-60095501D02*
X175260000Y-58928000D01*
X175260000Y-56388000D02*
X174447902Y-56388000D01*
X174447902Y-56388000D02*
X173241402Y-57594500D01*
X173241402Y-57594500D02*
X170414230Y-57594500D01*
X170414230Y-57594500D02*
X160660627Y-67348103D01*
X160660627Y-67348103D02*
X156972000Y-67348103D01*
X156972000Y-66548000D02*
X160832098Y-66548000D01*
X160832098Y-66548000D02*
X172364597Y-55015501D01*
X172364597Y-55015501D02*
X174092499Y-55015501D01*
X174092499Y-55015501D02*
X175260000Y-53848000D01*
D29*
X166940000Y-102986000D02*
X166940000Y-106426000D01*
X158180000Y-102986000D02*
X158180000Y-106426000D01*
X154240000Y-102986000D02*
X154240000Y-106426000D01*
X145480000Y-102986000D02*
X145480000Y-106426000D01*
X141540000Y-102986000D02*
X141540000Y-106426000D01*
X132780000Y-102986000D02*
X132780000Y-106426000D01*
D27*
X151640093Y-82606739D02*
X151631183Y-82606739D01*
X151631183Y-82606739D02*
X150876000Y-81851556D01*
D28*
X141605000Y-70891400D02*
X141605000Y-70027800D01*
X145694400Y-74980800D02*
X141605000Y-70891400D01*
X145694400Y-77266800D02*
X145694400Y-74980800D01*
X133108734Y-69469000D02*
X133108734Y-74345766D01*
X133108734Y-74345766D02*
X132524500Y-74930000D01*
X148590000Y-95377000D02*
X148336000Y-95377000D01*
X148336000Y-95377000D02*
X147828000Y-95885000D01*
X147828000Y-95885000D02*
X147828000Y-97028000D01*
X147828000Y-97028000D02*
X149860000Y-99060000D01*
X143961698Y-78359000D02*
X143961698Y-74238698D01*
X143961698Y-74238698D02*
X138658600Y-68935600D01*
X138658600Y-68935600D02*
X138658600Y-67005200D01*
X143129000Y-77914500D02*
X143129000Y-74066400D01*
X143129000Y-74066400D02*
X137642600Y-68580000D01*
X137642600Y-68580000D02*
X137642600Y-67703647D01*
X140080984Y-77724000D02*
X140080984Y-72440741D01*
X140080984Y-72440741D02*
X135966200Y-68325957D01*
X134620000Y-68580000D02*
X134620000Y-69037200D01*
X138430000Y-72847200D02*
X138430000Y-73025000D01*
X134620000Y-69037200D02*
X138430000Y-72847200D01*
X133891614Y-68911084D02*
X133891614Y-73312614D01*
X133891614Y-73312614D02*
X137541000Y-76962000D01*
X151738128Y-95158805D02*
X151738128Y-91921144D01*
X151433329Y-95463604D02*
X151738128Y-95158805D01*
X151738128Y-91921144D02*
X151320500Y-91503516D01*
X149415500Y-77851000D02*
X149415500Y-89598516D01*
X149415500Y-89598516D02*
X151320500Y-91503516D01*
X151384012Y-77702196D02*
X151384012Y-77470000D01*
X154696457Y-81014641D02*
X151384012Y-77702196D01*
D27*
X153850093Y-83966739D02*
X154321622Y-83966739D01*
X154321622Y-83966739D02*
X154842246Y-83446115D01*
X153840093Y-82606739D02*
X154002870Y-82606739D01*
X154002870Y-82606739D02*
X154842246Y-83446115D01*
D30*
G36*
X136637138Y-34002417D02*
X136474385Y-34394369D01*
X136474015Y-34818769D01*
X136636084Y-35211004D01*
X136935917Y-35511362D01*
X137327869Y-35674115D01*
X137752269Y-35674485D01*
X138144504Y-35512416D01*
X138444862Y-35212583D01*
X138607615Y-34820631D01*
X138607985Y-34396231D01*
X138445916Y-34003996D01*
X138299177Y-33857000D01*
X176963000Y-33857000D01*
X176963000Y-41787607D01*
X176524374Y-41348214D01*
X175730035Y-41018376D01*
X174869938Y-41017626D01*
X174075025Y-41346077D01*
X173466314Y-41953726D01*
X173136476Y-42748065D01*
X173135726Y-43608162D01*
X173464177Y-44403075D01*
X174070908Y-45010866D01*
X174054563Y-45017437D01*
X174016223Y-45043055D01*
X173881598Y-45394795D01*
X175260000Y-46773197D01*
X176638402Y-45394795D01*
X176503777Y-45043055D01*
X176477645Y-45031909D01*
X176521175Y-45013923D01*
X176963000Y-44572869D01*
X176963000Y-45574463D01*
X176728205Y-45484598D01*
X175349803Y-46863000D01*
X176728205Y-48241402D01*
X176963000Y-48151537D01*
X176963000Y-49191773D01*
X176486274Y-48714214D01*
X176468207Y-48706712D01*
X176503777Y-48682945D01*
X176638402Y-48331205D01*
X175260000Y-46952803D01*
X173881598Y-48331205D01*
X174016223Y-48682945D01*
X174061103Y-48702087D01*
X174036925Y-48712077D01*
X173428214Y-49319726D01*
X173098376Y-50114065D01*
X173097626Y-50974162D01*
X173426077Y-51769075D01*
X174033726Y-52377786D01*
X174372469Y-52518444D01*
X174088563Y-52708144D01*
X173990000Y-52855654D01*
X173891437Y-52708144D01*
X173368467Y-52358706D01*
X172751581Y-52236000D01*
X172688419Y-52236000D01*
X172071533Y-52358706D01*
X171548563Y-52708144D01*
X171199125Y-53231114D01*
X171076419Y-53848000D01*
X171199125Y-54464886D01*
X171382915Y-54739947D01*
X160463862Y-65659000D01*
X157591919Y-65659000D01*
X157577083Y-65644138D01*
X157185131Y-65481385D01*
X156760731Y-65481015D01*
X156368496Y-65643084D01*
X156068138Y-65942917D01*
X155905385Y-66334869D01*
X155905015Y-66759269D01*
X155983010Y-66948030D01*
X155905385Y-67134972D01*
X155905015Y-67559372D01*
X155983010Y-67748133D01*
X155905385Y-67935075D01*
X155905015Y-68359475D01*
X155983010Y-68548236D01*
X155905385Y-68735178D01*
X155905015Y-69159578D01*
X155983010Y-69348339D01*
X155905385Y-69535281D01*
X155905015Y-69959681D01*
X155983010Y-70148442D01*
X155905385Y-70335384D01*
X155905015Y-70759784D01*
X155983010Y-70948545D01*
X155905385Y-71135487D01*
X155905015Y-71559887D01*
X155983010Y-71748648D01*
X155905385Y-71935590D01*
X155905015Y-72359990D01*
X156067084Y-72752225D01*
X156366917Y-73052583D01*
X156758869Y-73215336D01*
X157183269Y-73215706D01*
X157575504Y-73053637D01*
X157604191Y-73025000D01*
X171131862Y-73025000D01*
X171379523Y-73272661D01*
X171139016Y-73853305D01*
X171299919Y-74104500D01*
X172656500Y-74104500D01*
X172656500Y-74084500D01*
X172783500Y-74084500D01*
X172783500Y-74104500D01*
X172803500Y-74104500D01*
X172803500Y-74231500D01*
X172783500Y-74231500D01*
X172783500Y-75588253D01*
X173034695Y-75748988D01*
X173615758Y-75508214D01*
X173739984Y-75383955D01*
X173853092Y-75559729D01*
X174107731Y-75733717D01*
X174410000Y-75794928D01*
X176110000Y-75794928D01*
X176392380Y-75741795D01*
X176481379Y-75684525D01*
X176564682Y-75738129D01*
X176655764Y-75755497D01*
X176963000Y-75756992D01*
X176963000Y-108383000D01*
X168912000Y-108383000D01*
X168912000Y-106680000D01*
X168910000Y-106678000D01*
X168910000Y-106174000D01*
X168912000Y-106172000D01*
X168912000Y-103734429D01*
X168795992Y-103454362D01*
X168581638Y-103240008D01*
X168301571Y-103124000D01*
X168188547Y-103124000D01*
X168184276Y-102724635D01*
X168004649Y-102290977D01*
X167747914Y-102267889D01*
X167636217Y-102379587D01*
X167601638Y-102345008D01*
X167523539Y-102312658D01*
X167658111Y-102178086D01*
X167635023Y-101921351D01*
X167174694Y-101736419D01*
X166678635Y-101741724D01*
X166244977Y-101921351D01*
X166221889Y-102178086D01*
X166356461Y-102312658D01*
X166278362Y-102345008D01*
X166243784Y-102379587D01*
X166132086Y-102267889D01*
X165875351Y-102290977D01*
X165690419Y-102751306D01*
X165694405Y-103124000D01*
X165578429Y-103124000D01*
X165298362Y-103240008D01*
X165084008Y-103454362D01*
X165010428Y-103632000D01*
X160109572Y-103632000D01*
X160035992Y-103454362D01*
X159821638Y-103240008D01*
X159541571Y-103124000D01*
X159428547Y-103124000D01*
X159424276Y-102724635D01*
X159244649Y-102290977D01*
X158987914Y-102267889D01*
X158876217Y-102379587D01*
X158841638Y-102345008D01*
X158763539Y-102312658D01*
X158898111Y-102178086D01*
X158875023Y-101921351D01*
X158414694Y-101736419D01*
X157918635Y-101741724D01*
X157484977Y-101921351D01*
X157461889Y-102178086D01*
X157596461Y-102312658D01*
X157518362Y-102345008D01*
X157483784Y-102379587D01*
X157372086Y-102267889D01*
X157115351Y-102290977D01*
X156930419Y-102751306D01*
X156934405Y-103124000D01*
X156818429Y-103124000D01*
X156538362Y-103240008D01*
X156324008Y-103454362D01*
X156250428Y-103632000D01*
X156169572Y-103632000D01*
X156095992Y-103454362D01*
X155881638Y-103240008D01*
X155601571Y-103124000D01*
X155488547Y-103124000D01*
X155484276Y-102724635D01*
X155304649Y-102290977D01*
X155047914Y-102267889D01*
X154936217Y-102379587D01*
X154901638Y-102345008D01*
X154823539Y-102312658D01*
X154958111Y-102178086D01*
X154935023Y-101921351D01*
X154474694Y-101736419D01*
X153978635Y-101741724D01*
X153544977Y-101921351D01*
X153521889Y-102178086D01*
X153656461Y-102312658D01*
X153578362Y-102345008D01*
X153543784Y-102379587D01*
X153432086Y-102267889D01*
X153175351Y-102290977D01*
X152990419Y-102751306D01*
X152994405Y-103124000D01*
X152878429Y-103124000D01*
X152598362Y-103240008D01*
X152384008Y-103454362D01*
X152310428Y-103632000D01*
X147409572Y-103632000D01*
X147335992Y-103454362D01*
X147121638Y-103240008D01*
X146841571Y-103124000D01*
X146728547Y-103124000D01*
X146724276Y-102724635D01*
X146544649Y-102290977D01*
X146287914Y-102267889D01*
X146176217Y-102379587D01*
X146141638Y-102345008D01*
X146063539Y-102312658D01*
X146198111Y-102178086D01*
X146175023Y-101921351D01*
X145714694Y-101736419D01*
X145218635Y-101741724D01*
X144784977Y-101921351D01*
X144761889Y-102178086D01*
X144896461Y-102312658D01*
X144818362Y-102345008D01*
X144783784Y-102379587D01*
X144672086Y-102267889D01*
X144415351Y-102290977D01*
X144230419Y-102751306D01*
X144234405Y-103124000D01*
X144118429Y-103124000D01*
X143838362Y-103240008D01*
X143624008Y-103454362D01*
X143550428Y-103632000D01*
X143469572Y-103632000D01*
X143395992Y-103454362D01*
X143181638Y-103240008D01*
X142901571Y-103124000D01*
X142788547Y-103124000D01*
X142784276Y-102724635D01*
X142604649Y-102290977D01*
X142347914Y-102267889D01*
X142236217Y-102379587D01*
X142201638Y-102345008D01*
X142123539Y-102312658D01*
X142258111Y-102178086D01*
X142235023Y-101921351D01*
X141774694Y-101736419D01*
X141278635Y-101741724D01*
X140844977Y-101921351D01*
X140821889Y-102178086D01*
X140956461Y-102312658D01*
X140878362Y-102345008D01*
X140843784Y-102379587D01*
X140732086Y-102267889D01*
X140475351Y-102290977D01*
X140290419Y-102751306D01*
X140294405Y-103124000D01*
X140178429Y-103124000D01*
X139898362Y-103240008D01*
X139684008Y-103454362D01*
X139610428Y-103632000D01*
X134709572Y-103632000D01*
X134635992Y-103454362D01*
X134421638Y-103240008D01*
X134141571Y-103124000D01*
X134028547Y-103124000D01*
X134024276Y-102724635D01*
X133844649Y-102290977D01*
X133587914Y-102267889D01*
X133476217Y-102379587D01*
X133441638Y-102345008D01*
X133363539Y-102312658D01*
X133498111Y-102178086D01*
X133475023Y-101921351D01*
X133014694Y-101736419D01*
X132518635Y-101741724D01*
X132084977Y-101921351D01*
X132061889Y-102178086D01*
X132196461Y-102312658D01*
X132118362Y-102345008D01*
X132083784Y-102379587D01*
X131972086Y-102267889D01*
X131715351Y-102290977D01*
X131530419Y-102751306D01*
X131534405Y-103124000D01*
X131418429Y-103124000D01*
X131138362Y-103240008D01*
X130924008Y-103454362D01*
X130808000Y-103734429D01*
X130808000Y-106172000D01*
X130820183Y-106184183D01*
X130822317Y-106665683D01*
X130808000Y-106680000D01*
X130808000Y-108383000D01*
X122757000Y-108383000D01*
X122757000Y-99488162D01*
X134997626Y-99488162D01*
X135326077Y-100283075D01*
X135933726Y-100891786D01*
X136728065Y-101221624D01*
X137588162Y-101222374D01*
X138383075Y-100893923D01*
X138991786Y-100286274D01*
X139321624Y-99491935D01*
X139322374Y-98631838D01*
X138993923Y-97836925D01*
X138386274Y-97228214D01*
X137591935Y-96898376D01*
X136731838Y-96897626D01*
X135936925Y-97226077D01*
X135328214Y-97833726D01*
X134998376Y-98628065D01*
X134997626Y-99488162D01*
X122757000Y-99488162D01*
X122757000Y-95885000D01*
X146939000Y-95885000D01*
X146939000Y-97028000D01*
X147006671Y-97368206D01*
X147199382Y-97656618D01*
X147836996Y-98294232D01*
X147698376Y-98628065D01*
X147697626Y-99488162D01*
X148026077Y-100283075D01*
X148633726Y-100891786D01*
X149428065Y-101221624D01*
X150288162Y-101222374D01*
X151083075Y-100893923D01*
X151691786Y-100286274D01*
X152021624Y-99491935D01*
X152021627Y-99488162D01*
X160397626Y-99488162D01*
X160726077Y-100283075D01*
X161333726Y-100891786D01*
X162128065Y-101221624D01*
X162988162Y-101222374D01*
X163783075Y-100893923D01*
X164391786Y-100286274D01*
X164721624Y-99491935D01*
X164722374Y-98631838D01*
X164393923Y-97836925D01*
X163786274Y-97228214D01*
X162991935Y-96898376D01*
X162131838Y-96897626D01*
X161336925Y-97226077D01*
X160728214Y-97833726D01*
X160398376Y-98628065D01*
X160397626Y-99488162D01*
X152021627Y-99488162D01*
X152022374Y-98631838D01*
X151693923Y-97836925D01*
X151086274Y-97228214D01*
X150291935Y-96898376D01*
X149431838Y-96897626D01*
X149094321Y-97037085D01*
X148717000Y-96659764D01*
X148717000Y-96443912D01*
X148801269Y-96443985D01*
X149193504Y-96281916D01*
X149493862Y-95982083D01*
X149656615Y-95590131D01*
X149656985Y-95165731D01*
X149647239Y-95142144D01*
X149859000Y-95142144D01*
X149952533Y-95048611D01*
X150267438Y-95042582D01*
X150367000Y-95142144D01*
X150411696Y-95142144D01*
X150366714Y-95250473D01*
X150366344Y-95674873D01*
X150528413Y-96067108D01*
X150828246Y-96367466D01*
X151220198Y-96530219D01*
X151644598Y-96530589D01*
X152036833Y-96368520D01*
X152337191Y-96068687D01*
X152499944Y-95676735D01*
X152500021Y-95587963D01*
X152559457Y-95499011D01*
X152627128Y-95158805D01*
X152627128Y-93619769D01*
X152666515Y-93619769D01*
X152828584Y-94012004D01*
X153128417Y-94312362D01*
X153520369Y-94475115D01*
X153944769Y-94475485D01*
X154337004Y-94313416D01*
X154637362Y-94013583D01*
X154800115Y-93621631D01*
X154800485Y-93197231D01*
X154638416Y-92804996D01*
X154338583Y-92504638D01*
X153946631Y-92341885D01*
X153522231Y-92341515D01*
X153129996Y-92503584D01*
X152829638Y-92803417D01*
X152666885Y-93195369D01*
X152666515Y-93619769D01*
X152627128Y-93619769D01*
X152627128Y-91921144D01*
X152559457Y-91580938D01*
X152387458Y-91323523D01*
X152387485Y-91292247D01*
X152225416Y-90900012D01*
X151925583Y-90599654D01*
X151533631Y-90436901D01*
X151511101Y-90436881D01*
X150304500Y-89230280D01*
X150304500Y-84583272D01*
X150326298Y-84699119D01*
X150493185Y-84958468D01*
X150747824Y-85132456D01*
X151050093Y-85193667D01*
X152250093Y-85193667D01*
X152532473Y-85140534D01*
X152752465Y-84998973D01*
X152947824Y-85132456D01*
X153250093Y-85193667D01*
X154450093Y-85193667D01*
X154732473Y-85140534D01*
X154991822Y-84973647D01*
X155165810Y-84719008D01*
X155221569Y-84443661D01*
X155445750Y-84351031D01*
X155746108Y-84051198D01*
X155908861Y-83659246D01*
X155909231Y-83234846D01*
X155747162Y-82842611D01*
X155447329Y-82542253D01*
X155217021Y-82446621D01*
X155217021Y-82156739D01*
X155181595Y-81968465D01*
X155299961Y-81919557D01*
X155600319Y-81619724D01*
X155759128Y-81237269D01*
X157492515Y-81237269D01*
X157654584Y-81629504D01*
X157954417Y-81929862D01*
X158346369Y-82092615D01*
X158770769Y-82092985D01*
X159163004Y-81930916D01*
X159463362Y-81631083D01*
X159626115Y-81239131D01*
X159626485Y-80814731D01*
X159464416Y-80422496D01*
X159164583Y-80122138D01*
X158772631Y-79959385D01*
X158348231Y-79959015D01*
X157955996Y-80121084D01*
X157655638Y-80420917D01*
X157492885Y-80812869D01*
X157492515Y-81237269D01*
X155759128Y-81237269D01*
X155763072Y-81227772D01*
X155763442Y-80803372D01*
X155601373Y-80411137D01*
X155301540Y-80110779D01*
X154909588Y-79948026D01*
X154887058Y-79948006D01*
X152450776Y-77511724D01*
X152450997Y-77258731D01*
X152288928Y-76866496D01*
X151989095Y-76566138D01*
X151597143Y-76403385D01*
X151172743Y-76403015D01*
X150780508Y-76565084D01*
X150480150Y-76864917D01*
X150320851Y-77248550D01*
X150320416Y-77247496D01*
X150020583Y-76947138D01*
X149628631Y-76784385D01*
X149204231Y-76784015D01*
X148811996Y-76946084D01*
X148511638Y-77245917D01*
X148348885Y-77637869D01*
X148348515Y-78062269D01*
X148510584Y-78454504D01*
X148526500Y-78470448D01*
X148526500Y-89598516D01*
X148594171Y-89938722D01*
X148786882Y-90227134D01*
X149025447Y-90465699D01*
X148803131Y-90373385D01*
X148378731Y-90373015D01*
X147986496Y-90535084D01*
X147686138Y-90834917D01*
X147523385Y-91226869D01*
X147523015Y-91651269D01*
X147685084Y-92043504D01*
X147984917Y-92343862D01*
X148218112Y-92440693D01*
X148161000Y-92578573D01*
X148161000Y-93301144D01*
X148288840Y-93428984D01*
X148342966Y-93559657D01*
X148299440Y-93670704D01*
X148161000Y-93809144D01*
X148161000Y-94399980D01*
X147986496Y-94472084D01*
X147714435Y-94743669D01*
X147707382Y-94748382D01*
X147199382Y-95256382D01*
X147006671Y-95544794D01*
X146939000Y-95885000D01*
X122757000Y-95885000D01*
X122757000Y-88278727D01*
X135585015Y-88278727D01*
X135747084Y-88670962D01*
X136046917Y-88971320D01*
X136438869Y-89134073D01*
X136863269Y-89134443D01*
X137255504Y-88972374D01*
X137555862Y-88672541D01*
X137718615Y-88280589D01*
X137718985Y-87856189D01*
X137556916Y-87463954D01*
X137257083Y-87163596D01*
X136865131Y-87000843D01*
X136440731Y-87000473D01*
X136048496Y-87162542D01*
X135748138Y-87462375D01*
X135585385Y-87854327D01*
X135585015Y-88278727D01*
X122757000Y-88278727D01*
X122757000Y-85301269D01*
X142951015Y-85301269D01*
X143113084Y-85693504D01*
X143412917Y-85993862D01*
X143804869Y-86156615D01*
X144229269Y-86156985D01*
X144621504Y-85994916D01*
X144921862Y-85695083D01*
X145084615Y-85303131D01*
X145084985Y-84878731D01*
X144922916Y-84486496D01*
X144623083Y-84186138D01*
X144231131Y-84023385D01*
X143806731Y-84023015D01*
X143414496Y-84185084D01*
X143114138Y-84484917D01*
X142951385Y-84876869D01*
X142951015Y-85301269D01*
X122757000Y-85301269D01*
X122757000Y-84563790D01*
X127362013Y-84563790D01*
X127460099Y-84884367D01*
X128142803Y-85171815D01*
X128883540Y-85176123D01*
X129569540Y-84896635D01*
X129587901Y-84884367D01*
X129685987Y-84563790D01*
X132442013Y-84563790D01*
X132540099Y-84884367D01*
X133222803Y-85171815D01*
X133963540Y-85176123D01*
X134649540Y-84896635D01*
X134667901Y-84884367D01*
X134765987Y-84563790D01*
X133604000Y-83401803D01*
X132442013Y-84563790D01*
X129685987Y-84563790D01*
X128524000Y-83401803D01*
X127362013Y-84563790D01*
X122757000Y-84563790D01*
X122757000Y-83671540D01*
X126659877Y-83671540D01*
X126939365Y-84357540D01*
X126951633Y-84375901D01*
X127272210Y-84473987D01*
X128434197Y-83312000D01*
X127272210Y-82150013D01*
X126951633Y-82248099D01*
X126664185Y-82930803D01*
X126659877Y-83671540D01*
X122757000Y-83671540D01*
X122757000Y-82126227D01*
X123233726Y-82603786D01*
X124028065Y-82933624D01*
X124888162Y-82934374D01*
X125683075Y-82605923D01*
X126291786Y-81998274D01*
X126621624Y-81203935D01*
X126622374Y-80343838D01*
X126293923Y-79548925D01*
X126228902Y-79483790D01*
X127362013Y-79483790D01*
X127460099Y-79804367D01*
X128142803Y-80091815D01*
X128883540Y-80096123D01*
X129549436Y-79824826D01*
X129302306Y-80419979D01*
X129301694Y-81120946D01*
X129550893Y-81724051D01*
X128905197Y-81452185D01*
X128164460Y-81447877D01*
X127478460Y-81727365D01*
X127460099Y-81739633D01*
X127362013Y-82060210D01*
X128524000Y-83222197D01*
X128538142Y-83208055D01*
X128627945Y-83297858D01*
X128613803Y-83312000D01*
X129775790Y-84473987D01*
X130096367Y-84375901D01*
X130383815Y-83693197D01*
X130388123Y-82952460D01*
X130116826Y-82286564D01*
X130711979Y-82533694D01*
X131412946Y-82534306D01*
X132016051Y-82285107D01*
X131744185Y-82930803D01*
X131739877Y-83671540D01*
X132019365Y-84357540D01*
X132031633Y-84375901D01*
X132352210Y-84473987D01*
X133514197Y-83312000D01*
X133693803Y-83312000D01*
X134855790Y-84473987D01*
X135176367Y-84375901D01*
X135463815Y-83693197D01*
X135468123Y-82952460D01*
X135188635Y-82266460D01*
X135176367Y-82248099D01*
X134855790Y-82150013D01*
X133693803Y-83312000D01*
X133514197Y-83312000D01*
X133500055Y-83297858D01*
X133589858Y-83208055D01*
X133604000Y-83222197D01*
X134765987Y-82060210D01*
X134667901Y-81739633D01*
X134228840Y-81554769D01*
X137172515Y-81554769D01*
X137334584Y-81947004D01*
X137634417Y-82247362D01*
X138026369Y-82410115D01*
X138450769Y-82410485D01*
X138843004Y-82248416D01*
X139143362Y-81948583D01*
X139306115Y-81556631D01*
X139306290Y-81355769D01*
X144284515Y-81355769D01*
X144446584Y-81748004D01*
X144746417Y-82048362D01*
X145138369Y-82211115D01*
X145562769Y-82211485D01*
X145955004Y-82049416D01*
X146255362Y-81749583D01*
X146418115Y-81357631D01*
X146418485Y-80933231D01*
X146256416Y-80540996D01*
X145956583Y-80240638D01*
X145564631Y-80077885D01*
X145140231Y-80077515D01*
X144747996Y-80239584D01*
X144447638Y-80539417D01*
X144284885Y-80931369D01*
X144284515Y-81355769D01*
X139306290Y-81355769D01*
X139306485Y-81132231D01*
X139144416Y-80739996D01*
X138844583Y-80439638D01*
X138452631Y-80276885D01*
X138028231Y-80276515D01*
X137635996Y-80438584D01*
X137335638Y-80738417D01*
X137172885Y-81130369D01*
X137172515Y-81554769D01*
X134228840Y-81554769D01*
X133985197Y-81452185D01*
X133244460Y-81447877D01*
X132578564Y-81719174D01*
X132825694Y-81124021D01*
X132826306Y-80423054D01*
X132577107Y-79819949D01*
X133222803Y-80091815D01*
X133963540Y-80096123D01*
X134649540Y-79816635D01*
X134667901Y-79804367D01*
X134765987Y-79483790D01*
X133604000Y-78321803D01*
X133589858Y-78335945D01*
X133500055Y-78246142D01*
X133514197Y-78232000D01*
X133693803Y-78232000D01*
X134855790Y-79393987D01*
X135176367Y-79295901D01*
X135463815Y-78613197D01*
X135468123Y-77872460D01*
X135188635Y-77186460D01*
X135176367Y-77168099D01*
X134855790Y-77070013D01*
X133693803Y-78232000D01*
X133514197Y-78232000D01*
X132352210Y-77070013D01*
X132031633Y-77168099D01*
X131744185Y-77850803D01*
X131739877Y-78591540D01*
X132011174Y-79257436D01*
X131416021Y-79010306D01*
X130715054Y-79009694D01*
X130111949Y-79258893D01*
X130383815Y-78613197D01*
X130388123Y-77872460D01*
X130108635Y-77186460D01*
X130096367Y-77168099D01*
X129775790Y-77070013D01*
X128613803Y-78232000D01*
X128627945Y-78246142D01*
X128538142Y-78335945D01*
X128524000Y-78321803D01*
X127362013Y-79483790D01*
X126228902Y-79483790D01*
X125686274Y-78940214D01*
X124891935Y-78610376D01*
X124031838Y-78609626D01*
X123236925Y-78938077D01*
X122757000Y-79417165D01*
X122757000Y-78591540D01*
X126659877Y-78591540D01*
X126939365Y-79277540D01*
X126951633Y-79295901D01*
X127272210Y-79393987D01*
X128434197Y-78232000D01*
X127272210Y-77070013D01*
X126951633Y-77168099D01*
X126664185Y-77850803D01*
X126659877Y-78591540D01*
X122757000Y-78591540D01*
X122757000Y-76980210D01*
X127362013Y-76980210D01*
X128524000Y-78142197D01*
X129685987Y-76980210D01*
X132442013Y-76980210D01*
X133604000Y-78142197D01*
X134765987Y-76980210D01*
X134667901Y-76659633D01*
X133985197Y-76372185D01*
X133244460Y-76367877D01*
X132558460Y-76647365D01*
X132540099Y-76659633D01*
X132442013Y-76980210D01*
X129685987Y-76980210D01*
X129587901Y-76659633D01*
X128905197Y-76372185D01*
X128164460Y-76367877D01*
X127478460Y-76647365D01*
X127460099Y-76659633D01*
X127362013Y-76980210D01*
X122757000Y-76980210D01*
X122757000Y-75692000D01*
X123063000Y-75692000D01*
X123161820Y-75671988D01*
X123245069Y-75615107D01*
X123299629Y-75530318D01*
X123317000Y-75438000D01*
X123317000Y-75326857D01*
X123811533Y-75657294D01*
X124428419Y-75780000D01*
X124491581Y-75780000D01*
X125108467Y-75657294D01*
X125631437Y-75307856D01*
X125730000Y-75160346D01*
X125828563Y-75307856D01*
X126351533Y-75657294D01*
X126968419Y-75780000D01*
X127031581Y-75780000D01*
X127648467Y-75657294D01*
X128171437Y-75307856D01*
X128520875Y-74784886D01*
X128643581Y-74168000D01*
X128579482Y-73845754D01*
X132219734Y-70205502D01*
X132219734Y-73901647D01*
X131920996Y-74025084D01*
X131620638Y-74324917D01*
X131457885Y-74716869D01*
X131457515Y-75141269D01*
X131619584Y-75533504D01*
X131919417Y-75833862D01*
X132311369Y-75996615D01*
X132735769Y-75996985D01*
X133128004Y-75834916D01*
X133428362Y-75535083D01*
X133591115Y-75143131D01*
X133591135Y-75120601D01*
X133737352Y-74974384D01*
X133930064Y-74685971D01*
X133942950Y-74621186D01*
X136474033Y-77152269D01*
X136474015Y-77173269D01*
X136636084Y-77565504D01*
X136935917Y-77865862D01*
X137327869Y-78028615D01*
X137752269Y-78028985D01*
X138144504Y-77866916D01*
X138444862Y-77567083D01*
X138607615Y-77175131D01*
X138607985Y-76750731D01*
X138445916Y-76358496D01*
X138146083Y-76058138D01*
X137754131Y-75895385D01*
X137731601Y-75895365D01*
X134780614Y-72944378D01*
X134780614Y-70455050D01*
X137363188Y-73037624D01*
X137363015Y-73236269D01*
X137525084Y-73628504D01*
X137619927Y-73723513D01*
X137399138Y-73943917D01*
X137236385Y-74335869D01*
X137236015Y-74760269D01*
X137398084Y-75152504D01*
X137697917Y-75452862D01*
X138089869Y-75615615D01*
X138514269Y-75615985D01*
X138906504Y-75453916D01*
X139191984Y-75168935D01*
X139191984Y-77104081D01*
X139177122Y-77118917D01*
X139014369Y-77510869D01*
X139013999Y-77935269D01*
X139176068Y-78327504D01*
X139475901Y-78627862D01*
X139867853Y-78790615D01*
X140292253Y-78790985D01*
X140684488Y-78628916D01*
X140984846Y-78329083D01*
X141008553Y-78271989D01*
X141093609Y-78357194D01*
X141485561Y-78519947D01*
X141909961Y-78520317D01*
X142179091Y-78409114D01*
X142224084Y-78518004D01*
X142523917Y-78818362D01*
X142915869Y-78981115D01*
X143075499Y-78981254D01*
X143356615Y-79262862D01*
X143748567Y-79425615D01*
X144172967Y-79425985D01*
X144565202Y-79263916D01*
X144865560Y-78964083D01*
X145028313Y-78572131D01*
X145028683Y-78147731D01*
X145002027Y-78083219D01*
X145089317Y-78170662D01*
X145481269Y-78333415D01*
X145905669Y-78333785D01*
X146297904Y-78171716D01*
X146598262Y-77871883D01*
X146761015Y-77479931D01*
X146761385Y-77055531D01*
X146599316Y-76663296D01*
X146583400Y-76647352D01*
X146583400Y-74980800D01*
X146515729Y-74640594D01*
X146410225Y-74482695D01*
X171139016Y-74482695D01*
X171379550Y-75063405D01*
X171824242Y-75508214D01*
X172405305Y-75748988D01*
X172656500Y-75588253D01*
X172656500Y-74231500D01*
X171299919Y-74231500D01*
X171139016Y-74482695D01*
X146410225Y-74482695D01*
X146323018Y-74352182D01*
X144945036Y-72974200D01*
X150315121Y-72974200D01*
X150474593Y-73133672D01*
X150763005Y-73326383D01*
X151103211Y-73394054D01*
X151681582Y-73394054D01*
X152021788Y-73326383D01*
X152110415Y-73267164D01*
X152197650Y-73267240D01*
X152589885Y-73105171D01*
X152890243Y-72805338D01*
X153052996Y-72413386D01*
X153053366Y-71988986D01*
X152891297Y-71596751D01*
X152591464Y-71296393D01*
X152199512Y-71133640D01*
X152148708Y-71133596D01*
X152146915Y-71129256D01*
X151847082Y-70828898D01*
X151455130Y-70666145D01*
X151371291Y-70666072D01*
X151267485Y-70596711D01*
X150927279Y-70529040D01*
X145702630Y-70529040D01*
X145881806Y-70350177D01*
X145887551Y-70336340D01*
X146237362Y-70191801D01*
X146537720Y-69891968D01*
X146700473Y-69500016D01*
X146700843Y-69075616D01*
X146538774Y-68683381D01*
X146522858Y-68667437D01*
X146522858Y-68449693D01*
X146455187Y-68109487D01*
X146262476Y-67821075D01*
X145164354Y-66722953D01*
X145483221Y-66591199D01*
X145783579Y-66291366D01*
X145946332Y-65899414D01*
X145946702Y-65475014D01*
X145784633Y-65082779D01*
X145484800Y-64782421D01*
X145092848Y-64619668D01*
X144668448Y-64619298D01*
X144276213Y-64781367D01*
X143975855Y-65081200D01*
X143842868Y-65401467D01*
X140906383Y-62464982D01*
X140803144Y-62396000D01*
X140617971Y-62272271D01*
X140277765Y-62204600D01*
X135623236Y-62204600D01*
X135287525Y-61868889D01*
X135604504Y-61737916D01*
X135904862Y-61438083D01*
X136067615Y-61046131D01*
X136067985Y-60621731D01*
X135905916Y-60229496D01*
X135606083Y-59929138D01*
X135336025Y-59817000D01*
X139484164Y-59817000D01*
X143922782Y-64255618D01*
X144211195Y-64448330D01*
X144551400Y-64516000D01*
X146386632Y-64516000D01*
X147713703Y-65843071D01*
X147713703Y-67436271D01*
X147714432Y-67439936D01*
X147714432Y-68008500D01*
X147782103Y-68348706D01*
X147822908Y-68409775D01*
X147749638Y-68482917D01*
X147586885Y-68874869D01*
X147586515Y-69299269D01*
X147748584Y-69691504D01*
X148048417Y-69991862D01*
X148440369Y-70154615D01*
X148864769Y-70154985D01*
X149257004Y-69992916D01*
X149557362Y-69693083D01*
X149720115Y-69301131D01*
X149720485Y-68876731D01*
X149707126Y-68844399D01*
X149938346Y-68613583D01*
X150101099Y-68221631D01*
X150101469Y-67797231D01*
X150032490Y-67630290D01*
X150128866Y-67534083D01*
X150291619Y-67142131D01*
X150291810Y-66923021D01*
X152559961Y-66923021D01*
X152722030Y-67315256D01*
X153021863Y-67615614D01*
X153413815Y-67778367D01*
X153838215Y-67778737D01*
X154230450Y-67616668D01*
X154530808Y-67316835D01*
X154693561Y-66924883D01*
X154693931Y-66500483D01*
X154531862Y-66108248D01*
X154232029Y-65807890D01*
X153840077Y-65645137D01*
X153415677Y-65644767D01*
X153023442Y-65806836D01*
X152723084Y-66106669D01*
X152560331Y-66498621D01*
X152559961Y-66923021D01*
X150291810Y-66923021D01*
X150291989Y-66717731D01*
X150129920Y-66325496D01*
X150114004Y-66309552D01*
X150114004Y-65468504D01*
X150046333Y-65128298D01*
X149853622Y-64839886D01*
X148471005Y-63457269D01*
X154063515Y-63457269D01*
X154225584Y-63849504D01*
X154525417Y-64149862D01*
X154917369Y-64312615D01*
X155341769Y-64312985D01*
X155734004Y-64150916D01*
X156034362Y-63851083D01*
X156197115Y-63459131D01*
X156197485Y-63034731D01*
X156035416Y-62642496D01*
X155735583Y-62342138D01*
X155343631Y-62179385D01*
X154919231Y-62179015D01*
X154526996Y-62341084D01*
X154226638Y-62640917D01*
X154063885Y-63032869D01*
X154063515Y-63457269D01*
X148471005Y-63457269D01*
X147440618Y-62426882D01*
X147336032Y-62357000D01*
X147152206Y-62234171D01*
X146812000Y-62166500D01*
X145033936Y-62166500D01*
X144038705Y-61171269D01*
X152222015Y-61171269D01*
X152384084Y-61563504D01*
X152683917Y-61863862D01*
X153075869Y-62026615D01*
X153500269Y-62026985D01*
X153892504Y-61864916D01*
X154192862Y-61565083D01*
X154355615Y-61173131D01*
X154355985Y-60748731D01*
X154193916Y-60356496D01*
X153894083Y-60056138D01*
X153502131Y-59893385D01*
X153077731Y-59893015D01*
X152685496Y-60055084D01*
X152385138Y-60354917D01*
X152222385Y-60746869D01*
X152222015Y-61171269D01*
X144038705Y-61171269D01*
X139466705Y-56599269D01*
X161747015Y-56599269D01*
X161909084Y-56991504D01*
X162208917Y-57291862D01*
X162600869Y-57454615D01*
X163025269Y-57454985D01*
X163417504Y-57292916D01*
X163717862Y-56993083D01*
X163880615Y-56601131D01*
X163880985Y-56176731D01*
X163718916Y-55784496D01*
X163419083Y-55484138D01*
X163027131Y-55321385D01*
X162602731Y-55321015D01*
X162210496Y-55483084D01*
X161910138Y-55782917D01*
X161747385Y-56174869D01*
X161747015Y-56599269D01*
X139466705Y-56599269D01*
X138626818Y-55759382D01*
X138572493Y-55723083D01*
X138338406Y-55566671D01*
X137998200Y-55499000D01*
X135680410Y-55499000D01*
X135750115Y-55331131D01*
X135750485Y-54906731D01*
X135588416Y-54514496D01*
X135288583Y-54214138D01*
X134896631Y-54051385D01*
X134472231Y-54051015D01*
X134079996Y-54213084D01*
X133779638Y-54512917D01*
X133616885Y-54904869D01*
X133616515Y-55329269D01*
X133686647Y-55499000D01*
X128339054Y-55499000D01*
X128171437Y-55248144D01*
X127970243Y-55113710D01*
X128340450Y-54743405D01*
X128580984Y-54162695D01*
X128420081Y-53911500D01*
X127063500Y-53911500D01*
X127063500Y-53931500D01*
X126936500Y-53931500D01*
X126936500Y-53911500D01*
X126916500Y-53911500D01*
X126916500Y-53784500D01*
X126936500Y-53784500D01*
X126936500Y-52427747D01*
X127063500Y-52427747D01*
X127063500Y-53784500D01*
X128420081Y-53784500D01*
X128580984Y-53533305D01*
X128340450Y-52952595D01*
X127895758Y-52507786D01*
X127314695Y-52267012D01*
X127063500Y-52427747D01*
X126936500Y-52427747D01*
X126685305Y-52267012D01*
X126104242Y-52507786D01*
X125980016Y-52632045D01*
X125866908Y-52456271D01*
X125612269Y-52282283D01*
X125310000Y-52221072D01*
X123610000Y-52221072D01*
X123327620Y-52274205D01*
X123238621Y-52331475D01*
X123155318Y-52277871D01*
X123071038Y-52260627D01*
X122757000Y-52250685D01*
X122757000Y-51963769D01*
X157365515Y-51963769D01*
X157527584Y-52356004D01*
X157827417Y-52656362D01*
X158219369Y-52819115D01*
X158643769Y-52819485D01*
X159036004Y-52657416D01*
X159336362Y-52357583D01*
X159499115Y-51965631D01*
X159499485Y-51541231D01*
X159337416Y-51148996D01*
X159037583Y-50848638D01*
X158645631Y-50685885D01*
X158221231Y-50685515D01*
X157828996Y-50847584D01*
X157528638Y-51147417D01*
X157365885Y-51539369D01*
X157365515Y-51963769D01*
X122757000Y-51963769D01*
X122757000Y-46947269D01*
X165874515Y-46947269D01*
X166036584Y-47339504D01*
X166336417Y-47639862D01*
X166728369Y-47802615D01*
X167152769Y-47802985D01*
X167545004Y-47640916D01*
X167845362Y-47341083D01*
X167874707Y-47270412D01*
X173093621Y-47270412D01*
X173414437Y-48068437D01*
X173440055Y-48106777D01*
X173791795Y-48241402D01*
X175170197Y-46863000D01*
X173791795Y-45484598D01*
X173440055Y-45619223D01*
X173102617Y-46410363D01*
X173093621Y-47270412D01*
X167874707Y-47270412D01*
X168008115Y-46949131D01*
X168008485Y-46524731D01*
X167846416Y-46132496D01*
X167546583Y-45832138D01*
X167154631Y-45669385D01*
X166730231Y-45669015D01*
X166337996Y-45831084D01*
X166037638Y-46130917D01*
X165874885Y-46522869D01*
X165874515Y-46947269D01*
X122757000Y-46947269D01*
X122757000Y-46058269D01*
X156794015Y-46058269D01*
X156956084Y-46450504D01*
X157255917Y-46750862D01*
X157647869Y-46913615D01*
X158072269Y-46913985D01*
X158464504Y-46751916D01*
X158764862Y-46452083D01*
X158927615Y-46060131D01*
X158927985Y-45635731D01*
X158765916Y-45243496D01*
X158466083Y-44943138D01*
X158074131Y-44780385D01*
X157649731Y-44780015D01*
X157257496Y-44942084D01*
X156957138Y-45241917D01*
X156794385Y-45633869D01*
X156794015Y-46058269D01*
X122757000Y-46058269D01*
X122757000Y-41994269D01*
X149491515Y-41994269D01*
X149653584Y-42386504D01*
X149953417Y-42686862D01*
X150345369Y-42849615D01*
X150769769Y-42849985D01*
X151162004Y-42687916D01*
X151462362Y-42388083D01*
X151625115Y-41996131D01*
X151625485Y-41571731D01*
X151463416Y-41179496D01*
X151163583Y-40879138D01*
X150771631Y-40716385D01*
X150347231Y-40716015D01*
X149954996Y-40878084D01*
X149654638Y-41177917D01*
X149491885Y-41569869D01*
X149491515Y-41994269D01*
X122757000Y-41994269D01*
X122757000Y-35784387D01*
X142282733Y-35784387D01*
X142516235Y-36349503D01*
X142948222Y-36782246D01*
X143512930Y-37016733D01*
X144021626Y-37017177D01*
X143644844Y-37393302D01*
X143433241Y-37902898D01*
X143432760Y-38454681D01*
X143643473Y-38964646D01*
X144033302Y-39355156D01*
X144542898Y-39566759D01*
X145094681Y-39567240D01*
X145604646Y-39356527D01*
X145995156Y-38966698D01*
X146206759Y-38457102D01*
X146206761Y-38454681D01*
X148432760Y-38454681D01*
X148643473Y-38964646D01*
X149033302Y-39355156D01*
X149542898Y-39566759D01*
X150094681Y-39567240D01*
X150604646Y-39356527D01*
X150679303Y-39282000D01*
X152297072Y-39282000D01*
X152297072Y-40982000D01*
X152350205Y-41264380D01*
X152517092Y-41523729D01*
X152771731Y-41697717D01*
X153074000Y-41758928D01*
X154774000Y-41758928D01*
X155056380Y-41705795D01*
X155315729Y-41538908D01*
X155428827Y-41373384D01*
X155847114Y-41652875D01*
X156464000Y-41775581D01*
X157080886Y-41652875D01*
X157520297Y-41359269D01*
X160350015Y-41359269D01*
X160446421Y-41592589D01*
X160350385Y-41823869D01*
X160350015Y-42248269D01*
X160512084Y-42640504D01*
X160811917Y-42940862D01*
X161203869Y-43103615D01*
X161628269Y-43103985D01*
X162020504Y-42941916D01*
X162320862Y-42642083D01*
X162483615Y-42250131D01*
X162483985Y-41825731D01*
X162387579Y-41592411D01*
X162483615Y-41361131D01*
X162483985Y-40936731D01*
X162321916Y-40544496D01*
X162022083Y-40244138D01*
X161630131Y-40081385D01*
X161205731Y-40081015D01*
X160813496Y-40243084D01*
X160513138Y-40542917D01*
X160350385Y-40934869D01*
X160350015Y-41359269D01*
X157520297Y-41359269D01*
X157603856Y-41303437D01*
X157953294Y-40780467D01*
X158076000Y-40163581D01*
X158076000Y-40100419D01*
X157953294Y-39483533D01*
X157603856Y-38960563D01*
X157080886Y-38611125D01*
X156464000Y-38488419D01*
X155847114Y-38611125D01*
X155428006Y-38891165D01*
X155330908Y-38740271D01*
X155076269Y-38566283D01*
X154774000Y-38505072D01*
X153074000Y-38505072D01*
X152791620Y-38558205D01*
X152532271Y-38725092D01*
X152358283Y-38979731D01*
X152297072Y-39282000D01*
X150679303Y-39282000D01*
X150995156Y-38966698D01*
X151206759Y-38457102D01*
X151207240Y-37905319D01*
X150996527Y-37395354D01*
X150618658Y-37016825D01*
X151124387Y-37017267D01*
X151689503Y-36783765D01*
X152122246Y-36351778D01*
X152356733Y-35787070D01*
X152357267Y-35175613D01*
X152123765Y-34610497D01*
X151691778Y-34177754D01*
X151127070Y-33943267D01*
X150515613Y-33942733D01*
X149950497Y-34176235D01*
X149517754Y-34608222D01*
X149283267Y-35172930D01*
X149282733Y-35784387D01*
X149516235Y-36349503D01*
X149948222Y-36782246D01*
X149974443Y-36793134D01*
X149545319Y-36792760D01*
X149035354Y-37003473D01*
X148644844Y-37393302D01*
X148433241Y-37902898D01*
X148432760Y-38454681D01*
X146206761Y-38454681D01*
X146207240Y-37905319D01*
X145996527Y-37395354D01*
X145606698Y-37004844D01*
X145097102Y-36793241D01*
X144667476Y-36792866D01*
X144689503Y-36783765D01*
X145122246Y-36351778D01*
X145356733Y-35787070D01*
X145357267Y-35175613D01*
X145123765Y-34610497D01*
X144691778Y-34177754D01*
X144127070Y-33943267D01*
X143515613Y-33942733D01*
X142950497Y-34176235D01*
X142517754Y-34608222D01*
X142283267Y-35172930D01*
X142282733Y-35784387D01*
X122757000Y-35784387D01*
X122757000Y-33857000D01*
X136782810Y-33857000D01*
X136637138Y-34002417D01*
X136637138Y-34002417D01*
G37*
X136637138Y-34002417D02*
X136474385Y-34394369D01*
X136474015Y-34818769D01*
X136636084Y-35211004D01*
X136935917Y-35511362D01*
X137327869Y-35674115D01*
X137752269Y-35674485D01*
X138144504Y-35512416D01*
X138444862Y-35212583D01*
X138607615Y-34820631D01*
X138607985Y-34396231D01*
X138445916Y-34003996D01*
X138299177Y-33857000D01*
X176963000Y-33857000D01*
X176963000Y-41787607D01*
X176524374Y-41348214D01*
X175730035Y-41018376D01*
X174869938Y-41017626D01*
X174075025Y-41346077D01*
X173466314Y-41953726D01*
X173136476Y-42748065D01*
X173135726Y-43608162D01*
X173464177Y-44403075D01*
X174070908Y-45010866D01*
X174054563Y-45017437D01*
X174016223Y-45043055D01*
X173881598Y-45394795D01*
X175260000Y-46773197D01*
X176638402Y-45394795D01*
X176503777Y-45043055D01*
X176477645Y-45031909D01*
X176521175Y-45013923D01*
X176963000Y-44572869D01*
X176963000Y-45574463D01*
X176728205Y-45484598D01*
X175349803Y-46863000D01*
X176728205Y-48241402D01*
X176963000Y-48151537D01*
X176963000Y-49191773D01*
X176486274Y-48714214D01*
X176468207Y-48706712D01*
X176503777Y-48682945D01*
X176638402Y-48331205D01*
X175260000Y-46952803D01*
X173881598Y-48331205D01*
X174016223Y-48682945D01*
X174061103Y-48702087D01*
X174036925Y-48712077D01*
X173428214Y-49319726D01*
X173098376Y-50114065D01*
X173097626Y-50974162D01*
X173426077Y-51769075D01*
X174033726Y-52377786D01*
X174372469Y-52518444D01*
X174088563Y-52708144D01*
X173990000Y-52855654D01*
X173891437Y-52708144D01*
X173368467Y-52358706D01*
X172751581Y-52236000D01*
X172688419Y-52236000D01*
X172071533Y-52358706D01*
X171548563Y-52708144D01*
X171199125Y-53231114D01*
X171076419Y-53848000D01*
X171199125Y-54464886D01*
X171382915Y-54739947D01*
X160463862Y-65659000D01*
X157591919Y-65659000D01*
X157577083Y-65644138D01*
X157185131Y-65481385D01*
X156760731Y-65481015D01*
X156368496Y-65643084D01*
X156068138Y-65942917D01*
X155905385Y-66334869D01*
X155905015Y-66759269D01*
X155983010Y-66948030D01*
X155905385Y-67134972D01*
X155905015Y-67559372D01*
X155983010Y-67748133D01*
X155905385Y-67935075D01*
X155905015Y-68359475D01*
X155983010Y-68548236D01*
X155905385Y-68735178D01*
X155905015Y-69159578D01*
X155983010Y-69348339D01*
X155905385Y-69535281D01*
X155905015Y-69959681D01*
X155983010Y-70148442D01*
X155905385Y-70335384D01*
X155905015Y-70759784D01*
X155983010Y-70948545D01*
X155905385Y-71135487D01*
X155905015Y-71559887D01*
X155983010Y-71748648D01*
X155905385Y-71935590D01*
X155905015Y-72359990D01*
X156067084Y-72752225D01*
X156366917Y-73052583D01*
X156758869Y-73215336D01*
X157183269Y-73215706D01*
X157575504Y-73053637D01*
X157604191Y-73025000D01*
X171131862Y-73025000D01*
X171379523Y-73272661D01*
X171139016Y-73853305D01*
X171299919Y-74104500D01*
X172656500Y-74104500D01*
X172656500Y-74084500D01*
X172783500Y-74084500D01*
X172783500Y-74104500D01*
X172803500Y-74104500D01*
X172803500Y-74231500D01*
X172783500Y-74231500D01*
X172783500Y-75588253D01*
X173034695Y-75748988D01*
X173615758Y-75508214D01*
X173739984Y-75383955D01*
X173853092Y-75559729D01*
X174107731Y-75733717D01*
X174410000Y-75794928D01*
X176110000Y-75794928D01*
X176392380Y-75741795D01*
X176481379Y-75684525D01*
X176564682Y-75738129D01*
X176655764Y-75755497D01*
X176963000Y-75756992D01*
X176963000Y-108383000D01*
X168912000Y-108383000D01*
X168912000Y-106680000D01*
X168910000Y-106678000D01*
X168910000Y-106174000D01*
X168912000Y-106172000D01*
X168912000Y-103734429D01*
X168795992Y-103454362D01*
X168581638Y-103240008D01*
X168301571Y-103124000D01*
X168188547Y-103124000D01*
X168184276Y-102724635D01*
X168004649Y-102290977D01*
X167747914Y-102267889D01*
X167636217Y-102379587D01*
X167601638Y-102345008D01*
X167523539Y-102312658D01*
X167658111Y-102178086D01*
X167635023Y-101921351D01*
X167174694Y-101736419D01*
X166678635Y-101741724D01*
X166244977Y-101921351D01*
X166221889Y-102178086D01*
X166356461Y-102312658D01*
X166278362Y-102345008D01*
X166243784Y-102379587D01*
X166132086Y-102267889D01*
X165875351Y-102290977D01*
X165690419Y-102751306D01*
X165694405Y-103124000D01*
X165578429Y-103124000D01*
X165298362Y-103240008D01*
X165084008Y-103454362D01*
X165010428Y-103632000D01*
X160109572Y-103632000D01*
X160035992Y-103454362D01*
X159821638Y-103240008D01*
X159541571Y-103124000D01*
X159428547Y-103124000D01*
X159424276Y-102724635D01*
X159244649Y-102290977D01*
X158987914Y-102267889D01*
X158876217Y-102379587D01*
X158841638Y-102345008D01*
X158763539Y-102312658D01*
X158898111Y-102178086D01*
X158875023Y-101921351D01*
X158414694Y-101736419D01*
X157918635Y-101741724D01*
X157484977Y-101921351D01*
X157461889Y-102178086D01*
X157596461Y-102312658D01*
X157518362Y-102345008D01*
X157483784Y-102379587D01*
X157372086Y-102267889D01*
X157115351Y-102290977D01*
X156930419Y-102751306D01*
X156934405Y-103124000D01*
X156818429Y-103124000D01*
X156538362Y-103240008D01*
X156324008Y-103454362D01*
X156250428Y-103632000D01*
X156169572Y-103632000D01*
X156095992Y-103454362D01*
X155881638Y-103240008D01*
X155601571Y-103124000D01*
X155488547Y-103124000D01*
X155484276Y-102724635D01*
X155304649Y-102290977D01*
X155047914Y-102267889D01*
X154936217Y-102379587D01*
X154901638Y-102345008D01*
X154823539Y-102312658D01*
X154958111Y-102178086D01*
X154935023Y-101921351D01*
X154474694Y-101736419D01*
X153978635Y-101741724D01*
X153544977Y-101921351D01*
X153521889Y-102178086D01*
X153656461Y-102312658D01*
X153578362Y-102345008D01*
X153543784Y-102379587D01*
X153432086Y-102267889D01*
X153175351Y-102290977D01*
X152990419Y-102751306D01*
X152994405Y-103124000D01*
X152878429Y-103124000D01*
X152598362Y-103240008D01*
X152384008Y-103454362D01*
X152310428Y-103632000D01*
X147409572Y-103632000D01*
X147335992Y-103454362D01*
X147121638Y-103240008D01*
X146841571Y-103124000D01*
X146728547Y-103124000D01*
X146724276Y-102724635D01*
X146544649Y-102290977D01*
X146287914Y-102267889D01*
X146176217Y-102379587D01*
X146141638Y-102345008D01*
X146063539Y-102312658D01*
X146198111Y-102178086D01*
X146175023Y-101921351D01*
X145714694Y-101736419D01*
X145218635Y-101741724D01*
X144784977Y-101921351D01*
X144761889Y-102178086D01*
X144896461Y-102312658D01*
X144818362Y-102345008D01*
X144783784Y-102379587D01*
X144672086Y-102267889D01*
X144415351Y-102290977D01*
X144230419Y-102751306D01*
X144234405Y-103124000D01*
X144118429Y-103124000D01*
X143838362Y-103240008D01*
X143624008Y-103454362D01*
X143550428Y-103632000D01*
X143469572Y-103632000D01*
X143395992Y-103454362D01*
X143181638Y-103240008D01*
X142901571Y-103124000D01*
X142788547Y-103124000D01*
X142784276Y-102724635D01*
X142604649Y-102290977D01*
X142347914Y-102267889D01*
X142236217Y-102379587D01*
X142201638Y-102345008D01*
X142123539Y-102312658D01*
X142258111Y-102178086D01*
X142235023Y-101921351D01*
X141774694Y-101736419D01*
X141278635Y-101741724D01*
X140844977Y-101921351D01*
X140821889Y-102178086D01*
X140956461Y-102312658D01*
X140878362Y-102345008D01*
X140843784Y-102379587D01*
X140732086Y-102267889D01*
X140475351Y-102290977D01*
X140290419Y-102751306D01*
X140294405Y-103124000D01*
X140178429Y-103124000D01*
X139898362Y-103240008D01*
X139684008Y-103454362D01*
X139610428Y-103632000D01*
X134709572Y-103632000D01*
X134635992Y-103454362D01*
X134421638Y-103240008D01*
X134141571Y-103124000D01*
X134028547Y-103124000D01*
X134024276Y-102724635D01*
X133844649Y-102290977D01*
X133587914Y-102267889D01*
X133476217Y-102379587D01*
X133441638Y-102345008D01*
X133363539Y-102312658D01*
X133498111Y-102178086D01*
X133475023Y-101921351D01*
X133014694Y-101736419D01*
X132518635Y-101741724D01*
X132084977Y-101921351D01*
X132061889Y-102178086D01*
X132196461Y-102312658D01*
X132118362Y-102345008D01*
X132083784Y-102379587D01*
X131972086Y-102267889D01*
X131715351Y-102290977D01*
X131530419Y-102751306D01*
X131534405Y-103124000D01*
X131418429Y-103124000D01*
X131138362Y-103240008D01*
X130924008Y-103454362D01*
X130808000Y-103734429D01*
X130808000Y-106172000D01*
X130820183Y-106184183D01*
X130822317Y-106665683D01*
X130808000Y-106680000D01*
X130808000Y-108383000D01*
X122757000Y-108383000D01*
X122757000Y-99488162D01*
X134997626Y-99488162D01*
X135326077Y-100283075D01*
X135933726Y-100891786D01*
X136728065Y-101221624D01*
X137588162Y-101222374D01*
X138383075Y-100893923D01*
X138991786Y-100286274D01*
X139321624Y-99491935D01*
X139322374Y-98631838D01*
X138993923Y-97836925D01*
X138386274Y-97228214D01*
X137591935Y-96898376D01*
X136731838Y-96897626D01*
X135936925Y-97226077D01*
X135328214Y-97833726D01*
X134998376Y-98628065D01*
X134997626Y-99488162D01*
X122757000Y-99488162D01*
X122757000Y-95885000D01*
X146939000Y-95885000D01*
X146939000Y-97028000D01*
X147006671Y-97368206D01*
X147199382Y-97656618D01*
X147836996Y-98294232D01*
X147698376Y-98628065D01*
X147697626Y-99488162D01*
X148026077Y-100283075D01*
X148633726Y-100891786D01*
X149428065Y-101221624D01*
X150288162Y-101222374D01*
X151083075Y-100893923D01*
X151691786Y-100286274D01*
X152021624Y-99491935D01*
X152021627Y-99488162D01*
X160397626Y-99488162D01*
X160726077Y-100283075D01*
X161333726Y-100891786D01*
X162128065Y-101221624D01*
X162988162Y-101222374D01*
X163783075Y-100893923D01*
X164391786Y-100286274D01*
X164721624Y-99491935D01*
X164722374Y-98631838D01*
X164393923Y-97836925D01*
X163786274Y-97228214D01*
X162991935Y-96898376D01*
X162131838Y-96897626D01*
X161336925Y-97226077D01*
X160728214Y-97833726D01*
X160398376Y-98628065D01*
X160397626Y-99488162D01*
X152021627Y-99488162D01*
X152022374Y-98631838D01*
X151693923Y-97836925D01*
X151086274Y-97228214D01*
X150291935Y-96898376D01*
X149431838Y-96897626D01*
X149094321Y-97037085D01*
X148717000Y-96659764D01*
X148717000Y-96443912D01*
X148801269Y-96443985D01*
X149193504Y-96281916D01*
X149493862Y-95982083D01*
X149656615Y-95590131D01*
X149656985Y-95165731D01*
X149647239Y-95142144D01*
X149859000Y-95142144D01*
X149952533Y-95048611D01*
X150267438Y-95042582D01*
X150367000Y-95142144D01*
X150411696Y-95142144D01*
X150366714Y-95250473D01*
X150366344Y-95674873D01*
X150528413Y-96067108D01*
X150828246Y-96367466D01*
X151220198Y-96530219D01*
X151644598Y-96530589D01*
X152036833Y-96368520D01*
X152337191Y-96068687D01*
X152499944Y-95676735D01*
X152500021Y-95587963D01*
X152559457Y-95499011D01*
X152627128Y-95158805D01*
X152627128Y-93619769D01*
X152666515Y-93619769D01*
X152828584Y-94012004D01*
X153128417Y-94312362D01*
X153520369Y-94475115D01*
X153944769Y-94475485D01*
X154337004Y-94313416D01*
X154637362Y-94013583D01*
X154800115Y-93621631D01*
X154800485Y-93197231D01*
X154638416Y-92804996D01*
X154338583Y-92504638D01*
X153946631Y-92341885D01*
X153522231Y-92341515D01*
X153129996Y-92503584D01*
X152829638Y-92803417D01*
X152666885Y-93195369D01*
X152666515Y-93619769D01*
X152627128Y-93619769D01*
X152627128Y-91921144D01*
X152559457Y-91580938D01*
X152387458Y-91323523D01*
X152387485Y-91292247D01*
X152225416Y-90900012D01*
X151925583Y-90599654D01*
X151533631Y-90436901D01*
X151511101Y-90436881D01*
X150304500Y-89230280D01*
X150304500Y-84583272D01*
X150326298Y-84699119D01*
X150493185Y-84958468D01*
X150747824Y-85132456D01*
X151050093Y-85193667D01*
X152250093Y-85193667D01*
X152532473Y-85140534D01*
X152752465Y-84998973D01*
X152947824Y-85132456D01*
X153250093Y-85193667D01*
X154450093Y-85193667D01*
X154732473Y-85140534D01*
X154991822Y-84973647D01*
X155165810Y-84719008D01*
X155221569Y-84443661D01*
X155445750Y-84351031D01*
X155746108Y-84051198D01*
X155908861Y-83659246D01*
X155909231Y-83234846D01*
X155747162Y-82842611D01*
X155447329Y-82542253D01*
X155217021Y-82446621D01*
X155217021Y-82156739D01*
X155181595Y-81968465D01*
X155299961Y-81919557D01*
X155600319Y-81619724D01*
X155759128Y-81237269D01*
X157492515Y-81237269D01*
X157654584Y-81629504D01*
X157954417Y-81929862D01*
X158346369Y-82092615D01*
X158770769Y-82092985D01*
X159163004Y-81930916D01*
X159463362Y-81631083D01*
X159626115Y-81239131D01*
X159626485Y-80814731D01*
X159464416Y-80422496D01*
X159164583Y-80122138D01*
X158772631Y-79959385D01*
X158348231Y-79959015D01*
X157955996Y-80121084D01*
X157655638Y-80420917D01*
X157492885Y-80812869D01*
X157492515Y-81237269D01*
X155759128Y-81237269D01*
X155763072Y-81227772D01*
X155763442Y-80803372D01*
X155601373Y-80411137D01*
X155301540Y-80110779D01*
X154909588Y-79948026D01*
X154887058Y-79948006D01*
X152450776Y-77511724D01*
X152450997Y-77258731D01*
X152288928Y-76866496D01*
X151989095Y-76566138D01*
X151597143Y-76403385D01*
X151172743Y-76403015D01*
X150780508Y-76565084D01*
X150480150Y-76864917D01*
X150320851Y-77248550D01*
X150320416Y-77247496D01*
X150020583Y-76947138D01*
X149628631Y-76784385D01*
X149204231Y-76784015D01*
X148811996Y-76946084D01*
X148511638Y-77245917D01*
X148348885Y-77637869D01*
X148348515Y-78062269D01*
X148510584Y-78454504D01*
X148526500Y-78470448D01*
X148526500Y-89598516D01*
X148594171Y-89938722D01*
X148786882Y-90227134D01*
X149025447Y-90465699D01*
X148803131Y-90373385D01*
X148378731Y-90373015D01*
X147986496Y-90535084D01*
X147686138Y-90834917D01*
X147523385Y-91226869D01*
X147523015Y-91651269D01*
X147685084Y-92043504D01*
X147984917Y-92343862D01*
X148218112Y-92440693D01*
X148161000Y-92578573D01*
X148161000Y-93301144D01*
X148288840Y-93428984D01*
X148342966Y-93559657D01*
X148299440Y-93670704D01*
X148161000Y-93809144D01*
X148161000Y-94399980D01*
X147986496Y-94472084D01*
X147714435Y-94743669D01*
X147707382Y-94748382D01*
X147199382Y-95256382D01*
X147006671Y-95544794D01*
X146939000Y-95885000D01*
X122757000Y-95885000D01*
X122757000Y-88278727D01*
X135585015Y-88278727D01*
X135747084Y-88670962D01*
X136046917Y-88971320D01*
X136438869Y-89134073D01*
X136863269Y-89134443D01*
X137255504Y-88972374D01*
X137555862Y-88672541D01*
X137718615Y-88280589D01*
X137718985Y-87856189D01*
X137556916Y-87463954D01*
X137257083Y-87163596D01*
X136865131Y-87000843D01*
X136440731Y-87000473D01*
X136048496Y-87162542D01*
X135748138Y-87462375D01*
X135585385Y-87854327D01*
X135585015Y-88278727D01*
X122757000Y-88278727D01*
X122757000Y-85301269D01*
X142951015Y-85301269D01*
X143113084Y-85693504D01*
X143412917Y-85993862D01*
X143804869Y-86156615D01*
X144229269Y-86156985D01*
X144621504Y-85994916D01*
X144921862Y-85695083D01*
X145084615Y-85303131D01*
X145084985Y-84878731D01*
X144922916Y-84486496D01*
X144623083Y-84186138D01*
X144231131Y-84023385D01*
X143806731Y-84023015D01*
X143414496Y-84185084D01*
X143114138Y-84484917D01*
X142951385Y-84876869D01*
X142951015Y-85301269D01*
X122757000Y-85301269D01*
X122757000Y-84563790D01*
X127362013Y-84563790D01*
X127460099Y-84884367D01*
X128142803Y-85171815D01*
X128883540Y-85176123D01*
X129569540Y-84896635D01*
X129587901Y-84884367D01*
X129685987Y-84563790D01*
X132442013Y-84563790D01*
X132540099Y-84884367D01*
X133222803Y-85171815D01*
X133963540Y-85176123D01*
X134649540Y-84896635D01*
X134667901Y-84884367D01*
X134765987Y-84563790D01*
X133604000Y-83401803D01*
X132442013Y-84563790D01*
X129685987Y-84563790D01*
X128524000Y-83401803D01*
X127362013Y-84563790D01*
X122757000Y-84563790D01*
X122757000Y-83671540D01*
X126659877Y-83671540D01*
X126939365Y-84357540D01*
X126951633Y-84375901D01*
X127272210Y-84473987D01*
X128434197Y-83312000D01*
X127272210Y-82150013D01*
X126951633Y-82248099D01*
X126664185Y-82930803D01*
X126659877Y-83671540D01*
X122757000Y-83671540D01*
X122757000Y-82126227D01*
X123233726Y-82603786D01*
X124028065Y-82933624D01*
X124888162Y-82934374D01*
X125683075Y-82605923D01*
X126291786Y-81998274D01*
X126621624Y-81203935D01*
X126622374Y-80343838D01*
X126293923Y-79548925D01*
X126228902Y-79483790D01*
X127362013Y-79483790D01*
X127460099Y-79804367D01*
X128142803Y-80091815D01*
X128883540Y-80096123D01*
X129549436Y-79824826D01*
X129302306Y-80419979D01*
X129301694Y-81120946D01*
X129550893Y-81724051D01*
X128905197Y-81452185D01*
X128164460Y-81447877D01*
X127478460Y-81727365D01*
X127460099Y-81739633D01*
X127362013Y-82060210D01*
X128524000Y-83222197D01*
X128538142Y-83208055D01*
X128627945Y-83297858D01*
X128613803Y-83312000D01*
X129775790Y-84473987D01*
X130096367Y-84375901D01*
X130383815Y-83693197D01*
X130388123Y-82952460D01*
X130116826Y-82286564D01*
X130711979Y-82533694D01*
X131412946Y-82534306D01*
X132016051Y-82285107D01*
X131744185Y-82930803D01*
X131739877Y-83671540D01*
X132019365Y-84357540D01*
X132031633Y-84375901D01*
X132352210Y-84473987D01*
X133514197Y-83312000D01*
X133693803Y-83312000D01*
X134855790Y-84473987D01*
X135176367Y-84375901D01*
X135463815Y-83693197D01*
X135468123Y-82952460D01*
X135188635Y-82266460D01*
X135176367Y-82248099D01*
X134855790Y-82150013D01*
X133693803Y-83312000D01*
X133514197Y-83312000D01*
X133500055Y-83297858D01*
X133589858Y-83208055D01*
X133604000Y-83222197D01*
X134765987Y-82060210D01*
X134667901Y-81739633D01*
X134228840Y-81554769D01*
X137172515Y-81554769D01*
X137334584Y-81947004D01*
X137634417Y-82247362D01*
X138026369Y-82410115D01*
X138450769Y-82410485D01*
X138843004Y-82248416D01*
X139143362Y-81948583D01*
X139306115Y-81556631D01*
X139306290Y-81355769D01*
X144284515Y-81355769D01*
X144446584Y-81748004D01*
X144746417Y-82048362D01*
X145138369Y-82211115D01*
X145562769Y-82211485D01*
X145955004Y-82049416D01*
X146255362Y-81749583D01*
X146418115Y-81357631D01*
X146418485Y-80933231D01*
X146256416Y-80540996D01*
X145956583Y-80240638D01*
X145564631Y-80077885D01*
X145140231Y-80077515D01*
X144747996Y-80239584D01*
X144447638Y-80539417D01*
X144284885Y-80931369D01*
X144284515Y-81355769D01*
X139306290Y-81355769D01*
X139306485Y-81132231D01*
X139144416Y-80739996D01*
X138844583Y-80439638D01*
X138452631Y-80276885D01*
X138028231Y-80276515D01*
X137635996Y-80438584D01*
X137335638Y-80738417D01*
X137172885Y-81130369D01*
X137172515Y-81554769D01*
X134228840Y-81554769D01*
X133985197Y-81452185D01*
X133244460Y-81447877D01*
X132578564Y-81719174D01*
X132825694Y-81124021D01*
X132826306Y-80423054D01*
X132577107Y-79819949D01*
X133222803Y-80091815D01*
X133963540Y-80096123D01*
X134649540Y-79816635D01*
X134667901Y-79804367D01*
X134765987Y-79483790D01*
X133604000Y-78321803D01*
X133589858Y-78335945D01*
X133500055Y-78246142D01*
X133514197Y-78232000D01*
X133693803Y-78232000D01*
X134855790Y-79393987D01*
X135176367Y-79295901D01*
X135463815Y-78613197D01*
X135468123Y-77872460D01*
X135188635Y-77186460D01*
X135176367Y-77168099D01*
X134855790Y-77070013D01*
X133693803Y-78232000D01*
X133514197Y-78232000D01*
X132352210Y-77070013D01*
X132031633Y-77168099D01*
X131744185Y-77850803D01*
X131739877Y-78591540D01*
X132011174Y-79257436D01*
X131416021Y-79010306D01*
X130715054Y-79009694D01*
X130111949Y-79258893D01*
X130383815Y-78613197D01*
X130388123Y-77872460D01*
X130108635Y-77186460D01*
X130096367Y-77168099D01*
X129775790Y-77070013D01*
X128613803Y-78232000D01*
X128627945Y-78246142D01*
X128538142Y-78335945D01*
X128524000Y-78321803D01*
X127362013Y-79483790D01*
X126228902Y-79483790D01*
X125686274Y-78940214D01*
X124891935Y-78610376D01*
X124031838Y-78609626D01*
X123236925Y-78938077D01*
X122757000Y-79417165D01*
X122757000Y-78591540D01*
X126659877Y-78591540D01*
X126939365Y-79277540D01*
X126951633Y-79295901D01*
X127272210Y-79393987D01*
X128434197Y-78232000D01*
X127272210Y-77070013D01*
X126951633Y-77168099D01*
X126664185Y-77850803D01*
X126659877Y-78591540D01*
X122757000Y-78591540D01*
X122757000Y-76980210D01*
X127362013Y-76980210D01*
X128524000Y-78142197D01*
X129685987Y-76980210D01*
X132442013Y-76980210D01*
X133604000Y-78142197D01*
X134765987Y-76980210D01*
X134667901Y-76659633D01*
X133985197Y-76372185D01*
X133244460Y-76367877D01*
X132558460Y-76647365D01*
X132540099Y-76659633D01*
X132442013Y-76980210D01*
X129685987Y-76980210D01*
X129587901Y-76659633D01*
X128905197Y-76372185D01*
X128164460Y-76367877D01*
X127478460Y-76647365D01*
X127460099Y-76659633D01*
X127362013Y-76980210D01*
X122757000Y-76980210D01*
X122757000Y-75692000D01*
X123063000Y-75692000D01*
X123161820Y-75671988D01*
X123245069Y-75615107D01*
X123299629Y-75530318D01*
X123317000Y-75438000D01*
X123317000Y-75326857D01*
X123811533Y-75657294D01*
X124428419Y-75780000D01*
X124491581Y-75780000D01*
X125108467Y-75657294D01*
X125631437Y-75307856D01*
X125730000Y-75160346D01*
X125828563Y-75307856D01*
X126351533Y-75657294D01*
X126968419Y-75780000D01*
X127031581Y-75780000D01*
X127648467Y-75657294D01*
X128171437Y-75307856D01*
X128520875Y-74784886D01*
X128643581Y-74168000D01*
X128579482Y-73845754D01*
X132219734Y-70205502D01*
X132219734Y-73901647D01*
X131920996Y-74025084D01*
X131620638Y-74324917D01*
X131457885Y-74716869D01*
X131457515Y-75141269D01*
X131619584Y-75533504D01*
X131919417Y-75833862D01*
X132311369Y-75996615D01*
X132735769Y-75996985D01*
X133128004Y-75834916D01*
X133428362Y-75535083D01*
X133591115Y-75143131D01*
X133591135Y-75120601D01*
X133737352Y-74974384D01*
X133930064Y-74685971D01*
X133942950Y-74621186D01*
X136474033Y-77152269D01*
X136474015Y-77173269D01*
X136636084Y-77565504D01*
X136935917Y-77865862D01*
X137327869Y-78028615D01*
X137752269Y-78028985D01*
X138144504Y-77866916D01*
X138444862Y-77567083D01*
X138607615Y-77175131D01*
X138607985Y-76750731D01*
X138445916Y-76358496D01*
X138146083Y-76058138D01*
X137754131Y-75895385D01*
X137731601Y-75895365D01*
X134780614Y-72944378D01*
X134780614Y-70455050D01*
X137363188Y-73037624D01*
X137363015Y-73236269D01*
X137525084Y-73628504D01*
X137619927Y-73723513D01*
X137399138Y-73943917D01*
X137236385Y-74335869D01*
X137236015Y-74760269D01*
X137398084Y-75152504D01*
X137697917Y-75452862D01*
X138089869Y-75615615D01*
X138514269Y-75615985D01*
X138906504Y-75453916D01*
X139191984Y-75168935D01*
X139191984Y-77104081D01*
X139177122Y-77118917D01*
X139014369Y-77510869D01*
X139013999Y-77935269D01*
X139176068Y-78327504D01*
X139475901Y-78627862D01*
X139867853Y-78790615D01*
X140292253Y-78790985D01*
X140684488Y-78628916D01*
X140984846Y-78329083D01*
X141008553Y-78271989D01*
X141093609Y-78357194D01*
X141485561Y-78519947D01*
X141909961Y-78520317D01*
X142179091Y-78409114D01*
X142224084Y-78518004D01*
X142523917Y-78818362D01*
X142915869Y-78981115D01*
X143075499Y-78981254D01*
X143356615Y-79262862D01*
X143748567Y-79425615D01*
X144172967Y-79425985D01*
X144565202Y-79263916D01*
X144865560Y-78964083D01*
X145028313Y-78572131D01*
X145028683Y-78147731D01*
X145002027Y-78083219D01*
X145089317Y-78170662D01*
X145481269Y-78333415D01*
X145905669Y-78333785D01*
X146297904Y-78171716D01*
X146598262Y-77871883D01*
X146761015Y-77479931D01*
X146761385Y-77055531D01*
X146599316Y-76663296D01*
X146583400Y-76647352D01*
X146583400Y-74980800D01*
X146515729Y-74640594D01*
X146410225Y-74482695D01*
X171139016Y-74482695D01*
X171379550Y-75063405D01*
X171824242Y-75508214D01*
X172405305Y-75748988D01*
X172656500Y-75588253D01*
X172656500Y-74231500D01*
X171299919Y-74231500D01*
X171139016Y-74482695D01*
X146410225Y-74482695D01*
X146323018Y-74352182D01*
X144945036Y-72974200D01*
X150315121Y-72974200D01*
X150474593Y-73133672D01*
X150763005Y-73326383D01*
X151103211Y-73394054D01*
X151681582Y-73394054D01*
X152021788Y-73326383D01*
X152110415Y-73267164D01*
X152197650Y-73267240D01*
X152589885Y-73105171D01*
X152890243Y-72805338D01*
X153052996Y-72413386D01*
X153053366Y-71988986D01*
X152891297Y-71596751D01*
X152591464Y-71296393D01*
X152199512Y-71133640D01*
X152148708Y-71133596D01*
X152146915Y-71129256D01*
X151847082Y-70828898D01*
X151455130Y-70666145D01*
X151371291Y-70666072D01*
X151267485Y-70596711D01*
X150927279Y-70529040D01*
X145702630Y-70529040D01*
X145881806Y-70350177D01*
X145887551Y-70336340D01*
X146237362Y-70191801D01*
X146537720Y-69891968D01*
X146700473Y-69500016D01*
X146700843Y-69075616D01*
X146538774Y-68683381D01*
X146522858Y-68667437D01*
X146522858Y-68449693D01*
X146455187Y-68109487D01*
X146262476Y-67821075D01*
X145164354Y-66722953D01*
X145483221Y-66591199D01*
X145783579Y-66291366D01*
X145946332Y-65899414D01*
X145946702Y-65475014D01*
X145784633Y-65082779D01*
X145484800Y-64782421D01*
X145092848Y-64619668D01*
X144668448Y-64619298D01*
X144276213Y-64781367D01*
X143975855Y-65081200D01*
X143842868Y-65401467D01*
X140906383Y-62464982D01*
X140803144Y-62396000D01*
X140617971Y-62272271D01*
X140277765Y-62204600D01*
X135623236Y-62204600D01*
X135287525Y-61868889D01*
X135604504Y-61737916D01*
X135904862Y-61438083D01*
X136067615Y-61046131D01*
X136067985Y-60621731D01*
X135905916Y-60229496D01*
X135606083Y-59929138D01*
X135336025Y-59817000D01*
X139484164Y-59817000D01*
X143922782Y-64255618D01*
X144211195Y-64448330D01*
X144551400Y-64516000D01*
X146386632Y-64516000D01*
X147713703Y-65843071D01*
X147713703Y-67436271D01*
X147714432Y-67439936D01*
X147714432Y-68008500D01*
X147782103Y-68348706D01*
X147822908Y-68409775D01*
X147749638Y-68482917D01*
X147586885Y-68874869D01*
X147586515Y-69299269D01*
X147748584Y-69691504D01*
X148048417Y-69991862D01*
X148440369Y-70154615D01*
X148864769Y-70154985D01*
X149257004Y-69992916D01*
X149557362Y-69693083D01*
X149720115Y-69301131D01*
X149720485Y-68876731D01*
X149707126Y-68844399D01*
X149938346Y-68613583D01*
X150101099Y-68221631D01*
X150101469Y-67797231D01*
X150032490Y-67630290D01*
X150128866Y-67534083D01*
X150291619Y-67142131D01*
X150291810Y-66923021D01*
X152559961Y-66923021D01*
X152722030Y-67315256D01*
X153021863Y-67615614D01*
X153413815Y-67778367D01*
X153838215Y-67778737D01*
X154230450Y-67616668D01*
X154530808Y-67316835D01*
X154693561Y-66924883D01*
X154693931Y-66500483D01*
X154531862Y-66108248D01*
X154232029Y-65807890D01*
X153840077Y-65645137D01*
X153415677Y-65644767D01*
X153023442Y-65806836D01*
X152723084Y-66106669D01*
X152560331Y-66498621D01*
X152559961Y-66923021D01*
X150291810Y-66923021D01*
X150291989Y-66717731D01*
X150129920Y-66325496D01*
X150114004Y-66309552D01*
X150114004Y-65468504D01*
X150046333Y-65128298D01*
X149853622Y-64839886D01*
X148471005Y-63457269D01*
X154063515Y-63457269D01*
X154225584Y-63849504D01*
X154525417Y-64149862D01*
X154917369Y-64312615D01*
X155341769Y-64312985D01*
X155734004Y-64150916D01*
X156034362Y-63851083D01*
X156197115Y-63459131D01*
X156197485Y-63034731D01*
X156035416Y-62642496D01*
X155735583Y-62342138D01*
X155343631Y-62179385D01*
X154919231Y-62179015D01*
X154526996Y-62341084D01*
X154226638Y-62640917D01*
X154063885Y-63032869D01*
X154063515Y-63457269D01*
X148471005Y-63457269D01*
X147440618Y-62426882D01*
X147336032Y-62357000D01*
X147152206Y-62234171D01*
X146812000Y-62166500D01*
X145033936Y-62166500D01*
X144038705Y-61171269D01*
X152222015Y-61171269D01*
X152384084Y-61563504D01*
X152683917Y-61863862D01*
X153075869Y-62026615D01*
X153500269Y-62026985D01*
X153892504Y-61864916D01*
X154192862Y-61565083D01*
X154355615Y-61173131D01*
X154355985Y-60748731D01*
X154193916Y-60356496D01*
X153894083Y-60056138D01*
X153502131Y-59893385D01*
X153077731Y-59893015D01*
X152685496Y-60055084D01*
X152385138Y-60354917D01*
X152222385Y-60746869D01*
X152222015Y-61171269D01*
X144038705Y-61171269D01*
X139466705Y-56599269D01*
X161747015Y-56599269D01*
X161909084Y-56991504D01*
X162208917Y-57291862D01*
X162600869Y-57454615D01*
X163025269Y-57454985D01*
X163417504Y-57292916D01*
X163717862Y-56993083D01*
X163880615Y-56601131D01*
X163880985Y-56176731D01*
X163718916Y-55784496D01*
X163419083Y-55484138D01*
X163027131Y-55321385D01*
X162602731Y-55321015D01*
X162210496Y-55483084D01*
X161910138Y-55782917D01*
X161747385Y-56174869D01*
X161747015Y-56599269D01*
X139466705Y-56599269D01*
X138626818Y-55759382D01*
X138572493Y-55723083D01*
X138338406Y-55566671D01*
X137998200Y-55499000D01*
X135680410Y-55499000D01*
X135750115Y-55331131D01*
X135750485Y-54906731D01*
X135588416Y-54514496D01*
X135288583Y-54214138D01*
X134896631Y-54051385D01*
X134472231Y-54051015D01*
X134079996Y-54213084D01*
X133779638Y-54512917D01*
X133616885Y-54904869D01*
X133616515Y-55329269D01*
X133686647Y-55499000D01*
X128339054Y-55499000D01*
X128171437Y-55248144D01*
X127970243Y-55113710D01*
X128340450Y-54743405D01*
X128580984Y-54162695D01*
X128420081Y-53911500D01*
X127063500Y-53911500D01*
X127063500Y-53931500D01*
X126936500Y-53931500D01*
X126936500Y-53911500D01*
X126916500Y-53911500D01*
X126916500Y-53784500D01*
X126936500Y-53784500D01*
X126936500Y-52427747D01*
X127063500Y-52427747D01*
X127063500Y-53784500D01*
X128420081Y-53784500D01*
X128580984Y-53533305D01*
X128340450Y-52952595D01*
X127895758Y-52507786D01*
X127314695Y-52267012D01*
X127063500Y-52427747D01*
X126936500Y-52427747D01*
X126685305Y-52267012D01*
X126104242Y-52507786D01*
X125980016Y-52632045D01*
X125866908Y-52456271D01*
X125612269Y-52282283D01*
X125310000Y-52221072D01*
X123610000Y-52221072D01*
X123327620Y-52274205D01*
X123238621Y-52331475D01*
X123155318Y-52277871D01*
X123071038Y-52260627D01*
X122757000Y-52250685D01*
X122757000Y-51963769D01*
X157365515Y-51963769D01*
X157527584Y-52356004D01*
X157827417Y-52656362D01*
X158219369Y-52819115D01*
X158643769Y-52819485D01*
X159036004Y-52657416D01*
X159336362Y-52357583D01*
X159499115Y-51965631D01*
X159499485Y-51541231D01*
X159337416Y-51148996D01*
X159037583Y-50848638D01*
X158645631Y-50685885D01*
X158221231Y-50685515D01*
X157828996Y-50847584D01*
X157528638Y-51147417D01*
X157365885Y-51539369D01*
X157365515Y-51963769D01*
X122757000Y-51963769D01*
X122757000Y-46947269D01*
X165874515Y-46947269D01*
X166036584Y-47339504D01*
X166336417Y-47639862D01*
X166728369Y-47802615D01*
X167152769Y-47802985D01*
X167545004Y-47640916D01*
X167845362Y-47341083D01*
X167874707Y-47270412D01*
X173093621Y-47270412D01*
X173414437Y-48068437D01*
X173440055Y-48106777D01*
X173791795Y-48241402D01*
X175170197Y-46863000D01*
X173791795Y-45484598D01*
X173440055Y-45619223D01*
X173102617Y-46410363D01*
X173093621Y-47270412D01*
X167874707Y-47270412D01*
X168008115Y-46949131D01*
X168008485Y-46524731D01*
X167846416Y-46132496D01*
X167546583Y-45832138D01*
X167154631Y-45669385D01*
X166730231Y-45669015D01*
X166337996Y-45831084D01*
X166037638Y-46130917D01*
X165874885Y-46522869D01*
X165874515Y-46947269D01*
X122757000Y-46947269D01*
X122757000Y-46058269D01*
X156794015Y-46058269D01*
X156956084Y-46450504D01*
X157255917Y-46750862D01*
X157647869Y-46913615D01*
X158072269Y-46913985D01*
X158464504Y-46751916D01*
X158764862Y-46452083D01*
X158927615Y-46060131D01*
X158927985Y-45635731D01*
X158765916Y-45243496D01*
X158466083Y-44943138D01*
X158074131Y-44780385D01*
X157649731Y-44780015D01*
X157257496Y-44942084D01*
X156957138Y-45241917D01*
X156794385Y-45633869D01*
X156794015Y-46058269D01*
X122757000Y-46058269D01*
X122757000Y-41994269D01*
X149491515Y-41994269D01*
X149653584Y-42386504D01*
X149953417Y-42686862D01*
X150345369Y-42849615D01*
X150769769Y-42849985D01*
X151162004Y-42687916D01*
X151462362Y-42388083D01*
X151625115Y-41996131D01*
X151625485Y-41571731D01*
X151463416Y-41179496D01*
X151163583Y-40879138D01*
X150771631Y-40716385D01*
X150347231Y-40716015D01*
X149954996Y-40878084D01*
X149654638Y-41177917D01*
X149491885Y-41569869D01*
X149491515Y-41994269D01*
X122757000Y-41994269D01*
X122757000Y-35784387D01*
X142282733Y-35784387D01*
X142516235Y-36349503D01*
X142948222Y-36782246D01*
X143512930Y-37016733D01*
X144021626Y-37017177D01*
X143644844Y-37393302D01*
X143433241Y-37902898D01*
X143432760Y-38454681D01*
X143643473Y-38964646D01*
X144033302Y-39355156D01*
X144542898Y-39566759D01*
X145094681Y-39567240D01*
X145604646Y-39356527D01*
X145995156Y-38966698D01*
X146206759Y-38457102D01*
X146206761Y-38454681D01*
X148432760Y-38454681D01*
X148643473Y-38964646D01*
X149033302Y-39355156D01*
X149542898Y-39566759D01*
X150094681Y-39567240D01*
X150604646Y-39356527D01*
X150679303Y-39282000D01*
X152297072Y-39282000D01*
X152297072Y-40982000D01*
X152350205Y-41264380D01*
X152517092Y-41523729D01*
X152771731Y-41697717D01*
X153074000Y-41758928D01*
X154774000Y-41758928D01*
X155056380Y-41705795D01*
X155315729Y-41538908D01*
X155428827Y-41373384D01*
X155847114Y-41652875D01*
X156464000Y-41775581D01*
X157080886Y-41652875D01*
X157520297Y-41359269D01*
X160350015Y-41359269D01*
X160446421Y-41592589D01*
X160350385Y-41823869D01*
X160350015Y-42248269D01*
X160512084Y-42640504D01*
X160811917Y-42940862D01*
X161203869Y-43103615D01*
X161628269Y-43103985D01*
X162020504Y-42941916D01*
X162320862Y-42642083D01*
X162483615Y-42250131D01*
X162483985Y-41825731D01*
X162387579Y-41592411D01*
X162483615Y-41361131D01*
X162483985Y-40936731D01*
X162321916Y-40544496D01*
X162022083Y-40244138D01*
X161630131Y-40081385D01*
X161205731Y-40081015D01*
X160813496Y-40243084D01*
X160513138Y-40542917D01*
X160350385Y-40934869D01*
X160350015Y-41359269D01*
X157520297Y-41359269D01*
X157603856Y-41303437D01*
X157953294Y-40780467D01*
X158076000Y-40163581D01*
X158076000Y-40100419D01*
X157953294Y-39483533D01*
X157603856Y-38960563D01*
X157080886Y-38611125D01*
X156464000Y-38488419D01*
X155847114Y-38611125D01*
X155428006Y-38891165D01*
X155330908Y-38740271D01*
X155076269Y-38566283D01*
X154774000Y-38505072D01*
X153074000Y-38505072D01*
X152791620Y-38558205D01*
X152532271Y-38725092D01*
X152358283Y-38979731D01*
X152297072Y-39282000D01*
X150679303Y-39282000D01*
X150995156Y-38966698D01*
X151206759Y-38457102D01*
X151207240Y-37905319D01*
X150996527Y-37395354D01*
X150618658Y-37016825D01*
X151124387Y-37017267D01*
X151689503Y-36783765D01*
X152122246Y-36351778D01*
X152356733Y-35787070D01*
X152357267Y-35175613D01*
X152123765Y-34610497D01*
X151691778Y-34177754D01*
X151127070Y-33943267D01*
X150515613Y-33942733D01*
X149950497Y-34176235D01*
X149517754Y-34608222D01*
X149283267Y-35172930D01*
X149282733Y-35784387D01*
X149516235Y-36349503D01*
X149948222Y-36782246D01*
X149974443Y-36793134D01*
X149545319Y-36792760D01*
X149035354Y-37003473D01*
X148644844Y-37393302D01*
X148433241Y-37902898D01*
X148432760Y-38454681D01*
X146206761Y-38454681D01*
X146207240Y-37905319D01*
X145996527Y-37395354D01*
X145606698Y-37004844D01*
X145097102Y-36793241D01*
X144667476Y-36792866D01*
X144689503Y-36783765D01*
X145122246Y-36351778D01*
X145356733Y-35787070D01*
X145357267Y-35175613D01*
X145123765Y-34610497D01*
X144691778Y-34177754D01*
X144127070Y-33943267D01*
X143515613Y-33942733D01*
X142950497Y-34176235D01*
X142517754Y-34608222D01*
X142283267Y-35172930D01*
X142282733Y-35784387D01*
X122757000Y-35784387D01*
X122757000Y-33857000D01*
X136782810Y-33857000D01*
X136637138Y-34002417D01*
G36*
X150479096Y-78073504D02*
X150778929Y-78373862D01*
X150812298Y-78387718D01*
X153629490Y-81204910D01*
X153629472Y-81225910D01*
X153693063Y-81379811D01*
X153240093Y-81379811D01*
X152957713Y-81432944D01*
X152736363Y-81575379D01*
X152671731Y-81510747D01*
X152391664Y-81394739D01*
X151894093Y-81394739D01*
X151703593Y-81585239D01*
X151703593Y-82543239D01*
X151723593Y-82543239D01*
X151723593Y-82670239D01*
X151703593Y-82670239D01*
X151703593Y-82690239D01*
X151576593Y-82690239D01*
X151576593Y-82670239D01*
X151556593Y-82670239D01*
X151556593Y-82543239D01*
X151576593Y-82543239D01*
X151576593Y-81585239D01*
X151386093Y-81394739D01*
X150888522Y-81394739D01*
X150608455Y-81510747D01*
X150394101Y-81725101D01*
X150304500Y-81941416D01*
X150304500Y-78470919D01*
X150319362Y-78456083D01*
X150478661Y-78072450D01*
X150479096Y-78073504D01*
X150479096Y-78073504D01*
G37*
X150479096Y-78073504D02*
X150778929Y-78373862D01*
X150812298Y-78387718D01*
X153629490Y-81204910D01*
X153629472Y-81225910D01*
X153693063Y-81379811D01*
X153240093Y-81379811D01*
X152957713Y-81432944D01*
X152736363Y-81575379D01*
X152671731Y-81510747D01*
X152391664Y-81394739D01*
X151894093Y-81394739D01*
X151703593Y-81585239D01*
X151703593Y-82543239D01*
X151723593Y-82543239D01*
X151723593Y-82670239D01*
X151703593Y-82670239D01*
X151703593Y-82690239D01*
X151576593Y-82690239D01*
X151576593Y-82670239D01*
X151556593Y-82670239D01*
X151556593Y-82543239D01*
X151576593Y-82543239D01*
X151576593Y-81585239D01*
X151386093Y-81394739D01*
X150888522Y-81394739D01*
X150608455Y-81510747D01*
X150394101Y-81725101D01*
X150304500Y-81941416D01*
X150304500Y-78470919D01*
X150319362Y-78456083D01*
X150478661Y-78072450D01*
X150479096Y-78073504D01*
M02*
