%TF.GenerationSoftware,KiCad,Pcbnew,4.0.6*%
%TF.CreationDate,2017-05-01T22:06:23-07:00*%
%TF.ProjectId,rev3,726576332E6B696361645F7063620000,rev?*%
%TF.FileFunction,Legend,Bot*%
%FSLAX46Y46*%
G04 Gerber Fmt 4.6, Leading zero omitted, Abs format (unit mm)*
G04 Created by KiCad (PCBNEW 4.0.6) date 05/01/17 22:06:23*
%MOMM*%
%LPD*%
G01*
G04 APERTURE LIST*
%ADD10C,0.100000*%
%ADD11C,0.120000*%
%ADD12C,0.150000*%
%ADD13C,7.400000*%
%ADD14C,1.000000*%
%ADD15R,2.100000X2.100000*%
%ADD16O,2.100000X2.100000*%
%ADD17C,3.200000*%
%ADD18C,2.600000*%
%ADD19C,2.400000*%
%ADD20R,2.820000X5.480000*%
%ADD21R,1.600000X1.300000*%
%ADD22C,1.650000*%
%ADD23C,1.950000*%
%ADD24C,1.009600*%
G04 APERTURE END LIST*
D10*
D11*
X153250093Y-83286739D02*
X152250093Y-83286739D01*
X152250093Y-84646739D02*
X153250093Y-84646739D01*
X152240093Y-83286739D02*
X153240093Y-83286739D01*
X153240093Y-81926739D02*
X152240093Y-81926739D01*
D12*
X152916759Y-85869120D02*
X153250093Y-85392929D01*
X153488188Y-85869120D02*
X153488188Y-84869120D01*
X153107235Y-84869120D01*
X153011997Y-84916739D01*
X152964378Y-84964358D01*
X152916759Y-85059596D01*
X152916759Y-85202453D01*
X152964378Y-85297691D01*
X153011997Y-85345310D01*
X153107235Y-85392929D01*
X153488188Y-85392929D01*
X152440569Y-85869120D02*
X152250093Y-85869120D01*
X152154854Y-85821501D01*
X152107235Y-85773882D01*
X152011997Y-85631025D01*
X151964378Y-85440549D01*
X151964378Y-85059596D01*
X152011997Y-84964358D01*
X152059616Y-84916739D01*
X152154854Y-84869120D01*
X152345331Y-84869120D01*
X152440569Y-84916739D01*
X152488188Y-84964358D01*
X152535807Y-85059596D01*
X152535807Y-85297691D01*
X152488188Y-85392929D01*
X152440569Y-85440549D01*
X152345331Y-85488168D01*
X152154854Y-85488168D01*
X152059616Y-85440549D01*
X152011997Y-85392929D01*
X151964378Y-85297691D01*
X153382950Y-81609120D02*
X153716284Y-81132929D01*
X153954379Y-81609120D02*
X153954379Y-80609120D01*
X153573426Y-80609120D01*
X153478188Y-80656739D01*
X153430569Y-80704358D01*
X153382950Y-80799596D01*
X153382950Y-80942453D01*
X153430569Y-81037691D01*
X153478188Y-81085310D01*
X153573426Y-81132929D01*
X153954379Y-81132929D01*
X152430569Y-81609120D02*
X153001998Y-81609120D01*
X152716284Y-81609120D02*
X152716284Y-80609120D01*
X152811522Y-80751977D01*
X152906760Y-80847215D01*
X153001998Y-80894834D01*
X151811522Y-80609120D02*
X151716283Y-80609120D01*
X151621045Y-80656739D01*
X151573426Y-80704358D01*
X151525807Y-80799596D01*
X151478188Y-80990072D01*
X151478188Y-81228168D01*
X151525807Y-81418644D01*
X151573426Y-81513882D01*
X151621045Y-81561501D01*
X151716283Y-81609120D01*
X151811522Y-81609120D01*
X151906760Y-81561501D01*
X151954379Y-81513882D01*
X152001998Y-81418644D01*
X152049617Y-81228168D01*
X152049617Y-80990072D01*
X152001998Y-80799596D01*
X151954379Y-80704358D01*
X151906760Y-80656739D01*
X151811522Y-80609120D01*
%LPC*%
D13*
X127000000Y-104140000D03*
D14*
X129625000Y-104140000D03*
X128856155Y-105996155D03*
X127000000Y-106765000D03*
X125143845Y-105996155D03*
X124375000Y-104140000D03*
X125143845Y-102283845D03*
X127000000Y-101515000D03*
X128856155Y-102283845D03*
D13*
X172720000Y-104140000D03*
D14*
X175345000Y-104140000D03*
X174576155Y-105996155D03*
X172720000Y-106765000D03*
X170863845Y-105996155D03*
X170095000Y-104140000D03*
X170863845Y-102283845D03*
X172720000Y-101515000D03*
X174576155Y-102283845D03*
D13*
X172720000Y-38100000D03*
D14*
X175345000Y-38100000D03*
X174576155Y-39956155D03*
X172720000Y-40725000D03*
X170863845Y-39956155D03*
X170095000Y-38100000D03*
X170863845Y-36243845D03*
X172720000Y-35475000D03*
X174576155Y-36243845D03*
D15*
X124460000Y-53848000D03*
D16*
X127000000Y-53848000D03*
X124460000Y-56388000D03*
X127000000Y-56388000D03*
X124460000Y-58928000D03*
X127000000Y-58928000D03*
X124460000Y-61468000D03*
X127000000Y-61468000D03*
X124460000Y-64008000D03*
X127000000Y-64008000D03*
X124460000Y-66548000D03*
X127000000Y-66548000D03*
X124460000Y-69088000D03*
X127000000Y-69088000D03*
X124460000Y-71628000D03*
X127000000Y-71628000D03*
X124460000Y-74168000D03*
X127000000Y-74168000D03*
D17*
X175260000Y-50546000D03*
X175298100Y-43180000D03*
X175260000Y-46863000D03*
D18*
X128524000Y-83312000D03*
X128524000Y-78232000D03*
X133604000Y-78232000D03*
X133604000Y-83312000D03*
D19*
X131064000Y-80772000D03*
D20*
X158180000Y-106426000D03*
X166940000Y-106426000D03*
D15*
X175260000Y-74168000D03*
D16*
X172720000Y-74168000D03*
X175260000Y-71628000D03*
X172720000Y-71628000D03*
X175260000Y-69088000D03*
X172720000Y-69088000D03*
X175260000Y-66548000D03*
X172720000Y-66548000D03*
X175260000Y-64008000D03*
X172720000Y-64008000D03*
X175260000Y-61468000D03*
X172720000Y-61468000D03*
X175260000Y-58928000D03*
X172720000Y-58928000D03*
X175260000Y-56388000D03*
X172720000Y-56388000D03*
X175260000Y-53848000D03*
X172720000Y-53848000D03*
D20*
X132780000Y-106426000D03*
X141540000Y-106426000D03*
X145480000Y-106426000D03*
X154240000Y-106426000D03*
D15*
X153924000Y-40132000D03*
D16*
X156464000Y-40132000D03*
D21*
X151650093Y-83966739D03*
X153850093Y-83966739D03*
X153840093Y-82606739D03*
X151640093Y-82606739D03*
D17*
X124460000Y-80772000D03*
X162560000Y-99060000D03*
X137160000Y-99060000D03*
X149860000Y-99060000D03*
D13*
X127000000Y-38100000D03*
D14*
X129625000Y-38100000D03*
X128856155Y-39956155D03*
X127000000Y-40725000D03*
X125143845Y-39956155D03*
X124375000Y-38100000D03*
X125143845Y-36243845D03*
X127000000Y-35475000D03*
X128856155Y-36243845D03*
D22*
X149820000Y-38180000D03*
X144820000Y-38180000D03*
D23*
X150820000Y-35480000D03*
X143820000Y-35480000D03*
D24*
X149324600Y-93131744D03*
X150113000Y-93131744D03*
X150901400Y-93131744D03*
X149324600Y-93978544D03*
X150113000Y-93978544D03*
X150901400Y-93978544D03*
X143035306Y-80291684D03*
X143035306Y-81141684D03*
X143035306Y-81991684D03*
X143035306Y-82841684D03*
X142185306Y-80291684D03*
X142185306Y-81141684D03*
X142185306Y-81991684D03*
X142185306Y-82841684D03*
X141335306Y-80291684D03*
X141335306Y-81141684D03*
X141335306Y-81991684D03*
X141335306Y-82841684D03*
X140485306Y-80291684D03*
X140485306Y-81141684D03*
X140485306Y-81991684D03*
X140485306Y-82841684D03*
M02*
