%TF.GenerationSoftware,KiCad,Pcbnew,4.0.6*%
%TF.CreationDate,2017-05-01T22:06:24-07:00*%
%TF.ProjectId,rev3,726576332E6B696361645F7063620000,rev?*%
%TF.FileFunction,Soldermask,Top*%
%FSLAX46Y46*%
G04 Gerber Fmt 4.6, Leading zero omitted, Abs format (unit mm)*
G04 Created by KiCad (PCBNEW 4.0.6) date 05/01/17 22:06:24*
%MOMM*%
%LPD*%
G01*
G04 APERTURE LIST*
%ADD10C,0.100000*%
%ADD11C,7.400000*%
%ADD12C,1.000000*%
%ADD13R,1.600000X1.600000*%
%ADD14R,2.100000X2.100000*%
%ADD15O,2.100000X2.100000*%
%ADD16C,3.200000*%
%ADD17R,2.400000X4.200000*%
%ADD18R,2.400000X1.900000*%
%ADD19R,1.600000X1.150000*%
%ADD20R,1.150000X1.600000*%
%ADD21C,2.600000*%
%ADD22C,2.400000*%
%ADD23R,2.690000X5.480000*%
%ADD24R,2.820000X5.480000*%
%ADD25R,1.300000X1.600000*%
%ADD26R,1.600000X1.300000*%
%ADD27R,0.650000X1.300000*%
%ADD28R,0.650000X1.450000*%
%ADD29R,1.350000X0.650000*%
%ADD30R,1.250000X1.400000*%
%ADD31R,1.250000X1.000000*%
%ADD32R,0.800000X1.750000*%
%ADD33C,1.650000*%
%ADD34C,1.950000*%
%ADD35R,2.780000X2.050000*%
%ADD36C,1.009600*%
%ADD37R,1.400000X0.650000*%
%ADD38R,0.650000X1.400000*%
%ADD39R,4.000000X4.000000*%
G04 APERTURE END LIST*
D10*
D11*
X127000000Y-104140000D03*
D12*
X129625000Y-104140000D03*
X128856155Y-105996155D03*
X127000000Y-106765000D03*
X125143845Y-105996155D03*
X124375000Y-104140000D03*
X125143845Y-102283845D03*
X127000000Y-101515000D03*
X128856155Y-102283845D03*
D11*
X172720000Y-104140000D03*
D12*
X175345000Y-104140000D03*
X174576155Y-105996155D03*
X172720000Y-106765000D03*
X170863845Y-105996155D03*
X170095000Y-104140000D03*
X170863845Y-102283845D03*
X172720000Y-101515000D03*
X174576155Y-102283845D03*
D11*
X172720000Y-38100000D03*
D12*
X175345000Y-38100000D03*
X174576155Y-39956155D03*
X172720000Y-40725000D03*
X170863845Y-39956155D03*
X170095000Y-38100000D03*
X170863845Y-36243845D03*
X172720000Y-35475000D03*
X174576155Y-36243845D03*
D13*
X139790000Y-36765000D03*
X139790000Y-34565000D03*
D14*
X124460000Y-53848000D03*
D15*
X127000000Y-53848000D03*
X124460000Y-56388000D03*
X127000000Y-56388000D03*
X124460000Y-58928000D03*
X127000000Y-58928000D03*
X124460000Y-61468000D03*
X127000000Y-61468000D03*
X124460000Y-64008000D03*
X127000000Y-64008000D03*
X124460000Y-66548000D03*
X127000000Y-66548000D03*
X124460000Y-69088000D03*
X127000000Y-69088000D03*
X124460000Y-71628000D03*
X127000000Y-71628000D03*
X124460000Y-74168000D03*
X127000000Y-74168000D03*
D16*
X175260000Y-50546000D03*
X175298100Y-43180000D03*
X175260000Y-46863000D03*
D17*
X166218000Y-41656000D03*
D18*
X159918000Y-41656000D03*
X159918000Y-43956000D03*
X159918000Y-39356000D03*
D10*
G36*
X161927897Y-52445133D02*
X161220790Y-51738026D01*
X162599649Y-50359167D01*
X163306756Y-51066274D01*
X161927897Y-52445133D01*
X161927897Y-52445133D01*
G37*
G36*
X162825923Y-53343159D02*
X162118816Y-52636052D01*
X163497675Y-51257193D01*
X164204782Y-51964300D01*
X162825923Y-53343159D01*
X162825923Y-53343159D01*
G37*
G36*
X163723948Y-54241184D02*
X163016841Y-53534077D01*
X164395700Y-52155218D01*
X165102807Y-52862325D01*
X163723948Y-54241184D01*
X163723948Y-54241184D01*
G37*
G36*
X164621974Y-55139210D02*
X163914867Y-54432103D01*
X165293726Y-53053244D01*
X166000833Y-53760351D01*
X164621974Y-55139210D01*
X164621974Y-55139210D01*
G37*
G36*
X168440351Y-51320833D02*
X167733244Y-50613726D01*
X169112103Y-49234867D01*
X169819210Y-49941974D01*
X168440351Y-51320833D01*
X168440351Y-51320833D01*
G37*
G36*
X167542325Y-50422807D02*
X166835218Y-49715700D01*
X168214077Y-48336841D01*
X168921184Y-49043948D01*
X167542325Y-50422807D01*
X167542325Y-50422807D01*
G37*
G36*
X166644300Y-49524782D02*
X165937193Y-48817675D01*
X167316052Y-47438816D01*
X168023159Y-48145923D01*
X166644300Y-49524782D01*
X166644300Y-49524782D01*
G37*
G36*
X165746274Y-48626756D02*
X165039167Y-47919649D01*
X166418026Y-46540790D01*
X167125133Y-47247897D01*
X165746274Y-48626756D01*
X165746274Y-48626756D01*
G37*
G36*
X147756358Y-57060676D02*
X148215977Y-56601057D01*
X149205926Y-57591006D01*
X148746307Y-58050625D01*
X147756358Y-57060676D01*
X147756358Y-57060676D01*
G37*
G36*
X147402804Y-57414229D02*
X147862423Y-56954610D01*
X148852372Y-57944559D01*
X148392753Y-58404178D01*
X147402804Y-57414229D01*
X147402804Y-57414229D01*
G37*
G36*
X147049251Y-57767783D02*
X147508870Y-57308164D01*
X148498819Y-58298113D01*
X148039200Y-58757732D01*
X147049251Y-57767783D01*
X147049251Y-57767783D01*
G37*
G36*
X146695698Y-58121336D02*
X147155317Y-57661717D01*
X148145266Y-58651666D01*
X147685647Y-59111285D01*
X146695698Y-58121336D01*
X146695698Y-58121336D01*
G37*
G36*
X146342144Y-58474889D02*
X146801763Y-58015270D01*
X147791712Y-59005219D01*
X147332093Y-59464838D01*
X146342144Y-58474889D01*
X146342144Y-58474889D01*
G37*
G36*
X145988591Y-58828443D02*
X146448210Y-58368824D01*
X147438159Y-59358773D01*
X146978540Y-59818392D01*
X145988591Y-58828443D01*
X145988591Y-58828443D01*
G37*
G36*
X145635037Y-59181996D02*
X146094656Y-58722377D01*
X147084605Y-59712326D01*
X146624986Y-60171945D01*
X145635037Y-59181996D01*
X145635037Y-59181996D01*
G37*
G36*
X145281484Y-59535550D02*
X145741103Y-59075931D01*
X146731052Y-60065880D01*
X146271433Y-60525499D01*
X145281484Y-59535550D01*
X145281484Y-59535550D01*
G37*
G36*
X144927931Y-59889103D02*
X145387550Y-59429484D01*
X146377499Y-60419433D01*
X145917880Y-60879052D01*
X144927931Y-59889103D01*
X144927931Y-59889103D01*
G37*
G36*
X144574377Y-60242656D02*
X145033996Y-59783037D01*
X146023945Y-60772986D01*
X145564326Y-61232605D01*
X144574377Y-60242656D01*
X144574377Y-60242656D01*
G37*
G36*
X144220824Y-60596210D02*
X144680443Y-60136591D01*
X145670392Y-61126540D01*
X145210773Y-61586159D01*
X144220824Y-60596210D01*
X144220824Y-60596210D01*
G37*
G36*
X143867270Y-60949763D02*
X144326889Y-60490144D01*
X145316838Y-61480093D01*
X144857219Y-61939712D01*
X143867270Y-60949763D01*
X143867270Y-60949763D01*
G37*
G36*
X143513717Y-61303317D02*
X143973336Y-60843698D01*
X144963285Y-61833647D01*
X144503666Y-62293266D01*
X143513717Y-61303317D01*
X143513717Y-61303317D01*
G37*
G36*
X143160164Y-61656870D02*
X143619783Y-61197251D01*
X144609732Y-62187200D01*
X144150113Y-62646819D01*
X143160164Y-61656870D01*
X143160164Y-61656870D01*
G37*
G36*
X142806610Y-62010423D02*
X143266229Y-61550804D01*
X144256178Y-62540753D01*
X143796559Y-63000372D01*
X142806610Y-62010423D01*
X142806610Y-62010423D01*
G37*
G36*
X142453057Y-62363977D02*
X142912676Y-61904358D01*
X143902625Y-62894307D01*
X143443006Y-63353926D01*
X142453057Y-62363977D01*
X142453057Y-62363977D01*
G37*
G36*
X142912676Y-66111642D02*
X142453057Y-65652023D01*
X143443006Y-64662074D01*
X143902625Y-65121693D01*
X142912676Y-66111642D01*
X142912676Y-66111642D01*
G37*
G36*
X143266229Y-66465196D02*
X142806610Y-66005577D01*
X143796559Y-65015628D01*
X144256178Y-65475247D01*
X143266229Y-66465196D01*
X143266229Y-66465196D01*
G37*
G36*
X143619783Y-66818749D02*
X143160164Y-66359130D01*
X144150113Y-65369181D01*
X144609732Y-65828800D01*
X143619783Y-66818749D01*
X143619783Y-66818749D01*
G37*
G36*
X143973336Y-67172302D02*
X143513717Y-66712683D01*
X144503666Y-65722734D01*
X144963285Y-66182353D01*
X143973336Y-67172302D01*
X143973336Y-67172302D01*
G37*
G36*
X144326889Y-67525856D02*
X143867270Y-67066237D01*
X144857219Y-66076288D01*
X145316838Y-66535907D01*
X144326889Y-67525856D01*
X144326889Y-67525856D01*
G37*
G36*
X144680443Y-67879409D02*
X144220824Y-67419790D01*
X145210773Y-66429841D01*
X145670392Y-66889460D01*
X144680443Y-67879409D01*
X144680443Y-67879409D01*
G37*
G36*
X145033996Y-68232963D02*
X144574377Y-67773344D01*
X145564326Y-66783395D01*
X146023945Y-67243014D01*
X145033996Y-68232963D01*
X145033996Y-68232963D01*
G37*
G36*
X145387550Y-68586516D02*
X144927931Y-68126897D01*
X145917880Y-67136948D01*
X146377499Y-67596567D01*
X145387550Y-68586516D01*
X145387550Y-68586516D01*
G37*
G36*
X145741103Y-68940069D02*
X145281484Y-68480450D01*
X146271433Y-67490501D01*
X146731052Y-67950120D01*
X145741103Y-68940069D01*
X145741103Y-68940069D01*
G37*
G36*
X146094656Y-69293623D02*
X145635037Y-68834004D01*
X146624986Y-67844055D01*
X147084605Y-68303674D01*
X146094656Y-69293623D01*
X146094656Y-69293623D01*
G37*
G36*
X146448210Y-69647176D02*
X145988591Y-69187557D01*
X146978540Y-68197608D01*
X147438159Y-68657227D01*
X146448210Y-69647176D01*
X146448210Y-69647176D01*
G37*
G36*
X146801763Y-70000730D02*
X146342144Y-69541111D01*
X147332093Y-68551162D01*
X147791712Y-69010781D01*
X146801763Y-70000730D01*
X146801763Y-70000730D01*
G37*
G36*
X147155317Y-70354283D02*
X146695698Y-69894664D01*
X147685647Y-68904715D01*
X148145266Y-69364334D01*
X147155317Y-70354283D01*
X147155317Y-70354283D01*
G37*
G36*
X147508870Y-70707836D02*
X147049251Y-70248217D01*
X148039200Y-69258268D01*
X148498819Y-69717887D01*
X147508870Y-70707836D01*
X147508870Y-70707836D01*
G37*
G36*
X147862423Y-71061390D02*
X147402804Y-70601771D01*
X148392753Y-69611822D01*
X148852372Y-70071441D01*
X147862423Y-71061390D01*
X147862423Y-71061390D01*
G37*
G36*
X148215977Y-71414943D02*
X147756358Y-70955324D01*
X148746307Y-69965375D01*
X149205926Y-70424994D01*
X148215977Y-71414943D01*
X148215977Y-71414943D01*
G37*
G36*
X150514074Y-70424994D02*
X150973693Y-69965375D01*
X151963642Y-70955324D01*
X151504023Y-71414943D01*
X150514074Y-70424994D01*
X150514074Y-70424994D01*
G37*
G36*
X150867628Y-70071441D02*
X151327247Y-69611822D01*
X152317196Y-70601771D01*
X151857577Y-71061390D01*
X150867628Y-70071441D01*
X150867628Y-70071441D01*
G37*
G36*
X151221181Y-69717887D02*
X151680800Y-69258268D01*
X152670749Y-70248217D01*
X152211130Y-70707836D01*
X151221181Y-69717887D01*
X151221181Y-69717887D01*
G37*
G36*
X151574734Y-69364334D02*
X152034353Y-68904715D01*
X153024302Y-69894664D01*
X152564683Y-70354283D01*
X151574734Y-69364334D01*
X151574734Y-69364334D01*
G37*
G36*
X151928288Y-69010781D02*
X152387907Y-68551162D01*
X153377856Y-69541111D01*
X152918237Y-70000730D01*
X151928288Y-69010781D01*
X151928288Y-69010781D01*
G37*
G36*
X152281841Y-68657227D02*
X152741460Y-68197608D01*
X153731409Y-69187557D01*
X153271790Y-69647176D01*
X152281841Y-68657227D01*
X152281841Y-68657227D01*
G37*
G36*
X152635395Y-68303674D02*
X153095014Y-67844055D01*
X154084963Y-68834004D01*
X153625344Y-69293623D01*
X152635395Y-68303674D01*
X152635395Y-68303674D01*
G37*
G36*
X152988948Y-67950120D02*
X153448567Y-67490501D01*
X154438516Y-68480450D01*
X153978897Y-68940069D01*
X152988948Y-67950120D01*
X152988948Y-67950120D01*
G37*
G36*
X153342501Y-67596567D02*
X153802120Y-67136948D01*
X154792069Y-68126897D01*
X154332450Y-68586516D01*
X153342501Y-67596567D01*
X153342501Y-67596567D01*
G37*
G36*
X153696055Y-67243014D02*
X154155674Y-66783395D01*
X155145623Y-67773344D01*
X154686004Y-68232963D01*
X153696055Y-67243014D01*
X153696055Y-67243014D01*
G37*
G36*
X154049608Y-66889460D02*
X154509227Y-66429841D01*
X155499176Y-67419790D01*
X155039557Y-67879409D01*
X154049608Y-66889460D01*
X154049608Y-66889460D01*
G37*
G36*
X154403162Y-66535907D02*
X154862781Y-66076288D01*
X155852730Y-67066237D01*
X155393111Y-67525856D01*
X154403162Y-66535907D01*
X154403162Y-66535907D01*
G37*
G36*
X154756715Y-66182353D02*
X155216334Y-65722734D01*
X156206283Y-66712683D01*
X155746664Y-67172302D01*
X154756715Y-66182353D01*
X154756715Y-66182353D01*
G37*
G36*
X155110268Y-65828800D02*
X155569887Y-65369181D01*
X156559836Y-66359130D01*
X156100217Y-66818749D01*
X155110268Y-65828800D01*
X155110268Y-65828800D01*
G37*
G36*
X155463822Y-65475247D02*
X155923441Y-65015628D01*
X156913390Y-66005577D01*
X156453771Y-66465196D01*
X155463822Y-65475247D01*
X155463822Y-65475247D01*
G37*
G36*
X155817375Y-65121693D02*
X156276994Y-64662074D01*
X157266943Y-65652023D01*
X156807324Y-66111642D01*
X155817375Y-65121693D01*
X155817375Y-65121693D01*
G37*
G36*
X156276994Y-63353926D02*
X155817375Y-62894307D01*
X156807324Y-61904358D01*
X157266943Y-62363977D01*
X156276994Y-63353926D01*
X156276994Y-63353926D01*
G37*
G36*
X155923441Y-63000372D02*
X155463822Y-62540753D01*
X156453771Y-61550804D01*
X156913390Y-62010423D01*
X155923441Y-63000372D01*
X155923441Y-63000372D01*
G37*
G36*
X155569887Y-62646819D02*
X155110268Y-62187200D01*
X156100217Y-61197251D01*
X156559836Y-61656870D01*
X155569887Y-62646819D01*
X155569887Y-62646819D01*
G37*
G36*
X155216334Y-62293266D02*
X154756715Y-61833647D01*
X155746664Y-60843698D01*
X156206283Y-61303317D01*
X155216334Y-62293266D01*
X155216334Y-62293266D01*
G37*
G36*
X154862781Y-61939712D02*
X154403162Y-61480093D01*
X155393111Y-60490144D01*
X155852730Y-60949763D01*
X154862781Y-61939712D01*
X154862781Y-61939712D01*
G37*
G36*
X154509227Y-61586159D02*
X154049608Y-61126540D01*
X155039557Y-60136591D01*
X155499176Y-60596210D01*
X154509227Y-61586159D01*
X154509227Y-61586159D01*
G37*
G36*
X154155674Y-61232605D02*
X153696055Y-60772986D01*
X154686004Y-59783037D01*
X155145623Y-60242656D01*
X154155674Y-61232605D01*
X154155674Y-61232605D01*
G37*
G36*
X153802120Y-60879052D02*
X153342501Y-60419433D01*
X154332450Y-59429484D01*
X154792069Y-59889103D01*
X153802120Y-60879052D01*
X153802120Y-60879052D01*
G37*
G36*
X153448567Y-60525499D02*
X152988948Y-60065880D01*
X153978897Y-59075931D01*
X154438516Y-59535550D01*
X153448567Y-60525499D01*
X153448567Y-60525499D01*
G37*
G36*
X153095014Y-60171945D02*
X152635395Y-59712326D01*
X153625344Y-58722377D01*
X154084963Y-59181996D01*
X153095014Y-60171945D01*
X153095014Y-60171945D01*
G37*
G36*
X152741460Y-59818392D02*
X152281841Y-59358773D01*
X153271790Y-58368824D01*
X153731409Y-58828443D01*
X152741460Y-59818392D01*
X152741460Y-59818392D01*
G37*
G36*
X152387907Y-59464838D02*
X151928288Y-59005219D01*
X152918237Y-58015270D01*
X153377856Y-58474889D01*
X152387907Y-59464838D01*
X152387907Y-59464838D01*
G37*
G36*
X152034353Y-59111285D02*
X151574734Y-58651666D01*
X152564683Y-57661717D01*
X153024302Y-58121336D01*
X152034353Y-59111285D01*
X152034353Y-59111285D01*
G37*
G36*
X151680800Y-58757732D02*
X151221181Y-58298113D01*
X152211130Y-57308164D01*
X152670749Y-57767783D01*
X151680800Y-58757732D01*
X151680800Y-58757732D01*
G37*
G36*
X151327247Y-58404178D02*
X150867628Y-57944559D01*
X151857577Y-56954610D01*
X152317196Y-57414229D01*
X151327247Y-58404178D01*
X151327247Y-58404178D01*
G37*
G36*
X150973693Y-58050625D02*
X150514074Y-57591006D01*
X151504023Y-56601057D01*
X151963642Y-57060676D01*
X150973693Y-58050625D01*
X150973693Y-58050625D01*
G37*
G36*
X147729374Y-51157273D02*
X149709273Y-49177374D01*
X151406330Y-50874431D01*
X149426431Y-52854330D01*
X147729374Y-51157273D01*
X147729374Y-51157273D01*
G37*
G36*
X150345670Y-53773569D02*
X152325569Y-51793670D01*
X154022626Y-53490727D01*
X152042727Y-55470626D01*
X150345670Y-53773569D01*
X150345670Y-53773569D01*
G37*
D19*
X157805000Y-42672000D03*
X155905000Y-42672000D03*
X157805000Y-45085000D03*
X155905000Y-45085000D03*
D20*
X153098500Y-44952000D03*
X153098500Y-43052000D03*
X151892000Y-44952000D03*
X151892000Y-43052000D03*
D19*
X137790000Y-52058000D03*
X135890000Y-52058000D03*
X137790000Y-53582000D03*
X135890000Y-53582000D03*
X158020168Y-62860343D03*
X159920168Y-62860343D03*
X158020168Y-64062425D03*
X159920168Y-64062425D03*
D10*
G36*
X143802732Y-59230918D02*
X142989559Y-60044091D01*
X141858188Y-58912720D01*
X142671361Y-58099547D01*
X143802732Y-59230918D01*
X143802732Y-59230918D01*
G37*
G36*
X142459230Y-57887416D02*
X141646057Y-58700589D01*
X140514686Y-57569218D01*
X141327859Y-56756045D01*
X142459230Y-57887416D01*
X142459230Y-57887416D01*
G37*
G36*
X142954204Y-60079446D02*
X142141031Y-60892619D01*
X141009660Y-59761248D01*
X141822833Y-58948075D01*
X142954204Y-60079446D01*
X142954204Y-60079446D01*
G37*
G36*
X141610702Y-58735944D02*
X140797529Y-59549117D01*
X139666158Y-58417746D01*
X140479331Y-57604573D01*
X141610702Y-58735944D01*
X141610702Y-58735944D01*
G37*
G36*
X151898977Y-71622650D02*
X152712150Y-70809477D01*
X153843521Y-71940848D01*
X153030348Y-72754021D01*
X151898977Y-71622650D01*
X151898977Y-71622650D01*
G37*
G36*
X153242479Y-72966152D02*
X154055652Y-72152979D01*
X155187023Y-73284350D01*
X154373850Y-74097523D01*
X153242479Y-72966152D01*
X153242479Y-72966152D01*
G37*
G36*
X152533977Y-70352650D02*
X153347150Y-69539477D01*
X154478521Y-70670848D01*
X153665348Y-71484021D01*
X152533977Y-70352650D01*
X152533977Y-70352650D01*
G37*
G36*
X153877479Y-71696152D02*
X154690652Y-70882979D01*
X155822023Y-72014350D01*
X155008850Y-72827523D01*
X153877479Y-71696152D01*
X153877479Y-71696152D01*
G37*
G36*
X153997498Y-56840821D02*
X153184325Y-56027648D01*
X154315696Y-54896277D01*
X155128869Y-55709450D01*
X153997498Y-56840821D01*
X153997498Y-56840821D01*
G37*
G36*
X155341000Y-55497319D02*
X154527827Y-54684146D01*
X155659198Y-53552775D01*
X156472371Y-54365948D01*
X155341000Y-55497319D01*
X155341000Y-55497319D01*
G37*
G36*
X153148970Y-55992292D02*
X152335797Y-55179119D01*
X153467168Y-54047748D01*
X154280341Y-54860921D01*
X153148970Y-55992292D01*
X153148970Y-55992292D01*
G37*
G36*
X154492472Y-54648790D02*
X153679299Y-53835617D01*
X154810670Y-52704246D01*
X155623843Y-53517419D01*
X154492472Y-54648790D01*
X154492472Y-54648790D01*
G37*
D19*
X157800000Y-61658500D03*
X159700000Y-61658500D03*
D10*
G36*
X150171777Y-48724550D02*
X150984950Y-47911377D01*
X152116321Y-49042748D01*
X151303148Y-49855921D01*
X150171777Y-48724550D01*
X150171777Y-48724550D01*
G37*
G36*
X151515279Y-50068052D02*
X152328452Y-49254879D01*
X153459823Y-50386250D01*
X152646650Y-51199423D01*
X151515279Y-50068052D01*
X151515279Y-50068052D01*
G37*
G36*
X155288623Y-52215050D02*
X154475450Y-53028223D01*
X153344079Y-51896852D01*
X154157252Y-51083679D01*
X155288623Y-52215050D01*
X155288623Y-52215050D01*
G37*
G36*
X153945121Y-50871548D02*
X153131948Y-51684721D01*
X152000577Y-50553350D01*
X152813750Y-49740177D01*
X153945121Y-50871548D01*
X153945121Y-50871548D01*
G37*
D19*
X134385000Y-75940000D03*
X132485000Y-75940000D03*
X164399000Y-101473000D03*
X162499000Y-101473000D03*
X139126000Y-101473000D03*
X137226000Y-101473000D03*
X151826000Y-101473000D03*
X149926000Y-101473000D03*
X153760982Y-82954032D03*
X151860982Y-82954032D03*
X153760982Y-81754032D03*
X151860982Y-81754032D03*
X136591000Y-85407500D03*
X138491000Y-85407500D03*
D20*
X158623000Y-81981000D03*
X158623000Y-83881000D03*
D19*
X155811982Y-86494032D03*
X153911982Y-86494032D03*
X147220289Y-99646117D03*
X145320289Y-99646117D03*
X147795711Y-92123883D03*
X145895711Y-92123883D03*
X147795711Y-93393883D03*
X145895711Y-93393883D03*
D20*
X141956503Y-85962115D03*
X141956503Y-87862115D03*
X156049289Y-93362117D03*
X156049289Y-95262117D03*
D19*
X155811982Y-78492032D03*
X153911982Y-78492032D03*
D20*
X140754422Y-85964591D03*
X140754422Y-87864591D03*
D19*
X135817000Y-83289000D03*
X137717000Y-83289000D03*
X135817000Y-82089000D03*
X137717000Y-82089000D03*
D20*
X146022000Y-78574000D03*
X146022000Y-80474000D03*
X144399000Y-86108500D03*
X144399000Y-88008500D03*
X141927000Y-76578500D03*
X141927000Y-74678500D03*
X143182000Y-86172000D03*
X143182000Y-88072000D03*
X140716000Y-76578500D03*
X140716000Y-74678500D03*
X143129000Y-76578500D03*
X143129000Y-74678500D03*
X136653000Y-88872000D03*
X136653000Y-86972000D03*
X137853000Y-88872000D03*
X137853000Y-86972000D03*
X135453000Y-88872000D03*
X135453000Y-86972000D03*
D21*
X128524000Y-83312000D03*
X128524000Y-78232000D03*
X133604000Y-78232000D03*
X133604000Y-83312000D03*
D22*
X131064000Y-80772000D03*
D23*
X162560000Y-106426000D03*
D24*
X158180000Y-106426000D03*
X166940000Y-106426000D03*
D14*
X175260000Y-74168000D03*
D15*
X172720000Y-74168000D03*
X175260000Y-71628000D03*
X172720000Y-71628000D03*
X175260000Y-69088000D03*
X172720000Y-69088000D03*
X175260000Y-66548000D03*
X172720000Y-66548000D03*
X175260000Y-64008000D03*
X172720000Y-64008000D03*
X175260000Y-61468000D03*
X172720000Y-61468000D03*
X175260000Y-58928000D03*
X172720000Y-58928000D03*
X175260000Y-56388000D03*
X172720000Y-56388000D03*
X175260000Y-53848000D03*
X172720000Y-53848000D03*
D23*
X137160000Y-106426000D03*
D24*
X132780000Y-106426000D03*
X141540000Y-106426000D03*
D23*
X149860000Y-106426000D03*
D24*
X145480000Y-106426000D03*
X154240000Y-106426000D03*
D14*
X153924000Y-40132000D03*
D15*
X156464000Y-40132000D03*
D25*
X150580000Y-42775000D03*
X150580000Y-44975000D03*
D26*
X135740000Y-55106000D03*
X137940000Y-55106000D03*
D25*
X147944658Y-76522802D03*
X147944658Y-74322802D03*
X152048358Y-74322802D03*
X152048358Y-76522802D03*
X141770000Y-34545000D03*
X141770000Y-36745000D03*
X138402000Y-34589000D03*
X138402000Y-36789000D03*
D10*
G36*
X164553122Y-57208883D02*
X163633883Y-58128122D01*
X162502512Y-56996751D01*
X163421751Y-56077512D01*
X164553122Y-57208883D01*
X164553122Y-57208883D01*
G37*
G36*
X162997488Y-55653249D02*
X162078249Y-56572488D01*
X160946878Y-55441117D01*
X161866117Y-54521878D01*
X162997488Y-55653249D01*
X162997488Y-55653249D01*
G37*
G36*
X157916878Y-52676117D02*
X158836117Y-51756878D01*
X159967488Y-52888249D01*
X159048249Y-53807488D01*
X157916878Y-52676117D01*
X157916878Y-52676117D01*
G37*
G36*
X159472512Y-54231751D02*
X160391751Y-53312512D01*
X161523122Y-54443883D01*
X160603883Y-55363122D01*
X159472512Y-54231751D01*
X159472512Y-54231751D01*
G37*
G36*
X158106878Y-50951117D02*
X159026117Y-50031878D01*
X160157488Y-51163249D01*
X159238249Y-52082488D01*
X158106878Y-50951117D01*
X158106878Y-50951117D01*
G37*
G36*
X159662512Y-52506751D02*
X160581751Y-51587512D01*
X161713122Y-52718883D01*
X160793883Y-53638122D01*
X159662512Y-52506751D01*
X159662512Y-52506751D01*
G37*
G36*
X161906878Y-54481117D02*
X162826117Y-53561878D01*
X163957488Y-54693249D01*
X163038249Y-55612488D01*
X161906878Y-54481117D01*
X161906878Y-54481117D01*
G37*
G36*
X163462512Y-56036751D02*
X164381751Y-55117512D01*
X165513122Y-56248883D01*
X164593883Y-57168122D01*
X163462512Y-56036751D01*
X163462512Y-56036751D01*
G37*
D26*
X134540000Y-59995000D03*
X136740000Y-59995000D03*
D25*
X145605000Y-54185000D03*
X145605000Y-56385000D03*
X145752000Y-87564000D03*
X145752000Y-85364000D03*
D26*
X155552982Y-85209032D03*
X157752982Y-85209032D03*
X137330000Y-73660000D03*
X139530000Y-73660000D03*
X145170289Y-98526474D03*
X147370289Y-98526474D03*
D25*
X149733000Y-83228000D03*
X149733000Y-85428000D03*
X138557000Y-75674000D03*
X138557000Y-77874000D03*
X144907000Y-76052500D03*
X144907000Y-78252500D03*
D26*
X146728000Y-96493144D03*
X148928000Y-96493144D03*
D25*
X147315400Y-79064390D03*
X147315400Y-81264390D03*
X147315400Y-85139390D03*
X147315400Y-82939390D03*
D26*
X152865000Y-96493144D03*
X150665000Y-96493144D03*
D25*
X149733000Y-81491000D03*
X149733000Y-79291000D03*
X157319289Y-95412117D03*
X157319289Y-93212117D03*
D26*
X142451000Y-89408000D03*
X140251000Y-89408000D03*
D25*
X149341658Y-76522802D03*
X149341658Y-74322802D03*
D26*
X154624786Y-93416294D03*
X152424786Y-93416294D03*
X155539982Y-79762032D03*
X157739982Y-79762032D03*
X152424786Y-92019294D03*
X154624786Y-92019294D03*
D25*
X150693358Y-76526302D03*
X150693358Y-74326302D03*
D16*
X124460000Y-80772000D03*
X162560000Y-99060000D03*
X137160000Y-99060000D03*
X149860000Y-99060000D03*
D27*
X156281382Y-82319422D03*
D28*
X156631382Y-80894422D03*
X155781382Y-80894422D03*
X156631382Y-83744422D03*
X155781382Y-83744422D03*
D29*
X157181382Y-81819422D03*
X157181382Y-82319422D03*
X157181382Y-82819422D03*
X155231382Y-81819422D03*
X155231382Y-82319422D03*
X155231382Y-82819422D03*
D11*
X127000000Y-38100000D03*
D12*
X129625000Y-38100000D03*
X128856155Y-39956155D03*
X127000000Y-40725000D03*
X125143845Y-39956155D03*
X124375000Y-38100000D03*
X125143845Y-36243845D03*
X127000000Y-35475000D03*
X128856155Y-36243845D03*
D30*
X132583000Y-89557000D03*
X132583000Y-91657000D03*
X134183000Y-89557000D03*
X134183000Y-91657000D03*
D31*
X132583000Y-90607000D03*
X134183000Y-90607000D03*
D20*
X149606000Y-89850000D03*
X149606000Y-87950000D03*
D19*
X152400000Y-94742000D03*
X154300000Y-94742000D03*
D25*
X150876000Y-89873000D03*
X150876000Y-87673000D03*
D19*
X157810000Y-43905000D03*
X155910000Y-43905000D03*
D32*
X148620000Y-38180000D03*
X147970000Y-38180000D03*
X147320000Y-38180000D03*
X146670000Y-38180000D03*
X146020000Y-38180000D03*
D33*
X149820000Y-38180000D03*
X144820000Y-38180000D03*
D34*
X150820000Y-35480000D03*
X143820000Y-35480000D03*
D35*
X150113000Y-93555144D03*
X150113000Y-93555144D03*
D36*
X149324600Y-93131744D03*
X150113000Y-93131744D03*
X150901400Y-93131744D03*
X149324600Y-93978544D03*
X150113000Y-93978544D03*
X150901400Y-93978544D03*
D27*
X149113000Y-95080144D03*
X149613000Y-95080144D03*
X150113000Y-95080144D03*
X150613000Y-95080144D03*
X151113000Y-95080144D03*
X151113000Y-92030144D03*
X150613000Y-92030144D03*
X150113000Y-92030144D03*
X149613000Y-92030144D03*
X149113000Y-92030144D03*
D37*
X144358306Y-83294684D03*
D38*
X140008306Y-84164684D03*
D37*
X139158306Y-79814684D03*
D39*
X141758306Y-81564684D03*
D38*
X143508306Y-78964684D03*
X143008306Y-78964684D03*
X142508306Y-78964684D03*
X142008306Y-78964684D03*
X141508306Y-78964684D03*
X141008306Y-78964684D03*
X140508306Y-78964684D03*
X140008306Y-78964684D03*
D37*
X139158306Y-80314684D03*
X139158306Y-80814684D03*
X139158306Y-81314684D03*
X139158306Y-81814684D03*
X139158306Y-82314684D03*
X139158306Y-82814684D03*
X139158306Y-83314684D03*
D38*
X140508306Y-84164684D03*
X141008306Y-84164684D03*
X141508306Y-84164684D03*
X142008306Y-84164684D03*
X142508306Y-84164684D03*
X143008306Y-84164684D03*
X143508306Y-84164684D03*
D37*
X144358306Y-82794684D03*
X144358306Y-82294684D03*
X144358306Y-81794684D03*
X144358306Y-81294684D03*
X144358306Y-80794684D03*
X144358306Y-80294684D03*
X144358306Y-79794684D03*
D39*
X141758306Y-81564684D03*
D36*
X143035306Y-80291684D03*
X143035306Y-81141684D03*
X143035306Y-81991684D03*
X143035306Y-82841684D03*
X142185306Y-80291684D03*
X142185306Y-81141684D03*
X142185306Y-81991684D03*
X142185306Y-82841684D03*
X141335306Y-80291684D03*
X141335306Y-81141684D03*
X141335306Y-81991684D03*
X141335306Y-82841684D03*
X140485306Y-80291684D03*
X140485306Y-81141684D03*
X140485306Y-81991684D03*
X140485306Y-82841684D03*
M02*
