%TF.GenerationSoftware,KiCad,Pcbnew,4.0.6-e0-6349~53~ubuntu16.04.1*%
%TF.CreationDate,2017-04-07T11:05:52-07:00*%
%TF.ProjectId,waveform-generator,77617665666F726D2D67656E65726174,rev?*%
%TF.FileFunction,Copper,L2,Bot,Signal*%
%FSLAX46Y46*%
G04 Gerber Fmt 4.6, Leading zero omitted, Abs format (unit mm)*
G04 Created by KiCad (PCBNEW 4.0.6-e0-6349~53~ubuntu16.04.1) date Fri Apr  7 11:05:52 2017*
%MOMM*%
%LPD*%
G01*
G04 APERTURE LIST*
%ADD10C,0.100000*%
%ADD11C,1.250000*%
%ADD12C,1.550000*%
%ADD13R,1.250000X1.500000*%
%ADD14C,2.200000*%
%ADD15C,2.000000*%
%ADD16R,1.700000X1.700000*%
%ADD17O,1.700000X1.700000*%
%ADD18C,2.800000*%
%ADD19C,0.558800*%
%ADD20C,0.254000*%
%ADD21C,0.635000*%
G04 APERTURE END LIST*
D10*
D11*
X50760000Y-22940000D03*
X45760000Y-22940000D03*
D12*
X51760000Y-20240000D03*
X44760000Y-20240000D03*
D13*
X55339561Y-42702298D03*
X55339561Y-45202298D03*
X55339561Y-40693797D03*
X55339561Y-38193797D03*
X57117562Y-40693797D03*
X57117562Y-38193797D03*
X57117562Y-42702298D03*
X57117562Y-45202298D03*
X58895562Y-40693797D03*
X58895562Y-38193797D03*
X58895562Y-42702298D03*
X58895562Y-45202298D03*
X60673562Y-40693797D03*
X60673562Y-38193797D03*
X60673562Y-42702298D03*
X60673562Y-45202298D03*
D14*
X58420000Y-64770000D03*
X58420000Y-59690000D03*
X63500000Y-59690000D03*
X63500000Y-64770000D03*
D15*
X60960000Y-62230000D03*
D14*
X33020000Y-65024000D03*
X33020000Y-59944000D03*
X38100000Y-59944000D03*
X38100000Y-65024000D03*
D15*
X35560000Y-62484000D03*
D16*
X69723000Y-55118000D03*
D17*
X67183000Y-55118000D03*
X69723000Y-52578000D03*
X67183000Y-52578000D03*
X69723000Y-50038000D03*
X67183000Y-50038000D03*
X69723000Y-47498000D03*
X67183000Y-47498000D03*
X69723000Y-44958000D03*
X67183000Y-44958000D03*
X69723000Y-42418000D03*
X67183000Y-42418000D03*
X69723000Y-39878000D03*
X67183000Y-39878000D03*
X69723000Y-37338000D03*
X67183000Y-37338000D03*
X69723000Y-34798000D03*
X67183000Y-34798000D03*
D16*
X53975000Y-56261000D03*
D17*
X56515000Y-56261000D03*
X59055000Y-56261000D03*
D18*
X25400000Y-29845000D03*
X25400000Y-34290000D03*
X25400000Y-38735000D03*
X35560000Y-55753000D03*
D19*
X46990000Y-21590000D03*
X50721170Y-61987580D03*
X53441600Y-42214800D03*
X43180000Y-42037000D03*
X32893000Y-32766000D03*
X58483500Y-23304500D03*
X58483500Y-21463000D03*
X58610500Y-44069000D03*
X43307000Y-42735500D03*
X32905700Y-34569400D03*
X39814500Y-47434500D03*
X48260000Y-63055500D03*
X48260000Y-64008000D03*
X46101000Y-57785000D03*
X45974000Y-53403520D03*
X40640000Y-66230500D03*
X64960500Y-57277000D03*
X55435500Y-61087000D03*
X55435500Y-62992000D03*
X55435500Y-64643000D03*
X63317864Y-38798500D03*
X47942500Y-33083500D03*
X47244000Y-36639500D03*
X47307500Y-24003000D03*
X37020500Y-20764500D03*
X55816500Y-29564251D03*
X44132500Y-40957452D03*
X46037500Y-38989000D03*
X53975000Y-44831000D03*
X49784000Y-49085500D03*
X45021500Y-47307500D03*
X44704000Y-21717000D03*
X43942000Y-21717008D03*
X61595000Y-19304000D03*
X62166500Y-19875500D03*
X56235600Y-42418000D03*
X49784000Y-44297600D03*
X49656986Y-45656500D03*
X48196500Y-42735500D03*
X40068500Y-49911000D03*
X42164000Y-49974500D03*
X40068500Y-49149000D03*
X42227500Y-49149000D03*
X65278000Y-51435000D03*
X64643000Y-50800000D03*
X64008000Y-50165000D03*
X63373000Y-49530000D03*
X62738000Y-48895000D03*
X62103000Y-48260000D03*
X61468000Y-47625000D03*
X60833000Y-46990000D03*
X42100500Y-42989500D03*
X40703506Y-44323000D03*
X45072300Y-60439300D03*
X43827700Y-61683900D03*
D20*
X58610500Y-44069000D02*
X58610500Y-44917236D01*
X58610500Y-44917236D02*
X58895562Y-45202298D01*
D21*
X45099131Y-21717000D02*
X44704000Y-21717000D01*
X61023500Y-18732500D02*
X48083631Y-18732500D01*
X61595000Y-19304000D02*
X61023500Y-18732500D01*
X48083631Y-18732500D02*
X45099131Y-21717000D01*
X44703992Y-21717008D02*
X44704000Y-21717000D01*
X43942000Y-21717008D02*
X44703992Y-21717008D01*
D20*
X56235600Y-42418000D02*
X56197500Y-42379900D01*
X56197500Y-42379900D02*
X56197500Y-41719500D01*
X49784000Y-44297600D02*
X49784000Y-45529486D01*
X49784000Y-45529486D02*
X49656986Y-45656500D01*
X49784000Y-44297600D02*
X49758600Y-44297600D01*
X49758600Y-44297600D02*
X48196500Y-42735500D01*
X58895562Y-42702298D02*
X57117562Y-42702298D01*
X60673562Y-42702298D02*
X58895562Y-42702298D01*
X58895562Y-40693797D02*
X60673562Y-40693797D01*
X57117562Y-40693797D02*
X58895562Y-40693797D01*
X56197500Y-41719500D02*
X56197500Y-41613859D01*
X56197500Y-41613859D02*
X57117562Y-40693797D01*
X56197500Y-41719500D02*
X56197500Y-41782236D01*
X56197500Y-41782236D02*
X57117562Y-42702298D01*
X55339561Y-42702298D02*
X55339561Y-42577439D01*
X55339561Y-42577439D02*
X56197500Y-41719500D01*
X55339561Y-40693797D02*
X55339561Y-40861561D01*
X55339561Y-40861561D02*
X56197500Y-41719500D01*
X40068500Y-49911000D02*
X42100500Y-49911000D01*
X42100500Y-49911000D02*
X42164000Y-49974500D01*
X40068500Y-49149000D02*
X42227500Y-49149000D01*
X65278000Y-51435000D02*
X65289801Y-51423199D01*
X65289801Y-51423199D02*
X68568199Y-51423199D01*
X68568199Y-51423199D02*
X69723000Y-52578000D01*
X64643000Y-50800000D02*
X64643000Y-50778210D01*
X64643000Y-50778210D02*
X66538011Y-48883199D01*
X66538011Y-48883199D02*
X68568199Y-48883199D01*
X68568199Y-48883199D02*
X69723000Y-50038000D01*
X66628695Y-46343199D02*
X68568199Y-46343199D01*
X64008000Y-50165000D02*
X64452499Y-49720501D01*
X64452499Y-49720501D02*
X64452499Y-48519395D01*
X64452499Y-48519395D02*
X66628695Y-46343199D01*
X68568199Y-46343199D02*
X69723000Y-47498000D01*
X63373000Y-49530000D02*
X64008000Y-48895000D01*
X66028199Y-46333023D02*
X66028199Y-44403695D01*
X64008000Y-48895000D02*
X64008000Y-48353222D01*
X66628695Y-43803199D02*
X68568199Y-43803199D01*
X64008000Y-48353222D02*
X66028199Y-46333023D01*
X66028199Y-44403695D02*
X66628695Y-43803199D01*
X68568199Y-43803199D02*
X69723000Y-44958000D01*
X62738000Y-48895000D02*
X65596387Y-46036613D01*
X65596387Y-46036613D02*
X65596387Y-42295508D01*
X65596387Y-42295508D02*
X66628696Y-41263199D01*
X66628696Y-41263199D02*
X68568199Y-41263199D01*
X68568199Y-41263199D02*
X69723000Y-42418000D01*
X62103000Y-48260000D02*
X62230000Y-48260000D01*
X65164576Y-45325424D02*
X65164576Y-40187318D01*
X65164576Y-40187318D02*
X66628695Y-38723199D01*
X62230000Y-48260000D02*
X65164576Y-45325424D01*
X66628695Y-38723199D02*
X68568199Y-38723199D01*
X68568199Y-38723199D02*
X69723000Y-39878000D01*
X61468000Y-47625000D02*
X61722000Y-47625000D01*
X64732765Y-40008457D02*
X65976500Y-38764722D01*
X61722000Y-47625000D02*
X64732765Y-44614235D01*
X68516500Y-36131500D02*
X69723000Y-37338000D01*
X64732765Y-44614235D02*
X64732765Y-40008457D01*
X65976500Y-38764722D02*
X65976500Y-36835394D01*
X66680394Y-36131500D02*
X68516500Y-36131500D01*
X65976500Y-36835394D02*
X66680394Y-36131500D01*
X60833000Y-46990000D02*
X61214000Y-46990000D01*
X61214000Y-46990000D02*
X64300954Y-43903046D01*
X64300954Y-43903046D02*
X64300954Y-39829596D01*
X65532000Y-38598550D02*
X65532000Y-34739894D01*
X64300954Y-39829596D02*
X65532000Y-38598550D01*
X65532000Y-34739894D02*
X66628695Y-33643199D01*
X66628695Y-33643199D02*
X68568199Y-33643199D01*
X68568199Y-33643199D02*
X69723000Y-34798000D01*
X42100500Y-42989500D02*
X42037006Y-42989500D01*
X42037006Y-42989500D02*
X40703506Y-44323000D01*
X43827700Y-61683900D02*
X45072300Y-60439300D01*
G36*
X45976713Y-19492380D02*
X45956037Y-19442342D01*
X45559744Y-19045357D01*
X45041697Y-18830245D01*
X44480764Y-18829755D01*
X43962342Y-19043963D01*
X43565357Y-19440256D01*
X43350245Y-19958303D01*
X43349755Y-20519236D01*
X43501922Y-20887508D01*
X43268481Y-21043489D01*
X43062005Y-21352502D01*
X42989500Y-21717008D01*
X43062005Y-22081514D01*
X43268481Y-22390527D01*
X43577494Y-22597003D01*
X43942000Y-22669508D01*
X44508010Y-22669508D01*
X44500219Y-22688271D01*
X44499782Y-23189530D01*
X44691201Y-23652800D01*
X45045335Y-24007553D01*
X45508271Y-24199781D01*
X46009530Y-24200218D01*
X46472800Y-24008799D01*
X46827553Y-23654665D01*
X47019781Y-23191729D01*
X47019782Y-23189530D01*
X49499782Y-23189530D01*
X49691201Y-23652800D01*
X50045335Y-24007553D01*
X50508271Y-24199781D01*
X51009530Y-24200218D01*
X51472800Y-24008799D01*
X51827553Y-23654665D01*
X52019781Y-23191729D01*
X52020218Y-22690470D01*
X51828799Y-22227200D01*
X51664212Y-22062325D01*
X67464587Y-22062325D01*
X67826916Y-22939229D01*
X68497242Y-23610726D01*
X69373513Y-23974585D01*
X70322325Y-23975413D01*
X71199229Y-23613084D01*
X71870726Y-22942758D01*
X72234585Y-22066487D01*
X72235413Y-21117675D01*
X71873084Y-20240771D01*
X71202758Y-19569274D01*
X70326487Y-19205415D01*
X69377675Y-19204587D01*
X68500771Y-19566916D01*
X67829274Y-20237242D01*
X67465415Y-21113513D01*
X67464587Y-22062325D01*
X51664212Y-22062325D01*
X51474665Y-21872447D01*
X51011729Y-21680219D01*
X50510470Y-21679782D01*
X50047200Y-21871201D01*
X49692447Y-22225335D01*
X49500219Y-22688271D01*
X49499782Y-23189530D01*
X47019782Y-23189530D01*
X47020218Y-22690470D01*
X46828799Y-22227200D01*
X46474665Y-21872447D01*
X46344692Y-21818477D01*
X48478169Y-19685000D01*
X50463730Y-19685000D01*
X50350245Y-19958303D01*
X50349755Y-20519236D01*
X50563963Y-21037658D01*
X50960256Y-21434643D01*
X51478303Y-21649755D01*
X52039236Y-21650245D01*
X52557658Y-21436037D01*
X52954643Y-21039744D01*
X53169755Y-20521697D01*
X53170245Y-19960764D01*
X53056301Y-19685000D01*
X60628962Y-19685000D01*
X60921481Y-19977519D01*
X61230494Y-20183995D01*
X61311221Y-20200053D01*
X61390858Y-20392789D01*
X61647858Y-20650238D01*
X61983817Y-20789741D01*
X62347587Y-20790058D01*
X62683789Y-20651142D01*
X62941238Y-20394142D01*
X63080741Y-20058183D01*
X63081058Y-19694413D01*
X62942142Y-19358211D01*
X62685142Y-19100762D01*
X62491041Y-19020164D01*
X62474995Y-18939494D01*
X62268519Y-18630481D01*
X62180038Y-18542000D01*
X72898000Y-18542000D01*
X72898000Y-67818000D01*
X49657000Y-67818000D01*
X49657000Y-65994868D01*
X57374737Y-65994868D01*
X57485641Y-66272099D01*
X58131593Y-66515323D01*
X58821453Y-66492836D01*
X59354359Y-66272099D01*
X59465263Y-65994868D01*
X62454737Y-65994868D01*
X62565641Y-66272099D01*
X63211593Y-66515323D01*
X63901453Y-66492836D01*
X64434359Y-66272099D01*
X64545263Y-65994868D01*
X63500000Y-64949605D01*
X62454737Y-65994868D01*
X59465263Y-65994868D01*
X58420000Y-64949605D01*
X57374737Y-65994868D01*
X49657000Y-65994868D01*
X49657000Y-64481593D01*
X56674677Y-64481593D01*
X56697164Y-65171453D01*
X56917901Y-65704359D01*
X57195132Y-65815263D01*
X58240395Y-64770000D01*
X58599605Y-64770000D01*
X59644868Y-65815263D01*
X59922099Y-65704359D01*
X60165323Y-65058407D01*
X60146521Y-64481593D01*
X61754677Y-64481593D01*
X61777164Y-65171453D01*
X61997901Y-65704359D01*
X62275132Y-65815263D01*
X63320395Y-64770000D01*
X63679605Y-64770000D01*
X64724868Y-65815263D01*
X65002099Y-65704359D01*
X65176071Y-65242325D01*
X67464587Y-65242325D01*
X67826916Y-66119229D01*
X68497242Y-66790726D01*
X69373513Y-67154585D01*
X70322325Y-67155413D01*
X71199229Y-66793084D01*
X71870726Y-66122758D01*
X72234585Y-65246487D01*
X72235413Y-64297675D01*
X71873084Y-63420771D01*
X71202758Y-62749274D01*
X70326487Y-62385415D01*
X69377675Y-62384587D01*
X68500771Y-62746916D01*
X67829274Y-63417242D01*
X67465415Y-64293513D01*
X67464587Y-65242325D01*
X65176071Y-65242325D01*
X65245323Y-65058407D01*
X65222836Y-64368547D01*
X65002099Y-63835641D01*
X64724868Y-63724737D01*
X63679605Y-64770000D01*
X63320395Y-64770000D01*
X62275132Y-63724737D01*
X61997901Y-63835641D01*
X61754677Y-64481593D01*
X60146521Y-64481593D01*
X60142836Y-64368547D01*
X59922099Y-63835641D01*
X59644868Y-63724737D01*
X58599605Y-64770000D01*
X58240395Y-64770000D01*
X57195132Y-63724737D01*
X56917901Y-63835641D01*
X56674677Y-64481593D01*
X49657000Y-64481593D01*
X49657000Y-63545132D01*
X57374737Y-63545132D01*
X58420000Y-64590395D01*
X59465263Y-63545132D01*
X59354359Y-63267901D01*
X58708407Y-63024677D01*
X58018547Y-63047164D01*
X57485641Y-63267901D01*
X57374737Y-63545132D01*
X49657000Y-63545132D01*
X49657000Y-62553795D01*
X59324716Y-62553795D01*
X59573106Y-63154943D01*
X60032637Y-63615278D01*
X60633352Y-63864716D01*
X61283795Y-63865284D01*
X61884943Y-63616894D01*
X61956830Y-63545132D01*
X62454737Y-63545132D01*
X63500000Y-64590395D01*
X64545263Y-63545132D01*
X64434359Y-63267901D01*
X63788407Y-63024677D01*
X63098547Y-63047164D01*
X62565641Y-63267901D01*
X62454737Y-63545132D01*
X61956830Y-63545132D01*
X62345278Y-63157363D01*
X62594716Y-62556648D01*
X62595284Y-61906205D01*
X62346894Y-61305057D01*
X61957387Y-60914868D01*
X62454737Y-60914868D01*
X62565641Y-61192099D01*
X63211593Y-61435323D01*
X63901453Y-61412836D01*
X64434359Y-61192099D01*
X64545263Y-60914868D01*
X63500000Y-59869605D01*
X62454737Y-60914868D01*
X61957387Y-60914868D01*
X61887363Y-60844722D01*
X61286648Y-60595284D01*
X60636205Y-60594716D01*
X60035057Y-60843106D01*
X59574722Y-61302637D01*
X59325284Y-61903352D01*
X59324716Y-62553795D01*
X49657000Y-62553795D01*
X49657000Y-62230000D01*
X49646994Y-62180590D01*
X49618553Y-62138965D01*
X49576159Y-62111685D01*
X49530000Y-62103000D01*
X46990000Y-62103000D01*
X46940590Y-62113006D01*
X46898965Y-62141447D01*
X46871685Y-62183841D01*
X46863000Y-62230000D01*
X46863000Y-63373000D01*
X43859548Y-63373000D01*
X42354500Y-62168961D01*
X42354500Y-61864987D01*
X42913142Y-61864987D01*
X43052058Y-62201189D01*
X43309058Y-62458638D01*
X43645017Y-62598141D01*
X44008787Y-62598458D01*
X44344989Y-62459542D01*
X44602438Y-62202542D01*
X44741941Y-61866583D01*
X44741958Y-61847272D01*
X45235388Y-61353842D01*
X45253387Y-61353858D01*
X45589589Y-61214942D01*
X45847038Y-60957942D01*
X45864923Y-60914868D01*
X57374737Y-60914868D01*
X57485641Y-61192099D01*
X58131593Y-61435323D01*
X58821453Y-61412836D01*
X59354359Y-61192099D01*
X59465263Y-60914868D01*
X58420000Y-59869605D01*
X57374737Y-60914868D01*
X45864923Y-60914868D01*
X45986541Y-60621983D01*
X45986858Y-60258213D01*
X45847942Y-59922011D01*
X45590942Y-59664562D01*
X45254983Y-59525059D01*
X44891213Y-59524742D01*
X44555011Y-59663658D01*
X44297562Y-59920658D01*
X44158059Y-60256617D01*
X44158042Y-60275927D01*
X43664612Y-60769358D01*
X43646613Y-60769342D01*
X43310411Y-60908258D01*
X43052962Y-61165258D01*
X42913459Y-61501217D01*
X42913142Y-61864987D01*
X42354500Y-61864987D01*
X42354500Y-59690000D01*
X42344494Y-59640590D01*
X42315819Y-59598738D01*
X42112103Y-59401593D01*
X56674677Y-59401593D01*
X56697164Y-60091453D01*
X56917901Y-60624359D01*
X57195132Y-60735263D01*
X58240395Y-59690000D01*
X58599605Y-59690000D01*
X59644868Y-60735263D01*
X59922099Y-60624359D01*
X60165323Y-59978407D01*
X60146521Y-59401593D01*
X61754677Y-59401593D01*
X61777164Y-60091453D01*
X61997901Y-60624359D01*
X62275132Y-60735263D01*
X63320395Y-59690000D01*
X63679605Y-59690000D01*
X64724868Y-60735263D01*
X65002099Y-60624359D01*
X65245323Y-59978407D01*
X65222836Y-59288547D01*
X65002099Y-58755641D01*
X64724868Y-58644737D01*
X63679605Y-59690000D01*
X63320395Y-59690000D01*
X62275132Y-58644737D01*
X61997901Y-58755641D01*
X61754677Y-59401593D01*
X60146521Y-59401593D01*
X60142836Y-59288547D01*
X59922099Y-58755641D01*
X59644868Y-58644737D01*
X58599605Y-59690000D01*
X58240395Y-59690000D01*
X57195132Y-58644737D01*
X56917901Y-58755641D01*
X56674677Y-59401593D01*
X42112103Y-59401593D01*
X41144427Y-58465132D01*
X57374737Y-58465132D01*
X58420000Y-59510395D01*
X59465263Y-58465132D01*
X62454737Y-58465132D01*
X63500000Y-59510395D01*
X64545263Y-58465132D01*
X64434359Y-58187901D01*
X63788407Y-57944677D01*
X63098547Y-57967164D01*
X62565641Y-58187901D01*
X62454737Y-58465132D01*
X59465263Y-58465132D01*
X59354359Y-58187901D01*
X58708407Y-57944677D01*
X58018547Y-57967164D01*
X57485641Y-58187901D01*
X57374737Y-58465132D01*
X41144427Y-58465132D01*
X40386000Y-57731171D01*
X40386000Y-55411000D01*
X52477560Y-55411000D01*
X52477560Y-57111000D01*
X52521838Y-57346317D01*
X52660910Y-57562441D01*
X52873110Y-57707431D01*
X53125000Y-57758440D01*
X54825000Y-57758440D01*
X55060317Y-57714162D01*
X55276441Y-57575090D01*
X55421431Y-57362890D01*
X55435086Y-57295459D01*
X55464946Y-57340147D01*
X55946715Y-57662054D01*
X56515000Y-57775093D01*
X57083285Y-57662054D01*
X57565054Y-57340147D01*
X57785000Y-57010974D01*
X58004946Y-57340147D01*
X58486715Y-57662054D01*
X59055000Y-57775093D01*
X59623285Y-57662054D01*
X60105054Y-57340147D01*
X60426961Y-56858378D01*
X60540000Y-56290093D01*
X60540000Y-56231907D01*
X60426961Y-55663622D01*
X60300855Y-55474890D01*
X65741524Y-55474890D01*
X65911355Y-55884924D01*
X66301642Y-56313183D01*
X66826108Y-56559486D01*
X67056000Y-56438819D01*
X67056000Y-55245000D01*
X65862845Y-55245000D01*
X65741524Y-55474890D01*
X60300855Y-55474890D01*
X60105054Y-55181853D01*
X59623285Y-54859946D01*
X59055000Y-54746907D01*
X58486715Y-54859946D01*
X58004946Y-55181853D01*
X57785000Y-55511026D01*
X57565054Y-55181853D01*
X57083285Y-54859946D01*
X56515000Y-54746907D01*
X55946715Y-54859946D01*
X55464946Y-55181853D01*
X55437150Y-55223452D01*
X55428162Y-55175683D01*
X55289090Y-54959559D01*
X55076890Y-54814569D01*
X54825000Y-54763560D01*
X53125000Y-54763560D01*
X52889683Y-54807838D01*
X52673559Y-54946910D01*
X52528569Y-55159110D01*
X52477560Y-55411000D01*
X40386000Y-55411000D01*
X40386000Y-52387500D01*
X40375994Y-52338090D01*
X40347553Y-52296465D01*
X40305159Y-52269185D01*
X40259000Y-52260500D01*
X29845000Y-52260500D01*
X29795590Y-52270506D01*
X29753965Y-52298947D01*
X29726685Y-52341341D01*
X29718000Y-52387500D01*
X29718000Y-52705000D01*
X29728006Y-52754410D01*
X29756447Y-52796035D01*
X29798841Y-52823315D01*
X29845000Y-52832000D01*
X39878000Y-52832000D01*
X39878000Y-57785000D01*
X39888006Y-57834410D01*
X39915197Y-57874803D01*
X41783000Y-59742606D01*
X41783000Y-62230000D01*
X41793006Y-62279410D01*
X41826824Y-62325973D01*
X43731824Y-63976973D01*
X43775716Y-64001771D01*
X43815000Y-64008000D01*
X47625000Y-64008000D01*
X47674410Y-63997994D01*
X47716035Y-63969553D01*
X47743315Y-63927159D01*
X47752000Y-63881000D01*
X47752000Y-62738000D01*
X48768000Y-62738000D01*
X48768000Y-67818000D01*
X23622000Y-67818000D01*
X23622000Y-65242325D01*
X24284587Y-65242325D01*
X24646916Y-66119229D01*
X25317242Y-66790726D01*
X26193513Y-67154585D01*
X27142325Y-67155413D01*
X28019229Y-66793084D01*
X28564395Y-66248868D01*
X31974737Y-66248868D01*
X32085641Y-66526099D01*
X32731593Y-66769323D01*
X33421453Y-66746836D01*
X33954359Y-66526099D01*
X34065263Y-66248868D01*
X37054737Y-66248868D01*
X37165641Y-66526099D01*
X37811593Y-66769323D01*
X38501453Y-66746836D01*
X39034359Y-66526099D01*
X39145263Y-66248868D01*
X38100000Y-65203605D01*
X37054737Y-66248868D01*
X34065263Y-66248868D01*
X33020000Y-65203605D01*
X31974737Y-66248868D01*
X28564395Y-66248868D01*
X28690726Y-66122758D01*
X29054585Y-65246487D01*
X29055030Y-64735593D01*
X31274677Y-64735593D01*
X31297164Y-65425453D01*
X31517901Y-65958359D01*
X31795132Y-66069263D01*
X32840395Y-65024000D01*
X33199605Y-65024000D01*
X34244868Y-66069263D01*
X34522099Y-65958359D01*
X34765323Y-65312407D01*
X34746521Y-64735593D01*
X36354677Y-64735593D01*
X36377164Y-65425453D01*
X36597901Y-65958359D01*
X36875132Y-66069263D01*
X37920395Y-65024000D01*
X38279605Y-65024000D01*
X39324868Y-66069263D01*
X39602099Y-65958359D01*
X39845323Y-65312407D01*
X39822836Y-64622547D01*
X39602099Y-64089641D01*
X39324868Y-63978737D01*
X38279605Y-65024000D01*
X37920395Y-65024000D01*
X36875132Y-63978737D01*
X36597901Y-64089641D01*
X36354677Y-64735593D01*
X34746521Y-64735593D01*
X34742836Y-64622547D01*
X34522099Y-64089641D01*
X34244868Y-63978737D01*
X33199605Y-65024000D01*
X32840395Y-65024000D01*
X31795132Y-63978737D01*
X31517901Y-64089641D01*
X31274677Y-64735593D01*
X29055030Y-64735593D01*
X29055413Y-64297675D01*
X28849420Y-63799132D01*
X31974737Y-63799132D01*
X33020000Y-64844395D01*
X34065263Y-63799132D01*
X33954359Y-63521901D01*
X33308407Y-63278677D01*
X32618547Y-63301164D01*
X32085641Y-63521901D01*
X31974737Y-63799132D01*
X28849420Y-63799132D01*
X28693084Y-63420771D01*
X28081177Y-62807795D01*
X33924716Y-62807795D01*
X34173106Y-63408943D01*
X34632637Y-63869278D01*
X35233352Y-64118716D01*
X35883795Y-64119284D01*
X36484943Y-63870894D01*
X36556830Y-63799132D01*
X37054737Y-63799132D01*
X38100000Y-64844395D01*
X39145263Y-63799132D01*
X39034359Y-63521901D01*
X38388407Y-63278677D01*
X37698547Y-63301164D01*
X37165641Y-63521901D01*
X37054737Y-63799132D01*
X36556830Y-63799132D01*
X36945278Y-63411363D01*
X37194716Y-62810648D01*
X37195284Y-62160205D01*
X36946894Y-61559057D01*
X36557387Y-61168868D01*
X37054737Y-61168868D01*
X37165641Y-61446099D01*
X37811593Y-61689323D01*
X38501453Y-61666836D01*
X39034359Y-61446099D01*
X39145263Y-61168868D01*
X38100000Y-60123605D01*
X37054737Y-61168868D01*
X36557387Y-61168868D01*
X36487363Y-61098722D01*
X35886648Y-60849284D01*
X35236205Y-60848716D01*
X34635057Y-61097106D01*
X34174722Y-61556637D01*
X33925284Y-62157352D01*
X33924716Y-62807795D01*
X28081177Y-62807795D01*
X28022758Y-62749274D01*
X27146487Y-62385415D01*
X26197675Y-62384587D01*
X25320771Y-62746916D01*
X24649274Y-63417242D01*
X24285415Y-64293513D01*
X24284587Y-65242325D01*
X23622000Y-65242325D01*
X23622000Y-61168868D01*
X31974737Y-61168868D01*
X32085641Y-61446099D01*
X32731593Y-61689323D01*
X33421453Y-61666836D01*
X33954359Y-61446099D01*
X34065263Y-61168868D01*
X33020000Y-60123605D01*
X31974737Y-61168868D01*
X23622000Y-61168868D01*
X23622000Y-59655593D01*
X31274677Y-59655593D01*
X31297164Y-60345453D01*
X31517901Y-60878359D01*
X31795132Y-60989263D01*
X32840395Y-59944000D01*
X33199605Y-59944000D01*
X34244868Y-60989263D01*
X34522099Y-60878359D01*
X34765323Y-60232407D01*
X34746521Y-59655593D01*
X36354677Y-59655593D01*
X36377164Y-60345453D01*
X36597901Y-60878359D01*
X36875132Y-60989263D01*
X37920395Y-59944000D01*
X38279605Y-59944000D01*
X39324868Y-60989263D01*
X39602099Y-60878359D01*
X39845323Y-60232407D01*
X39822836Y-59542547D01*
X39602099Y-59009641D01*
X39324868Y-58898737D01*
X38279605Y-59944000D01*
X37920395Y-59944000D01*
X36875132Y-58898737D01*
X36597901Y-59009641D01*
X36354677Y-59655593D01*
X34746521Y-59655593D01*
X34742836Y-59542547D01*
X34522099Y-59009641D01*
X34244868Y-58898737D01*
X33199605Y-59944000D01*
X32840395Y-59944000D01*
X31795132Y-58898737D01*
X31517901Y-59009641D01*
X31274677Y-59655593D01*
X23622000Y-59655593D01*
X23622000Y-58719132D01*
X31974737Y-58719132D01*
X33020000Y-59764395D01*
X34065263Y-58719132D01*
X37054737Y-58719132D01*
X38100000Y-59764395D01*
X39145263Y-58719132D01*
X39034359Y-58441901D01*
X38388407Y-58198677D01*
X37698547Y-58221164D01*
X37165641Y-58441901D01*
X37054737Y-58719132D01*
X34065263Y-58719132D01*
X33954359Y-58441901D01*
X33308407Y-58198677D01*
X32618547Y-58221164D01*
X32085641Y-58441901D01*
X31974737Y-58719132D01*
X23622000Y-58719132D01*
X23622000Y-56156011D01*
X33524648Y-56156011D01*
X33833805Y-56904229D01*
X34405760Y-57477183D01*
X35153438Y-57787646D01*
X35963011Y-57788352D01*
X36711229Y-57479195D01*
X37284183Y-56907240D01*
X37594646Y-56159562D01*
X37595352Y-55349989D01*
X37286195Y-54601771D01*
X36714240Y-54028817D01*
X35966562Y-53718354D01*
X35156989Y-53717648D01*
X34408771Y-54026805D01*
X33835817Y-54598760D01*
X33525354Y-55346438D01*
X33524648Y-56156011D01*
X23622000Y-56156011D01*
X23622000Y-49330087D01*
X39153942Y-49330087D01*
X39236576Y-49530076D01*
X39154259Y-49728317D01*
X39153942Y-50092087D01*
X39292858Y-50428289D01*
X39549858Y-50685738D01*
X39885817Y-50825241D01*
X40249587Y-50825558D01*
X40585789Y-50686642D01*
X40599455Y-50673000D01*
X41569253Y-50673000D01*
X41645358Y-50749238D01*
X41981317Y-50888741D01*
X42345087Y-50889058D01*
X42681289Y-50750142D01*
X42938738Y-50493142D01*
X43078241Y-50157183D01*
X43078558Y-49793413D01*
X43014444Y-49638246D01*
X43141741Y-49331683D01*
X43142058Y-48967913D01*
X43003142Y-48631711D01*
X42746142Y-48374262D01*
X42410183Y-48234759D01*
X42046413Y-48234442D01*
X41710211Y-48373358D01*
X41696545Y-48387000D01*
X40599858Y-48387000D01*
X40587142Y-48374262D01*
X40251183Y-48234759D01*
X39887413Y-48234442D01*
X39551211Y-48373358D01*
X39293762Y-48630358D01*
X39154259Y-48966317D01*
X39153942Y-49330087D01*
X23622000Y-49330087D01*
X23622000Y-44504087D01*
X39788948Y-44504087D01*
X39927864Y-44840289D01*
X40184864Y-45097738D01*
X40520823Y-45237241D01*
X40884593Y-45237558D01*
X41220795Y-45098642D01*
X41478244Y-44841642D01*
X41617747Y-44505683D01*
X41617764Y-44486372D01*
X42200150Y-43903987D01*
X42281587Y-43904058D01*
X42617789Y-43765142D01*
X42875238Y-43508142D01*
X43014741Y-43172183D01*
X43014963Y-42916587D01*
X47281942Y-42916587D01*
X47420858Y-43252789D01*
X47677858Y-43510238D01*
X48013817Y-43649741D01*
X48033128Y-43649758D01*
X48874642Y-44491272D01*
X49008358Y-44814889D01*
X49022000Y-44828555D01*
X49022000Y-44998350D01*
X48882248Y-45137858D01*
X48742745Y-45473817D01*
X48742428Y-45837587D01*
X48881344Y-46173789D01*
X49138344Y-46431238D01*
X49474303Y-46570741D01*
X49838073Y-46571058D01*
X50174275Y-46432142D01*
X50431724Y-46175142D01*
X50571227Y-45839183D01*
X50571532Y-45488048D01*
X54079561Y-45488048D01*
X54079561Y-46078607D01*
X54176234Y-46311996D01*
X54354862Y-46490625D01*
X54588251Y-46587298D01*
X55053811Y-46587298D01*
X55212561Y-46428548D01*
X55212561Y-45329298D01*
X55466561Y-45329298D01*
X55466561Y-46428548D01*
X55625311Y-46587298D01*
X56090871Y-46587298D01*
X56228562Y-46530265D01*
X56366252Y-46587298D01*
X56831812Y-46587298D01*
X56990562Y-46428548D01*
X56990562Y-45329298D01*
X57244562Y-45329298D01*
X57244562Y-46428548D01*
X57403312Y-46587298D01*
X57868872Y-46587298D01*
X58006562Y-46530265D01*
X58144252Y-46587298D01*
X58609812Y-46587298D01*
X58768562Y-46428548D01*
X58768562Y-45329298D01*
X57244562Y-45329298D01*
X56990562Y-45329298D01*
X55466561Y-45329298D01*
X55212561Y-45329298D01*
X54238311Y-45329298D01*
X54079561Y-45488048D01*
X50571532Y-45488048D01*
X50571544Y-45475413D01*
X50546000Y-45413592D01*
X50546000Y-44828958D01*
X50558738Y-44816242D01*
X50698241Y-44480283D01*
X50698558Y-44116513D01*
X50559642Y-43780311D01*
X50302642Y-43522862D01*
X49966683Y-43383359D01*
X49921950Y-43383320D01*
X49111042Y-42572412D01*
X49111058Y-42554413D01*
X48972142Y-42218211D01*
X48715142Y-41960762D01*
X48379183Y-41821259D01*
X48015413Y-41820942D01*
X47679211Y-41959858D01*
X47421762Y-42216858D01*
X47282259Y-42552817D01*
X47281942Y-42916587D01*
X43014963Y-42916587D01*
X43015058Y-42808413D01*
X42876142Y-42472211D01*
X42619142Y-42214762D01*
X42283183Y-42075259D01*
X41919413Y-42074942D01*
X41583211Y-42213858D01*
X41325762Y-42470858D01*
X41217646Y-42731229D01*
X40540418Y-43408458D01*
X40522419Y-43408442D01*
X40186217Y-43547358D01*
X39928768Y-43804358D01*
X39789265Y-44140317D01*
X39788948Y-44504087D01*
X23622000Y-44504087D01*
X23622000Y-39760851D01*
X23673805Y-39886229D01*
X24245760Y-40459183D01*
X24993438Y-40769646D01*
X25803011Y-40770352D01*
X26551229Y-40461195D01*
X27069530Y-39943797D01*
X54067121Y-39943797D01*
X54067121Y-41443797D01*
X54111399Y-41679114D01*
X54121720Y-41695154D01*
X54118130Y-41700408D01*
X54067121Y-41952298D01*
X54067121Y-43452298D01*
X54111399Y-43687615D01*
X54250471Y-43903739D01*
X54318567Y-43950267D01*
X54176234Y-44092600D01*
X54079561Y-44325989D01*
X54079561Y-44916548D01*
X54238311Y-45075298D01*
X55212561Y-45075298D01*
X55212561Y-45055298D01*
X55466561Y-45055298D01*
X55466561Y-45075298D01*
X56990562Y-45075298D01*
X56990562Y-45055298D01*
X57244562Y-45055298D01*
X57244562Y-45075298D01*
X58768562Y-45075298D01*
X58768562Y-45055298D01*
X59022562Y-45055298D01*
X59022562Y-45075298D01*
X60546562Y-45075298D01*
X60546562Y-45055298D01*
X60800562Y-45055298D01*
X60800562Y-45075298D01*
X60820562Y-45075298D01*
X60820562Y-45329298D01*
X60800562Y-45329298D01*
X60800562Y-45349298D01*
X60546562Y-45349298D01*
X60546562Y-45329298D01*
X59022562Y-45329298D01*
X59022562Y-46428548D01*
X59181312Y-46587298D01*
X59646872Y-46587298D01*
X59784562Y-46530265D01*
X59922252Y-46587298D01*
X60010119Y-46587298D01*
X59918759Y-46807317D01*
X59918442Y-47171087D01*
X60057358Y-47507289D01*
X60314358Y-47764738D01*
X60582334Y-47876012D01*
X60692358Y-48142289D01*
X60949358Y-48399738D01*
X61217334Y-48511012D01*
X61327358Y-48777289D01*
X61584358Y-49034738D01*
X61852334Y-49146012D01*
X61962358Y-49412289D01*
X62219358Y-49669738D01*
X62487334Y-49781012D01*
X62597358Y-50047289D01*
X62854358Y-50304738D01*
X63122334Y-50416012D01*
X63232358Y-50682289D01*
X63489358Y-50939738D01*
X63757334Y-51051012D01*
X63867358Y-51317289D01*
X64124358Y-51574738D01*
X64392334Y-51686012D01*
X64502358Y-51952289D01*
X64759358Y-52209738D01*
X65095317Y-52349241D01*
X65459087Y-52349558D01*
X65737205Y-52234642D01*
X65668907Y-52578000D01*
X65781946Y-53146285D01*
X66103853Y-53628054D01*
X66444553Y-53855702D01*
X66301642Y-53922817D01*
X65911355Y-54351076D01*
X65741524Y-54761110D01*
X65862845Y-54991000D01*
X67056000Y-54991000D01*
X67056000Y-54971000D01*
X67310000Y-54971000D01*
X67310000Y-54991000D01*
X67330000Y-54991000D01*
X67330000Y-55245000D01*
X67310000Y-55245000D01*
X67310000Y-56438819D01*
X67539892Y-56559486D01*
X68064358Y-56313183D01*
X68251808Y-56107496D01*
X68269838Y-56203317D01*
X68408910Y-56419441D01*
X68621110Y-56564431D01*
X68873000Y-56615440D01*
X70573000Y-56615440D01*
X70808317Y-56571162D01*
X71024441Y-56432090D01*
X71169431Y-56219890D01*
X71220440Y-55968000D01*
X71220440Y-54268000D01*
X71176162Y-54032683D01*
X71037090Y-53816559D01*
X70824890Y-53671569D01*
X70757459Y-53657914D01*
X70802147Y-53628054D01*
X71124054Y-53146285D01*
X71237093Y-52578000D01*
X71124054Y-52009715D01*
X70802147Y-51527946D01*
X70472974Y-51308000D01*
X70802147Y-51088054D01*
X71124054Y-50606285D01*
X71237093Y-50038000D01*
X71124054Y-49469715D01*
X70802147Y-48987946D01*
X70472974Y-48768000D01*
X70802147Y-48548054D01*
X71124054Y-48066285D01*
X71237093Y-47498000D01*
X71124054Y-46929715D01*
X70802147Y-46447946D01*
X70472974Y-46228000D01*
X70802147Y-46008054D01*
X71124054Y-45526285D01*
X71237093Y-44958000D01*
X71124054Y-44389715D01*
X70802147Y-43907946D01*
X70472974Y-43688000D01*
X70802147Y-43468054D01*
X71124054Y-42986285D01*
X71237093Y-42418000D01*
X71124054Y-41849715D01*
X70802147Y-41367946D01*
X70472974Y-41148000D01*
X70802147Y-40928054D01*
X71124054Y-40446285D01*
X71237093Y-39878000D01*
X71124054Y-39309715D01*
X70802147Y-38827946D01*
X70472974Y-38608000D01*
X70802147Y-38388054D01*
X71124054Y-37906285D01*
X71237093Y-37338000D01*
X71124054Y-36769715D01*
X70802147Y-36287946D01*
X70472974Y-36068000D01*
X70802147Y-35848054D01*
X71124054Y-35366285D01*
X71237093Y-34798000D01*
X71124054Y-34229715D01*
X70802147Y-33747946D01*
X70320378Y-33426039D01*
X69752093Y-33313000D01*
X69693907Y-33313000D01*
X69378390Y-33375760D01*
X69107014Y-33104384D01*
X68992521Y-33027882D01*
X68859804Y-32939203D01*
X68568199Y-32881199D01*
X66628695Y-32881199D01*
X66337090Y-32939203D01*
X66204373Y-33027882D01*
X66089880Y-33104384D01*
X64993185Y-34201079D01*
X64828004Y-34448289D01*
X64770000Y-34739894D01*
X64770000Y-38282920D01*
X63762139Y-39290781D01*
X63596958Y-39537991D01*
X63538954Y-39829596D01*
X63538954Y-43587415D01*
X61933562Y-45192808D01*
X61933562Y-45075296D01*
X61774814Y-45075296D01*
X61933562Y-44916548D01*
X61933562Y-44325989D01*
X61836889Y-44092600D01*
X61695652Y-43951362D01*
X61750003Y-43916388D01*
X61894993Y-43704188D01*
X61946002Y-43452298D01*
X61946002Y-41952298D01*
X61901724Y-41716981D01*
X61891403Y-41700941D01*
X61894993Y-41695687D01*
X61946002Y-41443797D01*
X61946002Y-39943797D01*
X61901724Y-39708480D01*
X61762652Y-39492356D01*
X61694556Y-39445828D01*
X61836889Y-39303495D01*
X61933562Y-39070106D01*
X61933562Y-38479547D01*
X61774812Y-38320797D01*
X60800562Y-38320797D01*
X60800562Y-38340797D01*
X60546562Y-38340797D01*
X60546562Y-38320797D01*
X59022562Y-38320797D01*
X59022562Y-38340797D01*
X58768562Y-38340797D01*
X58768562Y-38320797D01*
X57244562Y-38320797D01*
X57244562Y-38340797D01*
X56990562Y-38340797D01*
X56990562Y-38320797D01*
X55466561Y-38320797D01*
X55466561Y-38340797D01*
X55212561Y-38340797D01*
X55212561Y-38320797D01*
X54238311Y-38320797D01*
X54079561Y-38479547D01*
X54079561Y-39070106D01*
X54176234Y-39303495D01*
X54317471Y-39444733D01*
X54263120Y-39479707D01*
X54118130Y-39691907D01*
X54067121Y-39943797D01*
X27069530Y-39943797D01*
X27124183Y-39889240D01*
X27434646Y-39141562D01*
X27435352Y-38331989D01*
X27126195Y-37583771D01*
X26860377Y-37317488D01*
X54079561Y-37317488D01*
X54079561Y-37908047D01*
X54238311Y-38066797D01*
X55212561Y-38066797D01*
X55212561Y-36967547D01*
X55466561Y-36967547D01*
X55466561Y-38066797D01*
X56990562Y-38066797D01*
X56990562Y-36967547D01*
X57244562Y-36967547D01*
X57244562Y-38066797D01*
X58768562Y-38066797D01*
X58768562Y-36967547D01*
X59022562Y-36967547D01*
X59022562Y-38066797D01*
X60546562Y-38066797D01*
X60546562Y-36967547D01*
X60800562Y-36967547D01*
X60800562Y-38066797D01*
X61774812Y-38066797D01*
X61933562Y-37908047D01*
X61933562Y-37317488D01*
X61836889Y-37084099D01*
X61658261Y-36905470D01*
X61424872Y-36808797D01*
X60959312Y-36808797D01*
X60800562Y-36967547D01*
X60546562Y-36967547D01*
X60387812Y-36808797D01*
X59922252Y-36808797D01*
X59784562Y-36865830D01*
X59646872Y-36808797D01*
X59181312Y-36808797D01*
X59022562Y-36967547D01*
X58768562Y-36967547D01*
X58609812Y-36808797D01*
X58144252Y-36808797D01*
X58006562Y-36865830D01*
X57868872Y-36808797D01*
X57403312Y-36808797D01*
X57244562Y-36967547D01*
X56990562Y-36967547D01*
X56831812Y-36808797D01*
X56366252Y-36808797D01*
X56228562Y-36865830D01*
X56090871Y-36808797D01*
X55625311Y-36808797D01*
X55466561Y-36967547D01*
X55212561Y-36967547D01*
X55053811Y-36808797D01*
X54588251Y-36808797D01*
X54354862Y-36905470D01*
X54176234Y-37084099D01*
X54079561Y-37317488D01*
X26860377Y-37317488D01*
X26554240Y-37010817D01*
X25806562Y-36700354D01*
X24996989Y-36699648D01*
X24248771Y-37008805D01*
X23675817Y-37580760D01*
X23622000Y-37710366D01*
X23622000Y-35731724D01*
X24137882Y-35731724D01*
X24285455Y-36040106D01*
X25040031Y-36333405D01*
X25849409Y-36315614D01*
X26514545Y-36040106D01*
X26662118Y-35731724D01*
X25400000Y-34469605D01*
X24137882Y-35731724D01*
X23622000Y-35731724D01*
X23622000Y-35337203D01*
X23649894Y-35404545D01*
X23958276Y-35552118D01*
X25220395Y-34290000D01*
X25579605Y-34290000D01*
X26841724Y-35552118D01*
X27150106Y-35404545D01*
X27443405Y-34649969D01*
X27425614Y-33840591D01*
X27150106Y-33175455D01*
X26841724Y-33027882D01*
X25579605Y-34290000D01*
X25220395Y-34290000D01*
X23958276Y-33027882D01*
X23649894Y-33175455D01*
X23622000Y-33247218D01*
X23622000Y-32848276D01*
X24137882Y-32848276D01*
X25400000Y-34110395D01*
X26662118Y-32848276D01*
X26514545Y-32539894D01*
X25759969Y-32246595D01*
X24950591Y-32264386D01*
X24285455Y-32539894D01*
X24137882Y-32848276D01*
X23622000Y-32848276D01*
X23622000Y-30870851D01*
X23673805Y-30996229D01*
X24245760Y-31569183D01*
X24993438Y-31879646D01*
X25803011Y-31880352D01*
X26551229Y-31571195D01*
X27124183Y-30999240D01*
X27434646Y-30251562D01*
X27435352Y-29441989D01*
X27126195Y-28693771D01*
X26554240Y-28120817D01*
X25806562Y-27810354D01*
X24996989Y-27809648D01*
X24248771Y-28118805D01*
X23675817Y-28690760D01*
X23622000Y-28820366D01*
X23622000Y-22062325D01*
X24284587Y-22062325D01*
X24646916Y-22939229D01*
X25317242Y-23610726D01*
X26193513Y-23974585D01*
X27142325Y-23975413D01*
X28019229Y-23613084D01*
X28690726Y-22942758D01*
X29054585Y-22066487D01*
X29055413Y-21117675D01*
X28693084Y-20240771D01*
X28022758Y-19569274D01*
X27146487Y-19205415D01*
X26197675Y-19204587D01*
X25320771Y-19566916D01*
X24649274Y-20237242D01*
X24285415Y-21113513D01*
X24284587Y-22062325D01*
X23622000Y-22062325D01*
X23622000Y-18542000D01*
X46927093Y-18542000D01*
X45976713Y-19492380D01*
X45976713Y-19492380D01*
G37*
X45976713Y-19492380D02*
X45956037Y-19442342D01*
X45559744Y-19045357D01*
X45041697Y-18830245D01*
X44480764Y-18829755D01*
X43962342Y-19043963D01*
X43565357Y-19440256D01*
X43350245Y-19958303D01*
X43349755Y-20519236D01*
X43501922Y-20887508D01*
X43268481Y-21043489D01*
X43062005Y-21352502D01*
X42989500Y-21717008D01*
X43062005Y-22081514D01*
X43268481Y-22390527D01*
X43577494Y-22597003D01*
X43942000Y-22669508D01*
X44508010Y-22669508D01*
X44500219Y-22688271D01*
X44499782Y-23189530D01*
X44691201Y-23652800D01*
X45045335Y-24007553D01*
X45508271Y-24199781D01*
X46009530Y-24200218D01*
X46472800Y-24008799D01*
X46827553Y-23654665D01*
X47019781Y-23191729D01*
X47019782Y-23189530D01*
X49499782Y-23189530D01*
X49691201Y-23652800D01*
X50045335Y-24007553D01*
X50508271Y-24199781D01*
X51009530Y-24200218D01*
X51472800Y-24008799D01*
X51827553Y-23654665D01*
X52019781Y-23191729D01*
X52020218Y-22690470D01*
X51828799Y-22227200D01*
X51664212Y-22062325D01*
X67464587Y-22062325D01*
X67826916Y-22939229D01*
X68497242Y-23610726D01*
X69373513Y-23974585D01*
X70322325Y-23975413D01*
X71199229Y-23613084D01*
X71870726Y-22942758D01*
X72234585Y-22066487D01*
X72235413Y-21117675D01*
X71873084Y-20240771D01*
X71202758Y-19569274D01*
X70326487Y-19205415D01*
X69377675Y-19204587D01*
X68500771Y-19566916D01*
X67829274Y-20237242D01*
X67465415Y-21113513D01*
X67464587Y-22062325D01*
X51664212Y-22062325D01*
X51474665Y-21872447D01*
X51011729Y-21680219D01*
X50510470Y-21679782D01*
X50047200Y-21871201D01*
X49692447Y-22225335D01*
X49500219Y-22688271D01*
X49499782Y-23189530D01*
X47019782Y-23189530D01*
X47020218Y-22690470D01*
X46828799Y-22227200D01*
X46474665Y-21872447D01*
X46344692Y-21818477D01*
X48478169Y-19685000D01*
X50463730Y-19685000D01*
X50350245Y-19958303D01*
X50349755Y-20519236D01*
X50563963Y-21037658D01*
X50960256Y-21434643D01*
X51478303Y-21649755D01*
X52039236Y-21650245D01*
X52557658Y-21436037D01*
X52954643Y-21039744D01*
X53169755Y-20521697D01*
X53170245Y-19960764D01*
X53056301Y-19685000D01*
X60628962Y-19685000D01*
X60921481Y-19977519D01*
X61230494Y-20183995D01*
X61311221Y-20200053D01*
X61390858Y-20392789D01*
X61647858Y-20650238D01*
X61983817Y-20789741D01*
X62347587Y-20790058D01*
X62683789Y-20651142D01*
X62941238Y-20394142D01*
X63080741Y-20058183D01*
X63081058Y-19694413D01*
X62942142Y-19358211D01*
X62685142Y-19100762D01*
X62491041Y-19020164D01*
X62474995Y-18939494D01*
X62268519Y-18630481D01*
X62180038Y-18542000D01*
X72898000Y-18542000D01*
X72898000Y-67818000D01*
X49657000Y-67818000D01*
X49657000Y-65994868D01*
X57374737Y-65994868D01*
X57485641Y-66272099D01*
X58131593Y-66515323D01*
X58821453Y-66492836D01*
X59354359Y-66272099D01*
X59465263Y-65994868D01*
X62454737Y-65994868D01*
X62565641Y-66272099D01*
X63211593Y-66515323D01*
X63901453Y-66492836D01*
X64434359Y-66272099D01*
X64545263Y-65994868D01*
X63500000Y-64949605D01*
X62454737Y-65994868D01*
X59465263Y-65994868D01*
X58420000Y-64949605D01*
X57374737Y-65994868D01*
X49657000Y-65994868D01*
X49657000Y-64481593D01*
X56674677Y-64481593D01*
X56697164Y-65171453D01*
X56917901Y-65704359D01*
X57195132Y-65815263D01*
X58240395Y-64770000D01*
X58599605Y-64770000D01*
X59644868Y-65815263D01*
X59922099Y-65704359D01*
X60165323Y-65058407D01*
X60146521Y-64481593D01*
X61754677Y-64481593D01*
X61777164Y-65171453D01*
X61997901Y-65704359D01*
X62275132Y-65815263D01*
X63320395Y-64770000D01*
X63679605Y-64770000D01*
X64724868Y-65815263D01*
X65002099Y-65704359D01*
X65176071Y-65242325D01*
X67464587Y-65242325D01*
X67826916Y-66119229D01*
X68497242Y-66790726D01*
X69373513Y-67154585D01*
X70322325Y-67155413D01*
X71199229Y-66793084D01*
X71870726Y-66122758D01*
X72234585Y-65246487D01*
X72235413Y-64297675D01*
X71873084Y-63420771D01*
X71202758Y-62749274D01*
X70326487Y-62385415D01*
X69377675Y-62384587D01*
X68500771Y-62746916D01*
X67829274Y-63417242D01*
X67465415Y-64293513D01*
X67464587Y-65242325D01*
X65176071Y-65242325D01*
X65245323Y-65058407D01*
X65222836Y-64368547D01*
X65002099Y-63835641D01*
X64724868Y-63724737D01*
X63679605Y-64770000D01*
X63320395Y-64770000D01*
X62275132Y-63724737D01*
X61997901Y-63835641D01*
X61754677Y-64481593D01*
X60146521Y-64481593D01*
X60142836Y-64368547D01*
X59922099Y-63835641D01*
X59644868Y-63724737D01*
X58599605Y-64770000D01*
X58240395Y-64770000D01*
X57195132Y-63724737D01*
X56917901Y-63835641D01*
X56674677Y-64481593D01*
X49657000Y-64481593D01*
X49657000Y-63545132D01*
X57374737Y-63545132D01*
X58420000Y-64590395D01*
X59465263Y-63545132D01*
X59354359Y-63267901D01*
X58708407Y-63024677D01*
X58018547Y-63047164D01*
X57485641Y-63267901D01*
X57374737Y-63545132D01*
X49657000Y-63545132D01*
X49657000Y-62553795D01*
X59324716Y-62553795D01*
X59573106Y-63154943D01*
X60032637Y-63615278D01*
X60633352Y-63864716D01*
X61283795Y-63865284D01*
X61884943Y-63616894D01*
X61956830Y-63545132D01*
X62454737Y-63545132D01*
X63500000Y-64590395D01*
X64545263Y-63545132D01*
X64434359Y-63267901D01*
X63788407Y-63024677D01*
X63098547Y-63047164D01*
X62565641Y-63267901D01*
X62454737Y-63545132D01*
X61956830Y-63545132D01*
X62345278Y-63157363D01*
X62594716Y-62556648D01*
X62595284Y-61906205D01*
X62346894Y-61305057D01*
X61957387Y-60914868D01*
X62454737Y-60914868D01*
X62565641Y-61192099D01*
X63211593Y-61435323D01*
X63901453Y-61412836D01*
X64434359Y-61192099D01*
X64545263Y-60914868D01*
X63500000Y-59869605D01*
X62454737Y-60914868D01*
X61957387Y-60914868D01*
X61887363Y-60844722D01*
X61286648Y-60595284D01*
X60636205Y-60594716D01*
X60035057Y-60843106D01*
X59574722Y-61302637D01*
X59325284Y-61903352D01*
X59324716Y-62553795D01*
X49657000Y-62553795D01*
X49657000Y-62230000D01*
X49646994Y-62180590D01*
X49618553Y-62138965D01*
X49576159Y-62111685D01*
X49530000Y-62103000D01*
X46990000Y-62103000D01*
X46940590Y-62113006D01*
X46898965Y-62141447D01*
X46871685Y-62183841D01*
X46863000Y-62230000D01*
X46863000Y-63373000D01*
X43859548Y-63373000D01*
X42354500Y-62168961D01*
X42354500Y-61864987D01*
X42913142Y-61864987D01*
X43052058Y-62201189D01*
X43309058Y-62458638D01*
X43645017Y-62598141D01*
X44008787Y-62598458D01*
X44344989Y-62459542D01*
X44602438Y-62202542D01*
X44741941Y-61866583D01*
X44741958Y-61847272D01*
X45235388Y-61353842D01*
X45253387Y-61353858D01*
X45589589Y-61214942D01*
X45847038Y-60957942D01*
X45864923Y-60914868D01*
X57374737Y-60914868D01*
X57485641Y-61192099D01*
X58131593Y-61435323D01*
X58821453Y-61412836D01*
X59354359Y-61192099D01*
X59465263Y-60914868D01*
X58420000Y-59869605D01*
X57374737Y-60914868D01*
X45864923Y-60914868D01*
X45986541Y-60621983D01*
X45986858Y-60258213D01*
X45847942Y-59922011D01*
X45590942Y-59664562D01*
X45254983Y-59525059D01*
X44891213Y-59524742D01*
X44555011Y-59663658D01*
X44297562Y-59920658D01*
X44158059Y-60256617D01*
X44158042Y-60275927D01*
X43664612Y-60769358D01*
X43646613Y-60769342D01*
X43310411Y-60908258D01*
X43052962Y-61165258D01*
X42913459Y-61501217D01*
X42913142Y-61864987D01*
X42354500Y-61864987D01*
X42354500Y-59690000D01*
X42344494Y-59640590D01*
X42315819Y-59598738D01*
X42112103Y-59401593D01*
X56674677Y-59401593D01*
X56697164Y-60091453D01*
X56917901Y-60624359D01*
X57195132Y-60735263D01*
X58240395Y-59690000D01*
X58599605Y-59690000D01*
X59644868Y-60735263D01*
X59922099Y-60624359D01*
X60165323Y-59978407D01*
X60146521Y-59401593D01*
X61754677Y-59401593D01*
X61777164Y-60091453D01*
X61997901Y-60624359D01*
X62275132Y-60735263D01*
X63320395Y-59690000D01*
X63679605Y-59690000D01*
X64724868Y-60735263D01*
X65002099Y-60624359D01*
X65245323Y-59978407D01*
X65222836Y-59288547D01*
X65002099Y-58755641D01*
X64724868Y-58644737D01*
X63679605Y-59690000D01*
X63320395Y-59690000D01*
X62275132Y-58644737D01*
X61997901Y-58755641D01*
X61754677Y-59401593D01*
X60146521Y-59401593D01*
X60142836Y-59288547D01*
X59922099Y-58755641D01*
X59644868Y-58644737D01*
X58599605Y-59690000D01*
X58240395Y-59690000D01*
X57195132Y-58644737D01*
X56917901Y-58755641D01*
X56674677Y-59401593D01*
X42112103Y-59401593D01*
X41144427Y-58465132D01*
X57374737Y-58465132D01*
X58420000Y-59510395D01*
X59465263Y-58465132D01*
X62454737Y-58465132D01*
X63500000Y-59510395D01*
X64545263Y-58465132D01*
X64434359Y-58187901D01*
X63788407Y-57944677D01*
X63098547Y-57967164D01*
X62565641Y-58187901D01*
X62454737Y-58465132D01*
X59465263Y-58465132D01*
X59354359Y-58187901D01*
X58708407Y-57944677D01*
X58018547Y-57967164D01*
X57485641Y-58187901D01*
X57374737Y-58465132D01*
X41144427Y-58465132D01*
X40386000Y-57731171D01*
X40386000Y-55411000D01*
X52477560Y-55411000D01*
X52477560Y-57111000D01*
X52521838Y-57346317D01*
X52660910Y-57562441D01*
X52873110Y-57707431D01*
X53125000Y-57758440D01*
X54825000Y-57758440D01*
X55060317Y-57714162D01*
X55276441Y-57575090D01*
X55421431Y-57362890D01*
X55435086Y-57295459D01*
X55464946Y-57340147D01*
X55946715Y-57662054D01*
X56515000Y-57775093D01*
X57083285Y-57662054D01*
X57565054Y-57340147D01*
X57785000Y-57010974D01*
X58004946Y-57340147D01*
X58486715Y-57662054D01*
X59055000Y-57775093D01*
X59623285Y-57662054D01*
X60105054Y-57340147D01*
X60426961Y-56858378D01*
X60540000Y-56290093D01*
X60540000Y-56231907D01*
X60426961Y-55663622D01*
X60300855Y-55474890D01*
X65741524Y-55474890D01*
X65911355Y-55884924D01*
X66301642Y-56313183D01*
X66826108Y-56559486D01*
X67056000Y-56438819D01*
X67056000Y-55245000D01*
X65862845Y-55245000D01*
X65741524Y-55474890D01*
X60300855Y-55474890D01*
X60105054Y-55181853D01*
X59623285Y-54859946D01*
X59055000Y-54746907D01*
X58486715Y-54859946D01*
X58004946Y-55181853D01*
X57785000Y-55511026D01*
X57565054Y-55181853D01*
X57083285Y-54859946D01*
X56515000Y-54746907D01*
X55946715Y-54859946D01*
X55464946Y-55181853D01*
X55437150Y-55223452D01*
X55428162Y-55175683D01*
X55289090Y-54959559D01*
X55076890Y-54814569D01*
X54825000Y-54763560D01*
X53125000Y-54763560D01*
X52889683Y-54807838D01*
X52673559Y-54946910D01*
X52528569Y-55159110D01*
X52477560Y-55411000D01*
X40386000Y-55411000D01*
X40386000Y-52387500D01*
X40375994Y-52338090D01*
X40347553Y-52296465D01*
X40305159Y-52269185D01*
X40259000Y-52260500D01*
X29845000Y-52260500D01*
X29795590Y-52270506D01*
X29753965Y-52298947D01*
X29726685Y-52341341D01*
X29718000Y-52387500D01*
X29718000Y-52705000D01*
X29728006Y-52754410D01*
X29756447Y-52796035D01*
X29798841Y-52823315D01*
X29845000Y-52832000D01*
X39878000Y-52832000D01*
X39878000Y-57785000D01*
X39888006Y-57834410D01*
X39915197Y-57874803D01*
X41783000Y-59742606D01*
X41783000Y-62230000D01*
X41793006Y-62279410D01*
X41826824Y-62325973D01*
X43731824Y-63976973D01*
X43775716Y-64001771D01*
X43815000Y-64008000D01*
X47625000Y-64008000D01*
X47674410Y-63997994D01*
X47716035Y-63969553D01*
X47743315Y-63927159D01*
X47752000Y-63881000D01*
X47752000Y-62738000D01*
X48768000Y-62738000D01*
X48768000Y-67818000D01*
X23622000Y-67818000D01*
X23622000Y-65242325D01*
X24284587Y-65242325D01*
X24646916Y-66119229D01*
X25317242Y-66790726D01*
X26193513Y-67154585D01*
X27142325Y-67155413D01*
X28019229Y-66793084D01*
X28564395Y-66248868D01*
X31974737Y-66248868D01*
X32085641Y-66526099D01*
X32731593Y-66769323D01*
X33421453Y-66746836D01*
X33954359Y-66526099D01*
X34065263Y-66248868D01*
X37054737Y-66248868D01*
X37165641Y-66526099D01*
X37811593Y-66769323D01*
X38501453Y-66746836D01*
X39034359Y-66526099D01*
X39145263Y-66248868D01*
X38100000Y-65203605D01*
X37054737Y-66248868D01*
X34065263Y-66248868D01*
X33020000Y-65203605D01*
X31974737Y-66248868D01*
X28564395Y-66248868D01*
X28690726Y-66122758D01*
X29054585Y-65246487D01*
X29055030Y-64735593D01*
X31274677Y-64735593D01*
X31297164Y-65425453D01*
X31517901Y-65958359D01*
X31795132Y-66069263D01*
X32840395Y-65024000D01*
X33199605Y-65024000D01*
X34244868Y-66069263D01*
X34522099Y-65958359D01*
X34765323Y-65312407D01*
X34746521Y-64735593D01*
X36354677Y-64735593D01*
X36377164Y-65425453D01*
X36597901Y-65958359D01*
X36875132Y-66069263D01*
X37920395Y-65024000D01*
X38279605Y-65024000D01*
X39324868Y-66069263D01*
X39602099Y-65958359D01*
X39845323Y-65312407D01*
X39822836Y-64622547D01*
X39602099Y-64089641D01*
X39324868Y-63978737D01*
X38279605Y-65024000D01*
X37920395Y-65024000D01*
X36875132Y-63978737D01*
X36597901Y-64089641D01*
X36354677Y-64735593D01*
X34746521Y-64735593D01*
X34742836Y-64622547D01*
X34522099Y-64089641D01*
X34244868Y-63978737D01*
X33199605Y-65024000D01*
X32840395Y-65024000D01*
X31795132Y-63978737D01*
X31517901Y-64089641D01*
X31274677Y-64735593D01*
X29055030Y-64735593D01*
X29055413Y-64297675D01*
X28849420Y-63799132D01*
X31974737Y-63799132D01*
X33020000Y-64844395D01*
X34065263Y-63799132D01*
X33954359Y-63521901D01*
X33308407Y-63278677D01*
X32618547Y-63301164D01*
X32085641Y-63521901D01*
X31974737Y-63799132D01*
X28849420Y-63799132D01*
X28693084Y-63420771D01*
X28081177Y-62807795D01*
X33924716Y-62807795D01*
X34173106Y-63408943D01*
X34632637Y-63869278D01*
X35233352Y-64118716D01*
X35883795Y-64119284D01*
X36484943Y-63870894D01*
X36556830Y-63799132D01*
X37054737Y-63799132D01*
X38100000Y-64844395D01*
X39145263Y-63799132D01*
X39034359Y-63521901D01*
X38388407Y-63278677D01*
X37698547Y-63301164D01*
X37165641Y-63521901D01*
X37054737Y-63799132D01*
X36556830Y-63799132D01*
X36945278Y-63411363D01*
X37194716Y-62810648D01*
X37195284Y-62160205D01*
X36946894Y-61559057D01*
X36557387Y-61168868D01*
X37054737Y-61168868D01*
X37165641Y-61446099D01*
X37811593Y-61689323D01*
X38501453Y-61666836D01*
X39034359Y-61446099D01*
X39145263Y-61168868D01*
X38100000Y-60123605D01*
X37054737Y-61168868D01*
X36557387Y-61168868D01*
X36487363Y-61098722D01*
X35886648Y-60849284D01*
X35236205Y-60848716D01*
X34635057Y-61097106D01*
X34174722Y-61556637D01*
X33925284Y-62157352D01*
X33924716Y-62807795D01*
X28081177Y-62807795D01*
X28022758Y-62749274D01*
X27146487Y-62385415D01*
X26197675Y-62384587D01*
X25320771Y-62746916D01*
X24649274Y-63417242D01*
X24285415Y-64293513D01*
X24284587Y-65242325D01*
X23622000Y-65242325D01*
X23622000Y-61168868D01*
X31974737Y-61168868D01*
X32085641Y-61446099D01*
X32731593Y-61689323D01*
X33421453Y-61666836D01*
X33954359Y-61446099D01*
X34065263Y-61168868D01*
X33020000Y-60123605D01*
X31974737Y-61168868D01*
X23622000Y-61168868D01*
X23622000Y-59655593D01*
X31274677Y-59655593D01*
X31297164Y-60345453D01*
X31517901Y-60878359D01*
X31795132Y-60989263D01*
X32840395Y-59944000D01*
X33199605Y-59944000D01*
X34244868Y-60989263D01*
X34522099Y-60878359D01*
X34765323Y-60232407D01*
X34746521Y-59655593D01*
X36354677Y-59655593D01*
X36377164Y-60345453D01*
X36597901Y-60878359D01*
X36875132Y-60989263D01*
X37920395Y-59944000D01*
X38279605Y-59944000D01*
X39324868Y-60989263D01*
X39602099Y-60878359D01*
X39845323Y-60232407D01*
X39822836Y-59542547D01*
X39602099Y-59009641D01*
X39324868Y-58898737D01*
X38279605Y-59944000D01*
X37920395Y-59944000D01*
X36875132Y-58898737D01*
X36597901Y-59009641D01*
X36354677Y-59655593D01*
X34746521Y-59655593D01*
X34742836Y-59542547D01*
X34522099Y-59009641D01*
X34244868Y-58898737D01*
X33199605Y-59944000D01*
X32840395Y-59944000D01*
X31795132Y-58898737D01*
X31517901Y-59009641D01*
X31274677Y-59655593D01*
X23622000Y-59655593D01*
X23622000Y-58719132D01*
X31974737Y-58719132D01*
X33020000Y-59764395D01*
X34065263Y-58719132D01*
X37054737Y-58719132D01*
X38100000Y-59764395D01*
X39145263Y-58719132D01*
X39034359Y-58441901D01*
X38388407Y-58198677D01*
X37698547Y-58221164D01*
X37165641Y-58441901D01*
X37054737Y-58719132D01*
X34065263Y-58719132D01*
X33954359Y-58441901D01*
X33308407Y-58198677D01*
X32618547Y-58221164D01*
X32085641Y-58441901D01*
X31974737Y-58719132D01*
X23622000Y-58719132D01*
X23622000Y-56156011D01*
X33524648Y-56156011D01*
X33833805Y-56904229D01*
X34405760Y-57477183D01*
X35153438Y-57787646D01*
X35963011Y-57788352D01*
X36711229Y-57479195D01*
X37284183Y-56907240D01*
X37594646Y-56159562D01*
X37595352Y-55349989D01*
X37286195Y-54601771D01*
X36714240Y-54028817D01*
X35966562Y-53718354D01*
X35156989Y-53717648D01*
X34408771Y-54026805D01*
X33835817Y-54598760D01*
X33525354Y-55346438D01*
X33524648Y-56156011D01*
X23622000Y-56156011D01*
X23622000Y-49330087D01*
X39153942Y-49330087D01*
X39236576Y-49530076D01*
X39154259Y-49728317D01*
X39153942Y-50092087D01*
X39292858Y-50428289D01*
X39549858Y-50685738D01*
X39885817Y-50825241D01*
X40249587Y-50825558D01*
X40585789Y-50686642D01*
X40599455Y-50673000D01*
X41569253Y-50673000D01*
X41645358Y-50749238D01*
X41981317Y-50888741D01*
X42345087Y-50889058D01*
X42681289Y-50750142D01*
X42938738Y-50493142D01*
X43078241Y-50157183D01*
X43078558Y-49793413D01*
X43014444Y-49638246D01*
X43141741Y-49331683D01*
X43142058Y-48967913D01*
X43003142Y-48631711D01*
X42746142Y-48374262D01*
X42410183Y-48234759D01*
X42046413Y-48234442D01*
X41710211Y-48373358D01*
X41696545Y-48387000D01*
X40599858Y-48387000D01*
X40587142Y-48374262D01*
X40251183Y-48234759D01*
X39887413Y-48234442D01*
X39551211Y-48373358D01*
X39293762Y-48630358D01*
X39154259Y-48966317D01*
X39153942Y-49330087D01*
X23622000Y-49330087D01*
X23622000Y-44504087D01*
X39788948Y-44504087D01*
X39927864Y-44840289D01*
X40184864Y-45097738D01*
X40520823Y-45237241D01*
X40884593Y-45237558D01*
X41220795Y-45098642D01*
X41478244Y-44841642D01*
X41617747Y-44505683D01*
X41617764Y-44486372D01*
X42200150Y-43903987D01*
X42281587Y-43904058D01*
X42617789Y-43765142D01*
X42875238Y-43508142D01*
X43014741Y-43172183D01*
X43014963Y-42916587D01*
X47281942Y-42916587D01*
X47420858Y-43252789D01*
X47677858Y-43510238D01*
X48013817Y-43649741D01*
X48033128Y-43649758D01*
X48874642Y-44491272D01*
X49008358Y-44814889D01*
X49022000Y-44828555D01*
X49022000Y-44998350D01*
X48882248Y-45137858D01*
X48742745Y-45473817D01*
X48742428Y-45837587D01*
X48881344Y-46173789D01*
X49138344Y-46431238D01*
X49474303Y-46570741D01*
X49838073Y-46571058D01*
X50174275Y-46432142D01*
X50431724Y-46175142D01*
X50571227Y-45839183D01*
X50571532Y-45488048D01*
X54079561Y-45488048D01*
X54079561Y-46078607D01*
X54176234Y-46311996D01*
X54354862Y-46490625D01*
X54588251Y-46587298D01*
X55053811Y-46587298D01*
X55212561Y-46428548D01*
X55212561Y-45329298D01*
X55466561Y-45329298D01*
X55466561Y-46428548D01*
X55625311Y-46587298D01*
X56090871Y-46587298D01*
X56228562Y-46530265D01*
X56366252Y-46587298D01*
X56831812Y-46587298D01*
X56990562Y-46428548D01*
X56990562Y-45329298D01*
X57244562Y-45329298D01*
X57244562Y-46428548D01*
X57403312Y-46587298D01*
X57868872Y-46587298D01*
X58006562Y-46530265D01*
X58144252Y-46587298D01*
X58609812Y-46587298D01*
X58768562Y-46428548D01*
X58768562Y-45329298D01*
X57244562Y-45329298D01*
X56990562Y-45329298D01*
X55466561Y-45329298D01*
X55212561Y-45329298D01*
X54238311Y-45329298D01*
X54079561Y-45488048D01*
X50571532Y-45488048D01*
X50571544Y-45475413D01*
X50546000Y-45413592D01*
X50546000Y-44828958D01*
X50558738Y-44816242D01*
X50698241Y-44480283D01*
X50698558Y-44116513D01*
X50559642Y-43780311D01*
X50302642Y-43522862D01*
X49966683Y-43383359D01*
X49921950Y-43383320D01*
X49111042Y-42572412D01*
X49111058Y-42554413D01*
X48972142Y-42218211D01*
X48715142Y-41960762D01*
X48379183Y-41821259D01*
X48015413Y-41820942D01*
X47679211Y-41959858D01*
X47421762Y-42216858D01*
X47282259Y-42552817D01*
X47281942Y-42916587D01*
X43014963Y-42916587D01*
X43015058Y-42808413D01*
X42876142Y-42472211D01*
X42619142Y-42214762D01*
X42283183Y-42075259D01*
X41919413Y-42074942D01*
X41583211Y-42213858D01*
X41325762Y-42470858D01*
X41217646Y-42731229D01*
X40540418Y-43408458D01*
X40522419Y-43408442D01*
X40186217Y-43547358D01*
X39928768Y-43804358D01*
X39789265Y-44140317D01*
X39788948Y-44504087D01*
X23622000Y-44504087D01*
X23622000Y-39760851D01*
X23673805Y-39886229D01*
X24245760Y-40459183D01*
X24993438Y-40769646D01*
X25803011Y-40770352D01*
X26551229Y-40461195D01*
X27069530Y-39943797D01*
X54067121Y-39943797D01*
X54067121Y-41443797D01*
X54111399Y-41679114D01*
X54121720Y-41695154D01*
X54118130Y-41700408D01*
X54067121Y-41952298D01*
X54067121Y-43452298D01*
X54111399Y-43687615D01*
X54250471Y-43903739D01*
X54318567Y-43950267D01*
X54176234Y-44092600D01*
X54079561Y-44325989D01*
X54079561Y-44916548D01*
X54238311Y-45075298D01*
X55212561Y-45075298D01*
X55212561Y-45055298D01*
X55466561Y-45055298D01*
X55466561Y-45075298D01*
X56990562Y-45075298D01*
X56990562Y-45055298D01*
X57244562Y-45055298D01*
X57244562Y-45075298D01*
X58768562Y-45075298D01*
X58768562Y-45055298D01*
X59022562Y-45055298D01*
X59022562Y-45075298D01*
X60546562Y-45075298D01*
X60546562Y-45055298D01*
X60800562Y-45055298D01*
X60800562Y-45075298D01*
X60820562Y-45075298D01*
X60820562Y-45329298D01*
X60800562Y-45329298D01*
X60800562Y-45349298D01*
X60546562Y-45349298D01*
X60546562Y-45329298D01*
X59022562Y-45329298D01*
X59022562Y-46428548D01*
X59181312Y-46587298D01*
X59646872Y-46587298D01*
X59784562Y-46530265D01*
X59922252Y-46587298D01*
X60010119Y-46587298D01*
X59918759Y-46807317D01*
X59918442Y-47171087D01*
X60057358Y-47507289D01*
X60314358Y-47764738D01*
X60582334Y-47876012D01*
X60692358Y-48142289D01*
X60949358Y-48399738D01*
X61217334Y-48511012D01*
X61327358Y-48777289D01*
X61584358Y-49034738D01*
X61852334Y-49146012D01*
X61962358Y-49412289D01*
X62219358Y-49669738D01*
X62487334Y-49781012D01*
X62597358Y-50047289D01*
X62854358Y-50304738D01*
X63122334Y-50416012D01*
X63232358Y-50682289D01*
X63489358Y-50939738D01*
X63757334Y-51051012D01*
X63867358Y-51317289D01*
X64124358Y-51574738D01*
X64392334Y-51686012D01*
X64502358Y-51952289D01*
X64759358Y-52209738D01*
X65095317Y-52349241D01*
X65459087Y-52349558D01*
X65737205Y-52234642D01*
X65668907Y-52578000D01*
X65781946Y-53146285D01*
X66103853Y-53628054D01*
X66444553Y-53855702D01*
X66301642Y-53922817D01*
X65911355Y-54351076D01*
X65741524Y-54761110D01*
X65862845Y-54991000D01*
X67056000Y-54991000D01*
X67056000Y-54971000D01*
X67310000Y-54971000D01*
X67310000Y-54991000D01*
X67330000Y-54991000D01*
X67330000Y-55245000D01*
X67310000Y-55245000D01*
X67310000Y-56438819D01*
X67539892Y-56559486D01*
X68064358Y-56313183D01*
X68251808Y-56107496D01*
X68269838Y-56203317D01*
X68408910Y-56419441D01*
X68621110Y-56564431D01*
X68873000Y-56615440D01*
X70573000Y-56615440D01*
X70808317Y-56571162D01*
X71024441Y-56432090D01*
X71169431Y-56219890D01*
X71220440Y-55968000D01*
X71220440Y-54268000D01*
X71176162Y-54032683D01*
X71037090Y-53816559D01*
X70824890Y-53671569D01*
X70757459Y-53657914D01*
X70802147Y-53628054D01*
X71124054Y-53146285D01*
X71237093Y-52578000D01*
X71124054Y-52009715D01*
X70802147Y-51527946D01*
X70472974Y-51308000D01*
X70802147Y-51088054D01*
X71124054Y-50606285D01*
X71237093Y-50038000D01*
X71124054Y-49469715D01*
X70802147Y-48987946D01*
X70472974Y-48768000D01*
X70802147Y-48548054D01*
X71124054Y-48066285D01*
X71237093Y-47498000D01*
X71124054Y-46929715D01*
X70802147Y-46447946D01*
X70472974Y-46228000D01*
X70802147Y-46008054D01*
X71124054Y-45526285D01*
X71237093Y-44958000D01*
X71124054Y-44389715D01*
X70802147Y-43907946D01*
X70472974Y-43688000D01*
X70802147Y-43468054D01*
X71124054Y-42986285D01*
X71237093Y-42418000D01*
X71124054Y-41849715D01*
X70802147Y-41367946D01*
X70472974Y-41148000D01*
X70802147Y-40928054D01*
X71124054Y-40446285D01*
X71237093Y-39878000D01*
X71124054Y-39309715D01*
X70802147Y-38827946D01*
X70472974Y-38608000D01*
X70802147Y-38388054D01*
X71124054Y-37906285D01*
X71237093Y-37338000D01*
X71124054Y-36769715D01*
X70802147Y-36287946D01*
X70472974Y-36068000D01*
X70802147Y-35848054D01*
X71124054Y-35366285D01*
X71237093Y-34798000D01*
X71124054Y-34229715D01*
X70802147Y-33747946D01*
X70320378Y-33426039D01*
X69752093Y-33313000D01*
X69693907Y-33313000D01*
X69378390Y-33375760D01*
X69107014Y-33104384D01*
X68992521Y-33027882D01*
X68859804Y-32939203D01*
X68568199Y-32881199D01*
X66628695Y-32881199D01*
X66337090Y-32939203D01*
X66204373Y-33027882D01*
X66089880Y-33104384D01*
X64993185Y-34201079D01*
X64828004Y-34448289D01*
X64770000Y-34739894D01*
X64770000Y-38282920D01*
X63762139Y-39290781D01*
X63596958Y-39537991D01*
X63538954Y-39829596D01*
X63538954Y-43587415D01*
X61933562Y-45192808D01*
X61933562Y-45075296D01*
X61774814Y-45075296D01*
X61933562Y-44916548D01*
X61933562Y-44325989D01*
X61836889Y-44092600D01*
X61695652Y-43951362D01*
X61750003Y-43916388D01*
X61894993Y-43704188D01*
X61946002Y-43452298D01*
X61946002Y-41952298D01*
X61901724Y-41716981D01*
X61891403Y-41700941D01*
X61894993Y-41695687D01*
X61946002Y-41443797D01*
X61946002Y-39943797D01*
X61901724Y-39708480D01*
X61762652Y-39492356D01*
X61694556Y-39445828D01*
X61836889Y-39303495D01*
X61933562Y-39070106D01*
X61933562Y-38479547D01*
X61774812Y-38320797D01*
X60800562Y-38320797D01*
X60800562Y-38340797D01*
X60546562Y-38340797D01*
X60546562Y-38320797D01*
X59022562Y-38320797D01*
X59022562Y-38340797D01*
X58768562Y-38340797D01*
X58768562Y-38320797D01*
X57244562Y-38320797D01*
X57244562Y-38340797D01*
X56990562Y-38340797D01*
X56990562Y-38320797D01*
X55466561Y-38320797D01*
X55466561Y-38340797D01*
X55212561Y-38340797D01*
X55212561Y-38320797D01*
X54238311Y-38320797D01*
X54079561Y-38479547D01*
X54079561Y-39070106D01*
X54176234Y-39303495D01*
X54317471Y-39444733D01*
X54263120Y-39479707D01*
X54118130Y-39691907D01*
X54067121Y-39943797D01*
X27069530Y-39943797D01*
X27124183Y-39889240D01*
X27434646Y-39141562D01*
X27435352Y-38331989D01*
X27126195Y-37583771D01*
X26860377Y-37317488D01*
X54079561Y-37317488D01*
X54079561Y-37908047D01*
X54238311Y-38066797D01*
X55212561Y-38066797D01*
X55212561Y-36967547D01*
X55466561Y-36967547D01*
X55466561Y-38066797D01*
X56990562Y-38066797D01*
X56990562Y-36967547D01*
X57244562Y-36967547D01*
X57244562Y-38066797D01*
X58768562Y-38066797D01*
X58768562Y-36967547D01*
X59022562Y-36967547D01*
X59022562Y-38066797D01*
X60546562Y-38066797D01*
X60546562Y-36967547D01*
X60800562Y-36967547D01*
X60800562Y-38066797D01*
X61774812Y-38066797D01*
X61933562Y-37908047D01*
X61933562Y-37317488D01*
X61836889Y-37084099D01*
X61658261Y-36905470D01*
X61424872Y-36808797D01*
X60959312Y-36808797D01*
X60800562Y-36967547D01*
X60546562Y-36967547D01*
X60387812Y-36808797D01*
X59922252Y-36808797D01*
X59784562Y-36865830D01*
X59646872Y-36808797D01*
X59181312Y-36808797D01*
X59022562Y-36967547D01*
X58768562Y-36967547D01*
X58609812Y-36808797D01*
X58144252Y-36808797D01*
X58006562Y-36865830D01*
X57868872Y-36808797D01*
X57403312Y-36808797D01*
X57244562Y-36967547D01*
X56990562Y-36967547D01*
X56831812Y-36808797D01*
X56366252Y-36808797D01*
X56228562Y-36865830D01*
X56090871Y-36808797D01*
X55625311Y-36808797D01*
X55466561Y-36967547D01*
X55212561Y-36967547D01*
X55053811Y-36808797D01*
X54588251Y-36808797D01*
X54354862Y-36905470D01*
X54176234Y-37084099D01*
X54079561Y-37317488D01*
X26860377Y-37317488D01*
X26554240Y-37010817D01*
X25806562Y-36700354D01*
X24996989Y-36699648D01*
X24248771Y-37008805D01*
X23675817Y-37580760D01*
X23622000Y-37710366D01*
X23622000Y-35731724D01*
X24137882Y-35731724D01*
X24285455Y-36040106D01*
X25040031Y-36333405D01*
X25849409Y-36315614D01*
X26514545Y-36040106D01*
X26662118Y-35731724D01*
X25400000Y-34469605D01*
X24137882Y-35731724D01*
X23622000Y-35731724D01*
X23622000Y-35337203D01*
X23649894Y-35404545D01*
X23958276Y-35552118D01*
X25220395Y-34290000D01*
X25579605Y-34290000D01*
X26841724Y-35552118D01*
X27150106Y-35404545D01*
X27443405Y-34649969D01*
X27425614Y-33840591D01*
X27150106Y-33175455D01*
X26841724Y-33027882D01*
X25579605Y-34290000D01*
X25220395Y-34290000D01*
X23958276Y-33027882D01*
X23649894Y-33175455D01*
X23622000Y-33247218D01*
X23622000Y-32848276D01*
X24137882Y-32848276D01*
X25400000Y-34110395D01*
X26662118Y-32848276D01*
X26514545Y-32539894D01*
X25759969Y-32246595D01*
X24950591Y-32264386D01*
X24285455Y-32539894D01*
X24137882Y-32848276D01*
X23622000Y-32848276D01*
X23622000Y-30870851D01*
X23673805Y-30996229D01*
X24245760Y-31569183D01*
X24993438Y-31879646D01*
X25803011Y-31880352D01*
X26551229Y-31571195D01*
X27124183Y-30999240D01*
X27434646Y-30251562D01*
X27435352Y-29441989D01*
X27126195Y-28693771D01*
X26554240Y-28120817D01*
X25806562Y-27810354D01*
X24996989Y-27809648D01*
X24248771Y-28118805D01*
X23675817Y-28690760D01*
X23622000Y-28820366D01*
X23622000Y-22062325D01*
X24284587Y-22062325D01*
X24646916Y-22939229D01*
X25317242Y-23610726D01*
X26193513Y-23974585D01*
X27142325Y-23975413D01*
X28019229Y-23613084D01*
X28690726Y-22942758D01*
X29054585Y-22066487D01*
X29055413Y-21117675D01*
X28693084Y-20240771D01*
X28022758Y-19569274D01*
X27146487Y-19205415D01*
X26197675Y-19204587D01*
X25320771Y-19566916D01*
X24649274Y-20237242D01*
X24285415Y-21113513D01*
X24284587Y-22062325D01*
X23622000Y-22062325D01*
X23622000Y-18542000D01*
X46927093Y-18542000D01*
X45976713Y-19492380D01*
M02*
