%TF.GenerationSoftware,KiCad,Pcbnew,4.0.6-e0-6349~53~ubuntu16.04.1*%
%TF.CreationDate,2017-04-07T11:05:52-07:00*%
%TF.ProjectId,waveform-generator,77617665666F726D2D67656E65726174,rev?*%
%TF.FileFunction,Soldermask,Bot*%
%FSLAX46Y46*%
G04 Gerber Fmt 4.6, Leading zero omitted, Abs format (unit mm)*
G04 Created by KiCad (PCBNEW 4.0.6-e0-6349~53~ubuntu16.04.1) date Fri Apr  7 11:05:52 2017*
%MOMM*%
%LPD*%
G01*
G04 APERTURE LIST*
%ADD10C,0.100000*%
%ADD11C,1.250000*%
%ADD12C,1.550000*%
%ADD13C,3.500000*%
%ADD14R,1.250000X1.500000*%
%ADD15C,2.200000*%
%ADD16C,2.000000*%
%ADD17R,1.700000X1.700000*%
%ADD18O,1.700000X1.700000*%
%ADD19C,2.800000*%
%ADD20C,0.558800*%
%ADD21C,0.254000*%
G04 APERTURE END LIST*
D10*
D11*
X50760000Y-22940000D03*
X45760000Y-22940000D03*
D12*
X51760000Y-20240000D03*
X44760000Y-20240000D03*
D13*
X69850000Y-64770000D03*
X26670000Y-64770000D03*
X69850000Y-21590000D03*
D14*
X55339561Y-42702298D03*
X55339561Y-45202298D03*
X55339561Y-40693797D03*
X55339561Y-38193797D03*
X57117562Y-40693797D03*
X57117562Y-38193797D03*
X57117562Y-42702298D03*
X57117562Y-45202298D03*
X58895562Y-40693797D03*
X58895562Y-38193797D03*
X58895562Y-42702298D03*
X58895562Y-45202298D03*
X60673562Y-40693797D03*
X60673562Y-38193797D03*
X60673562Y-42702298D03*
X60673562Y-45202298D03*
D15*
X58420000Y-64770000D03*
X58420000Y-59690000D03*
X63500000Y-59690000D03*
X63500000Y-64770000D03*
D16*
X60960000Y-62230000D03*
D15*
X33020000Y-65024000D03*
X33020000Y-59944000D03*
X38100000Y-59944000D03*
X38100000Y-65024000D03*
D16*
X35560000Y-62484000D03*
D17*
X69723000Y-55118000D03*
D18*
X67183000Y-55118000D03*
X69723000Y-52578000D03*
X67183000Y-52578000D03*
X69723000Y-50038000D03*
X67183000Y-50038000D03*
X69723000Y-47498000D03*
X67183000Y-47498000D03*
X69723000Y-44958000D03*
X67183000Y-44958000D03*
X69723000Y-42418000D03*
X67183000Y-42418000D03*
X69723000Y-39878000D03*
X67183000Y-39878000D03*
X69723000Y-37338000D03*
X67183000Y-37338000D03*
X69723000Y-34798000D03*
X67183000Y-34798000D03*
D17*
X53975000Y-56261000D03*
D18*
X56515000Y-56261000D03*
X59055000Y-56261000D03*
D19*
X25400000Y-29845000D03*
X25400000Y-34290000D03*
X25400000Y-38735000D03*
X35560000Y-55753000D03*
D13*
X26670000Y-21590000D03*
D20*
X46990000Y-21590000D03*
X50721170Y-61987580D03*
X53441600Y-42214800D03*
X43180000Y-42037000D03*
X32893000Y-32766000D03*
X58483500Y-23304500D03*
X58483500Y-21463000D03*
X58610500Y-44069000D03*
X43307000Y-42735500D03*
X32905700Y-34569400D03*
X39814500Y-47434500D03*
X48260000Y-63055500D03*
X48260000Y-64008000D03*
X46101000Y-57785000D03*
X45974000Y-53403520D03*
X40640000Y-66230500D03*
X64960500Y-57277000D03*
X55435500Y-61087000D03*
X55435500Y-62992000D03*
X55435500Y-64643000D03*
X63317864Y-38798500D03*
X47942500Y-33083500D03*
X47244000Y-36639500D03*
X47307500Y-24003000D03*
X37020500Y-20764500D03*
X55816500Y-29564251D03*
X44132500Y-40957452D03*
X46037500Y-38989000D03*
X53975000Y-44831000D03*
X49784000Y-49085500D03*
X45021500Y-47307500D03*
X44704000Y-21717000D03*
X43942000Y-21717008D03*
X61595000Y-19304000D03*
X62166500Y-19875500D03*
X56235600Y-42418000D03*
X49784000Y-44297600D03*
X49656986Y-45656500D03*
X48196500Y-42735500D03*
X40068500Y-49911000D03*
X42164000Y-49974500D03*
X40068500Y-49149000D03*
X42227500Y-49149000D03*
X65278000Y-51435000D03*
X64643000Y-50800000D03*
X64008000Y-50165000D03*
X63373000Y-49530000D03*
X62738000Y-48895000D03*
X62103000Y-48260000D03*
X61468000Y-47625000D03*
X60833000Y-46990000D03*
X42100500Y-42989500D03*
X40703506Y-44323000D03*
X45072300Y-60439300D03*
X43827700Y-61683900D03*
D21*
G36*
X48768000Y-64389000D02*
X47752000Y-64389000D01*
X47752000Y-62738000D01*
X48768000Y-62738000D01*
X48768000Y-64389000D01*
X48768000Y-64389000D01*
G37*
X48768000Y-64389000D02*
X47752000Y-64389000D01*
X47752000Y-62738000D01*
X48768000Y-62738000D01*
X48768000Y-64389000D01*
M02*
