%TF.GenerationSoftware,KiCad,Pcbnew,4.0.6*%
%TF.CreationDate,2017-04-05T20:33:35-07:00*%
%TF.ProjectId,wavegen,7761766567656E2E6B696361645F7063,rev?*%
%TF.FileFunction,Legend,Top*%
%FSLAX46Y46*%
G04 Gerber Fmt 4.6, Leading zero omitted, Abs format (unit mm)*
G04 Created by KiCad (PCBNEW 4.0.6) date 04/05/17 20:33:35*
%MOMM*%
%LPD*%
G01*
G04 APERTURE LIST*
%ADD10C,0.100000*%
%ADD11C,0.120000*%
%ADD12C,0.150000*%
%ADD13C,3.900000*%
%ADD14R,1.900000X1.650000*%
%ADD15R,1.900000X1.700000*%
%ADD16R,1.700000X1.900000*%
%ADD17R,2.780000X2.040000*%
%ADD18R,0.650000X1.400000*%
%ADD19R,1.650000X1.900000*%
%ADD20R,1.600000X1.600000*%
%ADD21R,0.800000X1.750000*%
%ADD22O,1.650000X1.350000*%
%ADD23O,1.400000X1.950000*%
%ADD24C,2.600000*%
%ADD25C,2.400000*%
%ADD26R,2.100000X2.100000*%
%ADD27O,2.100000X2.100000*%
%ADD28R,1.300000X1.600000*%
%ADD29R,1.050000X1.960000*%
%ADD30R,1.400000X0.650000*%
%ADD31R,2.050000X2.350000*%
%ADD32R,4.200000X2.400000*%
%ADD33R,1.900000X2.400000*%
%ADD34R,3.900000X2.800000*%
%ADD35C,1.000000*%
G04 APERTURE END LIST*
D10*
D11*
X83292210Y-66320440D02*
X84292210Y-66320440D01*
X84292210Y-64620440D02*
X83292210Y-64620440D01*
X84428800Y-70263142D02*
X83228800Y-70263142D01*
X83228800Y-68503142D02*
X84428800Y-68503142D01*
X83292210Y-68225440D02*
X84292210Y-68225440D01*
X84292210Y-66525440D02*
X83292210Y-66525440D01*
X104149000Y-73371000D02*
X104149000Y-72171000D01*
X105909000Y-72171000D02*
X105909000Y-73371000D01*
D12*
X73799000Y-77811000D02*
G75*
G03X73799000Y-77811000I-250000J0D01*
G01*
D11*
X99687000Y-63158000D02*
X98687000Y-63158000D01*
X98687000Y-64858000D02*
X99687000Y-64858000D01*
X101481000Y-64858000D02*
X102481000Y-64858000D01*
X102481000Y-63158000D02*
X101481000Y-63158000D01*
X89019000Y-62777000D02*
X88019000Y-62777000D01*
X88019000Y-64477000D02*
X89019000Y-64477000D01*
X83320000Y-64477000D02*
X84320000Y-64477000D01*
X84320000Y-62777000D02*
X83320000Y-62777000D01*
X82796000Y-88685000D02*
X81796000Y-88685000D01*
X81796000Y-90385000D02*
X82796000Y-90385000D01*
X72652000Y-80606000D02*
X73652000Y-80606000D01*
X73652000Y-78906000D02*
X72652000Y-78906000D01*
X72652000Y-82511000D02*
X73652000Y-82511000D01*
X73652000Y-80811000D02*
X72652000Y-80811000D01*
X72732000Y-75938000D02*
X72732000Y-74938000D01*
X71032000Y-74938000D02*
X71032000Y-75938000D01*
X75303000Y-69635000D02*
X74303000Y-69635000D01*
X74303000Y-71335000D02*
X75303000Y-71335000D01*
X102100000Y-58713000D02*
X101100000Y-58713000D01*
X101100000Y-60413000D02*
X102100000Y-60413000D01*
X102100000Y-56808000D02*
X101100000Y-56808000D01*
X101100000Y-58508000D02*
X102100000Y-58508000D01*
X78580000Y-58188000D02*
X79980000Y-58188000D01*
X79980000Y-58188000D02*
X79980000Y-55388000D01*
X78580000Y-58188000D02*
X78580000Y-55388000D01*
X89219000Y-88413000D02*
X87819000Y-88413000D01*
X87819000Y-88413000D02*
X87819000Y-91213000D01*
X89219000Y-88413000D02*
X89219000Y-91213000D01*
X87244864Y-88413000D02*
X85844864Y-88413000D01*
X85844864Y-88413000D02*
X85844864Y-91213000D01*
X87244864Y-88413000D02*
X87244864Y-91213000D01*
X97618800Y-53755000D02*
X88918800Y-53755000D01*
X97618800Y-60165000D02*
X88918800Y-60165000D01*
X88918800Y-60165000D02*
X88918800Y-53755000D01*
X88918800Y-54985000D02*
X97618800Y-54985000D01*
X97618800Y-53755000D02*
X97618800Y-60165000D01*
X74533000Y-94105000D02*
X72533000Y-94105000D01*
X74533000Y-87505000D02*
X72533000Y-87505000D01*
X70233000Y-91805000D02*
X70233000Y-89805000D01*
X76833000Y-91805000D02*
X76833000Y-89805000D01*
X72533000Y-61978000D02*
X74533000Y-61978000D01*
X72533000Y-68578000D02*
X74533000Y-68578000D01*
X76833000Y-64278000D02*
X76833000Y-66278000D01*
X70233000Y-64278000D02*
X70233000Y-66278000D01*
X90424000Y-103184000D02*
X110804000Y-103184000D01*
X110804000Y-103184000D02*
X110804000Y-97984000D01*
X110804000Y-97984000D02*
X87824000Y-97984000D01*
X87824000Y-97984000D02*
X87824000Y-100584000D01*
X87824000Y-100584000D02*
X90424000Y-100584000D01*
X90424000Y-100584000D02*
X90424000Y-103184000D01*
X89154000Y-103184000D02*
X87824000Y-103184000D01*
X87824000Y-103184000D02*
X87824000Y-101854000D01*
X76835000Y-83125000D02*
X71695000Y-83125000D01*
X71695000Y-83125000D02*
X71695000Y-85785000D01*
X71695000Y-85785000D02*
X76835000Y-85785000D01*
X76835000Y-85785000D02*
X76835000Y-83125000D01*
X78105000Y-83125000D02*
X79435000Y-83125000D01*
X79435000Y-83125000D02*
X79435000Y-84455000D01*
X101000000Y-60715000D02*
X102200000Y-60715000D01*
X102200000Y-62475000D02*
X101000000Y-62475000D01*
X77806000Y-92321000D02*
X77806000Y-91321000D01*
X79166000Y-91321000D02*
X79166000Y-92321000D01*
X76410000Y-57240000D02*
X76410000Y-56040000D01*
X78170000Y-56040000D02*
X78170000Y-57240000D01*
X87639000Y-95295000D02*
X87639000Y-94095000D01*
X89399000Y-94095000D02*
X89399000Y-95295000D01*
X85664864Y-95295000D02*
X85664864Y-94095000D01*
X87424864Y-94095000D02*
X87424864Y-95295000D01*
X109356000Y-78324000D02*
X109356000Y-77124000D01*
X111116000Y-77124000D02*
X111116000Y-78324000D01*
X102117000Y-74133000D02*
X102117000Y-72933000D01*
X103877000Y-72933000D02*
X103877000Y-74133000D01*
X106715000Y-80273000D02*
X107915000Y-80273000D01*
X107915000Y-82033000D02*
X106715000Y-82033000D01*
X83194600Y-70646400D02*
X84394600Y-70646400D01*
X84394600Y-72406400D02*
X83194600Y-72406400D01*
X109052000Y-78624000D02*
X109052000Y-76824000D01*
X105832000Y-76824000D02*
X105832000Y-79774000D01*
D12*
X98266000Y-72422000D02*
X97266000Y-72422000D01*
X98266000Y-82772000D02*
X97191000Y-82772000D01*
X87916000Y-82772000D02*
X88991000Y-82772000D01*
X87916000Y-72422000D02*
X88991000Y-72422000D01*
X98266000Y-72422000D02*
X98266000Y-73497000D01*
X87916000Y-72422000D02*
X87916000Y-73497000D01*
X87916000Y-82772000D02*
X87916000Y-81697000D01*
X98266000Y-82772000D02*
X98266000Y-81697000D01*
X97266000Y-72422000D02*
X97266000Y-71397000D01*
D11*
X80171000Y-88402000D02*
X84421000Y-88402000D01*
X84421000Y-88402000D02*
X84421000Y-83302000D01*
X88055500Y-56129000D02*
X86795500Y-56129000D01*
X81235500Y-56129000D02*
X82495500Y-56129000D01*
X88055500Y-59889000D02*
X88055500Y-56129000D01*
X81235500Y-62139000D02*
X81235500Y-56129000D01*
X86575000Y-77970000D02*
X86575000Y-76970000D01*
X84875000Y-76970000D02*
X84875000Y-77970000D01*
X103284000Y-65129000D02*
X96034000Y-65129000D01*
X96034000Y-65129000D02*
X96034000Y-68729000D01*
X96034000Y-68729000D02*
X103284000Y-68729000D01*
D12*
X79494143Y-65825643D02*
X79446524Y-65873262D01*
X79303667Y-65920881D01*
X79208429Y-65920881D01*
X79065571Y-65873262D01*
X78970333Y-65778024D01*
X78922714Y-65682786D01*
X78875095Y-65492310D01*
X78875095Y-65349452D01*
X78922714Y-65158976D01*
X78970333Y-65063738D01*
X79065571Y-64968500D01*
X79208429Y-64920881D01*
X79303667Y-64920881D01*
X79446524Y-64968500D01*
X79494143Y-65016119D01*
X79875095Y-65016119D02*
X79922714Y-64968500D01*
X80017952Y-64920881D01*
X80256048Y-64920881D01*
X80351286Y-64968500D01*
X80398905Y-65016119D01*
X80446524Y-65111357D01*
X80446524Y-65206595D01*
X80398905Y-65349452D01*
X79827476Y-65920881D01*
X80446524Y-65920881D01*
X81398905Y-65920881D02*
X80827476Y-65920881D01*
X81113190Y-65920881D02*
X81113190Y-64920881D01*
X81017952Y-65063738D01*
X80922714Y-65158976D01*
X80827476Y-65206595D01*
X80351334Y-69857881D02*
X79875143Y-69857881D01*
X79875143Y-68857881D01*
X80637048Y-68953119D02*
X80684667Y-68905500D01*
X80779905Y-68857881D01*
X81018001Y-68857881D01*
X81113239Y-68905500D01*
X81160858Y-68953119D01*
X81208477Y-69048357D01*
X81208477Y-69143595D01*
X81160858Y-69286452D01*
X80589429Y-69857881D01*
X81208477Y-69857881D01*
X79430643Y-67730643D02*
X79383024Y-67778262D01*
X79240167Y-67825881D01*
X79144929Y-67825881D01*
X79002071Y-67778262D01*
X78906833Y-67683024D01*
X78859214Y-67587786D01*
X78811595Y-67397310D01*
X78811595Y-67254452D01*
X78859214Y-67063976D01*
X78906833Y-66968738D01*
X79002071Y-66873500D01*
X79144929Y-66825881D01*
X79240167Y-66825881D01*
X79383024Y-66873500D01*
X79430643Y-66921119D01*
X79811595Y-66921119D02*
X79859214Y-66873500D01*
X79954452Y-66825881D01*
X80192548Y-66825881D01*
X80287786Y-66873500D01*
X80335405Y-66921119D01*
X80383024Y-67016357D01*
X80383024Y-67111595D01*
X80335405Y-67254452D01*
X79763976Y-67825881D01*
X80383024Y-67825881D01*
X80763976Y-66921119D02*
X80811595Y-66873500D01*
X80906833Y-66825881D01*
X81144929Y-66825881D01*
X81240167Y-66873500D01*
X81287786Y-66921119D01*
X81335405Y-67016357D01*
X81335405Y-67111595D01*
X81287786Y-67254452D01*
X80716357Y-67825881D01*
X81335405Y-67825881D01*
X104887734Y-70200781D02*
X104554400Y-69724590D01*
X104316305Y-70200781D02*
X104316305Y-69200781D01*
X104697258Y-69200781D01*
X104792496Y-69248400D01*
X104840115Y-69296019D01*
X104887734Y-69391257D01*
X104887734Y-69534114D01*
X104840115Y-69629352D01*
X104792496Y-69676971D01*
X104697258Y-69724590D01*
X104316305Y-69724590D01*
X105744877Y-69200781D02*
X105554400Y-69200781D01*
X105459162Y-69248400D01*
X105411543Y-69296019D01*
X105316305Y-69438876D01*
X105268686Y-69629352D01*
X105268686Y-70010305D01*
X105316305Y-70105543D01*
X105363924Y-70153162D01*
X105459162Y-70200781D01*
X105649639Y-70200781D01*
X105744877Y-70153162D01*
X105792496Y-70105543D01*
X105840115Y-70010305D01*
X105840115Y-69772210D01*
X105792496Y-69676971D01*
X105744877Y-69629352D01*
X105649639Y-69581733D01*
X105459162Y-69581733D01*
X105363924Y-69629352D01*
X105316305Y-69676971D01*
X105268686Y-69772210D01*
X76327095Y-74763381D02*
X76327095Y-75572905D01*
X76374714Y-75668143D01*
X76422333Y-75715762D01*
X76517571Y-75763381D01*
X76708048Y-75763381D01*
X76803286Y-75715762D01*
X76850905Y-75668143D01*
X76898524Y-75572905D01*
X76898524Y-74763381D01*
X77279476Y-74763381D02*
X77898524Y-74763381D01*
X77565190Y-75144333D01*
X77708048Y-75144333D01*
X77803286Y-75191952D01*
X77850905Y-75239571D01*
X77898524Y-75334810D01*
X77898524Y-75572905D01*
X77850905Y-75668143D01*
X77803286Y-75715762D01*
X77708048Y-75763381D01*
X77422333Y-75763381D01*
X77327095Y-75715762D01*
X77279476Y-75668143D01*
X95845334Y-64365143D02*
X95797715Y-64412762D01*
X95654858Y-64460381D01*
X95559620Y-64460381D01*
X95416762Y-64412762D01*
X95321524Y-64317524D01*
X95273905Y-64222286D01*
X95226286Y-64031810D01*
X95226286Y-63888952D01*
X95273905Y-63698476D01*
X95321524Y-63603238D01*
X95416762Y-63508000D01*
X95559620Y-63460381D01*
X95654858Y-63460381D01*
X95797715Y-63508000D01*
X95845334Y-63555619D01*
X96797715Y-64460381D02*
X96226286Y-64460381D01*
X96512000Y-64460381D02*
X96512000Y-63460381D01*
X96416762Y-63603238D01*
X96321524Y-63698476D01*
X96226286Y-63746095D01*
X104989334Y-64365143D02*
X104941715Y-64412762D01*
X104798858Y-64460381D01*
X104703620Y-64460381D01*
X104560762Y-64412762D01*
X104465524Y-64317524D01*
X104417905Y-64222286D01*
X104370286Y-64031810D01*
X104370286Y-63888952D01*
X104417905Y-63698476D01*
X104465524Y-63603238D01*
X104560762Y-63508000D01*
X104703620Y-63460381D01*
X104798858Y-63460381D01*
X104941715Y-63508000D01*
X104989334Y-63555619D01*
X105370286Y-63555619D02*
X105417905Y-63508000D01*
X105513143Y-63460381D01*
X105751239Y-63460381D01*
X105846477Y-63508000D01*
X105894096Y-63555619D01*
X105941715Y-63650857D01*
X105941715Y-63746095D01*
X105894096Y-63888952D01*
X105322667Y-64460381D01*
X105941715Y-64460381D01*
X91527334Y-63984143D02*
X91479715Y-64031762D01*
X91336858Y-64079381D01*
X91241620Y-64079381D01*
X91098762Y-64031762D01*
X91003524Y-63936524D01*
X90955905Y-63841286D01*
X90908286Y-63650810D01*
X90908286Y-63507952D01*
X90955905Y-63317476D01*
X91003524Y-63222238D01*
X91098762Y-63127000D01*
X91241620Y-63079381D01*
X91336858Y-63079381D01*
X91479715Y-63127000D01*
X91527334Y-63174619D01*
X91860667Y-63079381D02*
X92479715Y-63079381D01*
X92146381Y-63460333D01*
X92289239Y-63460333D01*
X92384477Y-63507952D01*
X92432096Y-63555571D01*
X92479715Y-63650810D01*
X92479715Y-63888905D01*
X92432096Y-63984143D01*
X92384477Y-64031762D01*
X92289239Y-64079381D01*
X92003524Y-64079381D01*
X91908286Y-64031762D01*
X91860667Y-63984143D01*
X80478334Y-63984143D02*
X80430715Y-64031762D01*
X80287858Y-64079381D01*
X80192620Y-64079381D01*
X80049762Y-64031762D01*
X79954524Y-63936524D01*
X79906905Y-63841286D01*
X79859286Y-63650810D01*
X79859286Y-63507952D01*
X79906905Y-63317476D01*
X79954524Y-63222238D01*
X80049762Y-63127000D01*
X80192620Y-63079381D01*
X80287858Y-63079381D01*
X80430715Y-63127000D01*
X80478334Y-63174619D01*
X81335477Y-63412714D02*
X81335477Y-64079381D01*
X81097381Y-63031762D02*
X80859286Y-63746048D01*
X81478334Y-63746048D01*
X82129334Y-91543143D02*
X82081715Y-91590762D01*
X81938858Y-91638381D01*
X81843620Y-91638381D01*
X81700762Y-91590762D01*
X81605524Y-91495524D01*
X81557905Y-91400286D01*
X81510286Y-91209810D01*
X81510286Y-91066952D01*
X81557905Y-90876476D01*
X81605524Y-90781238D01*
X81700762Y-90686000D01*
X81843620Y-90638381D01*
X81938858Y-90638381D01*
X82081715Y-90686000D01*
X82129334Y-90733619D01*
X83034096Y-90638381D02*
X82557905Y-90638381D01*
X82510286Y-91114571D01*
X82557905Y-91066952D01*
X82653143Y-91019333D01*
X82891239Y-91019333D01*
X82986477Y-91066952D01*
X83034096Y-91114571D01*
X83081715Y-91209810D01*
X83081715Y-91447905D01*
X83034096Y-91543143D01*
X82986477Y-91590762D01*
X82891239Y-91638381D01*
X82653143Y-91638381D01*
X82557905Y-91590762D01*
X82510286Y-91543143D01*
X76065143Y-80113143D02*
X76017524Y-80160762D01*
X75874667Y-80208381D01*
X75779429Y-80208381D01*
X75636571Y-80160762D01*
X75541333Y-80065524D01*
X75493714Y-79970286D01*
X75446095Y-79779810D01*
X75446095Y-79636952D01*
X75493714Y-79446476D01*
X75541333Y-79351238D01*
X75636571Y-79256000D01*
X75779429Y-79208381D01*
X75874667Y-79208381D01*
X76017524Y-79256000D01*
X76065143Y-79303619D01*
X77017524Y-80208381D02*
X76446095Y-80208381D01*
X76731809Y-80208381D02*
X76731809Y-79208381D01*
X76636571Y-79351238D01*
X76541333Y-79446476D01*
X76446095Y-79494095D01*
X77874667Y-79541714D02*
X77874667Y-80208381D01*
X77636571Y-79160762D02*
X77398476Y-79875048D01*
X78017524Y-79875048D01*
X76065143Y-82018143D02*
X76017524Y-82065762D01*
X75874667Y-82113381D01*
X75779429Y-82113381D01*
X75636571Y-82065762D01*
X75541333Y-81970524D01*
X75493714Y-81875286D01*
X75446095Y-81684810D01*
X75446095Y-81541952D01*
X75493714Y-81351476D01*
X75541333Y-81256238D01*
X75636571Y-81161000D01*
X75779429Y-81113381D01*
X75874667Y-81113381D01*
X76017524Y-81161000D01*
X76065143Y-81208619D01*
X77017524Y-82113381D02*
X76446095Y-82113381D01*
X76731809Y-82113381D02*
X76731809Y-81113381D01*
X76636571Y-81256238D01*
X76541333Y-81351476D01*
X76446095Y-81399095D01*
X77922286Y-81113381D02*
X77446095Y-81113381D01*
X77398476Y-81589571D01*
X77446095Y-81541952D01*
X77541333Y-81494333D01*
X77779429Y-81494333D01*
X77874667Y-81541952D01*
X77922286Y-81589571D01*
X77969905Y-81684810D01*
X77969905Y-81922905D01*
X77922286Y-82018143D01*
X77874667Y-82065762D01*
X77779429Y-82113381D01*
X77541333Y-82113381D01*
X77446095Y-82065762D01*
X77398476Y-82018143D01*
X71239143Y-72874143D02*
X71191524Y-72921762D01*
X71048667Y-72969381D01*
X70953429Y-72969381D01*
X70810571Y-72921762D01*
X70715333Y-72826524D01*
X70667714Y-72731286D01*
X70620095Y-72540810D01*
X70620095Y-72397952D01*
X70667714Y-72207476D01*
X70715333Y-72112238D01*
X70810571Y-72017000D01*
X70953429Y-71969381D01*
X71048667Y-71969381D01*
X71191524Y-72017000D01*
X71239143Y-72064619D01*
X72191524Y-72969381D02*
X71620095Y-72969381D01*
X71905809Y-72969381D02*
X71905809Y-71969381D01*
X71810571Y-72112238D01*
X71715333Y-72207476D01*
X71620095Y-72255095D01*
X72524857Y-71969381D02*
X73191524Y-71969381D01*
X72762952Y-72969381D01*
X74160143Y-72366143D02*
X74112524Y-72413762D01*
X73969667Y-72461381D01*
X73874429Y-72461381D01*
X73731571Y-72413762D01*
X73636333Y-72318524D01*
X73588714Y-72223286D01*
X73541095Y-72032810D01*
X73541095Y-71889952D01*
X73588714Y-71699476D01*
X73636333Y-71604238D01*
X73731571Y-71509000D01*
X73874429Y-71461381D01*
X73969667Y-71461381D01*
X74112524Y-71509000D01*
X74160143Y-71556619D01*
X75112524Y-72461381D02*
X74541095Y-72461381D01*
X74826809Y-72461381D02*
X74826809Y-71461381D01*
X74731571Y-71604238D01*
X74636333Y-71699476D01*
X74541095Y-71747095D01*
X75683952Y-71889952D02*
X75588714Y-71842333D01*
X75541095Y-71794714D01*
X75493476Y-71699476D01*
X75493476Y-71651857D01*
X75541095Y-71556619D01*
X75588714Y-71509000D01*
X75683952Y-71461381D01*
X75874429Y-71461381D01*
X75969667Y-71509000D01*
X76017286Y-71556619D01*
X76064905Y-71651857D01*
X76064905Y-71699476D01*
X76017286Y-71794714D01*
X75969667Y-71842333D01*
X75874429Y-71889952D01*
X75683952Y-71889952D01*
X75588714Y-71937571D01*
X75541095Y-71985190D01*
X75493476Y-72080429D01*
X75493476Y-72270905D01*
X75541095Y-72366143D01*
X75588714Y-72413762D01*
X75683952Y-72461381D01*
X75874429Y-72461381D01*
X75969667Y-72413762D01*
X76017286Y-72366143D01*
X76064905Y-72270905D01*
X76064905Y-72080429D01*
X76017286Y-71985190D01*
X75969667Y-71937571D01*
X75874429Y-71889952D01*
X104716343Y-59945543D02*
X104668724Y-59993162D01*
X104525867Y-60040781D01*
X104430629Y-60040781D01*
X104287771Y-59993162D01*
X104192533Y-59897924D01*
X104144914Y-59802686D01*
X104097295Y-59612210D01*
X104097295Y-59469352D01*
X104144914Y-59278876D01*
X104192533Y-59183638D01*
X104287771Y-59088400D01*
X104430629Y-59040781D01*
X104525867Y-59040781D01*
X104668724Y-59088400D01*
X104716343Y-59136019D01*
X105668724Y-60040781D02*
X105097295Y-60040781D01*
X105383009Y-60040781D02*
X105383009Y-59040781D01*
X105287771Y-59183638D01*
X105192533Y-59278876D01*
X105097295Y-59326495D01*
X106144914Y-60040781D02*
X106335390Y-60040781D01*
X106430629Y-59993162D01*
X106478248Y-59945543D01*
X106573486Y-59802686D01*
X106621105Y-59612210D01*
X106621105Y-59231257D01*
X106573486Y-59136019D01*
X106525867Y-59088400D01*
X106430629Y-59040781D01*
X106240152Y-59040781D01*
X106144914Y-59088400D01*
X106097295Y-59136019D01*
X106049676Y-59231257D01*
X106049676Y-59469352D01*
X106097295Y-59564590D01*
X106144914Y-59612210D01*
X106240152Y-59659829D01*
X106430629Y-59659829D01*
X106525867Y-59612210D01*
X106573486Y-59564590D01*
X106621105Y-59469352D01*
X104665543Y-58065943D02*
X104617924Y-58113562D01*
X104475067Y-58161181D01*
X104379829Y-58161181D01*
X104236971Y-58113562D01*
X104141733Y-58018324D01*
X104094114Y-57923086D01*
X104046495Y-57732610D01*
X104046495Y-57589752D01*
X104094114Y-57399276D01*
X104141733Y-57304038D01*
X104236971Y-57208800D01*
X104379829Y-57161181D01*
X104475067Y-57161181D01*
X104617924Y-57208800D01*
X104665543Y-57256419D01*
X105046495Y-57256419D02*
X105094114Y-57208800D01*
X105189352Y-57161181D01*
X105427448Y-57161181D01*
X105522686Y-57208800D01*
X105570305Y-57256419D01*
X105617924Y-57351657D01*
X105617924Y-57446895D01*
X105570305Y-57589752D01*
X104998876Y-58161181D01*
X105617924Y-58161181D01*
X106236971Y-57161181D02*
X106332210Y-57161181D01*
X106427448Y-57208800D01*
X106475067Y-57256419D01*
X106522686Y-57351657D01*
X106570305Y-57542133D01*
X106570305Y-57780229D01*
X106522686Y-57970705D01*
X106475067Y-58065943D01*
X106427448Y-58113562D01*
X106332210Y-58161181D01*
X106236971Y-58161181D01*
X106141733Y-58113562D01*
X106094114Y-58065943D01*
X106046495Y-57970705D01*
X105998876Y-57780229D01*
X105998876Y-57542133D01*
X106046495Y-57351657D01*
X106094114Y-57256419D01*
X106141733Y-57208800D01*
X106236971Y-57161181D01*
X78560705Y-59583581D02*
X78560705Y-58583581D01*
X78798800Y-58583581D01*
X78941658Y-58631200D01*
X79036896Y-58726438D01*
X79084515Y-58821676D01*
X79132134Y-59012152D01*
X79132134Y-59155010D01*
X79084515Y-59345486D01*
X79036896Y-59440724D01*
X78941658Y-59535962D01*
X78798800Y-59583581D01*
X78560705Y-59583581D01*
X80084515Y-59583581D02*
X79513086Y-59583581D01*
X79798800Y-59583581D02*
X79798800Y-58583581D01*
X79703562Y-58726438D01*
X79608324Y-58821676D01*
X79513086Y-58869295D01*
X87780905Y-88018881D02*
X87780905Y-87018881D01*
X88019000Y-87018881D01*
X88161858Y-87066500D01*
X88257096Y-87161738D01*
X88304715Y-87256976D01*
X88352334Y-87447452D01*
X88352334Y-87590310D01*
X88304715Y-87780786D01*
X88257096Y-87876024D01*
X88161858Y-87971262D01*
X88019000Y-88018881D01*
X87780905Y-88018881D01*
X88733286Y-87114119D02*
X88780905Y-87066500D01*
X88876143Y-87018881D01*
X89114239Y-87018881D01*
X89209477Y-87066500D01*
X89257096Y-87114119D01*
X89304715Y-87209357D01*
X89304715Y-87304595D01*
X89257096Y-87447452D01*
X88685667Y-88018881D01*
X89304715Y-88018881D01*
X85812405Y-88018881D02*
X85812405Y-87018881D01*
X86050500Y-87018881D01*
X86193358Y-87066500D01*
X86288596Y-87161738D01*
X86336215Y-87256976D01*
X86383834Y-87447452D01*
X86383834Y-87590310D01*
X86336215Y-87780786D01*
X86288596Y-87876024D01*
X86193358Y-87971262D01*
X86050500Y-88018881D01*
X85812405Y-88018881D01*
X86717167Y-87018881D02*
X87336215Y-87018881D01*
X87002881Y-87399833D01*
X87145739Y-87399833D01*
X87240977Y-87447452D01*
X87288596Y-87495071D01*
X87336215Y-87590310D01*
X87336215Y-87828405D01*
X87288596Y-87923643D01*
X87240977Y-87971262D01*
X87145739Y-88018881D01*
X86860024Y-88018881D01*
X86764786Y-87971262D01*
X86717167Y-87923643D01*
X92935467Y-60477381D02*
X92935467Y-61191667D01*
X92887847Y-61334524D01*
X92792609Y-61429762D01*
X92649752Y-61477381D01*
X92554514Y-61477381D01*
X93935467Y-61477381D02*
X93364038Y-61477381D01*
X93649752Y-61477381D02*
X93649752Y-60477381D01*
X93554514Y-60620238D01*
X93459276Y-60715476D01*
X93364038Y-60763095D01*
X73199667Y-86320381D02*
X73199667Y-87034667D01*
X73152047Y-87177524D01*
X73056809Y-87272762D01*
X72913952Y-87320381D01*
X72818714Y-87320381D01*
X73628238Y-86415619D02*
X73675857Y-86368000D01*
X73771095Y-86320381D01*
X74009191Y-86320381D01*
X74104429Y-86368000D01*
X74152048Y-86415619D01*
X74199667Y-86510857D01*
X74199667Y-86606095D01*
X74152048Y-86748952D01*
X73580619Y-87320381D01*
X74199667Y-87320381D01*
X73199667Y-60793381D02*
X73199667Y-61507667D01*
X73152047Y-61650524D01*
X73056809Y-61745762D01*
X72913952Y-61793381D01*
X72818714Y-61793381D01*
X73580619Y-60793381D02*
X74199667Y-60793381D01*
X73866333Y-61174333D01*
X74009191Y-61174333D01*
X74104429Y-61221952D01*
X74152048Y-61269571D01*
X74199667Y-61364810D01*
X74199667Y-61602905D01*
X74152048Y-61698143D01*
X74104429Y-61745762D01*
X74009191Y-61793381D01*
X73723476Y-61793381D01*
X73628238Y-61745762D01*
X73580619Y-61698143D01*
X99234667Y-96353381D02*
X99234667Y-97067667D01*
X99187047Y-97210524D01*
X99091809Y-97305762D01*
X98948952Y-97353381D01*
X98853714Y-97353381D01*
X100139429Y-96686714D02*
X100139429Y-97353381D01*
X99901333Y-96305762D02*
X99663238Y-97020048D01*
X100282286Y-97020048D01*
X69937381Y-85288333D02*
X70651667Y-85288333D01*
X70794524Y-85335953D01*
X70889762Y-85431191D01*
X70937381Y-85574048D01*
X70937381Y-85669286D01*
X70937381Y-84812143D02*
X69937381Y-84812143D01*
X69937381Y-84431190D01*
X69985000Y-84335952D01*
X70032619Y-84288333D01*
X70127857Y-84240714D01*
X70270714Y-84240714D01*
X70365952Y-84288333D01*
X70413571Y-84335952D01*
X70461190Y-84431190D01*
X70461190Y-84812143D01*
X70937381Y-83288333D02*
X70937381Y-83859762D01*
X70937381Y-83574048D02*
X69937381Y-83574048D01*
X70080238Y-83669286D01*
X70175476Y-83764524D01*
X70223095Y-83859762D01*
X104735334Y-62021981D02*
X104259143Y-62021981D01*
X104259143Y-61021981D01*
X105592477Y-62021981D02*
X105021048Y-62021981D01*
X105306762Y-62021981D02*
X105306762Y-61021981D01*
X105211524Y-61164838D01*
X105116286Y-61260076D01*
X105021048Y-61307695D01*
X78938381Y-94654666D02*
X78462190Y-94988000D01*
X78938381Y-95226095D02*
X77938381Y-95226095D01*
X77938381Y-94845142D01*
X77986000Y-94749904D01*
X78033619Y-94702285D01*
X78128857Y-94654666D01*
X78271714Y-94654666D01*
X78366952Y-94702285D01*
X78414571Y-94749904D01*
X78462190Y-94845142D01*
X78462190Y-95226095D01*
X78938381Y-93702285D02*
X78938381Y-94273714D01*
X78938381Y-93988000D02*
X77938381Y-93988000D01*
X78081238Y-94083238D01*
X78176476Y-94178476D01*
X78224095Y-94273714D01*
X77112834Y-60205881D02*
X76779500Y-59729690D01*
X76541405Y-60205881D02*
X76541405Y-59205881D01*
X76922358Y-59205881D01*
X77017596Y-59253500D01*
X77065215Y-59301119D01*
X77112834Y-59396357D01*
X77112834Y-59539214D01*
X77065215Y-59634452D01*
X77017596Y-59682071D01*
X76922358Y-59729690D01*
X76541405Y-59729690D01*
X77493786Y-59301119D02*
X77541405Y-59253500D01*
X77636643Y-59205881D01*
X77874739Y-59205881D01*
X77969977Y-59253500D01*
X78017596Y-59301119D01*
X78065215Y-59396357D01*
X78065215Y-59491595D01*
X78017596Y-59634452D01*
X77446167Y-60205881D01*
X78065215Y-60205881D01*
X90193834Y-95194381D02*
X89860500Y-94718190D01*
X89622405Y-95194381D02*
X89622405Y-94194381D01*
X90003358Y-94194381D01*
X90098596Y-94242000D01*
X90146215Y-94289619D01*
X90193834Y-94384857D01*
X90193834Y-94527714D01*
X90146215Y-94622952D01*
X90098596Y-94670571D01*
X90003358Y-94718190D01*
X89622405Y-94718190D01*
X90527167Y-94194381D02*
X91146215Y-94194381D01*
X90812881Y-94575333D01*
X90955739Y-94575333D01*
X91050977Y-94622952D01*
X91098596Y-94670571D01*
X91146215Y-94765810D01*
X91146215Y-95003905D01*
X91098596Y-95099143D01*
X91050977Y-95146762D01*
X90955739Y-95194381D01*
X90670024Y-95194381D01*
X90574786Y-95146762D01*
X90527167Y-95099143D01*
X84478834Y-95147381D02*
X84145500Y-94671190D01*
X83907405Y-95147381D02*
X83907405Y-94147381D01*
X84288358Y-94147381D01*
X84383596Y-94195000D01*
X84431215Y-94242619D01*
X84478834Y-94337857D01*
X84478834Y-94480714D01*
X84431215Y-94575952D01*
X84383596Y-94623571D01*
X84288358Y-94671190D01*
X83907405Y-94671190D01*
X85335977Y-94480714D02*
X85335977Y-95147381D01*
X85097881Y-94099762D02*
X84859786Y-94814048D01*
X85478834Y-94814048D01*
X110069334Y-75179181D02*
X109736000Y-74702990D01*
X109497905Y-75179181D02*
X109497905Y-74179181D01*
X109878858Y-74179181D01*
X109974096Y-74226800D01*
X110021715Y-74274419D01*
X110069334Y-74369657D01*
X110069334Y-74512514D01*
X110021715Y-74607752D01*
X109974096Y-74655371D01*
X109878858Y-74702990D01*
X109497905Y-74702990D01*
X110974096Y-74179181D02*
X110497905Y-74179181D01*
X110450286Y-74655371D01*
X110497905Y-74607752D01*
X110593143Y-74560133D01*
X110831239Y-74560133D01*
X110926477Y-74607752D01*
X110974096Y-74655371D01*
X111021715Y-74750610D01*
X111021715Y-74988705D01*
X110974096Y-75083943D01*
X110926477Y-75131562D01*
X110831239Y-75179181D01*
X110593143Y-75179181D01*
X110497905Y-75131562D01*
X110450286Y-75083943D01*
X102855734Y-70911981D02*
X102522400Y-70435790D01*
X102284305Y-70911981D02*
X102284305Y-69911981D01*
X102665258Y-69911981D01*
X102760496Y-69959600D01*
X102808115Y-70007219D01*
X102855734Y-70102457D01*
X102855734Y-70245314D01*
X102808115Y-70340552D01*
X102760496Y-70388171D01*
X102665258Y-70435790D01*
X102284305Y-70435790D01*
X103189067Y-69911981D02*
X103855734Y-69911981D01*
X103427162Y-70911981D01*
X103820934Y-81681581D02*
X103487600Y-81205390D01*
X103249505Y-81681581D02*
X103249505Y-80681581D01*
X103630458Y-80681581D01*
X103725696Y-80729200D01*
X103773315Y-80776819D01*
X103820934Y-80872057D01*
X103820934Y-81014914D01*
X103773315Y-81110152D01*
X103725696Y-81157771D01*
X103630458Y-81205390D01*
X103249505Y-81205390D01*
X104392362Y-81110152D02*
X104297124Y-81062533D01*
X104249505Y-81014914D01*
X104201886Y-80919676D01*
X104201886Y-80872057D01*
X104249505Y-80776819D01*
X104297124Y-80729200D01*
X104392362Y-80681581D01*
X104582839Y-80681581D01*
X104678077Y-80729200D01*
X104725696Y-80776819D01*
X104773315Y-80872057D01*
X104773315Y-80919676D01*
X104725696Y-81014914D01*
X104678077Y-81062533D01*
X104582839Y-81110152D01*
X104392362Y-81110152D01*
X104297124Y-81157771D01*
X104249505Y-81205390D01*
X104201886Y-81300629D01*
X104201886Y-81491105D01*
X104249505Y-81586343D01*
X104297124Y-81633962D01*
X104392362Y-81681581D01*
X104582839Y-81681581D01*
X104678077Y-81633962D01*
X104725696Y-81586343D01*
X104773315Y-81491105D01*
X104773315Y-81300629D01*
X104725696Y-81205390D01*
X104678077Y-81157771D01*
X104582839Y-81110152D01*
X83627934Y-73678781D02*
X83294600Y-73202590D01*
X83056505Y-73678781D02*
X83056505Y-72678781D01*
X83437458Y-72678781D01*
X83532696Y-72726400D01*
X83580315Y-72774019D01*
X83627934Y-72869257D01*
X83627934Y-73012114D01*
X83580315Y-73107352D01*
X83532696Y-73154971D01*
X83437458Y-73202590D01*
X83056505Y-73202590D01*
X84104124Y-73678781D02*
X84294600Y-73678781D01*
X84389839Y-73631162D01*
X84437458Y-73583543D01*
X84532696Y-73440686D01*
X84580315Y-73250210D01*
X84580315Y-72869257D01*
X84532696Y-72774019D01*
X84485077Y-72726400D01*
X84389839Y-72678781D01*
X84199362Y-72678781D01*
X84104124Y-72726400D01*
X84056505Y-72774019D01*
X84008886Y-72869257D01*
X84008886Y-73107352D01*
X84056505Y-73202590D01*
X84104124Y-73250210D01*
X84199362Y-73297829D01*
X84389839Y-73297829D01*
X84485077Y-73250210D01*
X84532696Y-73202590D01*
X84580315Y-73107352D01*
X106680095Y-74179181D02*
X106680095Y-74988705D01*
X106727714Y-75083943D01*
X106775333Y-75131562D01*
X106870571Y-75179181D01*
X107061048Y-75179181D01*
X107156286Y-75131562D01*
X107203905Y-75083943D01*
X107251524Y-74988705D01*
X107251524Y-74179181D01*
X107680095Y-74274419D02*
X107727714Y-74226800D01*
X107822952Y-74179181D01*
X108061048Y-74179181D01*
X108156286Y-74226800D01*
X108203905Y-74274419D01*
X108251524Y-74369657D01*
X108251524Y-74464895D01*
X108203905Y-74607752D01*
X107632476Y-75179181D01*
X108251524Y-75179181D01*
X97726595Y-71207381D02*
X97726595Y-72016905D01*
X97774214Y-72112143D01*
X97821833Y-72159762D01*
X97917071Y-72207381D01*
X98107548Y-72207381D01*
X98202786Y-72159762D01*
X98250405Y-72112143D01*
X98298024Y-72016905D01*
X98298024Y-71207381D01*
X99202786Y-71540714D02*
X99202786Y-72207381D01*
X98964690Y-71159762D02*
X98726595Y-71874048D01*
X99345643Y-71874048D01*
X84867809Y-83796190D02*
X84867809Y-84272381D01*
X84534476Y-83272381D02*
X84867809Y-83796190D01*
X85201143Y-83272381D01*
X85486857Y-83367619D02*
X85534476Y-83320000D01*
X85629714Y-83272381D01*
X85867810Y-83272381D01*
X85963048Y-83320000D01*
X86010667Y-83367619D01*
X86058286Y-83462857D01*
X86058286Y-83558095D01*
X86010667Y-83700952D01*
X85439238Y-84272381D01*
X86058286Y-84272381D01*
X80772095Y-54824381D02*
X80772095Y-55633905D01*
X80819714Y-55729143D01*
X80867333Y-55776762D01*
X80962571Y-55824381D01*
X81153048Y-55824381D01*
X81248286Y-55776762D01*
X81295905Y-55729143D01*
X81343524Y-55633905D01*
X81343524Y-54824381D01*
X82343524Y-55824381D02*
X81772095Y-55824381D01*
X82057809Y-55824381D02*
X82057809Y-54824381D01*
X81962571Y-54967238D01*
X81867333Y-55062476D01*
X81772095Y-55110095D01*
X82732643Y-76049143D02*
X82685024Y-76096762D01*
X82542167Y-76144381D01*
X82446929Y-76144381D01*
X82304071Y-76096762D01*
X82208833Y-76001524D01*
X82161214Y-75906286D01*
X82113595Y-75715810D01*
X82113595Y-75572952D01*
X82161214Y-75382476D01*
X82208833Y-75287238D01*
X82304071Y-75192000D01*
X82446929Y-75144381D01*
X82542167Y-75144381D01*
X82685024Y-75192000D01*
X82732643Y-75239619D01*
X83113595Y-75239619D02*
X83161214Y-75192000D01*
X83256452Y-75144381D01*
X83494548Y-75144381D01*
X83589786Y-75192000D01*
X83637405Y-75239619D01*
X83685024Y-75334857D01*
X83685024Y-75430095D01*
X83637405Y-75572952D01*
X83065976Y-76144381D01*
X83685024Y-76144381D01*
X84018357Y-75144381D02*
X84637405Y-75144381D01*
X84304071Y-75525333D01*
X84446929Y-75525333D01*
X84542167Y-75572952D01*
X84589786Y-75620571D01*
X84637405Y-75715810D01*
X84637405Y-75953905D01*
X84589786Y-76049143D01*
X84542167Y-76096762D01*
X84446929Y-76144381D01*
X84161214Y-76144381D01*
X84065976Y-76096762D01*
X84018357Y-76049143D01*
X100107809Y-64105190D02*
X100107809Y-64581381D01*
X99774476Y-63581381D02*
X100107809Y-64105190D01*
X100441143Y-63581381D01*
X101298286Y-64581381D02*
X100726857Y-64581381D01*
X101012571Y-64581381D02*
X101012571Y-63581381D01*
X100917333Y-63724238D01*
X100822095Y-63819476D01*
X100726857Y-63867095D01*
%LPC*%
D13*
X72390000Y-57150000D03*
X72390000Y-100330000D03*
X115570000Y-100330000D03*
X115570000Y-57150000D03*
D14*
X85042210Y-65470440D03*
X82542210Y-65470440D03*
D15*
X82478800Y-69383142D03*
X85178800Y-69383142D03*
D14*
X85042210Y-67375440D03*
X82542210Y-67375440D03*
D16*
X105029000Y-71421000D03*
X105029000Y-74121000D03*
D17*
X74549000Y-75311000D03*
D18*
X73549000Y-76811000D03*
X74049000Y-76811000D03*
X74549000Y-76811000D03*
X75049000Y-76811000D03*
X75549000Y-76811000D03*
X75549000Y-73811000D03*
X75049000Y-73811000D03*
X74549000Y-73811000D03*
X74049000Y-73811000D03*
X73549000Y-73811000D03*
D14*
X97937000Y-64008000D03*
X100437000Y-64008000D03*
X103231000Y-64008000D03*
X100731000Y-64008000D03*
X87269000Y-63627000D03*
X89769000Y-63627000D03*
X85070000Y-63627000D03*
X82570000Y-63627000D03*
X81046000Y-89535000D03*
X83546000Y-89535000D03*
X74402000Y-79756000D03*
X71902000Y-79756000D03*
X74402000Y-81661000D03*
X71902000Y-81661000D03*
D19*
X71882000Y-74188000D03*
X71882000Y-76688000D03*
D14*
X73553000Y-70485000D03*
X76053000Y-70485000D03*
X100350000Y-59563000D03*
X102850000Y-59563000D03*
X100350000Y-57658000D03*
X102850000Y-57658000D03*
D20*
X79280000Y-55288000D03*
X79280000Y-57488000D03*
X88519000Y-91313000D03*
X88519000Y-89113000D03*
X86544864Y-91313000D03*
X86544864Y-89113000D03*
D21*
X94568800Y-59135000D03*
X93918800Y-59135000D03*
X93268800Y-59135000D03*
X92618800Y-59135000D03*
X91968800Y-59135000D03*
D22*
X95768800Y-59135000D03*
X90768800Y-59135000D03*
D23*
X96768800Y-56435000D03*
X89768800Y-56435000D03*
D24*
X76073000Y-88265000D03*
X76073000Y-93345000D03*
X70993000Y-93345000D03*
X70993000Y-88265000D03*
D25*
X73533000Y-90805000D03*
D24*
X70993000Y-67818000D03*
X70993000Y-62738000D03*
X76073000Y-62738000D03*
X76073000Y-67818000D03*
D25*
X73533000Y-65278000D03*
D26*
X89154000Y-101854000D03*
D27*
X89154000Y-99314000D03*
X91694000Y-101854000D03*
X91694000Y-99314000D03*
X94234000Y-101854000D03*
X94234000Y-99314000D03*
X96774000Y-101854000D03*
X96774000Y-99314000D03*
X99314000Y-101854000D03*
X99314000Y-99314000D03*
X101854000Y-101854000D03*
X101854000Y-99314000D03*
X104394000Y-101854000D03*
X104394000Y-99314000D03*
X106934000Y-101854000D03*
X106934000Y-99314000D03*
X109474000Y-101854000D03*
X109474000Y-99314000D03*
D26*
X78105000Y-84455000D03*
D27*
X75565000Y-84455000D03*
X73025000Y-84455000D03*
D15*
X102950000Y-61595000D03*
X100250000Y-61595000D03*
D28*
X78486000Y-90721000D03*
X78486000Y-92921000D03*
D16*
X77290000Y-55290000D03*
X77290000Y-57990000D03*
X88519000Y-93345000D03*
X88519000Y-96045000D03*
X86544864Y-93345000D03*
X86544864Y-96045000D03*
X110236000Y-76374000D03*
X110236000Y-79074000D03*
X102997000Y-72183000D03*
X102997000Y-74883000D03*
D15*
X108665000Y-81153000D03*
X105965000Y-81153000D03*
X85144600Y-71526400D03*
X82444600Y-71526400D03*
D29*
X106492000Y-79074000D03*
X107442000Y-79074000D03*
X108392000Y-79074000D03*
X108392000Y-76374000D03*
X106492000Y-76374000D03*
X107442000Y-76374000D03*
D18*
X96841000Y-71897000D03*
X96341000Y-71897000D03*
X95841000Y-71897000D03*
X95341000Y-71897000D03*
X94841000Y-71897000D03*
X94341000Y-71897000D03*
X93841000Y-71897000D03*
X93341000Y-71897000D03*
X92841000Y-71897000D03*
X92341000Y-71897000D03*
X91841000Y-71897000D03*
X91341000Y-71897000D03*
X90841000Y-71897000D03*
X90341000Y-71897000D03*
X89841000Y-71897000D03*
X89341000Y-71897000D03*
D30*
X87391000Y-73847000D03*
X87391000Y-74347000D03*
X87391000Y-74847000D03*
X87391000Y-75347000D03*
X87391000Y-75847000D03*
X87391000Y-76347000D03*
X87391000Y-76847000D03*
X87391000Y-77347000D03*
X87391000Y-77847000D03*
X87391000Y-78347000D03*
X87391000Y-78847000D03*
X87391000Y-79347000D03*
X87391000Y-79847000D03*
X87391000Y-80347000D03*
X87391000Y-80847000D03*
X87391000Y-81347000D03*
D18*
X89341000Y-83297000D03*
X89841000Y-83297000D03*
X90341000Y-83297000D03*
X90841000Y-83297000D03*
X91341000Y-83297000D03*
X91841000Y-83297000D03*
X92341000Y-83297000D03*
X92841000Y-83297000D03*
X93341000Y-83297000D03*
X93841000Y-83297000D03*
X94341000Y-83297000D03*
X94841000Y-83297000D03*
X95341000Y-83297000D03*
X95841000Y-83297000D03*
X96341000Y-83297000D03*
X96841000Y-83297000D03*
D30*
X98791000Y-81347000D03*
X98791000Y-80847000D03*
X98791000Y-80347000D03*
X98791000Y-79847000D03*
X98791000Y-79347000D03*
X98791000Y-78847000D03*
X98791000Y-78347000D03*
X98791000Y-77847000D03*
X98791000Y-77347000D03*
X98791000Y-76847000D03*
X98791000Y-76347000D03*
X98791000Y-75847000D03*
X98791000Y-75347000D03*
X98791000Y-74847000D03*
X98791000Y-74347000D03*
X98791000Y-73847000D03*
D31*
X83396000Y-87227000D03*
X83396000Y-84477000D03*
X81196000Y-84477000D03*
X81196000Y-87227000D03*
D32*
X84645500Y-54889000D03*
D33*
X84645500Y-61189000D03*
X86945500Y-61189000D03*
X82345500Y-61189000D03*
D19*
X85725000Y-76220000D03*
X85725000Y-78720000D03*
D34*
X97984000Y-66929000D03*
X103184000Y-66929000D03*
D35*
X88011000Y-85471000D03*
X84074000Y-78740000D03*
X92618800Y-60833000D03*
X92583000Y-61595000D03*
X70358000Y-80645000D03*
X92075034Y-70739000D03*
X77470000Y-70485000D03*
X91968800Y-60853800D03*
X91968800Y-61552200D03*
X104140000Y-58420000D03*
X82550000Y-82423000D03*
X107315000Y-80518000D03*
X80645000Y-64770000D03*
X80645000Y-63754000D03*
X80645000Y-62738000D03*
X79756000Y-59055000D03*
X88900000Y-74041000D03*
X96393000Y-82169000D03*
X97663000Y-79883000D03*
X96774000Y-73406000D03*
X94869000Y-73406000D03*
X73787000Y-75692000D03*
X73787000Y-74930000D03*
X75311000Y-75692000D03*
X75311000Y-74930000D03*
X78486000Y-94107000D03*
X84963000Y-89535000D03*
X73924000Y-77744014D03*
X110236000Y-74422000D03*
X104902000Y-75819000D03*
X97394492Y-81472010D03*
X93091000Y-81407000D03*
X93726000Y-74549000D03*
X96774000Y-74422000D03*
X86106000Y-85090000D03*
X86106000Y-80645012D03*
X85217004Y-85090000D03*
X85209216Y-80681165D03*
X92583000Y-95885000D03*
X93472000Y-95885000D03*
X94361000Y-95885000D03*
X95250000Y-95885000D03*
X96139000Y-95885000D03*
X97028000Y-95885000D03*
X97917000Y-95885000D03*
X98806000Y-95885000D03*
X94716000Y-70675500D03*
X81280000Y-74803008D03*
X74549000Y-72644000D03*
X81280004Y-72644000D03*
X75437994Y-72644000D03*
X81280006Y-73787000D03*
X76200000Y-73269000D03*
M02*
