M48
;DRILL file {KiCad 4.0.6} date 04/05/17 20:33:32
;FORMAT={-:-/ absolute / inch / decimal}
FMAT,2
INCH,TZ
T1C0.016
T2C0.020
T3C0.022
T4C0.039
T5C0.059
T6C0.067
T7C0.138
%
G90
G05
M72
T1
X2.77Y-3.175
X2.905Y-2.95
X2.905Y-2.98
X2.9104Y-3.0608
X2.935Y-2.86
X2.965Y-2.95
X2.965Y-2.98
X2.97Y-2.86
X3.Y-2.8846
X3.05Y-2.775
X3.09Y-3.705
X3.14Y-2.325
X3.175Y-2.47
X3.175Y-2.51
X3.175Y-2.55
X3.2Y-2.945
X3.2Y-2.86
X3.2Y-2.905
X3.25Y-3.245
X3.31Y-3.1
X3.345Y-3.525
X3.3547Y-3.1764
X3.355Y-3.35
X3.39Y-3.175
X3.39Y-3.35
X3.465Y-3.365
X3.5Y-2.915
X3.6208Y-2.3958
X3.6208Y-2.4233
X3.625Y-2.785
X3.645Y-2.425
X3.645Y-3.775
X3.6464Y-2.395
X3.665Y-3.205
X3.68Y-3.775
X3.69Y-2.935
X3.715Y-3.775
X3.729Y-2.7825
X3.735Y-2.89
X3.75Y-3.775
X3.785Y-3.775
X3.795Y-3.235
X3.81Y-2.89
X3.81Y-2.93
X3.82Y-3.775
X3.8344Y-3.2076
X3.845Y-3.145
X3.855Y-3.775
X3.89Y-3.775
X4.1Y-2.3
X4.13Y-2.985
X4.225Y-3.17
X4.34Y-2.93
T4
X2.875Y-3.325
X2.975Y-3.325
X3.075Y-3.325
X3.51Y-3.91
X3.51Y-4.01
X3.61Y-3.91
X3.61Y-4.01
X3.71Y-3.91
X3.71Y-4.01
X3.81Y-3.91
X3.81Y-4.01
X3.91Y-3.91
X3.91Y-4.01
X4.01Y-3.91
X4.01Y-4.01
X4.11Y-3.91
X4.11Y-4.01
X4.21Y-3.91
X4.21Y-4.01
X4.31Y-3.91
X4.31Y-4.01
T5
X2.895Y-2.57
X2.895Y-3.575
T6
X2.795Y-2.47
X2.795Y-2.67
X2.795Y-3.475
X2.795Y-3.675
X2.995Y-2.47
X2.995Y-2.67
X2.995Y-3.475
X2.995Y-3.675
T7
X2.85Y-2.25
X2.85Y-3.95
X4.55Y-2.25
X4.55Y-3.95
T2
X3.5342Y-2.2091G85X3.5342Y-2.2346
G05
X3.8098Y-2.2091G85X3.8098Y-2.2346
G05
T3
X3.5795Y-2.3281G85X3.5677Y-2.3281
G05
X3.7763Y-2.3281G85X3.7645Y-2.3281
G05
T0
M30
