%TF.GenerationSoftware,KiCad,Pcbnew,4.0.6*%
%TF.CreationDate,2017-04-05T20:33:35-07:00*%
%TF.ProjectId,wavegen,7761766567656E2E6B696361645F7063,rev?*%
%TF.FileFunction,Copper,L2,Bot,Signal*%
%FSLAX46Y46*%
G04 Gerber Fmt 4.6, Leading zero omitted, Abs format (unit mm)*
G04 Created by KiCad (PCBNEW 4.0.6) date 04/05/17 20:33:35*
%MOMM*%
%LPD*%
G01*
G04 APERTURE LIST*
%ADD10C,0.100000*%
%ADD11R,1.500000X1.250000*%
%ADD12R,1.250000X1.500000*%
%ADD13O,1.250000X0.950000*%
%ADD14O,1.000000X1.550000*%
%ADD15C,2.200000*%
%ADD16C,2.000000*%
%ADD17R,1.700000X1.700000*%
%ADD18O,1.700000X1.700000*%
%ADD19R,1.300000X1.500000*%
%ADD20C,0.600000*%
%ADD21C,0.250000*%
%ADD22C,0.508000*%
%ADD23C,0.254000*%
G04 APERTURE END LIST*
D10*
D11*
X92055000Y-83566000D03*
X89555000Y-83566000D03*
X92055000Y-85471000D03*
X89555000Y-85471000D03*
X92055000Y-87376000D03*
X89555000Y-87376000D03*
X92055000Y-81661000D03*
X89555000Y-81661000D03*
X92055000Y-79756000D03*
X89555000Y-79756000D03*
X92055000Y-77851000D03*
X89555000Y-77851000D03*
X92055000Y-75946000D03*
X89555000Y-75946000D03*
X92055000Y-74041000D03*
X89555000Y-74041000D03*
D12*
X73406000Y-78887000D03*
X73406000Y-81387000D03*
D13*
X95768800Y-59135000D03*
X90768800Y-59135000D03*
D14*
X96768800Y-56435000D03*
X89768800Y-56435000D03*
D15*
X76073000Y-88265000D03*
X76073000Y-93345000D03*
X70993000Y-93345000D03*
X70993000Y-88265000D03*
D16*
X73533000Y-90805000D03*
D15*
X70993000Y-67818000D03*
X70993000Y-62738000D03*
X76073000Y-62738000D03*
X76073000Y-67818000D03*
D16*
X73533000Y-65278000D03*
D17*
X89154000Y-101854000D03*
D18*
X89154000Y-99314000D03*
X91694000Y-101854000D03*
X91694000Y-99314000D03*
X94234000Y-101854000D03*
X94234000Y-99314000D03*
X96774000Y-101854000D03*
X96774000Y-99314000D03*
X99314000Y-101854000D03*
X99314000Y-99314000D03*
X101854000Y-101854000D03*
X101854000Y-99314000D03*
X104394000Y-101854000D03*
X104394000Y-99314000D03*
X106934000Y-101854000D03*
X106934000Y-99314000D03*
X109474000Y-101854000D03*
X109474000Y-99314000D03*
D17*
X78105000Y-84455000D03*
D18*
X75565000Y-84455000D03*
X73025000Y-84455000D03*
D19*
X96901000Y-65261500D03*
X96901000Y-67961500D03*
D20*
X88011000Y-85471000D03*
X84074000Y-78740000D03*
X92618800Y-60833000D03*
X92583000Y-61595000D03*
X70358000Y-80645000D03*
X92075034Y-70739000D03*
X77470000Y-70485000D03*
X91968800Y-60853800D03*
X91968800Y-61552200D03*
X104140000Y-58420000D03*
X82550000Y-82423000D03*
X107315000Y-80518000D03*
X80645000Y-64770000D03*
X80645000Y-63754000D03*
X80645000Y-62738000D03*
X79756000Y-59055000D03*
X88900000Y-74041000D03*
X96393000Y-82169000D03*
X97663000Y-79883000D03*
X96774000Y-73406000D03*
X94869000Y-73406000D03*
X73787000Y-75692000D03*
X73787000Y-74930000D03*
X75311000Y-75692000D03*
X75311000Y-74930000D03*
X78486000Y-94107000D03*
X84963000Y-89535000D03*
X73924000Y-77744014D03*
X110236000Y-74422000D03*
X104902000Y-75819000D03*
X97394492Y-81472010D03*
X93091000Y-81407000D03*
X93726000Y-74549000D03*
X96774000Y-74422000D03*
X86106000Y-85090000D03*
X86106000Y-80645012D03*
X85217004Y-85090000D03*
X85209216Y-80681165D03*
X92583000Y-95885000D03*
X93472000Y-95885000D03*
X94361000Y-95885000D03*
X95250000Y-95885000D03*
X96139000Y-95885000D03*
X97028000Y-95885000D03*
X97917000Y-95885000D03*
X98806000Y-95885000D03*
X94716000Y-70675500D03*
X81280000Y-74803008D03*
X74549000Y-72644000D03*
X81280004Y-72644000D03*
X75437994Y-72644000D03*
X81280006Y-73787000D03*
X76200000Y-73269000D03*
D21*
X78486000Y-94107000D02*
X78148001Y-94444999D01*
X78148001Y-94444999D02*
X77172999Y-94444999D01*
X77172999Y-94444999D02*
X76073000Y-93345000D01*
X88392000Y-74041000D02*
X89555000Y-74041000D01*
X88519000Y-77851000D02*
X89555000Y-77851000D01*
X70993000Y-88265000D02*
X70993000Y-89820634D01*
X70993000Y-89820634D02*
X70993000Y-93345000D01*
X70993000Y-88265000D02*
X76073000Y-88265000D01*
X70993000Y-93345000D02*
X72548634Y-93345000D01*
X72548634Y-93345000D02*
X76073000Y-93345000D01*
X84963000Y-89535000D02*
X85090000Y-89535000D01*
X73406000Y-78887000D02*
X73406000Y-78262014D01*
X73406000Y-78262014D02*
X73924000Y-77744014D01*
D22*
X104902000Y-75819000D02*
X106299000Y-74422000D01*
X106299000Y-74422000D02*
X110236000Y-74422000D01*
D21*
X97329482Y-81407000D02*
X97394492Y-81472010D01*
X93091000Y-81407000D02*
X97329482Y-81407000D01*
X93091000Y-81407000D02*
X92309000Y-81407000D01*
X96647000Y-74549000D02*
X93726000Y-74549000D01*
X93726000Y-74549000D02*
X92563000Y-74549000D01*
X92309000Y-81407000D02*
X92055000Y-81661000D01*
X92563000Y-74549000D02*
X92055000Y-74041000D01*
X96774000Y-74422000D02*
X96647000Y-74549000D01*
X92055000Y-74041000D02*
X92055000Y-75946000D01*
X92055000Y-77851000D02*
X92055000Y-75946000D01*
X92055000Y-79756000D02*
X92055000Y-77851000D01*
X92055000Y-81661000D02*
X92055000Y-79756000D01*
X92055000Y-83566000D02*
X92055000Y-81661000D01*
X92055000Y-85471000D02*
X92055000Y-83566000D01*
X92055000Y-87376000D02*
X92055000Y-85471000D01*
X86106000Y-80645012D02*
X86106000Y-85090000D01*
X85217004Y-85090000D02*
X85217004Y-80688953D01*
X85217004Y-80688953D02*
X85209216Y-80681165D01*
X92583000Y-95885000D02*
X92583000Y-96647000D01*
X92583000Y-96647000D02*
X90518999Y-98711001D01*
X90518999Y-98711001D02*
X90518999Y-100678999D01*
X90518999Y-100678999D02*
X91694000Y-101854000D01*
X93472000Y-95885000D02*
X93472000Y-96774000D01*
X93472000Y-96774000D02*
X93058999Y-97187001D01*
X93058999Y-97187001D02*
X93058999Y-100678999D01*
X93058999Y-100678999D02*
X94234000Y-101854000D01*
X94361000Y-95885000D02*
X95409001Y-96933001D01*
X95409001Y-96933001D02*
X95409001Y-100489001D01*
X95924001Y-101004001D02*
X96774000Y-101854000D01*
X95409001Y-100489001D02*
X95924001Y-101004001D01*
X95250000Y-95885000D02*
X98138999Y-98773999D01*
X98138999Y-98773999D02*
X98138999Y-100678999D01*
X98138999Y-100678999D02*
X99314000Y-101854000D01*
X96139000Y-95885000D02*
X98392999Y-98138999D01*
X98392999Y-98138999D02*
X99878001Y-98138999D01*
X99878001Y-98138999D02*
X100489001Y-98749999D01*
X100489001Y-98749999D02*
X100489001Y-100489001D01*
X100489001Y-100489001D02*
X101854000Y-101854000D01*
X97028000Y-95885000D02*
X98806000Y-97663000D01*
X98806000Y-97663000D02*
X102108000Y-97663000D01*
X102108000Y-97663000D02*
X103029001Y-98584001D01*
X103029001Y-98584001D02*
X103029001Y-100489001D01*
X103029001Y-100489001D02*
X104394000Y-101854000D01*
X105569001Y-100489001D02*
X106084001Y-101004001D01*
X97917000Y-95885000D02*
X99187000Y-97155000D01*
X99187000Y-97155000D02*
X103974002Y-97155000D01*
X103974002Y-97155000D02*
X105569001Y-98749999D01*
X105569001Y-98749999D02*
X105569001Y-100489001D01*
X106084001Y-101004001D02*
X106934000Y-101854000D01*
X98806000Y-95885000D02*
X99568000Y-96647000D01*
X99568000Y-96647000D02*
X106045000Y-96647000D01*
X106045000Y-96647000D02*
X108298999Y-98900999D01*
X108298999Y-98900999D02*
X108298999Y-100678999D01*
X108298999Y-100678999D02*
X109474000Y-101854000D01*
X94716000Y-70675500D02*
X95925999Y-69465501D01*
X95925999Y-69465501D02*
X95925999Y-66336501D01*
X95925999Y-66336501D02*
X96901000Y-65361500D01*
X96901000Y-65361500D02*
X96901000Y-65261500D01*
X94716000Y-70675500D02*
X94716000Y-70558000D01*
X80855736Y-74803008D02*
X81280000Y-74803008D01*
X76708008Y-74803008D02*
X80855736Y-74803008D01*
X74549000Y-72644000D02*
X76708008Y-74803008D01*
X75437994Y-72644000D02*
X81280004Y-72644000D01*
X76200000Y-73269000D02*
X76718000Y-73787000D01*
X80855742Y-73787000D02*
X81280006Y-73787000D01*
X76718000Y-73787000D02*
X80855742Y-73787000D01*
D23*
G36*
X113538000Y-55824393D02*
X113185415Y-56673513D01*
X113184587Y-57622325D01*
X113538000Y-58477651D01*
X113538000Y-59055000D01*
X113548006Y-59104410D01*
X113576447Y-59146035D01*
X113618841Y-59173315D01*
X113665000Y-59182000D01*
X114244393Y-59182000D01*
X115093513Y-59534585D01*
X116042325Y-59535413D01*
X116897651Y-59182000D01*
X118618000Y-59182000D01*
X118618000Y-98298000D01*
X116895607Y-98298000D01*
X116046487Y-97945415D01*
X115097675Y-97944587D01*
X114220771Y-98306916D01*
X113549274Y-98977242D01*
X113185415Y-99853513D01*
X113184587Y-100802325D01*
X113538000Y-101657651D01*
X113538000Y-103378000D01*
X74422000Y-103378000D01*
X74422000Y-101655607D01*
X74692570Y-101004000D01*
X87656560Y-101004000D01*
X87656560Y-102704000D01*
X87700838Y-102939317D01*
X87839910Y-103155441D01*
X88052110Y-103300431D01*
X88304000Y-103351440D01*
X90004000Y-103351440D01*
X90239317Y-103307162D01*
X90455441Y-103168090D01*
X90600431Y-102955890D01*
X90614086Y-102888459D01*
X90643946Y-102933147D01*
X91125715Y-103255054D01*
X91694000Y-103368093D01*
X92262285Y-103255054D01*
X92744054Y-102933147D01*
X92964000Y-102603974D01*
X93183946Y-102933147D01*
X93665715Y-103255054D01*
X94234000Y-103368093D01*
X94802285Y-103255054D01*
X95284054Y-102933147D01*
X95504000Y-102603974D01*
X95723946Y-102933147D01*
X96205715Y-103255054D01*
X96774000Y-103368093D01*
X97342285Y-103255054D01*
X97824054Y-102933147D01*
X98044000Y-102603974D01*
X98263946Y-102933147D01*
X98745715Y-103255054D01*
X99314000Y-103368093D01*
X99882285Y-103255054D01*
X100364054Y-102933147D01*
X100584000Y-102603974D01*
X100803946Y-102933147D01*
X101285715Y-103255054D01*
X101854000Y-103368093D01*
X102422285Y-103255054D01*
X102904054Y-102933147D01*
X103124000Y-102603974D01*
X103343946Y-102933147D01*
X103825715Y-103255054D01*
X104394000Y-103368093D01*
X104962285Y-103255054D01*
X105444054Y-102933147D01*
X105664000Y-102603974D01*
X105883946Y-102933147D01*
X106365715Y-103255054D01*
X106934000Y-103368093D01*
X107502285Y-103255054D01*
X107984054Y-102933147D01*
X108204000Y-102603974D01*
X108423946Y-102933147D01*
X108905715Y-103255054D01*
X109474000Y-103368093D01*
X110042285Y-103255054D01*
X110524054Y-102933147D01*
X110845961Y-102451378D01*
X110959000Y-101883093D01*
X110959000Y-101824907D01*
X110845961Y-101256622D01*
X110524054Y-100774853D01*
X110238422Y-100584000D01*
X110524054Y-100393147D01*
X110845961Y-99911378D01*
X110959000Y-99343093D01*
X110959000Y-99284907D01*
X110845961Y-98716622D01*
X110524054Y-98234853D01*
X110042285Y-97912946D01*
X109474000Y-97799907D01*
X108905715Y-97912946D01*
X108594017Y-98121215D01*
X106582401Y-96109599D01*
X106335839Y-95944852D01*
X106045000Y-95887000D01*
X99882802Y-95887000D01*
X99741122Y-95745320D01*
X99741162Y-95699833D01*
X99599117Y-95356057D01*
X99336327Y-95092808D01*
X98992799Y-94950162D01*
X98620833Y-94949838D01*
X98361286Y-95057080D01*
X98103799Y-94950162D01*
X97731833Y-94949838D01*
X97472286Y-95057080D01*
X97214799Y-94950162D01*
X96842833Y-94949838D01*
X96583286Y-95057080D01*
X96325799Y-94950162D01*
X95953833Y-94949838D01*
X95694286Y-95057080D01*
X95436799Y-94950162D01*
X95064833Y-94949838D01*
X94805286Y-95057080D01*
X94547799Y-94950162D01*
X94175833Y-94949838D01*
X93916286Y-95057080D01*
X93658799Y-94950162D01*
X93286833Y-94949838D01*
X93027286Y-95057080D01*
X92769799Y-94950162D01*
X92397833Y-94949838D01*
X92054057Y-95091883D01*
X91790808Y-95354673D01*
X91648162Y-95698201D01*
X91647838Y-96070167D01*
X91775665Y-96379533D01*
X90021335Y-98133863D01*
X89920924Y-98042355D01*
X89510890Y-97872524D01*
X89281000Y-97993845D01*
X89281000Y-99187000D01*
X89301000Y-99187000D01*
X89301000Y-99441000D01*
X89281000Y-99441000D01*
X89281000Y-99461000D01*
X89027000Y-99461000D01*
X89027000Y-99441000D01*
X87833181Y-99441000D01*
X87712514Y-99670892D01*
X87958817Y-100195358D01*
X88164504Y-100382808D01*
X88068683Y-100400838D01*
X87852559Y-100539910D01*
X87707569Y-100752110D01*
X87656560Y-101004000D01*
X74692570Y-101004000D01*
X74774585Y-100806487D01*
X74775413Y-99857675D01*
X74413084Y-98980771D01*
X74389463Y-98957108D01*
X87712514Y-98957108D01*
X87833181Y-99187000D01*
X89027000Y-99187000D01*
X89027000Y-97993845D01*
X88797110Y-97872524D01*
X88387076Y-98042355D01*
X87958817Y-98432642D01*
X87712514Y-98957108D01*
X74389463Y-98957108D01*
X73742758Y-98309274D01*
X72866487Y-97945415D01*
X71917675Y-97944587D01*
X71062349Y-98298000D01*
X69342000Y-98298000D01*
X69342000Y-94569868D01*
X69947737Y-94569868D01*
X70058641Y-94847099D01*
X70704593Y-95090323D01*
X71394453Y-95067836D01*
X71927359Y-94847099D01*
X72038263Y-94569868D01*
X75027737Y-94569868D01*
X75138641Y-94847099D01*
X75784593Y-95090323D01*
X76474453Y-95067836D01*
X77007359Y-94847099D01*
X77118263Y-94569868D01*
X76073000Y-93524605D01*
X75027737Y-94569868D01*
X72038263Y-94569868D01*
X70993000Y-93524605D01*
X69947737Y-94569868D01*
X69342000Y-94569868D01*
X69342000Y-93919880D01*
X69490901Y-94279359D01*
X69768132Y-94390263D01*
X70813395Y-93345000D01*
X71172605Y-93345000D01*
X72217868Y-94390263D01*
X72495099Y-94279359D01*
X72738323Y-93633407D01*
X72719521Y-93056593D01*
X74327677Y-93056593D01*
X74350164Y-93746453D01*
X74570901Y-94279359D01*
X74848132Y-94390263D01*
X75893395Y-93345000D01*
X76252605Y-93345000D01*
X77297868Y-94390263D01*
X77575099Y-94279359D01*
X77818323Y-93633407D01*
X77795836Y-92943547D01*
X77575099Y-92410641D01*
X77297868Y-92299737D01*
X76252605Y-93345000D01*
X75893395Y-93345000D01*
X74848132Y-92299737D01*
X74570901Y-92410641D01*
X74327677Y-93056593D01*
X72719521Y-93056593D01*
X72715836Y-92943547D01*
X72495099Y-92410641D01*
X72217868Y-92299737D01*
X71172605Y-93345000D01*
X70813395Y-93345000D01*
X69768132Y-92299737D01*
X69490901Y-92410641D01*
X69342000Y-92806091D01*
X69342000Y-92120132D01*
X69947737Y-92120132D01*
X70993000Y-93165395D01*
X72038263Y-92120132D01*
X71927359Y-91842901D01*
X71281407Y-91599677D01*
X70591547Y-91622164D01*
X70058641Y-91842901D01*
X69947737Y-92120132D01*
X69342000Y-92120132D01*
X69342000Y-91128795D01*
X71897716Y-91128795D01*
X72146106Y-91729943D01*
X72605637Y-92190278D01*
X73206352Y-92439716D01*
X73856795Y-92440284D01*
X74457943Y-92191894D01*
X74529830Y-92120132D01*
X75027737Y-92120132D01*
X76073000Y-93165395D01*
X77118263Y-92120132D01*
X77007359Y-91842901D01*
X76361407Y-91599677D01*
X75671547Y-91622164D01*
X75138641Y-91842901D01*
X75027737Y-92120132D01*
X74529830Y-92120132D01*
X74918278Y-91732363D01*
X75167716Y-91131648D01*
X75168284Y-90481205D01*
X74919894Y-89880057D01*
X74530387Y-89489868D01*
X75027737Y-89489868D01*
X75138641Y-89767099D01*
X75784593Y-90010323D01*
X76474453Y-89987836D01*
X77007359Y-89767099D01*
X77118263Y-89489868D01*
X76073000Y-88444605D01*
X75027737Y-89489868D01*
X74530387Y-89489868D01*
X74460363Y-89419722D01*
X73859648Y-89170284D01*
X73209205Y-89169716D01*
X72608057Y-89418106D01*
X72147722Y-89877637D01*
X71898284Y-90478352D01*
X71897716Y-91128795D01*
X69342000Y-91128795D01*
X69342000Y-89489868D01*
X69947737Y-89489868D01*
X70058641Y-89767099D01*
X70704593Y-90010323D01*
X71394453Y-89987836D01*
X71927359Y-89767099D01*
X72038263Y-89489868D01*
X70993000Y-88444605D01*
X69947737Y-89489868D01*
X69342000Y-89489868D01*
X69342000Y-88839880D01*
X69490901Y-89199359D01*
X69768132Y-89310263D01*
X70813395Y-88265000D01*
X71172605Y-88265000D01*
X72217868Y-89310263D01*
X72495099Y-89199359D01*
X72738323Y-88553407D01*
X72719521Y-87976593D01*
X74327677Y-87976593D01*
X74350164Y-88666453D01*
X74570901Y-89199359D01*
X74848132Y-89310263D01*
X75893395Y-88265000D01*
X76252605Y-88265000D01*
X77297868Y-89310263D01*
X77575099Y-89199359D01*
X77818323Y-88553407D01*
X77795836Y-87863547D01*
X77712249Y-87661750D01*
X88170000Y-87661750D01*
X88170000Y-88127310D01*
X88266673Y-88360699D01*
X88445302Y-88539327D01*
X88678691Y-88636000D01*
X89269250Y-88636000D01*
X89428000Y-88477250D01*
X89428000Y-87503000D01*
X88328750Y-87503000D01*
X88170000Y-87661750D01*
X77712249Y-87661750D01*
X77575099Y-87330641D01*
X77297868Y-87219737D01*
X76252605Y-88265000D01*
X75893395Y-88265000D01*
X74848132Y-87219737D01*
X74570901Y-87330641D01*
X74327677Y-87976593D01*
X72719521Y-87976593D01*
X72715836Y-87863547D01*
X72495099Y-87330641D01*
X72217868Y-87219737D01*
X71172605Y-88265000D01*
X70813395Y-88265000D01*
X69768132Y-87219737D01*
X69490901Y-87330641D01*
X69342000Y-87726091D01*
X69342000Y-87040132D01*
X69947737Y-87040132D01*
X70993000Y-88085395D01*
X72038263Y-87040132D01*
X75027737Y-87040132D01*
X76073000Y-88085395D01*
X77118263Y-87040132D01*
X77007359Y-86762901D01*
X76361407Y-86519677D01*
X75671547Y-86542164D01*
X75138641Y-86762901D01*
X75027737Y-87040132D01*
X72038263Y-87040132D01*
X71927359Y-86762901D01*
X71281407Y-86519677D01*
X70591547Y-86542164D01*
X70058641Y-86762901D01*
X69947737Y-87040132D01*
X69342000Y-87040132D01*
X69342000Y-84425907D01*
X71540000Y-84425907D01*
X71540000Y-84484093D01*
X71653039Y-85052378D01*
X71974946Y-85534147D01*
X72456715Y-85856054D01*
X73025000Y-85969093D01*
X73593285Y-85856054D01*
X74075054Y-85534147D01*
X74295000Y-85204974D01*
X74514946Y-85534147D01*
X74996715Y-85856054D01*
X75565000Y-85969093D01*
X76133285Y-85856054D01*
X76615054Y-85534147D01*
X76642850Y-85492548D01*
X76651838Y-85540317D01*
X76790910Y-85756441D01*
X77003110Y-85901431D01*
X77255000Y-85952440D01*
X78955000Y-85952440D01*
X79190317Y-85908162D01*
X79406441Y-85769090D01*
X79551431Y-85556890D01*
X79602440Y-85305000D01*
X79602440Y-83605000D01*
X79558162Y-83369683D01*
X79419090Y-83153559D01*
X79206890Y-83008569D01*
X78955000Y-82957560D01*
X77255000Y-82957560D01*
X77019683Y-83001838D01*
X76803559Y-83140910D01*
X76658569Y-83353110D01*
X76644914Y-83420541D01*
X76615054Y-83375853D01*
X76133285Y-83053946D01*
X75565000Y-82940907D01*
X74996715Y-83053946D01*
X74514946Y-83375853D01*
X74295000Y-83705026D01*
X74075054Y-83375853D01*
X73593285Y-83053946D01*
X73025000Y-82940907D01*
X72456715Y-83053946D01*
X71974946Y-83375853D01*
X71653039Y-83857622D01*
X71540000Y-84425907D01*
X69342000Y-84425907D01*
X69342000Y-81672750D01*
X72146000Y-81672750D01*
X72146000Y-82263309D01*
X72242673Y-82496698D01*
X72421301Y-82675327D01*
X72654690Y-82772000D01*
X73120250Y-82772000D01*
X73279000Y-82613250D01*
X73279000Y-81514000D01*
X73533000Y-81514000D01*
X73533000Y-82613250D01*
X73691750Y-82772000D01*
X74157310Y-82772000D01*
X74390699Y-82675327D01*
X74569327Y-82496698D01*
X74666000Y-82263309D01*
X74666000Y-81672750D01*
X74507250Y-81514000D01*
X73533000Y-81514000D01*
X73279000Y-81514000D01*
X72304750Y-81514000D01*
X72146000Y-81672750D01*
X69342000Y-81672750D01*
X69342000Y-78137000D01*
X72133560Y-78137000D01*
X72133560Y-79637000D01*
X72177838Y-79872317D01*
X72316910Y-80088441D01*
X72385006Y-80134969D01*
X72242673Y-80277302D01*
X72146000Y-80510691D01*
X72146000Y-81101250D01*
X72304750Y-81260000D01*
X73279000Y-81260000D01*
X73279000Y-81240000D01*
X73533000Y-81240000D01*
X73533000Y-81260000D01*
X74507250Y-81260000D01*
X74666000Y-81101250D01*
X74666000Y-80866332D01*
X84274054Y-80866332D01*
X84416099Y-81210108D01*
X84457004Y-81251084D01*
X84457004Y-84527537D01*
X84424812Y-84559673D01*
X84282166Y-84903201D01*
X84281842Y-85275167D01*
X84423887Y-85618943D01*
X84686677Y-85882192D01*
X85030205Y-86024838D01*
X85402171Y-86025162D01*
X85661716Y-85917920D01*
X85919201Y-86024838D01*
X86291167Y-86025162D01*
X86634943Y-85883117D01*
X86761530Y-85756750D01*
X88170000Y-85756750D01*
X88170000Y-86222310D01*
X88253336Y-86423500D01*
X88170000Y-86624690D01*
X88170000Y-87090250D01*
X88328750Y-87249000D01*
X89428000Y-87249000D01*
X89428000Y-85598000D01*
X88328750Y-85598000D01*
X88170000Y-85756750D01*
X86761530Y-85756750D01*
X86898192Y-85620327D01*
X87040838Y-85276799D01*
X87041162Y-84904833D01*
X86899117Y-84561057D01*
X86866000Y-84527882D01*
X86866000Y-83851750D01*
X88170000Y-83851750D01*
X88170000Y-84317310D01*
X88253336Y-84518500D01*
X88170000Y-84719690D01*
X88170000Y-85185250D01*
X88328750Y-85344000D01*
X89428000Y-85344000D01*
X89428000Y-83693000D01*
X88328750Y-83693000D01*
X88170000Y-83851750D01*
X86866000Y-83851750D01*
X86866000Y-81946750D01*
X88170000Y-81946750D01*
X88170000Y-82412310D01*
X88253336Y-82613500D01*
X88170000Y-82814690D01*
X88170000Y-83280250D01*
X88328750Y-83439000D01*
X89428000Y-83439000D01*
X89428000Y-81788000D01*
X88328750Y-81788000D01*
X88170000Y-81946750D01*
X86866000Y-81946750D01*
X86866000Y-81207475D01*
X86898192Y-81175339D01*
X87040838Y-80831811D01*
X87041162Y-80459845D01*
X86899117Y-80116069D01*
X86824928Y-80041750D01*
X88170000Y-80041750D01*
X88170000Y-80507310D01*
X88253336Y-80708500D01*
X88170000Y-80909690D01*
X88170000Y-81375250D01*
X88328750Y-81534000D01*
X89428000Y-81534000D01*
X89428000Y-79883000D01*
X88328750Y-79883000D01*
X88170000Y-80041750D01*
X86824928Y-80041750D01*
X86636327Y-79852820D01*
X86292799Y-79710174D01*
X85920833Y-79709850D01*
X85613744Y-79836736D01*
X85396015Y-79746327D01*
X85024049Y-79746003D01*
X84680273Y-79888048D01*
X84417024Y-80150838D01*
X84274378Y-80494366D01*
X84274054Y-80866332D01*
X74666000Y-80866332D01*
X74666000Y-80510691D01*
X74569327Y-80277302D01*
X74428090Y-80136064D01*
X74482441Y-80101090D01*
X74627431Y-79888890D01*
X74678440Y-79637000D01*
X74678440Y-78312027D01*
X74716192Y-78274341D01*
X74773325Y-78136750D01*
X88170000Y-78136750D01*
X88170000Y-78602310D01*
X88253336Y-78803500D01*
X88170000Y-79004690D01*
X88170000Y-79470250D01*
X88328750Y-79629000D01*
X89428000Y-79629000D01*
X89428000Y-77978000D01*
X88328750Y-77978000D01*
X88170000Y-78136750D01*
X74773325Y-78136750D01*
X74858838Y-77930813D01*
X74859162Y-77558847D01*
X74717117Y-77215071D01*
X74454327Y-76951822D01*
X74110799Y-76809176D01*
X73738833Y-76808852D01*
X73395057Y-76950897D01*
X73131808Y-77213687D01*
X73017255Y-77489560D01*
X72781000Y-77489560D01*
X72545683Y-77533838D01*
X72329559Y-77672910D01*
X72184569Y-77885110D01*
X72133560Y-78137000D01*
X69342000Y-78137000D01*
X69342000Y-76231750D01*
X88170000Y-76231750D01*
X88170000Y-76697310D01*
X88253336Y-76898500D01*
X88170000Y-77099690D01*
X88170000Y-77565250D01*
X88328750Y-77724000D01*
X89428000Y-77724000D01*
X89428000Y-76073000D01*
X88328750Y-76073000D01*
X88170000Y-76231750D01*
X69342000Y-76231750D01*
X69342000Y-72829167D01*
X73613838Y-72829167D01*
X73755883Y-73172943D01*
X74018673Y-73436192D01*
X74362201Y-73578838D01*
X74409077Y-73578879D01*
X76170607Y-75340409D01*
X76417168Y-75505156D01*
X76708008Y-75563008D01*
X80717537Y-75563008D01*
X80749673Y-75595200D01*
X81093201Y-75737846D01*
X81465167Y-75738170D01*
X81808943Y-75596125D01*
X82072192Y-75333335D01*
X82214838Y-74989807D01*
X82215162Y-74617841D01*
X82094886Y-74326750D01*
X88170000Y-74326750D01*
X88170000Y-74792310D01*
X88253336Y-74993500D01*
X88170000Y-75194690D01*
X88170000Y-75660250D01*
X88328750Y-75819000D01*
X89428000Y-75819000D01*
X89428000Y-74168000D01*
X88328750Y-74168000D01*
X88170000Y-74326750D01*
X82094886Y-74326750D01*
X82081618Y-74294640D01*
X82214844Y-73973799D01*
X82215168Y-73601833D01*
X82086194Y-73289690D01*
X88170000Y-73289690D01*
X88170000Y-73755250D01*
X88328750Y-73914000D01*
X89428000Y-73914000D01*
X89428000Y-72939750D01*
X89682000Y-72939750D01*
X89682000Y-73914000D01*
X89702000Y-73914000D01*
X89702000Y-74168000D01*
X89682000Y-74168000D01*
X89682000Y-75819000D01*
X89702000Y-75819000D01*
X89702000Y-76073000D01*
X89682000Y-76073000D01*
X89682000Y-77724000D01*
X89702000Y-77724000D01*
X89702000Y-77978000D01*
X89682000Y-77978000D01*
X89682000Y-79629000D01*
X89702000Y-79629000D01*
X89702000Y-79883000D01*
X89682000Y-79883000D01*
X89682000Y-81534000D01*
X89702000Y-81534000D01*
X89702000Y-81788000D01*
X89682000Y-81788000D01*
X89682000Y-83439000D01*
X89702000Y-83439000D01*
X89702000Y-83693000D01*
X89682000Y-83693000D01*
X89682000Y-85344000D01*
X89702000Y-85344000D01*
X89702000Y-85598000D01*
X89682000Y-85598000D01*
X89682000Y-87249000D01*
X89702000Y-87249000D01*
X89702000Y-87503000D01*
X89682000Y-87503000D01*
X89682000Y-88477250D01*
X89840750Y-88636000D01*
X90431309Y-88636000D01*
X90664698Y-88539327D01*
X90805936Y-88398090D01*
X90840910Y-88452441D01*
X91053110Y-88597431D01*
X91305000Y-88648440D01*
X92805000Y-88648440D01*
X93040317Y-88604162D01*
X93256441Y-88465090D01*
X93401431Y-88252890D01*
X93452440Y-88001000D01*
X93452440Y-86751000D01*
X93408162Y-86515683D01*
X93349293Y-86424197D01*
X93401431Y-86347890D01*
X93452440Y-86096000D01*
X93452440Y-84846000D01*
X93408162Y-84610683D01*
X93349293Y-84519197D01*
X93401431Y-84442890D01*
X93452440Y-84191000D01*
X93452440Y-82941000D01*
X93408162Y-82705683D01*
X93349293Y-82614197D01*
X93401431Y-82537890D01*
X93452440Y-82286000D01*
X93452440Y-82269328D01*
X93619943Y-82200117D01*
X93653118Y-82167000D01*
X96767132Y-82167000D01*
X96864165Y-82264202D01*
X97207693Y-82406848D01*
X97579659Y-82407172D01*
X97923435Y-82265127D01*
X98186684Y-82002337D01*
X98329330Y-81658809D01*
X98329654Y-81286843D01*
X98187609Y-80943067D01*
X97924819Y-80679818D01*
X97581291Y-80537172D01*
X97209325Y-80536848D01*
X96942736Y-80647000D01*
X93653463Y-80647000D01*
X93621327Y-80614808D01*
X93421865Y-80531984D01*
X93452440Y-80381000D01*
X93452440Y-79131000D01*
X93408162Y-78895683D01*
X93349293Y-78804197D01*
X93401431Y-78727890D01*
X93452440Y-78476000D01*
X93452440Y-77226000D01*
X93408162Y-76990683D01*
X93349293Y-76899197D01*
X93401431Y-76822890D01*
X93452440Y-76571000D01*
X93452440Y-76004167D01*
X103966838Y-76004167D01*
X104108883Y-76347943D01*
X104371673Y-76611192D01*
X104715201Y-76753838D01*
X105087167Y-76754162D01*
X105430943Y-76612117D01*
X105694192Y-76349327D01*
X105740549Y-76237687D01*
X106667236Y-75311000D01*
X109938811Y-75311000D01*
X110049201Y-75356838D01*
X110421167Y-75357162D01*
X110764943Y-75215117D01*
X111028192Y-74952327D01*
X111170838Y-74608799D01*
X111171162Y-74236833D01*
X111029117Y-73893057D01*
X110766327Y-73629808D01*
X110422799Y-73487162D01*
X110050833Y-73486838D01*
X109939112Y-73533000D01*
X106299000Y-73533000D01*
X105958794Y-73600671D01*
X105670382Y-73793382D01*
X104483526Y-74980238D01*
X104373057Y-75025883D01*
X104109808Y-75288673D01*
X103967162Y-75632201D01*
X103966838Y-76004167D01*
X93452440Y-76004167D01*
X93452440Y-75447812D01*
X93539201Y-75483838D01*
X93911167Y-75484162D01*
X94254943Y-75342117D01*
X94288118Y-75309000D01*
X96471995Y-75309000D01*
X96587201Y-75356838D01*
X96959167Y-75357162D01*
X97302943Y-75215117D01*
X97566192Y-74952327D01*
X97708838Y-74608799D01*
X97709162Y-74236833D01*
X97567117Y-73893057D01*
X97304327Y-73629808D01*
X96960799Y-73487162D01*
X96588833Y-73486838D01*
X96245057Y-73628883D01*
X96084660Y-73789000D01*
X94288463Y-73789000D01*
X94256327Y-73756808D01*
X93912799Y-73614162D01*
X93540833Y-73613838D01*
X93452440Y-73650361D01*
X93452440Y-73416000D01*
X93408162Y-73180683D01*
X93269090Y-72964559D01*
X93056890Y-72819569D01*
X92805000Y-72768560D01*
X91305000Y-72768560D01*
X91069683Y-72812838D01*
X90853559Y-72951910D01*
X90807031Y-73020006D01*
X90664698Y-72877673D01*
X90431309Y-72781000D01*
X89840750Y-72781000D01*
X89682000Y-72939750D01*
X89428000Y-72939750D01*
X89269250Y-72781000D01*
X88678691Y-72781000D01*
X88445302Y-72877673D01*
X88266673Y-73056301D01*
X88170000Y-73289690D01*
X82086194Y-73289690D01*
X82073123Y-73258057D01*
X82030795Y-73215655D01*
X82072196Y-73174327D01*
X82214842Y-72830799D01*
X82215166Y-72458833D01*
X82073121Y-72115057D01*
X81810331Y-71851808D01*
X81466803Y-71709162D01*
X81094837Y-71708838D01*
X80751061Y-71850883D01*
X80717886Y-71884000D01*
X76000457Y-71884000D01*
X75968321Y-71851808D01*
X75624793Y-71709162D01*
X75252827Y-71708838D01*
X74993283Y-71816079D01*
X74735799Y-71709162D01*
X74363833Y-71708838D01*
X74020057Y-71850883D01*
X73756808Y-72113673D01*
X73614162Y-72457201D01*
X73613838Y-72829167D01*
X69342000Y-72829167D01*
X69342000Y-70860667D01*
X93780838Y-70860667D01*
X93922883Y-71204443D01*
X94185673Y-71467692D01*
X94529201Y-71610338D01*
X94901167Y-71610662D01*
X95244943Y-71468617D01*
X95508192Y-71205827D01*
X95650838Y-70862299D01*
X95650879Y-70815423D01*
X96463400Y-70002902D01*
X96628147Y-69756340D01*
X96685999Y-69465501D01*
X96685999Y-69275751D01*
X96774000Y-69187750D01*
X96774000Y-68088500D01*
X97028000Y-68088500D01*
X97028000Y-69187750D01*
X97186750Y-69346500D01*
X97677310Y-69346500D01*
X97910699Y-69249827D01*
X98089327Y-69071198D01*
X98186000Y-68837809D01*
X98186000Y-68247250D01*
X98027250Y-68088500D01*
X97028000Y-68088500D01*
X96774000Y-68088500D01*
X96754000Y-68088500D01*
X96754000Y-67834500D01*
X96774000Y-67834500D01*
X96774000Y-67814500D01*
X97028000Y-67814500D01*
X97028000Y-67834500D01*
X98027250Y-67834500D01*
X98186000Y-67675750D01*
X98186000Y-67085191D01*
X98089327Y-66851802D01*
X97910699Y-66673173D01*
X97774713Y-66616846D01*
X97786317Y-66614662D01*
X98002441Y-66475590D01*
X98147431Y-66263390D01*
X98198440Y-66011500D01*
X98198440Y-64511500D01*
X98154162Y-64276183D01*
X98015090Y-64060059D01*
X97802890Y-63915069D01*
X97551000Y-63864060D01*
X96251000Y-63864060D01*
X96015683Y-63908338D01*
X95799559Y-64047410D01*
X95654569Y-64259610D01*
X95603560Y-64511500D01*
X95603560Y-65584138D01*
X95388598Y-65799100D01*
X95223851Y-66045662D01*
X95165999Y-66336501D01*
X95165999Y-69150699D01*
X94576320Y-69740378D01*
X94530833Y-69740338D01*
X94187057Y-69882383D01*
X93923808Y-70145173D01*
X93781162Y-70488701D01*
X93780838Y-70860667D01*
X69342000Y-70860667D01*
X69342000Y-69042868D01*
X69947737Y-69042868D01*
X70058641Y-69320099D01*
X70704593Y-69563323D01*
X71394453Y-69540836D01*
X71927359Y-69320099D01*
X72038263Y-69042868D01*
X75027737Y-69042868D01*
X75138641Y-69320099D01*
X75784593Y-69563323D01*
X76474453Y-69540836D01*
X77007359Y-69320099D01*
X77118263Y-69042868D01*
X76073000Y-67997605D01*
X75027737Y-69042868D01*
X72038263Y-69042868D01*
X70993000Y-67997605D01*
X69947737Y-69042868D01*
X69342000Y-69042868D01*
X69342000Y-68392880D01*
X69490901Y-68752359D01*
X69768132Y-68863263D01*
X70813395Y-67818000D01*
X71172605Y-67818000D01*
X72217868Y-68863263D01*
X72495099Y-68752359D01*
X72738323Y-68106407D01*
X72719521Y-67529593D01*
X74327677Y-67529593D01*
X74350164Y-68219453D01*
X74570901Y-68752359D01*
X74848132Y-68863263D01*
X75893395Y-67818000D01*
X76252605Y-67818000D01*
X77297868Y-68863263D01*
X77575099Y-68752359D01*
X77818323Y-68106407D01*
X77795836Y-67416547D01*
X77575099Y-66883641D01*
X77297868Y-66772737D01*
X76252605Y-67818000D01*
X75893395Y-67818000D01*
X74848132Y-66772737D01*
X74570901Y-66883641D01*
X74327677Y-67529593D01*
X72719521Y-67529593D01*
X72715836Y-67416547D01*
X72495099Y-66883641D01*
X72217868Y-66772737D01*
X71172605Y-67818000D01*
X70813395Y-67818000D01*
X69768132Y-66772737D01*
X69490901Y-66883641D01*
X69342000Y-67279091D01*
X69342000Y-66593132D01*
X69947737Y-66593132D01*
X70993000Y-67638395D01*
X72038263Y-66593132D01*
X71927359Y-66315901D01*
X71281407Y-66072677D01*
X70591547Y-66095164D01*
X70058641Y-66315901D01*
X69947737Y-66593132D01*
X69342000Y-66593132D01*
X69342000Y-65601795D01*
X71897716Y-65601795D01*
X72146106Y-66202943D01*
X72605637Y-66663278D01*
X73206352Y-66912716D01*
X73856795Y-66913284D01*
X74457943Y-66664894D01*
X74529830Y-66593132D01*
X75027737Y-66593132D01*
X76073000Y-67638395D01*
X77118263Y-66593132D01*
X77007359Y-66315901D01*
X76361407Y-66072677D01*
X75671547Y-66095164D01*
X75138641Y-66315901D01*
X75027737Y-66593132D01*
X74529830Y-66593132D01*
X74918278Y-66205363D01*
X75167716Y-65604648D01*
X75168284Y-64954205D01*
X74919894Y-64353057D01*
X74530387Y-63962868D01*
X75027737Y-63962868D01*
X75138641Y-64240099D01*
X75784593Y-64483323D01*
X76474453Y-64460836D01*
X77007359Y-64240099D01*
X77118263Y-63962868D01*
X76073000Y-62917605D01*
X75027737Y-63962868D01*
X74530387Y-63962868D01*
X74460363Y-63892722D01*
X73859648Y-63643284D01*
X73209205Y-63642716D01*
X72608057Y-63891106D01*
X72147722Y-64350637D01*
X71898284Y-64951352D01*
X71897716Y-65601795D01*
X69342000Y-65601795D01*
X69342000Y-63962868D01*
X69947737Y-63962868D01*
X70058641Y-64240099D01*
X70704593Y-64483323D01*
X71394453Y-64460836D01*
X71927359Y-64240099D01*
X72038263Y-63962868D01*
X70993000Y-62917605D01*
X69947737Y-63962868D01*
X69342000Y-63962868D01*
X69342000Y-63312880D01*
X69490901Y-63672359D01*
X69768132Y-63783263D01*
X70813395Y-62738000D01*
X71172605Y-62738000D01*
X72217868Y-63783263D01*
X72495099Y-63672359D01*
X72738323Y-63026407D01*
X72719521Y-62449593D01*
X74327677Y-62449593D01*
X74350164Y-63139453D01*
X74570901Y-63672359D01*
X74848132Y-63783263D01*
X75893395Y-62738000D01*
X76252605Y-62738000D01*
X77297868Y-63783263D01*
X77575099Y-63672359D01*
X77818323Y-63026407D01*
X77795836Y-62336547D01*
X77575099Y-61803641D01*
X77297868Y-61692737D01*
X76252605Y-62738000D01*
X75893395Y-62738000D01*
X74848132Y-61692737D01*
X74570901Y-61803641D01*
X74327677Y-62449593D01*
X72719521Y-62449593D01*
X72715836Y-62336547D01*
X72495099Y-61803641D01*
X72217868Y-61692737D01*
X71172605Y-62738000D01*
X70813395Y-62738000D01*
X69768132Y-61692737D01*
X69490901Y-61803641D01*
X69342000Y-62199091D01*
X69342000Y-61513132D01*
X69947737Y-61513132D01*
X70993000Y-62558395D01*
X72038263Y-61513132D01*
X75027737Y-61513132D01*
X76073000Y-62558395D01*
X77118263Y-61513132D01*
X77007359Y-61235901D01*
X76361407Y-60992677D01*
X75671547Y-61015164D01*
X75138641Y-61235901D01*
X75027737Y-61513132D01*
X72038263Y-61513132D01*
X71927359Y-61235901D01*
X71281407Y-60992677D01*
X70591547Y-61015164D01*
X70058641Y-61235901D01*
X69947737Y-61513132D01*
X69342000Y-61513132D01*
X69342000Y-59182000D01*
X71064393Y-59182000D01*
X71913513Y-59534585D01*
X72862325Y-59535413D01*
X73739229Y-59173084D01*
X73777379Y-59135000D01*
X89484115Y-59135000D01*
X89568609Y-59559779D01*
X89809226Y-59919889D01*
X90169336Y-60160506D01*
X90594115Y-60245000D01*
X90943485Y-60245000D01*
X91368264Y-60160506D01*
X91728374Y-59919889D01*
X91968991Y-59559779D01*
X92053485Y-59135000D01*
X94484115Y-59135000D01*
X94568609Y-59559779D01*
X94809226Y-59919889D01*
X95169336Y-60160506D01*
X95594115Y-60245000D01*
X95943485Y-60245000D01*
X96368264Y-60160506D01*
X96728374Y-59919889D01*
X96968991Y-59559779D01*
X97053485Y-59135000D01*
X96968991Y-58710221D01*
X96728374Y-58350111D01*
X96368264Y-58109494D01*
X95943485Y-58025000D01*
X95594115Y-58025000D01*
X95169336Y-58109494D01*
X94809226Y-58350111D01*
X94568609Y-58710221D01*
X94484115Y-59135000D01*
X92053485Y-59135000D01*
X91968991Y-58710221D01*
X91728374Y-58350111D01*
X91368264Y-58109494D01*
X90943485Y-58025000D01*
X90594115Y-58025000D01*
X90169336Y-58109494D01*
X89809226Y-58350111D01*
X89568609Y-58710221D01*
X89484115Y-59135000D01*
X73777379Y-59135000D01*
X74410726Y-58502758D01*
X74774585Y-57626487D01*
X74775413Y-56677675D01*
X74550101Y-56132376D01*
X88633800Y-56132376D01*
X88633800Y-56737624D01*
X88720197Y-57171970D01*
X88966234Y-57540190D01*
X89334454Y-57786227D01*
X89768800Y-57872624D01*
X90203146Y-57786227D01*
X90571366Y-57540190D01*
X90817403Y-57171970D01*
X90903800Y-56737624D01*
X90903800Y-56132376D01*
X95633800Y-56132376D01*
X95633800Y-56737624D01*
X95720197Y-57171970D01*
X95966234Y-57540190D01*
X96334454Y-57786227D01*
X96768800Y-57872624D01*
X97203146Y-57786227D01*
X97571366Y-57540190D01*
X97817403Y-57171970D01*
X97903800Y-56737624D01*
X97903800Y-56132376D01*
X97817403Y-55698030D01*
X97571366Y-55329810D01*
X97203146Y-55083773D01*
X96768800Y-54997376D01*
X96334454Y-55083773D01*
X95966234Y-55329810D01*
X95720197Y-55698030D01*
X95633800Y-56132376D01*
X90903800Y-56132376D01*
X90817403Y-55698030D01*
X90571366Y-55329810D01*
X90203146Y-55083773D01*
X89768800Y-54997376D01*
X89334454Y-55083773D01*
X88966234Y-55329810D01*
X88720197Y-55698030D01*
X88633800Y-56132376D01*
X74550101Y-56132376D01*
X74422000Y-55822349D01*
X74422000Y-54102000D01*
X113538000Y-54102000D01*
X113538000Y-55824393D01*
X113538000Y-55824393D01*
G37*
X113538000Y-55824393D02*
X113185415Y-56673513D01*
X113184587Y-57622325D01*
X113538000Y-58477651D01*
X113538000Y-59055000D01*
X113548006Y-59104410D01*
X113576447Y-59146035D01*
X113618841Y-59173315D01*
X113665000Y-59182000D01*
X114244393Y-59182000D01*
X115093513Y-59534585D01*
X116042325Y-59535413D01*
X116897651Y-59182000D01*
X118618000Y-59182000D01*
X118618000Y-98298000D01*
X116895607Y-98298000D01*
X116046487Y-97945415D01*
X115097675Y-97944587D01*
X114220771Y-98306916D01*
X113549274Y-98977242D01*
X113185415Y-99853513D01*
X113184587Y-100802325D01*
X113538000Y-101657651D01*
X113538000Y-103378000D01*
X74422000Y-103378000D01*
X74422000Y-101655607D01*
X74692570Y-101004000D01*
X87656560Y-101004000D01*
X87656560Y-102704000D01*
X87700838Y-102939317D01*
X87839910Y-103155441D01*
X88052110Y-103300431D01*
X88304000Y-103351440D01*
X90004000Y-103351440D01*
X90239317Y-103307162D01*
X90455441Y-103168090D01*
X90600431Y-102955890D01*
X90614086Y-102888459D01*
X90643946Y-102933147D01*
X91125715Y-103255054D01*
X91694000Y-103368093D01*
X92262285Y-103255054D01*
X92744054Y-102933147D01*
X92964000Y-102603974D01*
X93183946Y-102933147D01*
X93665715Y-103255054D01*
X94234000Y-103368093D01*
X94802285Y-103255054D01*
X95284054Y-102933147D01*
X95504000Y-102603974D01*
X95723946Y-102933147D01*
X96205715Y-103255054D01*
X96774000Y-103368093D01*
X97342285Y-103255054D01*
X97824054Y-102933147D01*
X98044000Y-102603974D01*
X98263946Y-102933147D01*
X98745715Y-103255054D01*
X99314000Y-103368093D01*
X99882285Y-103255054D01*
X100364054Y-102933147D01*
X100584000Y-102603974D01*
X100803946Y-102933147D01*
X101285715Y-103255054D01*
X101854000Y-103368093D01*
X102422285Y-103255054D01*
X102904054Y-102933147D01*
X103124000Y-102603974D01*
X103343946Y-102933147D01*
X103825715Y-103255054D01*
X104394000Y-103368093D01*
X104962285Y-103255054D01*
X105444054Y-102933147D01*
X105664000Y-102603974D01*
X105883946Y-102933147D01*
X106365715Y-103255054D01*
X106934000Y-103368093D01*
X107502285Y-103255054D01*
X107984054Y-102933147D01*
X108204000Y-102603974D01*
X108423946Y-102933147D01*
X108905715Y-103255054D01*
X109474000Y-103368093D01*
X110042285Y-103255054D01*
X110524054Y-102933147D01*
X110845961Y-102451378D01*
X110959000Y-101883093D01*
X110959000Y-101824907D01*
X110845961Y-101256622D01*
X110524054Y-100774853D01*
X110238422Y-100584000D01*
X110524054Y-100393147D01*
X110845961Y-99911378D01*
X110959000Y-99343093D01*
X110959000Y-99284907D01*
X110845961Y-98716622D01*
X110524054Y-98234853D01*
X110042285Y-97912946D01*
X109474000Y-97799907D01*
X108905715Y-97912946D01*
X108594017Y-98121215D01*
X106582401Y-96109599D01*
X106335839Y-95944852D01*
X106045000Y-95887000D01*
X99882802Y-95887000D01*
X99741122Y-95745320D01*
X99741162Y-95699833D01*
X99599117Y-95356057D01*
X99336327Y-95092808D01*
X98992799Y-94950162D01*
X98620833Y-94949838D01*
X98361286Y-95057080D01*
X98103799Y-94950162D01*
X97731833Y-94949838D01*
X97472286Y-95057080D01*
X97214799Y-94950162D01*
X96842833Y-94949838D01*
X96583286Y-95057080D01*
X96325799Y-94950162D01*
X95953833Y-94949838D01*
X95694286Y-95057080D01*
X95436799Y-94950162D01*
X95064833Y-94949838D01*
X94805286Y-95057080D01*
X94547799Y-94950162D01*
X94175833Y-94949838D01*
X93916286Y-95057080D01*
X93658799Y-94950162D01*
X93286833Y-94949838D01*
X93027286Y-95057080D01*
X92769799Y-94950162D01*
X92397833Y-94949838D01*
X92054057Y-95091883D01*
X91790808Y-95354673D01*
X91648162Y-95698201D01*
X91647838Y-96070167D01*
X91775665Y-96379533D01*
X90021335Y-98133863D01*
X89920924Y-98042355D01*
X89510890Y-97872524D01*
X89281000Y-97993845D01*
X89281000Y-99187000D01*
X89301000Y-99187000D01*
X89301000Y-99441000D01*
X89281000Y-99441000D01*
X89281000Y-99461000D01*
X89027000Y-99461000D01*
X89027000Y-99441000D01*
X87833181Y-99441000D01*
X87712514Y-99670892D01*
X87958817Y-100195358D01*
X88164504Y-100382808D01*
X88068683Y-100400838D01*
X87852559Y-100539910D01*
X87707569Y-100752110D01*
X87656560Y-101004000D01*
X74692570Y-101004000D01*
X74774585Y-100806487D01*
X74775413Y-99857675D01*
X74413084Y-98980771D01*
X74389463Y-98957108D01*
X87712514Y-98957108D01*
X87833181Y-99187000D01*
X89027000Y-99187000D01*
X89027000Y-97993845D01*
X88797110Y-97872524D01*
X88387076Y-98042355D01*
X87958817Y-98432642D01*
X87712514Y-98957108D01*
X74389463Y-98957108D01*
X73742758Y-98309274D01*
X72866487Y-97945415D01*
X71917675Y-97944587D01*
X71062349Y-98298000D01*
X69342000Y-98298000D01*
X69342000Y-94569868D01*
X69947737Y-94569868D01*
X70058641Y-94847099D01*
X70704593Y-95090323D01*
X71394453Y-95067836D01*
X71927359Y-94847099D01*
X72038263Y-94569868D01*
X75027737Y-94569868D01*
X75138641Y-94847099D01*
X75784593Y-95090323D01*
X76474453Y-95067836D01*
X77007359Y-94847099D01*
X77118263Y-94569868D01*
X76073000Y-93524605D01*
X75027737Y-94569868D01*
X72038263Y-94569868D01*
X70993000Y-93524605D01*
X69947737Y-94569868D01*
X69342000Y-94569868D01*
X69342000Y-93919880D01*
X69490901Y-94279359D01*
X69768132Y-94390263D01*
X70813395Y-93345000D01*
X71172605Y-93345000D01*
X72217868Y-94390263D01*
X72495099Y-94279359D01*
X72738323Y-93633407D01*
X72719521Y-93056593D01*
X74327677Y-93056593D01*
X74350164Y-93746453D01*
X74570901Y-94279359D01*
X74848132Y-94390263D01*
X75893395Y-93345000D01*
X76252605Y-93345000D01*
X77297868Y-94390263D01*
X77575099Y-94279359D01*
X77818323Y-93633407D01*
X77795836Y-92943547D01*
X77575099Y-92410641D01*
X77297868Y-92299737D01*
X76252605Y-93345000D01*
X75893395Y-93345000D01*
X74848132Y-92299737D01*
X74570901Y-92410641D01*
X74327677Y-93056593D01*
X72719521Y-93056593D01*
X72715836Y-92943547D01*
X72495099Y-92410641D01*
X72217868Y-92299737D01*
X71172605Y-93345000D01*
X70813395Y-93345000D01*
X69768132Y-92299737D01*
X69490901Y-92410641D01*
X69342000Y-92806091D01*
X69342000Y-92120132D01*
X69947737Y-92120132D01*
X70993000Y-93165395D01*
X72038263Y-92120132D01*
X71927359Y-91842901D01*
X71281407Y-91599677D01*
X70591547Y-91622164D01*
X70058641Y-91842901D01*
X69947737Y-92120132D01*
X69342000Y-92120132D01*
X69342000Y-91128795D01*
X71897716Y-91128795D01*
X72146106Y-91729943D01*
X72605637Y-92190278D01*
X73206352Y-92439716D01*
X73856795Y-92440284D01*
X74457943Y-92191894D01*
X74529830Y-92120132D01*
X75027737Y-92120132D01*
X76073000Y-93165395D01*
X77118263Y-92120132D01*
X77007359Y-91842901D01*
X76361407Y-91599677D01*
X75671547Y-91622164D01*
X75138641Y-91842901D01*
X75027737Y-92120132D01*
X74529830Y-92120132D01*
X74918278Y-91732363D01*
X75167716Y-91131648D01*
X75168284Y-90481205D01*
X74919894Y-89880057D01*
X74530387Y-89489868D01*
X75027737Y-89489868D01*
X75138641Y-89767099D01*
X75784593Y-90010323D01*
X76474453Y-89987836D01*
X77007359Y-89767099D01*
X77118263Y-89489868D01*
X76073000Y-88444605D01*
X75027737Y-89489868D01*
X74530387Y-89489868D01*
X74460363Y-89419722D01*
X73859648Y-89170284D01*
X73209205Y-89169716D01*
X72608057Y-89418106D01*
X72147722Y-89877637D01*
X71898284Y-90478352D01*
X71897716Y-91128795D01*
X69342000Y-91128795D01*
X69342000Y-89489868D01*
X69947737Y-89489868D01*
X70058641Y-89767099D01*
X70704593Y-90010323D01*
X71394453Y-89987836D01*
X71927359Y-89767099D01*
X72038263Y-89489868D01*
X70993000Y-88444605D01*
X69947737Y-89489868D01*
X69342000Y-89489868D01*
X69342000Y-88839880D01*
X69490901Y-89199359D01*
X69768132Y-89310263D01*
X70813395Y-88265000D01*
X71172605Y-88265000D01*
X72217868Y-89310263D01*
X72495099Y-89199359D01*
X72738323Y-88553407D01*
X72719521Y-87976593D01*
X74327677Y-87976593D01*
X74350164Y-88666453D01*
X74570901Y-89199359D01*
X74848132Y-89310263D01*
X75893395Y-88265000D01*
X76252605Y-88265000D01*
X77297868Y-89310263D01*
X77575099Y-89199359D01*
X77818323Y-88553407D01*
X77795836Y-87863547D01*
X77712249Y-87661750D01*
X88170000Y-87661750D01*
X88170000Y-88127310D01*
X88266673Y-88360699D01*
X88445302Y-88539327D01*
X88678691Y-88636000D01*
X89269250Y-88636000D01*
X89428000Y-88477250D01*
X89428000Y-87503000D01*
X88328750Y-87503000D01*
X88170000Y-87661750D01*
X77712249Y-87661750D01*
X77575099Y-87330641D01*
X77297868Y-87219737D01*
X76252605Y-88265000D01*
X75893395Y-88265000D01*
X74848132Y-87219737D01*
X74570901Y-87330641D01*
X74327677Y-87976593D01*
X72719521Y-87976593D01*
X72715836Y-87863547D01*
X72495099Y-87330641D01*
X72217868Y-87219737D01*
X71172605Y-88265000D01*
X70813395Y-88265000D01*
X69768132Y-87219737D01*
X69490901Y-87330641D01*
X69342000Y-87726091D01*
X69342000Y-87040132D01*
X69947737Y-87040132D01*
X70993000Y-88085395D01*
X72038263Y-87040132D01*
X75027737Y-87040132D01*
X76073000Y-88085395D01*
X77118263Y-87040132D01*
X77007359Y-86762901D01*
X76361407Y-86519677D01*
X75671547Y-86542164D01*
X75138641Y-86762901D01*
X75027737Y-87040132D01*
X72038263Y-87040132D01*
X71927359Y-86762901D01*
X71281407Y-86519677D01*
X70591547Y-86542164D01*
X70058641Y-86762901D01*
X69947737Y-87040132D01*
X69342000Y-87040132D01*
X69342000Y-84425907D01*
X71540000Y-84425907D01*
X71540000Y-84484093D01*
X71653039Y-85052378D01*
X71974946Y-85534147D01*
X72456715Y-85856054D01*
X73025000Y-85969093D01*
X73593285Y-85856054D01*
X74075054Y-85534147D01*
X74295000Y-85204974D01*
X74514946Y-85534147D01*
X74996715Y-85856054D01*
X75565000Y-85969093D01*
X76133285Y-85856054D01*
X76615054Y-85534147D01*
X76642850Y-85492548D01*
X76651838Y-85540317D01*
X76790910Y-85756441D01*
X77003110Y-85901431D01*
X77255000Y-85952440D01*
X78955000Y-85952440D01*
X79190317Y-85908162D01*
X79406441Y-85769090D01*
X79551431Y-85556890D01*
X79602440Y-85305000D01*
X79602440Y-83605000D01*
X79558162Y-83369683D01*
X79419090Y-83153559D01*
X79206890Y-83008569D01*
X78955000Y-82957560D01*
X77255000Y-82957560D01*
X77019683Y-83001838D01*
X76803559Y-83140910D01*
X76658569Y-83353110D01*
X76644914Y-83420541D01*
X76615054Y-83375853D01*
X76133285Y-83053946D01*
X75565000Y-82940907D01*
X74996715Y-83053946D01*
X74514946Y-83375853D01*
X74295000Y-83705026D01*
X74075054Y-83375853D01*
X73593285Y-83053946D01*
X73025000Y-82940907D01*
X72456715Y-83053946D01*
X71974946Y-83375853D01*
X71653039Y-83857622D01*
X71540000Y-84425907D01*
X69342000Y-84425907D01*
X69342000Y-81672750D01*
X72146000Y-81672750D01*
X72146000Y-82263309D01*
X72242673Y-82496698D01*
X72421301Y-82675327D01*
X72654690Y-82772000D01*
X73120250Y-82772000D01*
X73279000Y-82613250D01*
X73279000Y-81514000D01*
X73533000Y-81514000D01*
X73533000Y-82613250D01*
X73691750Y-82772000D01*
X74157310Y-82772000D01*
X74390699Y-82675327D01*
X74569327Y-82496698D01*
X74666000Y-82263309D01*
X74666000Y-81672750D01*
X74507250Y-81514000D01*
X73533000Y-81514000D01*
X73279000Y-81514000D01*
X72304750Y-81514000D01*
X72146000Y-81672750D01*
X69342000Y-81672750D01*
X69342000Y-78137000D01*
X72133560Y-78137000D01*
X72133560Y-79637000D01*
X72177838Y-79872317D01*
X72316910Y-80088441D01*
X72385006Y-80134969D01*
X72242673Y-80277302D01*
X72146000Y-80510691D01*
X72146000Y-81101250D01*
X72304750Y-81260000D01*
X73279000Y-81260000D01*
X73279000Y-81240000D01*
X73533000Y-81240000D01*
X73533000Y-81260000D01*
X74507250Y-81260000D01*
X74666000Y-81101250D01*
X74666000Y-80866332D01*
X84274054Y-80866332D01*
X84416099Y-81210108D01*
X84457004Y-81251084D01*
X84457004Y-84527537D01*
X84424812Y-84559673D01*
X84282166Y-84903201D01*
X84281842Y-85275167D01*
X84423887Y-85618943D01*
X84686677Y-85882192D01*
X85030205Y-86024838D01*
X85402171Y-86025162D01*
X85661716Y-85917920D01*
X85919201Y-86024838D01*
X86291167Y-86025162D01*
X86634943Y-85883117D01*
X86761530Y-85756750D01*
X88170000Y-85756750D01*
X88170000Y-86222310D01*
X88253336Y-86423500D01*
X88170000Y-86624690D01*
X88170000Y-87090250D01*
X88328750Y-87249000D01*
X89428000Y-87249000D01*
X89428000Y-85598000D01*
X88328750Y-85598000D01*
X88170000Y-85756750D01*
X86761530Y-85756750D01*
X86898192Y-85620327D01*
X87040838Y-85276799D01*
X87041162Y-84904833D01*
X86899117Y-84561057D01*
X86866000Y-84527882D01*
X86866000Y-83851750D01*
X88170000Y-83851750D01*
X88170000Y-84317310D01*
X88253336Y-84518500D01*
X88170000Y-84719690D01*
X88170000Y-85185250D01*
X88328750Y-85344000D01*
X89428000Y-85344000D01*
X89428000Y-83693000D01*
X88328750Y-83693000D01*
X88170000Y-83851750D01*
X86866000Y-83851750D01*
X86866000Y-81946750D01*
X88170000Y-81946750D01*
X88170000Y-82412310D01*
X88253336Y-82613500D01*
X88170000Y-82814690D01*
X88170000Y-83280250D01*
X88328750Y-83439000D01*
X89428000Y-83439000D01*
X89428000Y-81788000D01*
X88328750Y-81788000D01*
X88170000Y-81946750D01*
X86866000Y-81946750D01*
X86866000Y-81207475D01*
X86898192Y-81175339D01*
X87040838Y-80831811D01*
X87041162Y-80459845D01*
X86899117Y-80116069D01*
X86824928Y-80041750D01*
X88170000Y-80041750D01*
X88170000Y-80507310D01*
X88253336Y-80708500D01*
X88170000Y-80909690D01*
X88170000Y-81375250D01*
X88328750Y-81534000D01*
X89428000Y-81534000D01*
X89428000Y-79883000D01*
X88328750Y-79883000D01*
X88170000Y-80041750D01*
X86824928Y-80041750D01*
X86636327Y-79852820D01*
X86292799Y-79710174D01*
X85920833Y-79709850D01*
X85613744Y-79836736D01*
X85396015Y-79746327D01*
X85024049Y-79746003D01*
X84680273Y-79888048D01*
X84417024Y-80150838D01*
X84274378Y-80494366D01*
X84274054Y-80866332D01*
X74666000Y-80866332D01*
X74666000Y-80510691D01*
X74569327Y-80277302D01*
X74428090Y-80136064D01*
X74482441Y-80101090D01*
X74627431Y-79888890D01*
X74678440Y-79637000D01*
X74678440Y-78312027D01*
X74716192Y-78274341D01*
X74773325Y-78136750D01*
X88170000Y-78136750D01*
X88170000Y-78602310D01*
X88253336Y-78803500D01*
X88170000Y-79004690D01*
X88170000Y-79470250D01*
X88328750Y-79629000D01*
X89428000Y-79629000D01*
X89428000Y-77978000D01*
X88328750Y-77978000D01*
X88170000Y-78136750D01*
X74773325Y-78136750D01*
X74858838Y-77930813D01*
X74859162Y-77558847D01*
X74717117Y-77215071D01*
X74454327Y-76951822D01*
X74110799Y-76809176D01*
X73738833Y-76808852D01*
X73395057Y-76950897D01*
X73131808Y-77213687D01*
X73017255Y-77489560D01*
X72781000Y-77489560D01*
X72545683Y-77533838D01*
X72329559Y-77672910D01*
X72184569Y-77885110D01*
X72133560Y-78137000D01*
X69342000Y-78137000D01*
X69342000Y-76231750D01*
X88170000Y-76231750D01*
X88170000Y-76697310D01*
X88253336Y-76898500D01*
X88170000Y-77099690D01*
X88170000Y-77565250D01*
X88328750Y-77724000D01*
X89428000Y-77724000D01*
X89428000Y-76073000D01*
X88328750Y-76073000D01*
X88170000Y-76231750D01*
X69342000Y-76231750D01*
X69342000Y-72829167D01*
X73613838Y-72829167D01*
X73755883Y-73172943D01*
X74018673Y-73436192D01*
X74362201Y-73578838D01*
X74409077Y-73578879D01*
X76170607Y-75340409D01*
X76417168Y-75505156D01*
X76708008Y-75563008D01*
X80717537Y-75563008D01*
X80749673Y-75595200D01*
X81093201Y-75737846D01*
X81465167Y-75738170D01*
X81808943Y-75596125D01*
X82072192Y-75333335D01*
X82214838Y-74989807D01*
X82215162Y-74617841D01*
X82094886Y-74326750D01*
X88170000Y-74326750D01*
X88170000Y-74792310D01*
X88253336Y-74993500D01*
X88170000Y-75194690D01*
X88170000Y-75660250D01*
X88328750Y-75819000D01*
X89428000Y-75819000D01*
X89428000Y-74168000D01*
X88328750Y-74168000D01*
X88170000Y-74326750D01*
X82094886Y-74326750D01*
X82081618Y-74294640D01*
X82214844Y-73973799D01*
X82215168Y-73601833D01*
X82086194Y-73289690D01*
X88170000Y-73289690D01*
X88170000Y-73755250D01*
X88328750Y-73914000D01*
X89428000Y-73914000D01*
X89428000Y-72939750D01*
X89682000Y-72939750D01*
X89682000Y-73914000D01*
X89702000Y-73914000D01*
X89702000Y-74168000D01*
X89682000Y-74168000D01*
X89682000Y-75819000D01*
X89702000Y-75819000D01*
X89702000Y-76073000D01*
X89682000Y-76073000D01*
X89682000Y-77724000D01*
X89702000Y-77724000D01*
X89702000Y-77978000D01*
X89682000Y-77978000D01*
X89682000Y-79629000D01*
X89702000Y-79629000D01*
X89702000Y-79883000D01*
X89682000Y-79883000D01*
X89682000Y-81534000D01*
X89702000Y-81534000D01*
X89702000Y-81788000D01*
X89682000Y-81788000D01*
X89682000Y-83439000D01*
X89702000Y-83439000D01*
X89702000Y-83693000D01*
X89682000Y-83693000D01*
X89682000Y-85344000D01*
X89702000Y-85344000D01*
X89702000Y-85598000D01*
X89682000Y-85598000D01*
X89682000Y-87249000D01*
X89702000Y-87249000D01*
X89702000Y-87503000D01*
X89682000Y-87503000D01*
X89682000Y-88477250D01*
X89840750Y-88636000D01*
X90431309Y-88636000D01*
X90664698Y-88539327D01*
X90805936Y-88398090D01*
X90840910Y-88452441D01*
X91053110Y-88597431D01*
X91305000Y-88648440D01*
X92805000Y-88648440D01*
X93040317Y-88604162D01*
X93256441Y-88465090D01*
X93401431Y-88252890D01*
X93452440Y-88001000D01*
X93452440Y-86751000D01*
X93408162Y-86515683D01*
X93349293Y-86424197D01*
X93401431Y-86347890D01*
X93452440Y-86096000D01*
X93452440Y-84846000D01*
X93408162Y-84610683D01*
X93349293Y-84519197D01*
X93401431Y-84442890D01*
X93452440Y-84191000D01*
X93452440Y-82941000D01*
X93408162Y-82705683D01*
X93349293Y-82614197D01*
X93401431Y-82537890D01*
X93452440Y-82286000D01*
X93452440Y-82269328D01*
X93619943Y-82200117D01*
X93653118Y-82167000D01*
X96767132Y-82167000D01*
X96864165Y-82264202D01*
X97207693Y-82406848D01*
X97579659Y-82407172D01*
X97923435Y-82265127D01*
X98186684Y-82002337D01*
X98329330Y-81658809D01*
X98329654Y-81286843D01*
X98187609Y-80943067D01*
X97924819Y-80679818D01*
X97581291Y-80537172D01*
X97209325Y-80536848D01*
X96942736Y-80647000D01*
X93653463Y-80647000D01*
X93621327Y-80614808D01*
X93421865Y-80531984D01*
X93452440Y-80381000D01*
X93452440Y-79131000D01*
X93408162Y-78895683D01*
X93349293Y-78804197D01*
X93401431Y-78727890D01*
X93452440Y-78476000D01*
X93452440Y-77226000D01*
X93408162Y-76990683D01*
X93349293Y-76899197D01*
X93401431Y-76822890D01*
X93452440Y-76571000D01*
X93452440Y-76004167D01*
X103966838Y-76004167D01*
X104108883Y-76347943D01*
X104371673Y-76611192D01*
X104715201Y-76753838D01*
X105087167Y-76754162D01*
X105430943Y-76612117D01*
X105694192Y-76349327D01*
X105740549Y-76237687D01*
X106667236Y-75311000D01*
X109938811Y-75311000D01*
X110049201Y-75356838D01*
X110421167Y-75357162D01*
X110764943Y-75215117D01*
X111028192Y-74952327D01*
X111170838Y-74608799D01*
X111171162Y-74236833D01*
X111029117Y-73893057D01*
X110766327Y-73629808D01*
X110422799Y-73487162D01*
X110050833Y-73486838D01*
X109939112Y-73533000D01*
X106299000Y-73533000D01*
X105958794Y-73600671D01*
X105670382Y-73793382D01*
X104483526Y-74980238D01*
X104373057Y-75025883D01*
X104109808Y-75288673D01*
X103967162Y-75632201D01*
X103966838Y-76004167D01*
X93452440Y-76004167D01*
X93452440Y-75447812D01*
X93539201Y-75483838D01*
X93911167Y-75484162D01*
X94254943Y-75342117D01*
X94288118Y-75309000D01*
X96471995Y-75309000D01*
X96587201Y-75356838D01*
X96959167Y-75357162D01*
X97302943Y-75215117D01*
X97566192Y-74952327D01*
X97708838Y-74608799D01*
X97709162Y-74236833D01*
X97567117Y-73893057D01*
X97304327Y-73629808D01*
X96960799Y-73487162D01*
X96588833Y-73486838D01*
X96245057Y-73628883D01*
X96084660Y-73789000D01*
X94288463Y-73789000D01*
X94256327Y-73756808D01*
X93912799Y-73614162D01*
X93540833Y-73613838D01*
X93452440Y-73650361D01*
X93452440Y-73416000D01*
X93408162Y-73180683D01*
X93269090Y-72964559D01*
X93056890Y-72819569D01*
X92805000Y-72768560D01*
X91305000Y-72768560D01*
X91069683Y-72812838D01*
X90853559Y-72951910D01*
X90807031Y-73020006D01*
X90664698Y-72877673D01*
X90431309Y-72781000D01*
X89840750Y-72781000D01*
X89682000Y-72939750D01*
X89428000Y-72939750D01*
X89269250Y-72781000D01*
X88678691Y-72781000D01*
X88445302Y-72877673D01*
X88266673Y-73056301D01*
X88170000Y-73289690D01*
X82086194Y-73289690D01*
X82073123Y-73258057D01*
X82030795Y-73215655D01*
X82072196Y-73174327D01*
X82214842Y-72830799D01*
X82215166Y-72458833D01*
X82073121Y-72115057D01*
X81810331Y-71851808D01*
X81466803Y-71709162D01*
X81094837Y-71708838D01*
X80751061Y-71850883D01*
X80717886Y-71884000D01*
X76000457Y-71884000D01*
X75968321Y-71851808D01*
X75624793Y-71709162D01*
X75252827Y-71708838D01*
X74993283Y-71816079D01*
X74735799Y-71709162D01*
X74363833Y-71708838D01*
X74020057Y-71850883D01*
X73756808Y-72113673D01*
X73614162Y-72457201D01*
X73613838Y-72829167D01*
X69342000Y-72829167D01*
X69342000Y-70860667D01*
X93780838Y-70860667D01*
X93922883Y-71204443D01*
X94185673Y-71467692D01*
X94529201Y-71610338D01*
X94901167Y-71610662D01*
X95244943Y-71468617D01*
X95508192Y-71205827D01*
X95650838Y-70862299D01*
X95650879Y-70815423D01*
X96463400Y-70002902D01*
X96628147Y-69756340D01*
X96685999Y-69465501D01*
X96685999Y-69275751D01*
X96774000Y-69187750D01*
X96774000Y-68088500D01*
X97028000Y-68088500D01*
X97028000Y-69187750D01*
X97186750Y-69346500D01*
X97677310Y-69346500D01*
X97910699Y-69249827D01*
X98089327Y-69071198D01*
X98186000Y-68837809D01*
X98186000Y-68247250D01*
X98027250Y-68088500D01*
X97028000Y-68088500D01*
X96774000Y-68088500D01*
X96754000Y-68088500D01*
X96754000Y-67834500D01*
X96774000Y-67834500D01*
X96774000Y-67814500D01*
X97028000Y-67814500D01*
X97028000Y-67834500D01*
X98027250Y-67834500D01*
X98186000Y-67675750D01*
X98186000Y-67085191D01*
X98089327Y-66851802D01*
X97910699Y-66673173D01*
X97774713Y-66616846D01*
X97786317Y-66614662D01*
X98002441Y-66475590D01*
X98147431Y-66263390D01*
X98198440Y-66011500D01*
X98198440Y-64511500D01*
X98154162Y-64276183D01*
X98015090Y-64060059D01*
X97802890Y-63915069D01*
X97551000Y-63864060D01*
X96251000Y-63864060D01*
X96015683Y-63908338D01*
X95799559Y-64047410D01*
X95654569Y-64259610D01*
X95603560Y-64511500D01*
X95603560Y-65584138D01*
X95388598Y-65799100D01*
X95223851Y-66045662D01*
X95165999Y-66336501D01*
X95165999Y-69150699D01*
X94576320Y-69740378D01*
X94530833Y-69740338D01*
X94187057Y-69882383D01*
X93923808Y-70145173D01*
X93781162Y-70488701D01*
X93780838Y-70860667D01*
X69342000Y-70860667D01*
X69342000Y-69042868D01*
X69947737Y-69042868D01*
X70058641Y-69320099D01*
X70704593Y-69563323D01*
X71394453Y-69540836D01*
X71927359Y-69320099D01*
X72038263Y-69042868D01*
X75027737Y-69042868D01*
X75138641Y-69320099D01*
X75784593Y-69563323D01*
X76474453Y-69540836D01*
X77007359Y-69320099D01*
X77118263Y-69042868D01*
X76073000Y-67997605D01*
X75027737Y-69042868D01*
X72038263Y-69042868D01*
X70993000Y-67997605D01*
X69947737Y-69042868D01*
X69342000Y-69042868D01*
X69342000Y-68392880D01*
X69490901Y-68752359D01*
X69768132Y-68863263D01*
X70813395Y-67818000D01*
X71172605Y-67818000D01*
X72217868Y-68863263D01*
X72495099Y-68752359D01*
X72738323Y-68106407D01*
X72719521Y-67529593D01*
X74327677Y-67529593D01*
X74350164Y-68219453D01*
X74570901Y-68752359D01*
X74848132Y-68863263D01*
X75893395Y-67818000D01*
X76252605Y-67818000D01*
X77297868Y-68863263D01*
X77575099Y-68752359D01*
X77818323Y-68106407D01*
X77795836Y-67416547D01*
X77575099Y-66883641D01*
X77297868Y-66772737D01*
X76252605Y-67818000D01*
X75893395Y-67818000D01*
X74848132Y-66772737D01*
X74570901Y-66883641D01*
X74327677Y-67529593D01*
X72719521Y-67529593D01*
X72715836Y-67416547D01*
X72495099Y-66883641D01*
X72217868Y-66772737D01*
X71172605Y-67818000D01*
X70813395Y-67818000D01*
X69768132Y-66772737D01*
X69490901Y-66883641D01*
X69342000Y-67279091D01*
X69342000Y-66593132D01*
X69947737Y-66593132D01*
X70993000Y-67638395D01*
X72038263Y-66593132D01*
X71927359Y-66315901D01*
X71281407Y-66072677D01*
X70591547Y-66095164D01*
X70058641Y-66315901D01*
X69947737Y-66593132D01*
X69342000Y-66593132D01*
X69342000Y-65601795D01*
X71897716Y-65601795D01*
X72146106Y-66202943D01*
X72605637Y-66663278D01*
X73206352Y-66912716D01*
X73856795Y-66913284D01*
X74457943Y-66664894D01*
X74529830Y-66593132D01*
X75027737Y-66593132D01*
X76073000Y-67638395D01*
X77118263Y-66593132D01*
X77007359Y-66315901D01*
X76361407Y-66072677D01*
X75671547Y-66095164D01*
X75138641Y-66315901D01*
X75027737Y-66593132D01*
X74529830Y-66593132D01*
X74918278Y-66205363D01*
X75167716Y-65604648D01*
X75168284Y-64954205D01*
X74919894Y-64353057D01*
X74530387Y-63962868D01*
X75027737Y-63962868D01*
X75138641Y-64240099D01*
X75784593Y-64483323D01*
X76474453Y-64460836D01*
X77007359Y-64240099D01*
X77118263Y-63962868D01*
X76073000Y-62917605D01*
X75027737Y-63962868D01*
X74530387Y-63962868D01*
X74460363Y-63892722D01*
X73859648Y-63643284D01*
X73209205Y-63642716D01*
X72608057Y-63891106D01*
X72147722Y-64350637D01*
X71898284Y-64951352D01*
X71897716Y-65601795D01*
X69342000Y-65601795D01*
X69342000Y-63962868D01*
X69947737Y-63962868D01*
X70058641Y-64240099D01*
X70704593Y-64483323D01*
X71394453Y-64460836D01*
X71927359Y-64240099D01*
X72038263Y-63962868D01*
X70993000Y-62917605D01*
X69947737Y-63962868D01*
X69342000Y-63962868D01*
X69342000Y-63312880D01*
X69490901Y-63672359D01*
X69768132Y-63783263D01*
X70813395Y-62738000D01*
X71172605Y-62738000D01*
X72217868Y-63783263D01*
X72495099Y-63672359D01*
X72738323Y-63026407D01*
X72719521Y-62449593D01*
X74327677Y-62449593D01*
X74350164Y-63139453D01*
X74570901Y-63672359D01*
X74848132Y-63783263D01*
X75893395Y-62738000D01*
X76252605Y-62738000D01*
X77297868Y-63783263D01*
X77575099Y-63672359D01*
X77818323Y-63026407D01*
X77795836Y-62336547D01*
X77575099Y-61803641D01*
X77297868Y-61692737D01*
X76252605Y-62738000D01*
X75893395Y-62738000D01*
X74848132Y-61692737D01*
X74570901Y-61803641D01*
X74327677Y-62449593D01*
X72719521Y-62449593D01*
X72715836Y-62336547D01*
X72495099Y-61803641D01*
X72217868Y-61692737D01*
X71172605Y-62738000D01*
X70813395Y-62738000D01*
X69768132Y-61692737D01*
X69490901Y-61803641D01*
X69342000Y-62199091D01*
X69342000Y-61513132D01*
X69947737Y-61513132D01*
X70993000Y-62558395D01*
X72038263Y-61513132D01*
X75027737Y-61513132D01*
X76073000Y-62558395D01*
X77118263Y-61513132D01*
X77007359Y-61235901D01*
X76361407Y-60992677D01*
X75671547Y-61015164D01*
X75138641Y-61235901D01*
X75027737Y-61513132D01*
X72038263Y-61513132D01*
X71927359Y-61235901D01*
X71281407Y-60992677D01*
X70591547Y-61015164D01*
X70058641Y-61235901D01*
X69947737Y-61513132D01*
X69342000Y-61513132D01*
X69342000Y-59182000D01*
X71064393Y-59182000D01*
X71913513Y-59534585D01*
X72862325Y-59535413D01*
X73739229Y-59173084D01*
X73777379Y-59135000D01*
X89484115Y-59135000D01*
X89568609Y-59559779D01*
X89809226Y-59919889D01*
X90169336Y-60160506D01*
X90594115Y-60245000D01*
X90943485Y-60245000D01*
X91368264Y-60160506D01*
X91728374Y-59919889D01*
X91968991Y-59559779D01*
X92053485Y-59135000D01*
X94484115Y-59135000D01*
X94568609Y-59559779D01*
X94809226Y-59919889D01*
X95169336Y-60160506D01*
X95594115Y-60245000D01*
X95943485Y-60245000D01*
X96368264Y-60160506D01*
X96728374Y-59919889D01*
X96968991Y-59559779D01*
X97053485Y-59135000D01*
X96968991Y-58710221D01*
X96728374Y-58350111D01*
X96368264Y-58109494D01*
X95943485Y-58025000D01*
X95594115Y-58025000D01*
X95169336Y-58109494D01*
X94809226Y-58350111D01*
X94568609Y-58710221D01*
X94484115Y-59135000D01*
X92053485Y-59135000D01*
X91968991Y-58710221D01*
X91728374Y-58350111D01*
X91368264Y-58109494D01*
X90943485Y-58025000D01*
X90594115Y-58025000D01*
X90169336Y-58109494D01*
X89809226Y-58350111D01*
X89568609Y-58710221D01*
X89484115Y-59135000D01*
X73777379Y-59135000D01*
X74410726Y-58502758D01*
X74774585Y-57626487D01*
X74775413Y-56677675D01*
X74550101Y-56132376D01*
X88633800Y-56132376D01*
X88633800Y-56737624D01*
X88720197Y-57171970D01*
X88966234Y-57540190D01*
X89334454Y-57786227D01*
X89768800Y-57872624D01*
X90203146Y-57786227D01*
X90571366Y-57540190D01*
X90817403Y-57171970D01*
X90903800Y-56737624D01*
X90903800Y-56132376D01*
X95633800Y-56132376D01*
X95633800Y-56737624D01*
X95720197Y-57171970D01*
X95966234Y-57540190D01*
X96334454Y-57786227D01*
X96768800Y-57872624D01*
X97203146Y-57786227D01*
X97571366Y-57540190D01*
X97817403Y-57171970D01*
X97903800Y-56737624D01*
X97903800Y-56132376D01*
X97817403Y-55698030D01*
X97571366Y-55329810D01*
X97203146Y-55083773D01*
X96768800Y-54997376D01*
X96334454Y-55083773D01*
X95966234Y-55329810D01*
X95720197Y-55698030D01*
X95633800Y-56132376D01*
X90903800Y-56132376D01*
X90817403Y-55698030D01*
X90571366Y-55329810D01*
X90203146Y-55083773D01*
X89768800Y-54997376D01*
X89334454Y-55083773D01*
X88966234Y-55329810D01*
X88720197Y-55698030D01*
X88633800Y-56132376D01*
X74550101Y-56132376D01*
X74422000Y-55822349D01*
X74422000Y-54102000D01*
X113538000Y-54102000D01*
X113538000Y-55824393D01*
M02*
