%TF.GenerationSoftware,KiCad,Pcbnew,4.0.6*%
%TF.CreationDate,2017-04-05T20:33:35-07:00*%
%TF.ProjectId,wavegen,7761766567656E2E6B696361645F7063,rev?*%
%TF.FileFunction,Copper,L1,Top,Signal*%
%FSLAX46Y46*%
G04 Gerber Fmt 4.6, Leading zero omitted, Abs format (unit mm)*
G04 Created by KiCad (PCBNEW 4.0.6) date 04/05/17 20:33:35*
%MOMM*%
%LPD*%
G01*
G04 APERTURE LIST*
%ADD10C,0.100000*%
%ADD11R,1.500000X1.250000*%
%ADD12R,1.500000X1.300000*%
%ADD13R,1.300000X1.500000*%
%ADD14R,2.380000X1.640000*%
%ADD15R,0.250000X1.000000*%
%ADD16R,1.250000X1.500000*%
%ADD17R,1.200000X1.200000*%
%ADD18R,0.400000X1.350000*%
%ADD19O,1.250000X0.950000*%
%ADD20O,1.000000X1.550000*%
%ADD21C,2.200000*%
%ADD22C,2.000000*%
%ADD23R,1.700000X1.700000*%
%ADD24O,1.700000X1.700000*%
%ADD25R,0.900000X1.200000*%
%ADD26R,0.650000X1.560000*%
%ADD27R,1.000000X0.250000*%
%ADD28R,1.650000X1.950000*%
%ADD29R,3.800000X2.000000*%
%ADD30R,1.500000X2.000000*%
%ADD31R,3.500000X2.400000*%
%ADD32C,0.600000*%
%ADD33C,0.250000*%
%ADD34C,0.400000*%
%ADD35C,0.508000*%
%ADD36C,0.200000*%
%ADD37C,0.254000*%
G04 APERTURE END LIST*
D10*
D11*
X85042210Y-65470440D03*
X82542210Y-65470440D03*
D12*
X82478800Y-69383142D03*
X85178800Y-69383142D03*
D11*
X85042210Y-67375440D03*
X82542210Y-67375440D03*
D13*
X105029000Y-71421000D03*
X105029000Y-74121000D03*
D14*
X74549000Y-75311000D03*
D15*
X73549000Y-76811000D03*
X74049000Y-76811000D03*
X74549000Y-76811000D03*
X75049000Y-76811000D03*
X75549000Y-76811000D03*
X75549000Y-73811000D03*
X75049000Y-73811000D03*
X74549000Y-73811000D03*
X74049000Y-73811000D03*
X73549000Y-73811000D03*
D11*
X97937000Y-64008000D03*
X100437000Y-64008000D03*
X103231000Y-64008000D03*
X100731000Y-64008000D03*
X87269000Y-63627000D03*
X89769000Y-63627000D03*
X85070000Y-63627000D03*
X82570000Y-63627000D03*
X81046000Y-89535000D03*
X83546000Y-89535000D03*
X74402000Y-79756000D03*
X71902000Y-79756000D03*
X74402000Y-81661000D03*
X71902000Y-81661000D03*
D16*
X71882000Y-74188000D03*
X71882000Y-76688000D03*
D11*
X73553000Y-70485000D03*
X76053000Y-70485000D03*
X100350000Y-59563000D03*
X102850000Y-59563000D03*
X100350000Y-57658000D03*
X102850000Y-57658000D03*
D17*
X79280000Y-55288000D03*
X79280000Y-57488000D03*
X88519000Y-91313000D03*
X88519000Y-89113000D03*
X86544864Y-91313000D03*
X86544864Y-89113000D03*
D18*
X94568800Y-59135000D03*
X93918800Y-59135000D03*
X93268800Y-59135000D03*
X92618800Y-59135000D03*
X91968800Y-59135000D03*
D19*
X95768800Y-59135000D03*
X90768800Y-59135000D03*
D20*
X96768800Y-56435000D03*
X89768800Y-56435000D03*
D21*
X76073000Y-88265000D03*
X76073000Y-93345000D03*
X70993000Y-93345000D03*
X70993000Y-88265000D03*
D22*
X73533000Y-90805000D03*
D21*
X70993000Y-67818000D03*
X70993000Y-62738000D03*
X76073000Y-62738000D03*
X76073000Y-67818000D03*
D22*
X73533000Y-65278000D03*
D23*
X89154000Y-101854000D03*
D24*
X89154000Y-99314000D03*
X91694000Y-101854000D03*
X91694000Y-99314000D03*
X94234000Y-101854000D03*
X94234000Y-99314000D03*
X96774000Y-101854000D03*
X96774000Y-99314000D03*
X99314000Y-101854000D03*
X99314000Y-99314000D03*
X101854000Y-101854000D03*
X101854000Y-99314000D03*
X104394000Y-101854000D03*
X104394000Y-99314000D03*
X106934000Y-101854000D03*
X106934000Y-99314000D03*
X109474000Y-101854000D03*
X109474000Y-99314000D03*
D23*
X78105000Y-84455000D03*
D24*
X75565000Y-84455000D03*
X73025000Y-84455000D03*
D12*
X102950000Y-61595000D03*
X100250000Y-61595000D03*
D25*
X78486000Y-90721000D03*
X78486000Y-92921000D03*
D13*
X77290000Y-55290000D03*
X77290000Y-57990000D03*
X88519000Y-93345000D03*
X88519000Y-96045000D03*
X86544864Y-93345000D03*
X86544864Y-96045000D03*
X110236000Y-76374000D03*
X110236000Y-79074000D03*
X102997000Y-72183000D03*
X102997000Y-74883000D03*
D12*
X108665000Y-81153000D03*
X105965000Y-81153000D03*
X85144600Y-71526400D03*
X82444600Y-71526400D03*
D26*
X106492000Y-79074000D03*
X107442000Y-79074000D03*
X108392000Y-79074000D03*
X108392000Y-76374000D03*
X106492000Y-76374000D03*
X107442000Y-76374000D03*
D15*
X96841000Y-71897000D03*
X96341000Y-71897000D03*
X95841000Y-71897000D03*
X95341000Y-71897000D03*
X94841000Y-71897000D03*
X94341000Y-71897000D03*
X93841000Y-71897000D03*
X93341000Y-71897000D03*
X92841000Y-71897000D03*
X92341000Y-71897000D03*
X91841000Y-71897000D03*
X91341000Y-71897000D03*
X90841000Y-71897000D03*
X90341000Y-71897000D03*
X89841000Y-71897000D03*
X89341000Y-71897000D03*
D27*
X87391000Y-73847000D03*
X87391000Y-74347000D03*
X87391000Y-74847000D03*
X87391000Y-75347000D03*
X87391000Y-75847000D03*
X87391000Y-76347000D03*
X87391000Y-76847000D03*
X87391000Y-77347000D03*
X87391000Y-77847000D03*
X87391000Y-78347000D03*
X87391000Y-78847000D03*
X87391000Y-79347000D03*
X87391000Y-79847000D03*
X87391000Y-80347000D03*
X87391000Y-80847000D03*
X87391000Y-81347000D03*
D15*
X89341000Y-83297000D03*
X89841000Y-83297000D03*
X90341000Y-83297000D03*
X90841000Y-83297000D03*
X91341000Y-83297000D03*
X91841000Y-83297000D03*
X92341000Y-83297000D03*
X92841000Y-83297000D03*
X93341000Y-83297000D03*
X93841000Y-83297000D03*
X94341000Y-83297000D03*
X94841000Y-83297000D03*
X95341000Y-83297000D03*
X95841000Y-83297000D03*
X96341000Y-83297000D03*
X96841000Y-83297000D03*
D27*
X98791000Y-81347000D03*
X98791000Y-80847000D03*
X98791000Y-80347000D03*
X98791000Y-79847000D03*
X98791000Y-79347000D03*
X98791000Y-78847000D03*
X98791000Y-78347000D03*
X98791000Y-77847000D03*
X98791000Y-77347000D03*
X98791000Y-76847000D03*
X98791000Y-76347000D03*
X98791000Y-75847000D03*
X98791000Y-75347000D03*
X98791000Y-74847000D03*
X98791000Y-74347000D03*
X98791000Y-73847000D03*
D28*
X83396000Y-87227000D03*
X83396000Y-84477000D03*
X81196000Y-84477000D03*
X81196000Y-87227000D03*
D29*
X84645500Y-54889000D03*
D30*
X84645500Y-61189000D03*
X86945500Y-61189000D03*
X82345500Y-61189000D03*
D16*
X85725000Y-76220000D03*
X85725000Y-78720000D03*
D31*
X97984000Y-66929000D03*
X103184000Y-66929000D03*
D32*
X88011000Y-85471000D03*
X84074000Y-78740000D03*
X92618800Y-60833000D03*
X92583000Y-61595000D03*
X70358000Y-80645000D03*
X92075034Y-70739000D03*
X77470000Y-70485000D03*
X91968800Y-60853800D03*
X91968800Y-61552200D03*
X104140000Y-58420000D03*
X82550000Y-82423000D03*
X107315000Y-80518000D03*
X80645000Y-64770000D03*
X80645000Y-63754000D03*
X80645000Y-62738000D03*
X79756000Y-59055000D03*
X88900000Y-74041000D03*
X96393000Y-82169000D03*
X97663000Y-79883000D03*
X96774000Y-73406000D03*
X94869000Y-73406000D03*
X73787000Y-75692000D03*
X73787000Y-74930000D03*
X75311000Y-75692000D03*
X75311000Y-74930000D03*
X78486000Y-94107000D03*
X84963000Y-89535000D03*
X73924000Y-77744014D03*
X110236000Y-74422000D03*
X104902000Y-75819000D03*
X97394492Y-81472010D03*
X93091000Y-81407000D03*
X93726000Y-74549000D03*
X96774000Y-74422000D03*
X86106000Y-85090000D03*
X86106000Y-80645012D03*
X85217004Y-85090000D03*
X85209216Y-80681165D03*
X92583000Y-95885000D03*
X93472000Y-95885000D03*
X94361000Y-95885000D03*
X95250000Y-95885000D03*
X96139000Y-95885000D03*
X97028000Y-95885000D03*
X97917000Y-95885000D03*
X98806000Y-95885000D03*
X94716000Y-70675500D03*
X81280000Y-74803008D03*
X74549000Y-72644000D03*
X81280004Y-72644000D03*
X75437994Y-72644000D03*
X81280006Y-73787000D03*
X76200000Y-73269000D03*
D33*
X97937000Y-64008000D02*
X97937000Y-66882000D01*
X97937000Y-66882000D02*
X97984000Y-66929000D01*
X97984000Y-68894000D02*
X95841000Y-71037000D01*
X97984000Y-66929000D02*
X97984000Y-68894000D01*
X95841000Y-71037000D02*
X95841000Y-71147000D01*
X95841000Y-71147000D02*
X95841000Y-71897000D01*
X90341000Y-83297000D02*
X90341000Y-84047000D01*
X90341000Y-84047000D02*
X88917000Y-85471000D01*
X88917000Y-85471000D02*
X88011000Y-85471000D01*
X85725000Y-78720000D02*
X84094000Y-78720000D01*
X84094000Y-78720000D02*
X84074000Y-78740000D01*
X92618800Y-60833000D02*
X92618800Y-61559200D01*
X92618800Y-59135000D02*
X92618800Y-60833000D01*
X92618800Y-61559200D02*
X92583000Y-61595000D01*
X88435264Y-85471000D02*
X88011000Y-85471000D01*
X88917000Y-85471000D02*
X88435264Y-85471000D01*
X70358000Y-80518000D02*
X70358000Y-80645000D01*
X70358000Y-80518000D02*
X70358000Y-80264000D01*
X70358000Y-81117000D02*
X70358000Y-80518000D01*
X70358000Y-80264000D02*
X70866000Y-79756000D01*
X70866000Y-79756000D02*
X71902000Y-79756000D01*
X71902000Y-81661000D02*
X70902000Y-81661000D01*
X70902000Y-81661000D02*
X70358000Y-81117000D01*
X91841000Y-71897000D02*
X91841000Y-70973034D01*
X91841000Y-70973034D02*
X92075034Y-70739000D01*
X92341000Y-71897000D02*
X92341000Y-71004966D01*
X92341000Y-71004966D02*
X92075034Y-70739000D01*
X88392000Y-74041000D02*
X89447000Y-74041000D01*
X89447000Y-74041000D02*
X90841000Y-72647000D01*
X90841000Y-72647000D02*
X90841000Y-71897000D01*
X88392000Y-74041000D02*
X89841000Y-72592000D01*
X89841000Y-72592000D02*
X89841000Y-71897000D01*
X76053000Y-70485000D02*
X77470000Y-70485000D01*
X87391000Y-77847000D02*
X86598000Y-77847000D01*
X86598000Y-77847000D02*
X85725000Y-78720000D01*
D34*
X91968800Y-59135000D02*
X91968800Y-60325000D01*
X91968800Y-60431200D02*
X91968800Y-60325000D01*
X91968800Y-59135000D02*
X91968800Y-60853800D01*
X91968800Y-59135000D02*
X91968800Y-61552200D01*
X91968800Y-61552200D02*
X89894000Y-63627000D01*
X89894000Y-63627000D02*
X89769000Y-63627000D01*
D33*
X102850000Y-59563000D02*
X102997000Y-59563000D01*
X102997000Y-59563000D02*
X104140000Y-58420000D01*
X102850000Y-57658000D02*
X103378000Y-57658000D01*
X103378000Y-57658000D02*
X104140000Y-58420000D01*
X74049000Y-73811000D02*
X74049000Y-74668000D01*
X74049000Y-74668000D02*
X73787000Y-74930000D01*
X83396000Y-84477000D02*
X83396000Y-83269000D01*
X83396000Y-83269000D02*
X82550000Y-82423000D01*
X107442000Y-79074000D02*
X107442000Y-80391000D01*
X107442000Y-80391000D02*
X107315000Y-80518000D01*
D35*
X80645000Y-63754000D02*
X80645000Y-64770000D01*
X80645000Y-62738000D02*
X80645000Y-63754000D01*
X82345500Y-61189000D02*
X82194000Y-61189000D01*
X82194000Y-61189000D02*
X80645000Y-62738000D01*
D33*
X75049000Y-76811000D02*
X75049000Y-75954000D01*
X75049000Y-75954000D02*
X75311000Y-75692000D01*
D35*
X82570000Y-63627000D02*
X82570000Y-61413500D01*
X82570000Y-61413500D02*
X82345500Y-61189000D01*
X82570000Y-63627000D02*
X82570000Y-65442650D01*
X82570000Y-65442650D02*
X82542210Y-65470440D01*
X79280000Y-57488000D02*
X79280000Y-58579000D01*
X79280000Y-58579000D02*
X79756000Y-59055000D01*
X82542210Y-67375440D02*
X82542210Y-65470440D01*
D33*
X90841000Y-72608000D02*
X90841000Y-71897000D01*
X96393000Y-82169000D02*
X96341000Y-82221000D01*
X96341000Y-82221000D02*
X96341000Y-83297000D01*
X98127000Y-80347000D02*
X98791000Y-80347000D01*
X97663000Y-79883000D02*
X98127000Y-80347000D01*
X87391000Y-77847000D02*
X88515000Y-77847000D01*
X88515000Y-77847000D02*
X88519000Y-77851000D01*
X96841000Y-71897000D02*
X96841000Y-73339000D01*
X96841000Y-73339000D02*
X96774000Y-73406000D01*
X94841000Y-71897000D02*
X94841000Y-73378000D01*
X94841000Y-73378000D02*
X94869000Y-73406000D01*
X78486000Y-92921000D02*
X78486000Y-94107000D01*
X83546000Y-89535000D02*
X84963000Y-89535000D01*
X103184000Y-66929000D02*
X103184000Y-64055000D01*
X103184000Y-64055000D02*
X103231000Y-64008000D01*
X103184000Y-66929000D02*
X102634000Y-66929000D01*
X102634000Y-66929000D02*
X100602000Y-68961000D01*
X100602000Y-68961000D02*
X98553410Y-68961000D01*
X98553410Y-68961000D02*
X96341000Y-71173410D01*
X96341000Y-71173410D02*
X96341000Y-71897000D01*
D34*
X86945500Y-61189000D02*
X86945500Y-63303500D01*
X86945500Y-63303500D02*
X87269000Y-63627000D01*
X94568800Y-58060000D02*
X89824500Y-58060000D01*
X89824500Y-58060000D02*
X86945500Y-60939000D01*
X86945500Y-60939000D02*
X86945500Y-61189000D01*
X94568800Y-58060000D02*
X94568800Y-59135000D01*
D33*
X98041000Y-77847000D02*
X93472000Y-77847000D01*
X93472000Y-77847000D02*
X93341000Y-77847000D01*
D35*
X69438999Y-71882000D02*
X69438999Y-61992079D01*
X69438999Y-74137999D02*
X69438999Y-71882000D01*
X69438999Y-71882000D02*
X69701000Y-71882000D01*
X69701000Y-71882000D02*
X71882000Y-74063000D01*
X71882000Y-74063000D02*
X71882000Y-74188000D01*
X69438999Y-61992079D02*
X70247079Y-61183999D01*
X70247079Y-61183999D02*
X75341001Y-61183999D01*
X75341001Y-61183999D02*
X77277000Y-59248000D01*
X77277000Y-59248000D02*
X77290000Y-59248000D01*
X69438999Y-78232000D02*
X69438999Y-74168000D01*
X89154000Y-101854000D02*
X87796000Y-101854000D01*
X87796000Y-101854000D02*
X84201000Y-98259000D01*
X84201000Y-98259000D02*
X84201000Y-97230864D01*
X84201000Y-97230864D02*
X85386864Y-96045000D01*
X85386864Y-96045000D02*
X85386864Y-96096136D01*
X84201000Y-97282000D02*
X78776422Y-97282000D01*
X85386864Y-96096136D02*
X84201000Y-97282000D01*
D33*
X87391000Y-75347000D02*
X86598000Y-75347000D01*
X86598000Y-75347000D02*
X85725000Y-76220000D01*
X74049000Y-77561000D02*
X73924000Y-77744014D01*
X73924000Y-77744014D02*
X73640000Y-77970000D01*
X73025000Y-77970000D02*
X72263000Y-77970000D01*
X72263000Y-77970000D02*
X69700999Y-77970000D01*
X74049000Y-76811000D02*
X74049000Y-77561000D01*
X73640000Y-77970000D02*
X73025000Y-77970000D01*
X69700999Y-77970000D02*
X69438999Y-78232000D01*
D35*
X69438999Y-95473999D02*
X69438999Y-78232000D01*
X81046000Y-89535000D02*
X81046000Y-87377000D01*
X81046000Y-87377000D02*
X81196000Y-87227000D01*
D33*
X93841000Y-78347000D02*
X96341000Y-80847000D01*
X96341000Y-80847000D02*
X98791000Y-80847000D01*
D35*
X110236000Y-71300000D02*
X110236000Y-74422000D01*
X110236000Y-74422000D02*
X110236000Y-75116000D01*
X106492000Y-76374000D02*
X105457000Y-76374000D01*
X105457000Y-76374000D02*
X104902000Y-75819000D01*
X103606192Y-55205990D02*
X107455202Y-59055000D01*
X107455202Y-59055000D02*
X110236000Y-61835798D01*
X102950000Y-61595000D02*
X104915202Y-61595000D01*
X104915202Y-61595000D02*
X107455202Y-59055000D01*
D33*
X93841000Y-83297000D02*
X93841000Y-78347000D01*
X93841000Y-78347000D02*
X93091000Y-77597000D01*
D35*
X88646000Y-82042000D02*
X89535000Y-81153000D01*
X89535000Y-81153000D02*
X93091000Y-77597000D01*
D33*
X87391000Y-80847000D02*
X89229000Y-80847000D01*
X89229000Y-80847000D02*
X89535000Y-81153000D01*
X93341000Y-77847000D02*
X93091000Y-77597000D01*
X87391000Y-75347000D02*
X86641000Y-75347000D01*
X86641000Y-75347000D02*
X86591001Y-75396999D01*
X86591001Y-75396999D02*
X90890999Y-75396999D01*
X90890999Y-75396999D02*
X93091000Y-77597000D01*
D35*
X79380000Y-67542342D02*
X79380000Y-77602000D01*
X79380000Y-77602000D02*
X83947000Y-82169000D01*
X83947000Y-82169000D02*
X88519000Y-82169000D01*
X88519000Y-82169000D02*
X88646000Y-82042000D01*
D33*
X98791000Y-77847000D02*
X98041000Y-77847000D01*
X98041000Y-77847000D02*
X98037000Y-77851000D01*
D35*
X69438999Y-95473999D02*
X71247000Y-97282000D01*
X71247000Y-97282000D02*
X78776422Y-97282000D01*
X78776422Y-97282000D02*
X81046000Y-95012422D01*
X81046000Y-95012422D02*
X81046000Y-90668000D01*
X81046000Y-90668000D02*
X81046000Y-89535000D01*
X84645500Y-61189000D02*
X84645500Y-63202500D01*
X84645500Y-63202500D02*
X85070000Y-63627000D01*
X77290000Y-57990000D02*
X77290000Y-59248000D01*
X77290000Y-59248000D02*
X79380000Y-61338000D01*
X79380000Y-61338000D02*
X79380000Y-61587298D01*
X84645500Y-59681000D02*
X81286298Y-59681000D01*
X81286298Y-59681000D02*
X79380000Y-61587298D01*
X79380000Y-61587298D02*
X79380000Y-67542342D01*
X79380000Y-67542342D02*
X79970000Y-68132342D01*
X81186600Y-71526400D02*
X81186600Y-69348942D01*
X81186600Y-69348942D02*
X79970000Y-68132342D01*
X81220800Y-69383142D02*
X82478800Y-69383142D01*
X79970000Y-68132342D02*
X81220800Y-69383142D01*
X81186600Y-71526400D02*
X82444600Y-71526400D01*
X89120510Y-55205990D02*
X84645500Y-59681000D01*
X84645500Y-59681000D02*
X84645500Y-61189000D01*
X110236000Y-71342000D02*
X110236000Y-71300000D01*
X105029000Y-71294000D02*
X105046000Y-71294000D01*
X105046000Y-71294000D02*
X109100000Y-67240000D01*
X109100000Y-67240000D02*
X110236000Y-67240000D01*
X110236000Y-61835798D02*
X110236000Y-67240000D01*
X110236000Y-67240000D02*
X110236000Y-71300000D01*
X110230000Y-71294000D02*
X110236000Y-71300000D01*
X102997000Y-72183000D02*
X104140000Y-72183000D01*
X104140000Y-72183000D02*
X105029000Y-71294000D01*
X89120510Y-55205990D02*
X103606192Y-55205990D01*
X110236000Y-75116000D02*
X110236000Y-76374000D01*
X88519000Y-96045000D02*
X86544864Y-96045000D01*
X86544864Y-96045000D02*
X85386864Y-96045000D01*
D33*
X97519502Y-81347000D02*
X97394492Y-81472010D01*
X98791000Y-81347000D02*
X97519502Y-81347000D01*
X91341000Y-81760000D02*
X91694000Y-81407000D01*
X91694000Y-81407000D02*
X93091000Y-81407000D01*
X91341000Y-83297000D02*
X91341000Y-81760000D01*
X91341000Y-73307000D02*
X92583000Y-74549000D01*
X92583000Y-74549000D02*
X93726000Y-74549000D01*
X91341000Y-71897000D02*
X91341000Y-73307000D01*
X98791000Y-73847000D02*
X97349000Y-73847000D01*
X97349000Y-73847000D02*
X96774000Y-74422000D01*
X74549000Y-78613000D02*
X74549000Y-81514000D01*
X74549000Y-81514000D02*
X74402000Y-81661000D01*
X74549000Y-79609000D02*
X74549000Y-78613000D01*
X74549000Y-78613000D02*
X74549000Y-78486000D01*
X74549000Y-78486000D02*
X74549000Y-76811000D01*
X74549000Y-79609000D02*
X74402000Y-79756000D01*
X71882000Y-76688000D02*
X73426000Y-76688000D01*
X73426000Y-76688000D02*
X73549000Y-76811000D01*
X73533000Y-65278000D02*
X73533000Y-70465000D01*
X73533000Y-70465000D02*
X73553000Y-70485000D01*
X73549000Y-73811000D02*
X73549000Y-70489000D01*
X73549000Y-70489000D02*
X73553000Y-70485000D01*
X73549000Y-70489000D02*
X73553000Y-70485000D01*
X100350000Y-59563000D02*
X100350000Y-61495000D01*
X100350000Y-61495000D02*
X100250000Y-61595000D01*
X100350000Y-57658000D02*
X100350000Y-59563000D01*
X95341000Y-64742000D02*
X98488000Y-61595000D01*
X98488000Y-61595000D02*
X100250000Y-61595000D01*
X95341000Y-71897000D02*
X95341000Y-64742000D01*
X91700698Y-69383142D02*
X86178800Y-69383142D01*
X92841000Y-70523444D02*
X91700698Y-69383142D01*
X92841000Y-71897000D02*
X92841000Y-70523444D01*
X86178800Y-69383142D02*
X85178800Y-69383142D01*
X85178800Y-67512030D02*
X85042210Y-67375440D01*
X85344000Y-69448342D02*
X85278800Y-69383142D01*
X85278800Y-69383142D02*
X85178800Y-69383142D01*
X85042210Y-67375440D02*
X85042210Y-65470440D01*
X85178800Y-69383142D02*
X85178800Y-67512030D01*
D35*
X79280000Y-55288000D02*
X77292000Y-55288000D01*
X77292000Y-55288000D02*
X77290000Y-55290000D01*
D33*
X88519000Y-93345000D02*
X88519000Y-91313000D01*
X86405999Y-85389999D02*
X86106000Y-85090000D01*
X88519000Y-87503000D02*
X86405999Y-85389999D01*
X88519000Y-89113000D02*
X88519000Y-87503000D01*
X87391000Y-80347000D02*
X86404012Y-80347000D01*
X86404012Y-80347000D02*
X86106000Y-80645012D01*
X86544864Y-93345000D02*
X86544864Y-91313000D01*
X86544864Y-86417860D02*
X85517003Y-85389999D01*
X85517003Y-85389999D02*
X85217004Y-85090000D01*
X86544864Y-89113000D02*
X86544864Y-86417860D01*
X87391000Y-79847000D02*
X85619117Y-79847000D01*
X85619117Y-79847000D02*
X85209216Y-80256901D01*
X85209216Y-80256901D02*
X85209216Y-80681165D01*
X73025000Y-84455000D02*
X73025000Y-90297000D01*
X73025000Y-90297000D02*
X73533000Y-90805000D01*
X73533000Y-90805000D02*
X78402000Y-90805000D01*
X78402000Y-90805000D02*
X78486000Y-90721000D01*
X91821000Y-83317000D02*
X91841000Y-83297000D01*
X92583000Y-95885000D02*
X91821000Y-95123000D01*
X91821000Y-95123000D02*
X91821000Y-83317000D01*
X91694000Y-99314000D02*
X92869001Y-98138999D01*
X99695000Y-95885000D02*
X99695000Y-86901000D01*
X92869001Y-98138999D02*
X95573589Y-98138999D01*
X95573589Y-98138999D02*
X96023599Y-97688988D01*
X96023599Y-97688988D02*
X97891012Y-97688988D01*
X97891012Y-97688988D02*
X99695000Y-95885000D01*
X99695000Y-86901000D02*
X96841000Y-84047000D01*
X96841000Y-84047000D02*
X96841000Y-83297000D01*
X93472000Y-95885000D02*
X92329000Y-94742000D01*
X92329000Y-94742000D02*
X92329000Y-83309000D01*
X92329000Y-83309000D02*
X92341000Y-83297000D01*
X94234000Y-99314000D02*
X95034998Y-99314000D01*
X95034998Y-99314000D02*
X96209999Y-98138999D01*
X96209999Y-98138999D02*
X98113589Y-98138999D01*
X100145011Y-96107577D02*
X100145011Y-80491009D01*
X98113589Y-98138999D02*
X98563600Y-97688988D01*
X98563600Y-97688988D02*
X100145011Y-96107577D01*
X100145011Y-80491009D02*
X99501002Y-79847000D01*
X99501002Y-79847000D02*
X98791000Y-79847000D01*
X94361000Y-95885000D02*
X92841000Y-94365000D01*
X92841000Y-94365000D02*
X92841000Y-83297000D01*
X96774000Y-99314000D02*
X97574998Y-99314000D01*
X97574998Y-99314000D02*
X100595022Y-96293976D01*
X100595022Y-96293976D02*
X100595022Y-80304609D01*
X100595022Y-80304609D02*
X99637412Y-79347000D01*
X99637412Y-79347000D02*
X99541000Y-79347000D01*
X99541000Y-79347000D02*
X98791000Y-79347000D01*
X95250000Y-95885000D02*
X93341000Y-93976000D01*
X93341000Y-93976000D02*
X93341000Y-83297000D01*
X99314000Y-99314000D02*
X101045033Y-97582967D01*
X101045033Y-80118210D02*
X99773823Y-78847000D01*
X99541000Y-78847000D02*
X98791000Y-78847000D01*
X99773823Y-78847000D02*
X99541000Y-78847000D01*
X101045033Y-97582967D02*
X101045033Y-80118210D01*
X96139000Y-95885000D02*
X94341000Y-94087000D01*
X94341000Y-94087000D02*
X94341000Y-83297000D01*
X101495044Y-95360220D02*
X101495044Y-79931811D01*
X101495044Y-79931811D02*
X99910233Y-78347000D01*
X99541000Y-78347000D02*
X98791000Y-78347000D01*
X101854000Y-95719176D02*
X101495044Y-95360220D01*
X101854000Y-99314000D02*
X101854000Y-95719176D01*
X99910233Y-78347000D02*
X99541000Y-78347000D01*
X97028000Y-95885000D02*
X94841000Y-93698000D01*
X94841000Y-93698000D02*
X94841000Y-83297000D01*
X99541000Y-77347000D02*
X98791000Y-77347000D01*
X104394000Y-99314000D02*
X104394000Y-97622765D01*
X101945055Y-79745409D02*
X99546646Y-77347000D01*
X101945055Y-95173820D02*
X101945055Y-79745409D01*
X99546646Y-77347000D02*
X99541000Y-77347000D01*
X104394000Y-97622765D02*
X101945055Y-95173820D01*
X97917000Y-95885000D02*
X95341000Y-93309000D01*
X95341000Y-93309000D02*
X95341000Y-84047000D01*
X95341000Y-84047000D02*
X95341000Y-83297000D01*
X99541000Y-76847000D02*
X98791000Y-76847000D01*
X99683048Y-76847000D02*
X99541000Y-76847000D01*
X102395066Y-79559018D02*
X99683048Y-76847000D01*
X106934000Y-99314000D02*
X102395066Y-94775066D01*
X102395066Y-94775066D02*
X102395066Y-79559018D01*
X98806000Y-95885000D02*
X95841000Y-92920000D01*
X95841000Y-92920000D02*
X95841000Y-83297000D01*
X109474000Y-99314000D02*
X102870000Y-92710000D01*
X102870000Y-92710000D02*
X102870000Y-79397532D01*
X102870000Y-79397532D02*
X99819468Y-76347000D01*
X99819468Y-76347000D02*
X99541000Y-76347000D01*
X99541000Y-76347000D02*
X98791000Y-76347000D01*
X78105000Y-84455000D02*
X81174000Y-84455000D01*
X81174000Y-84455000D02*
X81196000Y-84477000D01*
X75565000Y-84455000D02*
X75565000Y-76827000D01*
X75565000Y-76827000D02*
X75549000Y-76811000D01*
X103378000Y-79184000D02*
X103378000Y-80551002D01*
X103378000Y-80551002D02*
X104954999Y-82128001D01*
X104954999Y-82128001D02*
X107589999Y-82128001D01*
X107589999Y-82128001D02*
X108565000Y-81153000D01*
X108565000Y-81153000D02*
X108665000Y-81153000D01*
X98791000Y-75347000D02*
X99541000Y-75347000D01*
X99541000Y-75347000D02*
X103378000Y-79184000D01*
X108392000Y-79074000D02*
X108392000Y-80880000D01*
X108392000Y-80880000D02*
X108665000Y-81153000D01*
X99477000Y-75347000D02*
X98791000Y-75347000D01*
X110236000Y-79074000D02*
X108392000Y-79074000D01*
X105029000Y-74121000D02*
X106219000Y-74121000D01*
X106219000Y-74121000D02*
X107442000Y-75344000D01*
X107442000Y-75344000D02*
X107442000Y-76374000D01*
X98791000Y-74347000D02*
X99541000Y-74347000D01*
X104129000Y-74121000D02*
X105029000Y-74121000D01*
X99541000Y-74347000D02*
X100228000Y-73660000D01*
X100228000Y-73660000D02*
X103668000Y-73660000D01*
X103668000Y-73660000D02*
X104129000Y-74121000D01*
X107442000Y-76374000D02*
X107442000Y-75692000D01*
X108392000Y-76374000D02*
X108392000Y-77404000D01*
X108392000Y-77404000D02*
X108005991Y-77790009D01*
X105857009Y-77790009D02*
X102997000Y-74930000D01*
X108005991Y-77790009D02*
X105857009Y-77790009D01*
X102997000Y-74930000D02*
X102997000Y-74883000D01*
X103437001Y-75323001D02*
X102997000Y-74883000D01*
X98791000Y-74847000D02*
X102271000Y-74847000D01*
X102271000Y-74847000D02*
X102997000Y-74883000D01*
X105965000Y-81153000D02*
X105965000Y-79601000D01*
X105965000Y-79601000D02*
X106492000Y-79074000D01*
X90341000Y-71897000D02*
X90341000Y-71147000D01*
X90341000Y-71147000D02*
X89820400Y-70626400D01*
X89820400Y-70626400D02*
X86144600Y-70626400D01*
X86144600Y-70626400D02*
X85244600Y-71526400D01*
X85244600Y-71526400D02*
X85144600Y-71526400D01*
X94341000Y-71897000D02*
X94341000Y-71050500D01*
X94341000Y-71050500D02*
X94716000Y-70675500D01*
X87391000Y-74847000D02*
X81323992Y-74847000D01*
X81323992Y-74847000D02*
X81280000Y-74803008D01*
X74549000Y-73811000D02*
X74549000Y-72644000D01*
X89341000Y-71897000D02*
X88123000Y-71897000D01*
X88123000Y-71897000D02*
X87376000Y-72644000D01*
X87376000Y-72644000D02*
X81704268Y-72644000D01*
X81704268Y-72644000D02*
X81280004Y-72644000D01*
X75049000Y-73032994D02*
X75137995Y-72943999D01*
X75049000Y-73811000D02*
X75049000Y-73032994D01*
X75137995Y-72943999D02*
X75437994Y-72644000D01*
X87391000Y-73847000D02*
X81340006Y-73847000D01*
X81340006Y-73847000D02*
X81280006Y-73787000D01*
X75549000Y-73811000D02*
X75658000Y-73811000D01*
X75658000Y-73811000D02*
X76200000Y-73269000D01*
D36*
X93841000Y-71897000D02*
X93841000Y-59212800D01*
X93841000Y-59212800D02*
X93918800Y-59135000D01*
X93341000Y-71897000D02*
X93341000Y-59207200D01*
X93341000Y-59207200D02*
X93268800Y-59135000D01*
D37*
G36*
X88568560Y-83797000D02*
X88612838Y-84032317D01*
X88751910Y-84248441D01*
X88964110Y-84393431D01*
X89216000Y-84444440D01*
X89466000Y-84444440D01*
X89595589Y-84420056D01*
X89716000Y-84444440D01*
X89966000Y-84444440D01*
X90071705Y-84424550D01*
X90089690Y-84432000D01*
X90119750Y-84432000D01*
X90140062Y-84411688D01*
X90201317Y-84400162D01*
X90341727Y-84309810D01*
X90464110Y-84393431D01*
X90538808Y-84408558D01*
X90562250Y-84432000D01*
X90592310Y-84432000D01*
X90612753Y-84423532D01*
X90716000Y-84444440D01*
X90966000Y-84444440D01*
X91061000Y-84426564D01*
X91061000Y-95123000D01*
X91118852Y-95413839D01*
X91283599Y-95660401D01*
X91647878Y-96024680D01*
X91647838Y-96070167D01*
X91789883Y-96413943D01*
X92052673Y-96677192D01*
X92396201Y-96819838D01*
X92768167Y-96820162D01*
X93027714Y-96712920D01*
X93285201Y-96819838D01*
X93657167Y-96820162D01*
X93916714Y-96712920D01*
X94174201Y-96819838D01*
X94546167Y-96820162D01*
X94805714Y-96712920D01*
X95063201Y-96819838D01*
X95435167Y-96820162D01*
X95694714Y-96712920D01*
X95952201Y-96819838D01*
X96324167Y-96820162D01*
X96583714Y-96712920D01*
X96841201Y-96819838D01*
X97213167Y-96820162D01*
X97472714Y-96712920D01*
X97698517Y-96806681D01*
X97576210Y-96928988D01*
X96023599Y-96928988D01*
X95732759Y-96986840D01*
X95486197Y-97151587D01*
X95258786Y-97378999D01*
X92869001Y-97378999D01*
X92578161Y-97436851D01*
X92331600Y-97601598D01*
X92060408Y-97872790D01*
X91694000Y-97799907D01*
X91125715Y-97912946D01*
X90643946Y-98234853D01*
X90416298Y-98575553D01*
X90349183Y-98432642D01*
X89920924Y-98042355D01*
X89510890Y-97872524D01*
X89281000Y-97993845D01*
X89281000Y-99187000D01*
X89301000Y-99187000D01*
X89301000Y-99441000D01*
X89281000Y-99441000D01*
X89281000Y-99461000D01*
X89027000Y-99461000D01*
X89027000Y-99441000D01*
X87833181Y-99441000D01*
X87712514Y-99670892D01*
X87958817Y-100195358D01*
X88164504Y-100382808D01*
X88068683Y-100400838D01*
X87852559Y-100539910D01*
X87806523Y-100607287D01*
X86156344Y-98957108D01*
X87712514Y-98957108D01*
X87833181Y-99187000D01*
X89027000Y-99187000D01*
X89027000Y-97993845D01*
X88797110Y-97872524D01*
X88387076Y-98042355D01*
X87958817Y-98432642D01*
X87712514Y-98957108D01*
X86156344Y-98957108D01*
X85090000Y-97890764D01*
X85090000Y-97650236D01*
X85468214Y-97272022D01*
X85642974Y-97391431D01*
X85894864Y-97442440D01*
X87194864Y-97442440D01*
X87430181Y-97398162D01*
X87531522Y-97332951D01*
X87617110Y-97391431D01*
X87869000Y-97442440D01*
X89169000Y-97442440D01*
X89404317Y-97398162D01*
X89620441Y-97259090D01*
X89765431Y-97046890D01*
X89816440Y-96795000D01*
X89816440Y-95295000D01*
X89772162Y-95059683D01*
X89633090Y-94843559D01*
X89420890Y-94698569D01*
X89407803Y-94695919D01*
X89620441Y-94559090D01*
X89765431Y-94346890D01*
X89816440Y-94095000D01*
X89816440Y-92595000D01*
X89772162Y-92359683D01*
X89680095Y-92216606D01*
X89715431Y-92164890D01*
X89766440Y-91913000D01*
X89766440Y-90713000D01*
X89722162Y-90477683D01*
X89583090Y-90261559D01*
X89513289Y-90213866D01*
X89570441Y-90177090D01*
X89715431Y-89964890D01*
X89766440Y-89713000D01*
X89766440Y-88513000D01*
X89722162Y-88277683D01*
X89583090Y-88061559D01*
X89370890Y-87916569D01*
X89279000Y-87897961D01*
X89279000Y-87503000D01*
X89221148Y-87212161D01*
X89056401Y-86965599D01*
X87041122Y-84950320D01*
X87041162Y-84904833D01*
X86899117Y-84561057D01*
X86636327Y-84297808D01*
X86292799Y-84155162D01*
X85920833Y-84154838D01*
X85661288Y-84262080D01*
X85403803Y-84155162D01*
X85031837Y-84154838D01*
X84794239Y-84253011D01*
X84856000Y-84191250D01*
X84856000Y-83375691D01*
X84759327Y-83142302D01*
X84675025Y-83058000D01*
X88519000Y-83058000D01*
X88568560Y-83048142D01*
X88568560Y-83797000D01*
X88568560Y-83797000D01*
G37*
X88568560Y-83797000D02*
X88612838Y-84032317D01*
X88751910Y-84248441D01*
X88964110Y-84393431D01*
X89216000Y-84444440D01*
X89466000Y-84444440D01*
X89595589Y-84420056D01*
X89716000Y-84444440D01*
X89966000Y-84444440D01*
X90071705Y-84424550D01*
X90089690Y-84432000D01*
X90119750Y-84432000D01*
X90140062Y-84411688D01*
X90201317Y-84400162D01*
X90341727Y-84309810D01*
X90464110Y-84393431D01*
X90538808Y-84408558D01*
X90562250Y-84432000D01*
X90592310Y-84432000D01*
X90612753Y-84423532D01*
X90716000Y-84444440D01*
X90966000Y-84444440D01*
X91061000Y-84426564D01*
X91061000Y-95123000D01*
X91118852Y-95413839D01*
X91283599Y-95660401D01*
X91647878Y-96024680D01*
X91647838Y-96070167D01*
X91789883Y-96413943D01*
X92052673Y-96677192D01*
X92396201Y-96819838D01*
X92768167Y-96820162D01*
X93027714Y-96712920D01*
X93285201Y-96819838D01*
X93657167Y-96820162D01*
X93916714Y-96712920D01*
X94174201Y-96819838D01*
X94546167Y-96820162D01*
X94805714Y-96712920D01*
X95063201Y-96819838D01*
X95435167Y-96820162D01*
X95694714Y-96712920D01*
X95952201Y-96819838D01*
X96324167Y-96820162D01*
X96583714Y-96712920D01*
X96841201Y-96819838D01*
X97213167Y-96820162D01*
X97472714Y-96712920D01*
X97698517Y-96806681D01*
X97576210Y-96928988D01*
X96023599Y-96928988D01*
X95732759Y-96986840D01*
X95486197Y-97151587D01*
X95258786Y-97378999D01*
X92869001Y-97378999D01*
X92578161Y-97436851D01*
X92331600Y-97601598D01*
X92060408Y-97872790D01*
X91694000Y-97799907D01*
X91125715Y-97912946D01*
X90643946Y-98234853D01*
X90416298Y-98575553D01*
X90349183Y-98432642D01*
X89920924Y-98042355D01*
X89510890Y-97872524D01*
X89281000Y-97993845D01*
X89281000Y-99187000D01*
X89301000Y-99187000D01*
X89301000Y-99441000D01*
X89281000Y-99441000D01*
X89281000Y-99461000D01*
X89027000Y-99461000D01*
X89027000Y-99441000D01*
X87833181Y-99441000D01*
X87712514Y-99670892D01*
X87958817Y-100195358D01*
X88164504Y-100382808D01*
X88068683Y-100400838D01*
X87852559Y-100539910D01*
X87806523Y-100607287D01*
X86156344Y-98957108D01*
X87712514Y-98957108D01*
X87833181Y-99187000D01*
X89027000Y-99187000D01*
X89027000Y-97993845D01*
X88797110Y-97872524D01*
X88387076Y-98042355D01*
X87958817Y-98432642D01*
X87712514Y-98957108D01*
X86156344Y-98957108D01*
X85090000Y-97890764D01*
X85090000Y-97650236D01*
X85468214Y-97272022D01*
X85642974Y-97391431D01*
X85894864Y-97442440D01*
X87194864Y-97442440D01*
X87430181Y-97398162D01*
X87531522Y-97332951D01*
X87617110Y-97391431D01*
X87869000Y-97442440D01*
X89169000Y-97442440D01*
X89404317Y-97398162D01*
X89620441Y-97259090D01*
X89765431Y-97046890D01*
X89816440Y-96795000D01*
X89816440Y-95295000D01*
X89772162Y-95059683D01*
X89633090Y-94843559D01*
X89420890Y-94698569D01*
X89407803Y-94695919D01*
X89620441Y-94559090D01*
X89765431Y-94346890D01*
X89816440Y-94095000D01*
X89816440Y-92595000D01*
X89772162Y-92359683D01*
X89680095Y-92216606D01*
X89715431Y-92164890D01*
X89766440Y-91913000D01*
X89766440Y-90713000D01*
X89722162Y-90477683D01*
X89583090Y-90261559D01*
X89513289Y-90213866D01*
X89570441Y-90177090D01*
X89715431Y-89964890D01*
X89766440Y-89713000D01*
X89766440Y-88513000D01*
X89722162Y-88277683D01*
X89583090Y-88061559D01*
X89370890Y-87916569D01*
X89279000Y-87897961D01*
X89279000Y-87503000D01*
X89221148Y-87212161D01*
X89056401Y-86965599D01*
X87041122Y-84950320D01*
X87041162Y-84904833D01*
X86899117Y-84561057D01*
X86636327Y-84297808D01*
X86292799Y-84155162D01*
X85920833Y-84154838D01*
X85661288Y-84262080D01*
X85403803Y-84155162D01*
X85031837Y-84154838D01*
X84794239Y-84253011D01*
X84856000Y-84191250D01*
X84856000Y-83375691D01*
X84759327Y-83142302D01*
X84675025Y-83058000D01*
X88519000Y-83058000D01*
X88568560Y-83048142D01*
X88568560Y-83797000D01*
G36*
X85030205Y-86024838D02*
X85077081Y-86024879D01*
X85784864Y-86732662D01*
X85784864Y-87895666D01*
X85709547Y-87909838D01*
X85493423Y-88048910D01*
X85348433Y-88261110D01*
X85297424Y-88513000D01*
X85297424Y-89713000D01*
X85341702Y-89948317D01*
X85480774Y-90164441D01*
X85550575Y-90212134D01*
X85493423Y-90248910D01*
X85348433Y-90461110D01*
X85297424Y-90713000D01*
X85297424Y-91913000D01*
X85341702Y-92148317D01*
X85385269Y-92216022D01*
X85298433Y-92343110D01*
X85247424Y-92595000D01*
X85247424Y-94095000D01*
X85291702Y-94330317D01*
X85430774Y-94546441D01*
X85642974Y-94691431D01*
X85656061Y-94694081D01*
X85443423Y-94830910D01*
X85298433Y-95043110D01*
X85270901Y-95179066D01*
X85046658Y-95223671D01*
X84774638Y-95405429D01*
X84758246Y-95416382D01*
X83781628Y-96393000D01*
X80922658Y-96393000D01*
X81674618Y-95641040D01*
X81867329Y-95352628D01*
X81935000Y-95012422D01*
X81935000Y-90781285D01*
X82031317Y-90763162D01*
X82247441Y-90624090D01*
X82293969Y-90555994D01*
X82436302Y-90698327D01*
X82669691Y-90795000D01*
X83260250Y-90795000D01*
X83419000Y-90636250D01*
X83419000Y-89662000D01*
X83673000Y-89662000D01*
X83673000Y-90636250D01*
X83831750Y-90795000D01*
X84422309Y-90795000D01*
X84655698Y-90698327D01*
X84834327Y-90519699D01*
X84931000Y-90286310D01*
X84931000Y-89820750D01*
X84772250Y-89662000D01*
X83673000Y-89662000D01*
X83419000Y-89662000D01*
X83399000Y-89662000D01*
X83399000Y-89408000D01*
X83419000Y-89408000D01*
X83419000Y-89388000D01*
X83673000Y-89388000D01*
X83673000Y-89408000D01*
X84772250Y-89408000D01*
X84931000Y-89249250D01*
X84931000Y-88783690D01*
X84834327Y-88550301D01*
X84785154Y-88501129D01*
X84817431Y-88453890D01*
X84868440Y-88202000D01*
X84868440Y-86252000D01*
X84824162Y-86016683D01*
X84756194Y-85911058D01*
X85030205Y-86024838D01*
X85030205Y-86024838D01*
G37*
X85030205Y-86024838D02*
X85077081Y-86024879D01*
X85784864Y-86732662D01*
X85784864Y-87895666D01*
X85709547Y-87909838D01*
X85493423Y-88048910D01*
X85348433Y-88261110D01*
X85297424Y-88513000D01*
X85297424Y-89713000D01*
X85341702Y-89948317D01*
X85480774Y-90164441D01*
X85550575Y-90212134D01*
X85493423Y-90248910D01*
X85348433Y-90461110D01*
X85297424Y-90713000D01*
X85297424Y-91913000D01*
X85341702Y-92148317D01*
X85385269Y-92216022D01*
X85298433Y-92343110D01*
X85247424Y-92595000D01*
X85247424Y-94095000D01*
X85291702Y-94330317D01*
X85430774Y-94546441D01*
X85642974Y-94691431D01*
X85656061Y-94694081D01*
X85443423Y-94830910D01*
X85298433Y-95043110D01*
X85270901Y-95179066D01*
X85046658Y-95223671D01*
X84774638Y-95405429D01*
X84758246Y-95416382D01*
X83781628Y-96393000D01*
X80922658Y-96393000D01*
X81674618Y-95641040D01*
X81867329Y-95352628D01*
X81935000Y-95012422D01*
X81935000Y-90781285D01*
X82031317Y-90763162D01*
X82247441Y-90624090D01*
X82293969Y-90555994D01*
X82436302Y-90698327D01*
X82669691Y-90795000D01*
X83260250Y-90795000D01*
X83419000Y-90636250D01*
X83419000Y-89662000D01*
X83673000Y-89662000D01*
X83673000Y-90636250D01*
X83831750Y-90795000D01*
X84422309Y-90795000D01*
X84655698Y-90698327D01*
X84834327Y-90519699D01*
X84931000Y-90286310D01*
X84931000Y-89820750D01*
X84772250Y-89662000D01*
X83673000Y-89662000D01*
X83419000Y-89662000D01*
X83399000Y-89662000D01*
X83399000Y-89408000D01*
X83419000Y-89408000D01*
X83419000Y-89388000D01*
X83673000Y-89388000D01*
X83673000Y-89408000D01*
X84772250Y-89408000D01*
X84931000Y-89249250D01*
X84931000Y-88783690D01*
X84834327Y-88550301D01*
X84785154Y-88501129D01*
X84817431Y-88453890D01*
X84868440Y-88202000D01*
X84868440Y-86252000D01*
X84824162Y-86016683D01*
X84756194Y-85911058D01*
X85030205Y-86024838D01*
G36*
X70613673Y-78771301D02*
X70517000Y-79004690D01*
X70517000Y-79470250D01*
X70675750Y-79629000D01*
X71775000Y-79629000D01*
X71775000Y-79609000D01*
X72029000Y-79609000D01*
X72029000Y-79629000D01*
X72049000Y-79629000D01*
X72049000Y-79883000D01*
X72029000Y-79883000D01*
X72029000Y-81534000D01*
X72049000Y-81534000D01*
X72049000Y-81788000D01*
X72029000Y-81788000D01*
X72029000Y-82762250D01*
X72187750Y-82921000D01*
X72778309Y-82921000D01*
X73011698Y-82824327D01*
X73152936Y-82683090D01*
X73187910Y-82737441D01*
X73400110Y-82882431D01*
X73652000Y-82933440D01*
X74805000Y-82933440D01*
X74805000Y-83182046D01*
X74514946Y-83375853D01*
X74295000Y-83705026D01*
X74075054Y-83375853D01*
X73593285Y-83053946D01*
X73025000Y-82940907D01*
X72456715Y-83053946D01*
X71974946Y-83375853D01*
X71653039Y-83857622D01*
X71540000Y-84425907D01*
X71540000Y-84484093D01*
X71653039Y-85052378D01*
X71974946Y-85534147D01*
X72265000Y-85727954D01*
X72265000Y-87238592D01*
X72217868Y-87219737D01*
X71172605Y-88265000D01*
X72217868Y-89310263D01*
X72265000Y-89291408D01*
X72265000Y-89760564D01*
X72147722Y-89877637D01*
X71898284Y-90478352D01*
X71897716Y-91128795D01*
X72146106Y-91729943D01*
X72605637Y-92190278D01*
X73206352Y-92439716D01*
X73856795Y-92440284D01*
X74457943Y-92191894D01*
X74529830Y-92120132D01*
X75027737Y-92120132D01*
X76073000Y-93165395D01*
X77118263Y-92120132D01*
X77007359Y-91842901D01*
X76361407Y-91599677D01*
X75671547Y-91622164D01*
X75138641Y-91842901D01*
X75027737Y-92120132D01*
X74529830Y-92120132D01*
X74918278Y-91732363D01*
X74987773Y-91565000D01*
X77438425Y-91565000D01*
X77571910Y-91772441D01*
X77640006Y-91818969D01*
X77497673Y-91961302D01*
X77401000Y-92194691D01*
X77401000Y-92340994D01*
X77297868Y-92299737D01*
X76252605Y-93345000D01*
X77297868Y-94390263D01*
X77575099Y-94279359D01*
X77662969Y-94045995D01*
X77676301Y-94059327D01*
X77909690Y-94156000D01*
X78200250Y-94156000D01*
X78359000Y-93997250D01*
X78359000Y-93048000D01*
X78613000Y-93048000D01*
X78613000Y-93997250D01*
X78771750Y-94156000D01*
X79062310Y-94156000D01*
X79295699Y-94059327D01*
X79474327Y-93880698D01*
X79571000Y-93647309D01*
X79571000Y-93206750D01*
X79412250Y-93048000D01*
X78613000Y-93048000D01*
X78359000Y-93048000D01*
X78339000Y-93048000D01*
X78339000Y-92794000D01*
X78359000Y-92794000D01*
X78359000Y-92774000D01*
X78613000Y-92774000D01*
X78613000Y-92794000D01*
X79412250Y-92794000D01*
X79571000Y-92635250D01*
X79571000Y-92194691D01*
X79474327Y-91961302D01*
X79333090Y-91820064D01*
X79387441Y-91785090D01*
X79532431Y-91572890D01*
X79583440Y-91321000D01*
X79583440Y-90121000D01*
X79539162Y-89885683D01*
X79400090Y-89669559D01*
X79187890Y-89524569D01*
X78936000Y-89473560D01*
X78036000Y-89473560D01*
X77800683Y-89517838D01*
X77584559Y-89656910D01*
X77439569Y-89869110D01*
X77403950Y-90045000D01*
X74988047Y-90045000D01*
X74919894Y-89880057D01*
X74530387Y-89489868D01*
X75027737Y-89489868D01*
X75138641Y-89767099D01*
X75784593Y-90010323D01*
X76474453Y-89987836D01*
X77007359Y-89767099D01*
X77118263Y-89489868D01*
X76073000Y-88444605D01*
X75027737Y-89489868D01*
X74530387Y-89489868D01*
X74460363Y-89419722D01*
X73859648Y-89170284D01*
X73785000Y-89170219D01*
X73785000Y-87976593D01*
X74327677Y-87976593D01*
X74350164Y-88666453D01*
X74570901Y-89199359D01*
X74848132Y-89310263D01*
X75893395Y-88265000D01*
X76252605Y-88265000D01*
X77297868Y-89310263D01*
X77575099Y-89199359D01*
X77818323Y-88553407D01*
X77795836Y-87863547D01*
X77575099Y-87330641D01*
X77297868Y-87219737D01*
X76252605Y-88265000D01*
X75893395Y-88265000D01*
X74848132Y-87219737D01*
X74570901Y-87330641D01*
X74327677Y-87976593D01*
X73785000Y-87976593D01*
X73785000Y-87040132D01*
X75027737Y-87040132D01*
X76073000Y-88085395D01*
X77118263Y-87040132D01*
X77007359Y-86762901D01*
X76361407Y-86519677D01*
X75671547Y-86542164D01*
X75138641Y-86762901D01*
X75027737Y-87040132D01*
X73785000Y-87040132D01*
X73785000Y-85727954D01*
X74075054Y-85534147D01*
X74295000Y-85204974D01*
X74514946Y-85534147D01*
X74996715Y-85856054D01*
X75565000Y-85969093D01*
X76133285Y-85856054D01*
X76615054Y-85534147D01*
X76642850Y-85492548D01*
X76651838Y-85540317D01*
X76790910Y-85756441D01*
X77003110Y-85901431D01*
X77255000Y-85952440D01*
X78955000Y-85952440D01*
X79190317Y-85908162D01*
X79406441Y-85769090D01*
X79551431Y-85556890D01*
X79602440Y-85305000D01*
X79602440Y-85215000D01*
X79723560Y-85215000D01*
X79723560Y-85452000D01*
X79767838Y-85687317D01*
X79874759Y-85853477D01*
X79774569Y-86000110D01*
X79723560Y-86252000D01*
X79723560Y-88202000D01*
X79767838Y-88437317D01*
X79807896Y-88499568D01*
X79699569Y-88658110D01*
X79648560Y-88910000D01*
X79648560Y-90160000D01*
X79692838Y-90395317D01*
X79831910Y-90611441D01*
X80044110Y-90756431D01*
X80157000Y-90779292D01*
X80157000Y-94644186D01*
X78408186Y-96393000D01*
X71615236Y-96393000D01*
X70327999Y-95105763D01*
X70327999Y-94948522D01*
X70704593Y-95090323D01*
X71394453Y-95067836D01*
X71927359Y-94847099D01*
X72038263Y-94569868D01*
X75027737Y-94569868D01*
X75138641Y-94847099D01*
X75784593Y-95090323D01*
X76474453Y-95067836D01*
X77007359Y-94847099D01*
X77118263Y-94569868D01*
X76073000Y-93524605D01*
X75027737Y-94569868D01*
X72038263Y-94569868D01*
X70993000Y-93524605D01*
X70978858Y-93538748D01*
X70799253Y-93359143D01*
X70813395Y-93345000D01*
X71172605Y-93345000D01*
X72217868Y-94390263D01*
X72495099Y-94279359D01*
X72738323Y-93633407D01*
X72719521Y-93056593D01*
X74327677Y-93056593D01*
X74350164Y-93746453D01*
X74570901Y-94279359D01*
X74848132Y-94390263D01*
X75893395Y-93345000D01*
X74848132Y-92299737D01*
X74570901Y-92410641D01*
X74327677Y-93056593D01*
X72719521Y-93056593D01*
X72715836Y-92943547D01*
X72495099Y-92410641D01*
X72217868Y-92299737D01*
X71172605Y-93345000D01*
X70813395Y-93345000D01*
X70799253Y-93330858D01*
X70978858Y-93151253D01*
X70993000Y-93165395D01*
X72038263Y-92120132D01*
X71927359Y-91842901D01*
X71281407Y-91599677D01*
X70591547Y-91622164D01*
X70327999Y-91731329D01*
X70327999Y-89868522D01*
X70704593Y-90010323D01*
X71394453Y-89987836D01*
X71927359Y-89767099D01*
X72038263Y-89489868D01*
X70993000Y-88444605D01*
X70978858Y-88458748D01*
X70799253Y-88279143D01*
X70813395Y-88265000D01*
X70799253Y-88250858D01*
X70978858Y-88071253D01*
X70993000Y-88085395D01*
X72038263Y-87040132D01*
X71927359Y-86762901D01*
X71281407Y-86519677D01*
X70591547Y-86542164D01*
X70327999Y-86651329D01*
X70327999Y-81946750D01*
X70517000Y-81946750D01*
X70517000Y-82412310D01*
X70613673Y-82645699D01*
X70792302Y-82824327D01*
X71025691Y-82921000D01*
X71616250Y-82921000D01*
X71775000Y-82762250D01*
X71775000Y-81788000D01*
X70675750Y-81788000D01*
X70517000Y-81946750D01*
X70327999Y-81946750D01*
X70327999Y-80041750D01*
X70517000Y-80041750D01*
X70517000Y-80507310D01*
X70600336Y-80708500D01*
X70517000Y-80909690D01*
X70517000Y-81375250D01*
X70675750Y-81534000D01*
X71775000Y-81534000D01*
X71775000Y-79883000D01*
X70675750Y-79883000D01*
X70517000Y-80041750D01*
X70327999Y-80041750D01*
X70327999Y-78730000D01*
X70654974Y-78730000D01*
X70613673Y-78771301D01*
X70613673Y-78771301D01*
G37*
X70613673Y-78771301D02*
X70517000Y-79004690D01*
X70517000Y-79470250D01*
X70675750Y-79629000D01*
X71775000Y-79629000D01*
X71775000Y-79609000D01*
X72029000Y-79609000D01*
X72029000Y-79629000D01*
X72049000Y-79629000D01*
X72049000Y-79883000D01*
X72029000Y-79883000D01*
X72029000Y-81534000D01*
X72049000Y-81534000D01*
X72049000Y-81788000D01*
X72029000Y-81788000D01*
X72029000Y-82762250D01*
X72187750Y-82921000D01*
X72778309Y-82921000D01*
X73011698Y-82824327D01*
X73152936Y-82683090D01*
X73187910Y-82737441D01*
X73400110Y-82882431D01*
X73652000Y-82933440D01*
X74805000Y-82933440D01*
X74805000Y-83182046D01*
X74514946Y-83375853D01*
X74295000Y-83705026D01*
X74075054Y-83375853D01*
X73593285Y-83053946D01*
X73025000Y-82940907D01*
X72456715Y-83053946D01*
X71974946Y-83375853D01*
X71653039Y-83857622D01*
X71540000Y-84425907D01*
X71540000Y-84484093D01*
X71653039Y-85052378D01*
X71974946Y-85534147D01*
X72265000Y-85727954D01*
X72265000Y-87238592D01*
X72217868Y-87219737D01*
X71172605Y-88265000D01*
X72217868Y-89310263D01*
X72265000Y-89291408D01*
X72265000Y-89760564D01*
X72147722Y-89877637D01*
X71898284Y-90478352D01*
X71897716Y-91128795D01*
X72146106Y-91729943D01*
X72605637Y-92190278D01*
X73206352Y-92439716D01*
X73856795Y-92440284D01*
X74457943Y-92191894D01*
X74529830Y-92120132D01*
X75027737Y-92120132D01*
X76073000Y-93165395D01*
X77118263Y-92120132D01*
X77007359Y-91842901D01*
X76361407Y-91599677D01*
X75671547Y-91622164D01*
X75138641Y-91842901D01*
X75027737Y-92120132D01*
X74529830Y-92120132D01*
X74918278Y-91732363D01*
X74987773Y-91565000D01*
X77438425Y-91565000D01*
X77571910Y-91772441D01*
X77640006Y-91818969D01*
X77497673Y-91961302D01*
X77401000Y-92194691D01*
X77401000Y-92340994D01*
X77297868Y-92299737D01*
X76252605Y-93345000D01*
X77297868Y-94390263D01*
X77575099Y-94279359D01*
X77662969Y-94045995D01*
X77676301Y-94059327D01*
X77909690Y-94156000D01*
X78200250Y-94156000D01*
X78359000Y-93997250D01*
X78359000Y-93048000D01*
X78613000Y-93048000D01*
X78613000Y-93997250D01*
X78771750Y-94156000D01*
X79062310Y-94156000D01*
X79295699Y-94059327D01*
X79474327Y-93880698D01*
X79571000Y-93647309D01*
X79571000Y-93206750D01*
X79412250Y-93048000D01*
X78613000Y-93048000D01*
X78359000Y-93048000D01*
X78339000Y-93048000D01*
X78339000Y-92794000D01*
X78359000Y-92794000D01*
X78359000Y-92774000D01*
X78613000Y-92774000D01*
X78613000Y-92794000D01*
X79412250Y-92794000D01*
X79571000Y-92635250D01*
X79571000Y-92194691D01*
X79474327Y-91961302D01*
X79333090Y-91820064D01*
X79387441Y-91785090D01*
X79532431Y-91572890D01*
X79583440Y-91321000D01*
X79583440Y-90121000D01*
X79539162Y-89885683D01*
X79400090Y-89669559D01*
X79187890Y-89524569D01*
X78936000Y-89473560D01*
X78036000Y-89473560D01*
X77800683Y-89517838D01*
X77584559Y-89656910D01*
X77439569Y-89869110D01*
X77403950Y-90045000D01*
X74988047Y-90045000D01*
X74919894Y-89880057D01*
X74530387Y-89489868D01*
X75027737Y-89489868D01*
X75138641Y-89767099D01*
X75784593Y-90010323D01*
X76474453Y-89987836D01*
X77007359Y-89767099D01*
X77118263Y-89489868D01*
X76073000Y-88444605D01*
X75027737Y-89489868D01*
X74530387Y-89489868D01*
X74460363Y-89419722D01*
X73859648Y-89170284D01*
X73785000Y-89170219D01*
X73785000Y-87976593D01*
X74327677Y-87976593D01*
X74350164Y-88666453D01*
X74570901Y-89199359D01*
X74848132Y-89310263D01*
X75893395Y-88265000D01*
X76252605Y-88265000D01*
X77297868Y-89310263D01*
X77575099Y-89199359D01*
X77818323Y-88553407D01*
X77795836Y-87863547D01*
X77575099Y-87330641D01*
X77297868Y-87219737D01*
X76252605Y-88265000D01*
X75893395Y-88265000D01*
X74848132Y-87219737D01*
X74570901Y-87330641D01*
X74327677Y-87976593D01*
X73785000Y-87976593D01*
X73785000Y-87040132D01*
X75027737Y-87040132D01*
X76073000Y-88085395D01*
X77118263Y-87040132D01*
X77007359Y-86762901D01*
X76361407Y-86519677D01*
X75671547Y-86542164D01*
X75138641Y-86762901D01*
X75027737Y-87040132D01*
X73785000Y-87040132D01*
X73785000Y-85727954D01*
X74075054Y-85534147D01*
X74295000Y-85204974D01*
X74514946Y-85534147D01*
X74996715Y-85856054D01*
X75565000Y-85969093D01*
X76133285Y-85856054D01*
X76615054Y-85534147D01*
X76642850Y-85492548D01*
X76651838Y-85540317D01*
X76790910Y-85756441D01*
X77003110Y-85901431D01*
X77255000Y-85952440D01*
X78955000Y-85952440D01*
X79190317Y-85908162D01*
X79406441Y-85769090D01*
X79551431Y-85556890D01*
X79602440Y-85305000D01*
X79602440Y-85215000D01*
X79723560Y-85215000D01*
X79723560Y-85452000D01*
X79767838Y-85687317D01*
X79874759Y-85853477D01*
X79774569Y-86000110D01*
X79723560Y-86252000D01*
X79723560Y-88202000D01*
X79767838Y-88437317D01*
X79807896Y-88499568D01*
X79699569Y-88658110D01*
X79648560Y-88910000D01*
X79648560Y-90160000D01*
X79692838Y-90395317D01*
X79831910Y-90611441D01*
X80044110Y-90756431D01*
X80157000Y-90779292D01*
X80157000Y-94644186D01*
X78408186Y-96393000D01*
X71615236Y-96393000D01*
X70327999Y-95105763D01*
X70327999Y-94948522D01*
X70704593Y-95090323D01*
X71394453Y-95067836D01*
X71927359Y-94847099D01*
X72038263Y-94569868D01*
X75027737Y-94569868D01*
X75138641Y-94847099D01*
X75784593Y-95090323D01*
X76474453Y-95067836D01*
X77007359Y-94847099D01*
X77118263Y-94569868D01*
X76073000Y-93524605D01*
X75027737Y-94569868D01*
X72038263Y-94569868D01*
X70993000Y-93524605D01*
X70978858Y-93538748D01*
X70799253Y-93359143D01*
X70813395Y-93345000D01*
X71172605Y-93345000D01*
X72217868Y-94390263D01*
X72495099Y-94279359D01*
X72738323Y-93633407D01*
X72719521Y-93056593D01*
X74327677Y-93056593D01*
X74350164Y-93746453D01*
X74570901Y-94279359D01*
X74848132Y-94390263D01*
X75893395Y-93345000D01*
X74848132Y-92299737D01*
X74570901Y-92410641D01*
X74327677Y-93056593D01*
X72719521Y-93056593D01*
X72715836Y-92943547D01*
X72495099Y-92410641D01*
X72217868Y-92299737D01*
X71172605Y-93345000D01*
X70813395Y-93345000D01*
X70799253Y-93330858D01*
X70978858Y-93151253D01*
X70993000Y-93165395D01*
X72038263Y-92120132D01*
X71927359Y-91842901D01*
X71281407Y-91599677D01*
X70591547Y-91622164D01*
X70327999Y-91731329D01*
X70327999Y-89868522D01*
X70704593Y-90010323D01*
X71394453Y-89987836D01*
X71927359Y-89767099D01*
X72038263Y-89489868D01*
X70993000Y-88444605D01*
X70978858Y-88458748D01*
X70799253Y-88279143D01*
X70813395Y-88265000D01*
X70799253Y-88250858D01*
X70978858Y-88071253D01*
X70993000Y-88085395D01*
X72038263Y-87040132D01*
X71927359Y-86762901D01*
X71281407Y-86519677D01*
X70591547Y-86542164D01*
X70327999Y-86651329D01*
X70327999Y-81946750D01*
X70517000Y-81946750D01*
X70517000Y-82412310D01*
X70613673Y-82645699D01*
X70792302Y-82824327D01*
X71025691Y-82921000D01*
X71616250Y-82921000D01*
X71775000Y-82762250D01*
X71775000Y-81788000D01*
X70675750Y-81788000D01*
X70517000Y-81946750D01*
X70327999Y-81946750D01*
X70327999Y-80041750D01*
X70517000Y-80041750D01*
X70517000Y-80507310D01*
X70600336Y-80708500D01*
X70517000Y-80909690D01*
X70517000Y-81375250D01*
X70675750Y-81534000D01*
X71775000Y-81534000D01*
X71775000Y-79883000D01*
X70675750Y-79883000D01*
X70517000Y-80041750D01*
X70327999Y-80041750D01*
X70327999Y-78730000D01*
X70654974Y-78730000D01*
X70613673Y-78771301D01*
G36*
X78491000Y-61706236D02*
X78491000Y-77602000D01*
X78558671Y-77942206D01*
X78748041Y-78225618D01*
X78751382Y-78230618D01*
X83318382Y-82797618D01*
X83577797Y-82970953D01*
X83523000Y-83025750D01*
X83523000Y-84350000D01*
X83543000Y-84350000D01*
X83543000Y-84604000D01*
X83523000Y-84604000D01*
X83523000Y-84624000D01*
X83269000Y-84624000D01*
X83269000Y-84604000D01*
X83249000Y-84604000D01*
X83249000Y-84350000D01*
X83269000Y-84350000D01*
X83269000Y-83025750D01*
X83110250Y-82867000D01*
X82444690Y-82867000D01*
X82302588Y-82925861D01*
X82272890Y-82905569D01*
X82021000Y-82854560D01*
X80371000Y-82854560D01*
X80135683Y-82898838D01*
X79919559Y-83037910D01*
X79774569Y-83250110D01*
X79723560Y-83502000D01*
X79723560Y-83695000D01*
X79602440Y-83695000D01*
X79602440Y-83605000D01*
X79558162Y-83369683D01*
X79419090Y-83153559D01*
X79206890Y-83008569D01*
X78955000Y-82957560D01*
X77255000Y-82957560D01*
X77019683Y-83001838D01*
X76803559Y-83140910D01*
X76658569Y-83353110D01*
X76644914Y-83420541D01*
X76615054Y-83375853D01*
X76325000Y-83182046D01*
X76325000Y-76827000D01*
X76321440Y-76809103D01*
X76321440Y-76384200D01*
X76374000Y-76257309D01*
X76374000Y-75596750D01*
X76215250Y-75438000D01*
X74676000Y-75438000D01*
X74676000Y-75458000D01*
X74422000Y-75458000D01*
X74422000Y-75438000D01*
X74402000Y-75438000D01*
X74402000Y-75184000D01*
X74422000Y-75184000D01*
X74422000Y-75164000D01*
X74676000Y-75164000D01*
X74676000Y-75184000D01*
X76215250Y-75184000D01*
X76374000Y-75025250D01*
X76374000Y-74364691D01*
X76321440Y-74237800D01*
X76321440Y-74222362D01*
X76339680Y-74204122D01*
X76385167Y-74204162D01*
X76728943Y-74062117D01*
X76992192Y-73799327D01*
X77134838Y-73455799D01*
X77135162Y-73083833D01*
X76993117Y-72740057D01*
X76730327Y-72476808D01*
X76386799Y-72334162D01*
X76321620Y-72334105D01*
X76231111Y-72115057D01*
X75968321Y-71851808D01*
X75711100Y-71745000D01*
X75767250Y-71745000D01*
X75926000Y-71586250D01*
X75926000Y-70612000D01*
X76180000Y-70612000D01*
X76180000Y-71586250D01*
X76338750Y-71745000D01*
X76929309Y-71745000D01*
X77162698Y-71648327D01*
X77341327Y-71469699D01*
X77438000Y-71236310D01*
X77438000Y-70770750D01*
X77279250Y-70612000D01*
X76180000Y-70612000D01*
X75926000Y-70612000D01*
X75906000Y-70612000D01*
X75906000Y-70358000D01*
X75926000Y-70358000D01*
X75926000Y-70338000D01*
X76180000Y-70338000D01*
X76180000Y-70358000D01*
X77279250Y-70358000D01*
X77438000Y-70199250D01*
X77438000Y-69733690D01*
X77341327Y-69500301D01*
X77162698Y-69321673D01*
X77028900Y-69266252D01*
X77118263Y-69042868D01*
X76073000Y-67997605D01*
X75027737Y-69042868D01*
X75111414Y-69252039D01*
X74943302Y-69321673D01*
X74802064Y-69462910D01*
X74767090Y-69408559D01*
X74554890Y-69263569D01*
X74303000Y-69212560D01*
X74293000Y-69212560D01*
X74293000Y-67529593D01*
X74327677Y-67529593D01*
X74350164Y-68219453D01*
X74570901Y-68752359D01*
X74848132Y-68863263D01*
X75893395Y-67818000D01*
X76252605Y-67818000D01*
X77297868Y-68863263D01*
X77575099Y-68752359D01*
X77818323Y-68106407D01*
X77795836Y-67416547D01*
X77575099Y-66883641D01*
X77297868Y-66772737D01*
X76252605Y-67818000D01*
X75893395Y-67818000D01*
X74848132Y-66772737D01*
X74570901Y-66883641D01*
X74327677Y-67529593D01*
X74293000Y-67529593D01*
X74293000Y-66733047D01*
X74457943Y-66664894D01*
X74529830Y-66593132D01*
X75027737Y-66593132D01*
X76073000Y-67638395D01*
X77118263Y-66593132D01*
X77007359Y-66315901D01*
X76361407Y-66072677D01*
X75671547Y-66095164D01*
X75138641Y-66315901D01*
X75027737Y-66593132D01*
X74529830Y-66593132D01*
X74918278Y-66205363D01*
X75167716Y-65604648D01*
X75168284Y-64954205D01*
X74919894Y-64353057D01*
X74530387Y-63962868D01*
X75027737Y-63962868D01*
X75138641Y-64240099D01*
X75784593Y-64483323D01*
X76474453Y-64460836D01*
X77007359Y-64240099D01*
X77118263Y-63962868D01*
X76073000Y-62917605D01*
X75027737Y-63962868D01*
X74530387Y-63962868D01*
X74460363Y-63892722D01*
X73859648Y-63643284D01*
X73209205Y-63642716D01*
X72608057Y-63891106D01*
X72147722Y-64350637D01*
X71898284Y-64951352D01*
X71897716Y-65601795D01*
X72146106Y-66202943D01*
X72605637Y-66663278D01*
X72773000Y-66732773D01*
X72773000Y-69218205D01*
X72567683Y-69256838D01*
X72351559Y-69395910D01*
X72206569Y-69608110D01*
X72155560Y-69860000D01*
X72155560Y-71110000D01*
X72199838Y-71345317D01*
X72338910Y-71561441D01*
X72551110Y-71706431D01*
X72789000Y-71754605D01*
X72789000Y-72862142D01*
X72758890Y-72841569D01*
X72507000Y-72790560D01*
X71866796Y-72790560D01*
X70329618Y-71253382D01*
X70327999Y-71252300D01*
X70327999Y-69421522D01*
X70704593Y-69563323D01*
X71394453Y-69540836D01*
X71927359Y-69320099D01*
X72038263Y-69042868D01*
X70993000Y-67997605D01*
X70978858Y-68011748D01*
X70799253Y-67832143D01*
X70813395Y-67818000D01*
X71172605Y-67818000D01*
X72217868Y-68863263D01*
X72495099Y-68752359D01*
X72738323Y-68106407D01*
X72715836Y-67416547D01*
X72495099Y-66883641D01*
X72217868Y-66772737D01*
X71172605Y-67818000D01*
X70813395Y-67818000D01*
X70799253Y-67803858D01*
X70978858Y-67624253D01*
X70993000Y-67638395D01*
X72038263Y-66593132D01*
X71927359Y-66315901D01*
X71281407Y-66072677D01*
X70591547Y-66095164D01*
X70327999Y-66204329D01*
X70327999Y-64341522D01*
X70704593Y-64483323D01*
X71394453Y-64460836D01*
X71927359Y-64240099D01*
X72038263Y-63962868D01*
X70993000Y-62917605D01*
X70978858Y-62931748D01*
X70799253Y-62752143D01*
X70813395Y-62738000D01*
X70799253Y-62723858D01*
X70978858Y-62544253D01*
X70993000Y-62558395D01*
X71007143Y-62544253D01*
X71186748Y-62723858D01*
X71172605Y-62738000D01*
X72217868Y-63783263D01*
X72495099Y-63672359D01*
X72738323Y-63026407D01*
X72715836Y-62336547D01*
X72606671Y-62072999D01*
X74469478Y-62072999D01*
X74327677Y-62449593D01*
X74350164Y-63139453D01*
X74570901Y-63672359D01*
X74848132Y-63783263D01*
X75893395Y-62738000D01*
X76252605Y-62738000D01*
X77297868Y-63783263D01*
X77575099Y-63672359D01*
X77818323Y-63026407D01*
X77795836Y-62336547D01*
X77575099Y-61803641D01*
X77297868Y-61692737D01*
X76252605Y-62738000D01*
X75893395Y-62738000D01*
X75879253Y-62723858D01*
X76058858Y-62544253D01*
X76073000Y-62558395D01*
X77118263Y-61513132D01*
X77007359Y-61235901D01*
X76672443Y-61109793D01*
X77283500Y-60498736D01*
X78491000Y-61706236D01*
X78491000Y-61706236D01*
G37*
X78491000Y-61706236D02*
X78491000Y-77602000D01*
X78558671Y-77942206D01*
X78748041Y-78225618D01*
X78751382Y-78230618D01*
X83318382Y-82797618D01*
X83577797Y-82970953D01*
X83523000Y-83025750D01*
X83523000Y-84350000D01*
X83543000Y-84350000D01*
X83543000Y-84604000D01*
X83523000Y-84604000D01*
X83523000Y-84624000D01*
X83269000Y-84624000D01*
X83269000Y-84604000D01*
X83249000Y-84604000D01*
X83249000Y-84350000D01*
X83269000Y-84350000D01*
X83269000Y-83025750D01*
X83110250Y-82867000D01*
X82444690Y-82867000D01*
X82302588Y-82925861D01*
X82272890Y-82905569D01*
X82021000Y-82854560D01*
X80371000Y-82854560D01*
X80135683Y-82898838D01*
X79919559Y-83037910D01*
X79774569Y-83250110D01*
X79723560Y-83502000D01*
X79723560Y-83695000D01*
X79602440Y-83695000D01*
X79602440Y-83605000D01*
X79558162Y-83369683D01*
X79419090Y-83153559D01*
X79206890Y-83008569D01*
X78955000Y-82957560D01*
X77255000Y-82957560D01*
X77019683Y-83001838D01*
X76803559Y-83140910D01*
X76658569Y-83353110D01*
X76644914Y-83420541D01*
X76615054Y-83375853D01*
X76325000Y-83182046D01*
X76325000Y-76827000D01*
X76321440Y-76809103D01*
X76321440Y-76384200D01*
X76374000Y-76257309D01*
X76374000Y-75596750D01*
X76215250Y-75438000D01*
X74676000Y-75438000D01*
X74676000Y-75458000D01*
X74422000Y-75458000D01*
X74422000Y-75438000D01*
X74402000Y-75438000D01*
X74402000Y-75184000D01*
X74422000Y-75184000D01*
X74422000Y-75164000D01*
X74676000Y-75164000D01*
X74676000Y-75184000D01*
X76215250Y-75184000D01*
X76374000Y-75025250D01*
X76374000Y-74364691D01*
X76321440Y-74237800D01*
X76321440Y-74222362D01*
X76339680Y-74204122D01*
X76385167Y-74204162D01*
X76728943Y-74062117D01*
X76992192Y-73799327D01*
X77134838Y-73455799D01*
X77135162Y-73083833D01*
X76993117Y-72740057D01*
X76730327Y-72476808D01*
X76386799Y-72334162D01*
X76321620Y-72334105D01*
X76231111Y-72115057D01*
X75968321Y-71851808D01*
X75711100Y-71745000D01*
X75767250Y-71745000D01*
X75926000Y-71586250D01*
X75926000Y-70612000D01*
X76180000Y-70612000D01*
X76180000Y-71586250D01*
X76338750Y-71745000D01*
X76929309Y-71745000D01*
X77162698Y-71648327D01*
X77341327Y-71469699D01*
X77438000Y-71236310D01*
X77438000Y-70770750D01*
X77279250Y-70612000D01*
X76180000Y-70612000D01*
X75926000Y-70612000D01*
X75906000Y-70612000D01*
X75906000Y-70358000D01*
X75926000Y-70358000D01*
X75926000Y-70338000D01*
X76180000Y-70338000D01*
X76180000Y-70358000D01*
X77279250Y-70358000D01*
X77438000Y-70199250D01*
X77438000Y-69733690D01*
X77341327Y-69500301D01*
X77162698Y-69321673D01*
X77028900Y-69266252D01*
X77118263Y-69042868D01*
X76073000Y-67997605D01*
X75027737Y-69042868D01*
X75111414Y-69252039D01*
X74943302Y-69321673D01*
X74802064Y-69462910D01*
X74767090Y-69408559D01*
X74554890Y-69263569D01*
X74303000Y-69212560D01*
X74293000Y-69212560D01*
X74293000Y-67529593D01*
X74327677Y-67529593D01*
X74350164Y-68219453D01*
X74570901Y-68752359D01*
X74848132Y-68863263D01*
X75893395Y-67818000D01*
X76252605Y-67818000D01*
X77297868Y-68863263D01*
X77575099Y-68752359D01*
X77818323Y-68106407D01*
X77795836Y-67416547D01*
X77575099Y-66883641D01*
X77297868Y-66772737D01*
X76252605Y-67818000D01*
X75893395Y-67818000D01*
X74848132Y-66772737D01*
X74570901Y-66883641D01*
X74327677Y-67529593D01*
X74293000Y-67529593D01*
X74293000Y-66733047D01*
X74457943Y-66664894D01*
X74529830Y-66593132D01*
X75027737Y-66593132D01*
X76073000Y-67638395D01*
X77118263Y-66593132D01*
X77007359Y-66315901D01*
X76361407Y-66072677D01*
X75671547Y-66095164D01*
X75138641Y-66315901D01*
X75027737Y-66593132D01*
X74529830Y-66593132D01*
X74918278Y-66205363D01*
X75167716Y-65604648D01*
X75168284Y-64954205D01*
X74919894Y-64353057D01*
X74530387Y-63962868D01*
X75027737Y-63962868D01*
X75138641Y-64240099D01*
X75784593Y-64483323D01*
X76474453Y-64460836D01*
X77007359Y-64240099D01*
X77118263Y-63962868D01*
X76073000Y-62917605D01*
X75027737Y-63962868D01*
X74530387Y-63962868D01*
X74460363Y-63892722D01*
X73859648Y-63643284D01*
X73209205Y-63642716D01*
X72608057Y-63891106D01*
X72147722Y-64350637D01*
X71898284Y-64951352D01*
X71897716Y-65601795D01*
X72146106Y-66202943D01*
X72605637Y-66663278D01*
X72773000Y-66732773D01*
X72773000Y-69218205D01*
X72567683Y-69256838D01*
X72351559Y-69395910D01*
X72206569Y-69608110D01*
X72155560Y-69860000D01*
X72155560Y-71110000D01*
X72199838Y-71345317D01*
X72338910Y-71561441D01*
X72551110Y-71706431D01*
X72789000Y-71754605D01*
X72789000Y-72862142D01*
X72758890Y-72841569D01*
X72507000Y-72790560D01*
X71866796Y-72790560D01*
X70329618Y-71253382D01*
X70327999Y-71252300D01*
X70327999Y-69421522D01*
X70704593Y-69563323D01*
X71394453Y-69540836D01*
X71927359Y-69320099D01*
X72038263Y-69042868D01*
X70993000Y-67997605D01*
X70978858Y-68011748D01*
X70799253Y-67832143D01*
X70813395Y-67818000D01*
X71172605Y-67818000D01*
X72217868Y-68863263D01*
X72495099Y-68752359D01*
X72738323Y-68106407D01*
X72715836Y-67416547D01*
X72495099Y-66883641D01*
X72217868Y-66772737D01*
X71172605Y-67818000D01*
X70813395Y-67818000D01*
X70799253Y-67803858D01*
X70978858Y-67624253D01*
X70993000Y-67638395D01*
X72038263Y-66593132D01*
X71927359Y-66315901D01*
X71281407Y-66072677D01*
X70591547Y-66095164D01*
X70327999Y-66204329D01*
X70327999Y-64341522D01*
X70704593Y-64483323D01*
X71394453Y-64460836D01*
X71927359Y-64240099D01*
X72038263Y-63962868D01*
X70993000Y-62917605D01*
X70978858Y-62931748D01*
X70799253Y-62752143D01*
X70813395Y-62738000D01*
X70799253Y-62723858D01*
X70978858Y-62544253D01*
X70993000Y-62558395D01*
X71007143Y-62544253D01*
X71186748Y-62723858D01*
X71172605Y-62738000D01*
X72217868Y-63783263D01*
X72495099Y-63672359D01*
X72738323Y-63026407D01*
X72715836Y-62336547D01*
X72606671Y-62072999D01*
X74469478Y-62072999D01*
X74327677Y-62449593D01*
X74350164Y-63139453D01*
X74570901Y-63672359D01*
X74848132Y-63783263D01*
X75893395Y-62738000D01*
X76252605Y-62738000D01*
X77297868Y-63783263D01*
X77575099Y-63672359D01*
X77818323Y-63026407D01*
X77795836Y-62336547D01*
X77575099Y-61803641D01*
X77297868Y-61692737D01*
X76252605Y-62738000D01*
X75893395Y-62738000D01*
X75879253Y-62723858D01*
X76058858Y-62544253D01*
X76073000Y-62558395D01*
X77118263Y-61513132D01*
X77007359Y-61235901D01*
X76672443Y-61109793D01*
X77283500Y-60498736D01*
X78491000Y-61706236D01*
G36*
X95803599Y-81384401D02*
X96050161Y-81549148D01*
X96341000Y-81607000D01*
X96459374Y-81607000D01*
X96459330Y-81657177D01*
X96601375Y-82000953D01*
X96749723Y-82149560D01*
X96716000Y-82149560D01*
X96610295Y-82169450D01*
X96592310Y-82162000D01*
X96562250Y-82162000D01*
X96541938Y-82182312D01*
X96480683Y-82193838D01*
X96340273Y-82284190D01*
X96217890Y-82200569D01*
X96143192Y-82185442D01*
X96119750Y-82162000D01*
X96089690Y-82162000D01*
X96069247Y-82170468D01*
X95966000Y-82149560D01*
X95716000Y-82149560D01*
X95586411Y-82173944D01*
X95466000Y-82149560D01*
X95216000Y-82149560D01*
X95086411Y-82173944D01*
X94966000Y-82149560D01*
X94716000Y-82149560D01*
X94601000Y-82171199D01*
X94601000Y-80181802D01*
X95803599Y-81384401D01*
X95803599Y-81384401D01*
G37*
X95803599Y-81384401D02*
X96050161Y-81549148D01*
X96341000Y-81607000D01*
X96459374Y-81607000D01*
X96459330Y-81657177D01*
X96601375Y-82000953D01*
X96749723Y-82149560D01*
X96716000Y-82149560D01*
X96610295Y-82169450D01*
X96592310Y-82162000D01*
X96562250Y-82162000D01*
X96541938Y-82182312D01*
X96480683Y-82193838D01*
X96340273Y-82284190D01*
X96217890Y-82200569D01*
X96143192Y-82185442D01*
X96119750Y-82162000D01*
X96089690Y-82162000D01*
X96069247Y-82170468D01*
X95966000Y-82149560D01*
X95716000Y-82149560D01*
X95586411Y-82173944D01*
X95466000Y-82149560D01*
X95216000Y-82149560D01*
X95086411Y-82173944D01*
X94966000Y-82149560D01*
X94716000Y-82149560D01*
X94601000Y-82171199D01*
X94601000Y-80181802D01*
X95803599Y-81384401D01*
G36*
X80297600Y-69717178D02*
X80297600Y-71526400D01*
X80365271Y-71866606D01*
X80513333Y-72088196D01*
X80487812Y-72113673D01*
X80345166Y-72457201D01*
X80344842Y-72829167D01*
X80486887Y-73172943D01*
X80529215Y-73215345D01*
X80487814Y-73256673D01*
X80345168Y-73600201D01*
X80344844Y-73972167D01*
X80478388Y-74295368D01*
X80345162Y-74616209D01*
X80344838Y-74988175D01*
X80486883Y-75331951D01*
X80749673Y-75595200D01*
X81093201Y-75737846D01*
X81465167Y-75738170D01*
X81782623Y-75607000D01*
X84452560Y-75607000D01*
X84452560Y-76970000D01*
X84496838Y-77205317D01*
X84635910Y-77421441D01*
X84704006Y-77467969D01*
X84561673Y-77610302D01*
X84465000Y-77843691D01*
X84465000Y-78434250D01*
X84623750Y-78593000D01*
X85598000Y-78593000D01*
X85598000Y-78573000D01*
X85852000Y-78573000D01*
X85852000Y-78593000D01*
X85872000Y-78593000D01*
X85872000Y-78847000D01*
X85852000Y-78847000D01*
X85852000Y-78867000D01*
X85598000Y-78867000D01*
X85598000Y-78847000D01*
X84623750Y-78847000D01*
X84465000Y-79005750D01*
X84465000Y-79596309D01*
X84561673Y-79829698D01*
X84583559Y-79851584D01*
X84507068Y-79966062D01*
X84483517Y-80084461D01*
X84417024Y-80150838D01*
X84274378Y-80494366D01*
X84274054Y-80866332D01*
X84416099Y-81210108D01*
X84485869Y-81280000D01*
X84315236Y-81280000D01*
X80269000Y-77233764D01*
X80269000Y-69688578D01*
X80297600Y-69717178D01*
X80297600Y-69717178D01*
G37*
X80297600Y-69717178D02*
X80297600Y-71526400D01*
X80365271Y-71866606D01*
X80513333Y-72088196D01*
X80487812Y-72113673D01*
X80345166Y-72457201D01*
X80344842Y-72829167D01*
X80486887Y-73172943D01*
X80529215Y-73215345D01*
X80487814Y-73256673D01*
X80345168Y-73600201D01*
X80344844Y-73972167D01*
X80478388Y-74295368D01*
X80345162Y-74616209D01*
X80344838Y-74988175D01*
X80486883Y-75331951D01*
X80749673Y-75595200D01*
X81093201Y-75737846D01*
X81465167Y-75738170D01*
X81782623Y-75607000D01*
X84452560Y-75607000D01*
X84452560Y-76970000D01*
X84496838Y-77205317D01*
X84635910Y-77421441D01*
X84704006Y-77467969D01*
X84561673Y-77610302D01*
X84465000Y-77843691D01*
X84465000Y-78434250D01*
X84623750Y-78593000D01*
X85598000Y-78593000D01*
X85598000Y-78573000D01*
X85852000Y-78573000D01*
X85852000Y-78593000D01*
X85872000Y-78593000D01*
X85872000Y-78847000D01*
X85852000Y-78847000D01*
X85852000Y-78867000D01*
X85598000Y-78867000D01*
X85598000Y-78847000D01*
X84623750Y-78847000D01*
X84465000Y-79005750D01*
X84465000Y-79596309D01*
X84561673Y-79829698D01*
X84583559Y-79851584D01*
X84507068Y-79966062D01*
X84483517Y-80084461D01*
X84417024Y-80150838D01*
X84274378Y-80494366D01*
X84274054Y-80866332D01*
X84416099Y-81210108D01*
X84485869Y-81280000D01*
X84315236Y-81280000D01*
X80269000Y-77233764D01*
X80269000Y-69688578D01*
X80297600Y-69717178D01*
G36*
X91924981Y-77505783D02*
X89324723Y-80106041D01*
X89229000Y-80087000D01*
X88515152Y-80087000D01*
X88538440Y-79972000D01*
X88538440Y-79722000D01*
X88514056Y-79592411D01*
X88538440Y-79472000D01*
X88538440Y-79222000D01*
X88514056Y-79092411D01*
X88538440Y-78972000D01*
X88538440Y-78722000D01*
X88514056Y-78592411D01*
X88538440Y-78472000D01*
X88538440Y-78222000D01*
X88518550Y-78116295D01*
X88526000Y-78098310D01*
X88526000Y-78068250D01*
X88505688Y-78047938D01*
X88494162Y-77986683D01*
X88403810Y-77846273D01*
X88487431Y-77723890D01*
X88502558Y-77649192D01*
X88526000Y-77625750D01*
X88526000Y-77595690D01*
X88517532Y-77575247D01*
X88538440Y-77472000D01*
X88538440Y-77222000D01*
X88514056Y-77092411D01*
X88538440Y-76972000D01*
X88538440Y-76722000D01*
X88514056Y-76592411D01*
X88538440Y-76472000D01*
X88538440Y-76222000D01*
X88526209Y-76156999D01*
X90576197Y-76156999D01*
X91924981Y-77505783D01*
X91924981Y-77505783D01*
G37*
X91924981Y-77505783D02*
X89324723Y-80106041D01*
X89229000Y-80087000D01*
X88515152Y-80087000D01*
X88538440Y-79972000D01*
X88538440Y-79722000D01*
X88514056Y-79592411D01*
X88538440Y-79472000D01*
X88538440Y-79222000D01*
X88514056Y-79092411D01*
X88538440Y-78972000D01*
X88538440Y-78722000D01*
X88514056Y-78592411D01*
X88538440Y-78472000D01*
X88538440Y-78222000D01*
X88518550Y-78116295D01*
X88526000Y-78098310D01*
X88526000Y-78068250D01*
X88505688Y-78047938D01*
X88494162Y-77986683D01*
X88403810Y-77846273D01*
X88487431Y-77723890D01*
X88502558Y-77649192D01*
X88526000Y-77625750D01*
X88526000Y-77595690D01*
X88517532Y-77575247D01*
X88538440Y-77472000D01*
X88538440Y-77222000D01*
X88514056Y-77092411D01*
X88538440Y-76972000D01*
X88538440Y-76722000D01*
X88514056Y-76592411D01*
X88538440Y-76472000D01*
X88538440Y-76222000D01*
X88526209Y-76156999D01*
X90576197Y-76156999D01*
X91924981Y-77505783D01*
G36*
X109347000Y-62204034D02*
X109347000Y-66351000D01*
X109100000Y-66351000D01*
X108759794Y-66418671D01*
X108548984Y-66559530D01*
X108471382Y-66611382D01*
X105059204Y-70023560D01*
X104379000Y-70023560D01*
X104143683Y-70067838D01*
X103927559Y-70206910D01*
X103782569Y-70419110D01*
X103731560Y-70671000D01*
X103731560Y-70802684D01*
X103647000Y-70785560D01*
X102347000Y-70785560D01*
X102111683Y-70829838D01*
X101895559Y-70968910D01*
X101750569Y-71181110D01*
X101699560Y-71433000D01*
X101699560Y-72900000D01*
X100228000Y-72900000D01*
X99937161Y-72957852D01*
X99690599Y-73122599D01*
X99628877Y-73184321D01*
X99542890Y-73125569D01*
X99291000Y-73074560D01*
X98291000Y-73074560D01*
X98224887Y-73087000D01*
X97349000Y-73087000D01*
X97058161Y-73144852D01*
X96811599Y-73309599D01*
X96634320Y-73486878D01*
X96588833Y-73486838D01*
X96245057Y-73628883D01*
X95981808Y-73891673D01*
X95839162Y-74235201D01*
X95838838Y-74607167D01*
X95980883Y-74950943D01*
X96243673Y-75214192D01*
X96587201Y-75356838D01*
X96959167Y-75357162D01*
X97302943Y-75215117D01*
X97566192Y-74952327D01*
X97643560Y-74766005D01*
X97643560Y-74972000D01*
X97667944Y-75101589D01*
X97643560Y-75222000D01*
X97643560Y-75472000D01*
X97667944Y-75601589D01*
X97643560Y-75722000D01*
X97643560Y-75972000D01*
X97667944Y-76101589D01*
X97643560Y-76222000D01*
X97643560Y-76472000D01*
X97667944Y-76601589D01*
X97643560Y-76722000D01*
X97643560Y-76972000D01*
X97665199Y-77087000D01*
X93798876Y-77087000D01*
X93719618Y-76968382D01*
X93431205Y-76775671D01*
X93322937Y-76754135D01*
X91428400Y-74859598D01*
X91181838Y-74694851D01*
X90890999Y-74636999D01*
X88522446Y-74636999D01*
X88514056Y-74592411D01*
X88538440Y-74472000D01*
X88538440Y-74222000D01*
X88514056Y-74092411D01*
X88538440Y-73972000D01*
X88538440Y-73722000D01*
X88494162Y-73486683D01*
X88355090Y-73270559D01*
X88142890Y-73125569D01*
X87998477Y-73096325D01*
X88437802Y-72657000D01*
X88628721Y-72657000D01*
X88751910Y-72848441D01*
X88964110Y-72993431D01*
X89216000Y-73044440D01*
X89466000Y-73044440D01*
X89571705Y-73024550D01*
X89589690Y-73032000D01*
X89619750Y-73032000D01*
X89640062Y-73011688D01*
X89701317Y-73000162D01*
X89841727Y-72909810D01*
X89964110Y-72993431D01*
X90038808Y-73008558D01*
X90062250Y-73032000D01*
X90092310Y-73032000D01*
X90112753Y-73023532D01*
X90216000Y-73044440D01*
X90466000Y-73044440D01*
X90571705Y-73024550D01*
X90581000Y-73028400D01*
X90581000Y-73307000D01*
X90638852Y-73597839D01*
X90803599Y-73844401D01*
X92045599Y-75086401D01*
X92292160Y-75251148D01*
X92583000Y-75309000D01*
X93163537Y-75309000D01*
X93195673Y-75341192D01*
X93539201Y-75483838D01*
X93911167Y-75484162D01*
X94254943Y-75342117D01*
X94518192Y-75079327D01*
X94660838Y-74735799D01*
X94661162Y-74363833D01*
X94519117Y-74020057D01*
X94256327Y-73756808D01*
X93912799Y-73614162D01*
X93540833Y-73613838D01*
X93197057Y-73755883D01*
X93163882Y-73789000D01*
X92897802Y-73789000D01*
X92130276Y-73021474D01*
X92139153Y-73012597D01*
X92325699Y-72935327D01*
X92347364Y-72913662D01*
X92464110Y-72993431D01*
X92538808Y-73008558D01*
X92562250Y-73032000D01*
X92592310Y-73032000D01*
X92612753Y-73023532D01*
X92716000Y-73044440D01*
X92966000Y-73044440D01*
X93095589Y-73020056D01*
X93216000Y-73044440D01*
X93466000Y-73044440D01*
X93595589Y-73020056D01*
X93716000Y-73044440D01*
X93966000Y-73044440D01*
X94095589Y-73020056D01*
X94216000Y-73044440D01*
X94466000Y-73044440D01*
X94571705Y-73024550D01*
X94589690Y-73032000D01*
X94619750Y-73032000D01*
X94640062Y-73011688D01*
X94701317Y-73000162D01*
X94841727Y-72909810D01*
X94964110Y-72993431D01*
X95038808Y-73008558D01*
X95062250Y-73032000D01*
X95092310Y-73032000D01*
X95112753Y-73023532D01*
X95216000Y-73044440D01*
X95466000Y-73044440D01*
X95595589Y-73020056D01*
X95716000Y-73044440D01*
X95966000Y-73044440D01*
X96095589Y-73020056D01*
X96216000Y-73044440D01*
X96466000Y-73044440D01*
X96571705Y-73024550D01*
X96589690Y-73032000D01*
X96619750Y-73032000D01*
X96640062Y-73011688D01*
X96701317Y-73000162D01*
X96903500Y-72870061D01*
X96903500Y-72873250D01*
X97062250Y-73032000D01*
X97092310Y-73032000D01*
X97325699Y-72935327D01*
X97504327Y-72756698D01*
X97601000Y-72523309D01*
X97601000Y-72182750D01*
X97442250Y-72024000D01*
X97113440Y-72024000D01*
X97113440Y-71770000D01*
X97442250Y-71770000D01*
X97601000Y-71611250D01*
X97601000Y-71270691D01*
X97518264Y-71070948D01*
X98868212Y-69721000D01*
X100602000Y-69721000D01*
X100892839Y-69663148D01*
X101139401Y-69498401D01*
X101861362Y-68776440D01*
X104934000Y-68776440D01*
X105169317Y-68732162D01*
X105385441Y-68593090D01*
X105530431Y-68380890D01*
X105581440Y-68129000D01*
X105581440Y-65729000D01*
X105537162Y-65493683D01*
X105398090Y-65277559D01*
X105185890Y-65132569D01*
X104934000Y-65081560D01*
X104443052Y-65081560D01*
X104577431Y-64884890D01*
X104628440Y-64633000D01*
X104628440Y-63383000D01*
X104584162Y-63147683D01*
X104445090Y-62931559D01*
X104232890Y-62786569D01*
X104079353Y-62755477D01*
X104151441Y-62709090D01*
X104296431Y-62496890D01*
X104299041Y-62484000D01*
X104915202Y-62484000D01*
X105255408Y-62416329D01*
X105543820Y-62223618D01*
X107455202Y-60312236D01*
X109347000Y-62204034D01*
X109347000Y-62204034D01*
G37*
X109347000Y-62204034D02*
X109347000Y-66351000D01*
X109100000Y-66351000D01*
X108759794Y-66418671D01*
X108548984Y-66559530D01*
X108471382Y-66611382D01*
X105059204Y-70023560D01*
X104379000Y-70023560D01*
X104143683Y-70067838D01*
X103927559Y-70206910D01*
X103782569Y-70419110D01*
X103731560Y-70671000D01*
X103731560Y-70802684D01*
X103647000Y-70785560D01*
X102347000Y-70785560D01*
X102111683Y-70829838D01*
X101895559Y-70968910D01*
X101750569Y-71181110D01*
X101699560Y-71433000D01*
X101699560Y-72900000D01*
X100228000Y-72900000D01*
X99937161Y-72957852D01*
X99690599Y-73122599D01*
X99628877Y-73184321D01*
X99542890Y-73125569D01*
X99291000Y-73074560D01*
X98291000Y-73074560D01*
X98224887Y-73087000D01*
X97349000Y-73087000D01*
X97058161Y-73144852D01*
X96811599Y-73309599D01*
X96634320Y-73486878D01*
X96588833Y-73486838D01*
X96245057Y-73628883D01*
X95981808Y-73891673D01*
X95839162Y-74235201D01*
X95838838Y-74607167D01*
X95980883Y-74950943D01*
X96243673Y-75214192D01*
X96587201Y-75356838D01*
X96959167Y-75357162D01*
X97302943Y-75215117D01*
X97566192Y-74952327D01*
X97643560Y-74766005D01*
X97643560Y-74972000D01*
X97667944Y-75101589D01*
X97643560Y-75222000D01*
X97643560Y-75472000D01*
X97667944Y-75601589D01*
X97643560Y-75722000D01*
X97643560Y-75972000D01*
X97667944Y-76101589D01*
X97643560Y-76222000D01*
X97643560Y-76472000D01*
X97667944Y-76601589D01*
X97643560Y-76722000D01*
X97643560Y-76972000D01*
X97665199Y-77087000D01*
X93798876Y-77087000D01*
X93719618Y-76968382D01*
X93431205Y-76775671D01*
X93322937Y-76754135D01*
X91428400Y-74859598D01*
X91181838Y-74694851D01*
X90890999Y-74636999D01*
X88522446Y-74636999D01*
X88514056Y-74592411D01*
X88538440Y-74472000D01*
X88538440Y-74222000D01*
X88514056Y-74092411D01*
X88538440Y-73972000D01*
X88538440Y-73722000D01*
X88494162Y-73486683D01*
X88355090Y-73270559D01*
X88142890Y-73125569D01*
X87998477Y-73096325D01*
X88437802Y-72657000D01*
X88628721Y-72657000D01*
X88751910Y-72848441D01*
X88964110Y-72993431D01*
X89216000Y-73044440D01*
X89466000Y-73044440D01*
X89571705Y-73024550D01*
X89589690Y-73032000D01*
X89619750Y-73032000D01*
X89640062Y-73011688D01*
X89701317Y-73000162D01*
X89841727Y-72909810D01*
X89964110Y-72993431D01*
X90038808Y-73008558D01*
X90062250Y-73032000D01*
X90092310Y-73032000D01*
X90112753Y-73023532D01*
X90216000Y-73044440D01*
X90466000Y-73044440D01*
X90571705Y-73024550D01*
X90581000Y-73028400D01*
X90581000Y-73307000D01*
X90638852Y-73597839D01*
X90803599Y-73844401D01*
X92045599Y-75086401D01*
X92292160Y-75251148D01*
X92583000Y-75309000D01*
X93163537Y-75309000D01*
X93195673Y-75341192D01*
X93539201Y-75483838D01*
X93911167Y-75484162D01*
X94254943Y-75342117D01*
X94518192Y-75079327D01*
X94660838Y-74735799D01*
X94661162Y-74363833D01*
X94519117Y-74020057D01*
X94256327Y-73756808D01*
X93912799Y-73614162D01*
X93540833Y-73613838D01*
X93197057Y-73755883D01*
X93163882Y-73789000D01*
X92897802Y-73789000D01*
X92130276Y-73021474D01*
X92139153Y-73012597D01*
X92325699Y-72935327D01*
X92347364Y-72913662D01*
X92464110Y-72993431D01*
X92538808Y-73008558D01*
X92562250Y-73032000D01*
X92592310Y-73032000D01*
X92612753Y-73023532D01*
X92716000Y-73044440D01*
X92966000Y-73044440D01*
X93095589Y-73020056D01*
X93216000Y-73044440D01*
X93466000Y-73044440D01*
X93595589Y-73020056D01*
X93716000Y-73044440D01*
X93966000Y-73044440D01*
X94095589Y-73020056D01*
X94216000Y-73044440D01*
X94466000Y-73044440D01*
X94571705Y-73024550D01*
X94589690Y-73032000D01*
X94619750Y-73032000D01*
X94640062Y-73011688D01*
X94701317Y-73000162D01*
X94841727Y-72909810D01*
X94964110Y-72993431D01*
X95038808Y-73008558D01*
X95062250Y-73032000D01*
X95092310Y-73032000D01*
X95112753Y-73023532D01*
X95216000Y-73044440D01*
X95466000Y-73044440D01*
X95595589Y-73020056D01*
X95716000Y-73044440D01*
X95966000Y-73044440D01*
X96095589Y-73020056D01*
X96216000Y-73044440D01*
X96466000Y-73044440D01*
X96571705Y-73024550D01*
X96589690Y-73032000D01*
X96619750Y-73032000D01*
X96640062Y-73011688D01*
X96701317Y-73000162D01*
X96903500Y-72870061D01*
X96903500Y-72873250D01*
X97062250Y-73032000D01*
X97092310Y-73032000D01*
X97325699Y-72935327D01*
X97504327Y-72756698D01*
X97601000Y-72523309D01*
X97601000Y-72182750D01*
X97442250Y-72024000D01*
X97113440Y-72024000D01*
X97113440Y-71770000D01*
X97442250Y-71770000D01*
X97601000Y-71611250D01*
X97601000Y-71270691D01*
X97518264Y-71070948D01*
X98868212Y-69721000D01*
X100602000Y-69721000D01*
X100892839Y-69663148D01*
X101139401Y-69498401D01*
X101861362Y-68776440D01*
X104934000Y-68776440D01*
X105169317Y-68732162D01*
X105385441Y-68593090D01*
X105530431Y-68380890D01*
X105581440Y-68129000D01*
X105581440Y-65729000D01*
X105537162Y-65493683D01*
X105398090Y-65277559D01*
X105185890Y-65132569D01*
X104934000Y-65081560D01*
X104443052Y-65081560D01*
X104577431Y-64884890D01*
X104628440Y-64633000D01*
X104628440Y-63383000D01*
X104584162Y-63147683D01*
X104445090Y-62931559D01*
X104232890Y-62786569D01*
X104079353Y-62755477D01*
X104151441Y-62709090D01*
X104296431Y-62496890D01*
X104299041Y-62484000D01*
X104915202Y-62484000D01*
X105255408Y-62416329D01*
X105543820Y-62223618D01*
X107455202Y-60312236D01*
X109347000Y-62204034D01*
G36*
X95633800Y-56132376D02*
X95633800Y-56737624D01*
X95720197Y-57171970D01*
X95966234Y-57540190D01*
X96334454Y-57786227D01*
X96768800Y-57872624D01*
X97203146Y-57786227D01*
X97571366Y-57540190D01*
X97817403Y-57171970D01*
X97903800Y-56737624D01*
X97903800Y-56132376D01*
X97896363Y-56094990D01*
X103237956Y-56094990D01*
X103540966Y-56398000D01*
X103135750Y-56398000D01*
X102977000Y-56556750D01*
X102977000Y-57531000D01*
X104076250Y-57531000D01*
X104235000Y-57372250D01*
X104235000Y-57092034D01*
X106197966Y-59055000D01*
X104546966Y-60706000D01*
X104300792Y-60706000D01*
X104164090Y-60493559D01*
X104161489Y-60491782D01*
X104235000Y-60314310D01*
X104235000Y-59848750D01*
X104076250Y-59690000D01*
X102977000Y-59690000D01*
X102977000Y-59710000D01*
X102723000Y-59710000D01*
X102723000Y-59690000D01*
X102703000Y-59690000D01*
X102703000Y-59436000D01*
X102723000Y-59436000D01*
X102723000Y-57785000D01*
X102977000Y-57785000D01*
X102977000Y-59436000D01*
X104076250Y-59436000D01*
X104235000Y-59277250D01*
X104235000Y-58811690D01*
X104151664Y-58610500D01*
X104235000Y-58409310D01*
X104235000Y-57943750D01*
X104076250Y-57785000D01*
X102977000Y-57785000D01*
X102723000Y-57785000D01*
X102703000Y-57785000D01*
X102703000Y-57531000D01*
X102723000Y-57531000D01*
X102723000Y-56556750D01*
X102564250Y-56398000D01*
X101973691Y-56398000D01*
X101740302Y-56494673D01*
X101599064Y-56635910D01*
X101564090Y-56581559D01*
X101351890Y-56436569D01*
X101100000Y-56385560D01*
X99600000Y-56385560D01*
X99364683Y-56429838D01*
X99148559Y-56568910D01*
X99003569Y-56781110D01*
X98952560Y-57033000D01*
X98952560Y-58283000D01*
X98996838Y-58518317D01*
X99055707Y-58609803D01*
X99003569Y-58686110D01*
X98952560Y-58938000D01*
X98952560Y-60188000D01*
X98996838Y-60423317D01*
X99041009Y-60491960D01*
X98903569Y-60693110D01*
X98874836Y-60835000D01*
X98488000Y-60835000D01*
X98197161Y-60892852D01*
X97950599Y-61057599D01*
X94803599Y-64204599D01*
X94638852Y-64451161D01*
X94581000Y-64742000D01*
X94581000Y-69740382D01*
X94576000Y-69740377D01*
X94576000Y-60457440D01*
X94768800Y-60457440D01*
X95004117Y-60413162D01*
X95220241Y-60274090D01*
X95282473Y-60183010D01*
X95594115Y-60245000D01*
X95943485Y-60245000D01*
X96368264Y-60160506D01*
X96728374Y-59919889D01*
X96968991Y-59559779D01*
X97053485Y-59135000D01*
X96968991Y-58710221D01*
X96728374Y-58350111D01*
X96368264Y-58109494D01*
X95943485Y-58025000D01*
X95594115Y-58025000D01*
X95403800Y-58062856D01*
X95403800Y-58060000D01*
X95340239Y-57740459D01*
X95159234Y-57469566D01*
X94888341Y-57288561D01*
X94568800Y-57225000D01*
X90781969Y-57225000D01*
X90817403Y-57171970D01*
X90903800Y-56737624D01*
X90903800Y-56132376D01*
X90896363Y-56094990D01*
X95641237Y-56094990D01*
X95633800Y-56132376D01*
X95633800Y-56132376D01*
G37*
X95633800Y-56132376D02*
X95633800Y-56737624D01*
X95720197Y-57171970D01*
X95966234Y-57540190D01*
X96334454Y-57786227D01*
X96768800Y-57872624D01*
X97203146Y-57786227D01*
X97571366Y-57540190D01*
X97817403Y-57171970D01*
X97903800Y-56737624D01*
X97903800Y-56132376D01*
X97896363Y-56094990D01*
X103237956Y-56094990D01*
X103540966Y-56398000D01*
X103135750Y-56398000D01*
X102977000Y-56556750D01*
X102977000Y-57531000D01*
X104076250Y-57531000D01*
X104235000Y-57372250D01*
X104235000Y-57092034D01*
X106197966Y-59055000D01*
X104546966Y-60706000D01*
X104300792Y-60706000D01*
X104164090Y-60493559D01*
X104161489Y-60491782D01*
X104235000Y-60314310D01*
X104235000Y-59848750D01*
X104076250Y-59690000D01*
X102977000Y-59690000D01*
X102977000Y-59710000D01*
X102723000Y-59710000D01*
X102723000Y-59690000D01*
X102703000Y-59690000D01*
X102703000Y-59436000D01*
X102723000Y-59436000D01*
X102723000Y-57785000D01*
X102977000Y-57785000D01*
X102977000Y-59436000D01*
X104076250Y-59436000D01*
X104235000Y-59277250D01*
X104235000Y-58811690D01*
X104151664Y-58610500D01*
X104235000Y-58409310D01*
X104235000Y-57943750D01*
X104076250Y-57785000D01*
X102977000Y-57785000D01*
X102723000Y-57785000D01*
X102703000Y-57785000D01*
X102703000Y-57531000D01*
X102723000Y-57531000D01*
X102723000Y-56556750D01*
X102564250Y-56398000D01*
X101973691Y-56398000D01*
X101740302Y-56494673D01*
X101599064Y-56635910D01*
X101564090Y-56581559D01*
X101351890Y-56436569D01*
X101100000Y-56385560D01*
X99600000Y-56385560D01*
X99364683Y-56429838D01*
X99148559Y-56568910D01*
X99003569Y-56781110D01*
X98952560Y-57033000D01*
X98952560Y-58283000D01*
X98996838Y-58518317D01*
X99055707Y-58609803D01*
X99003569Y-58686110D01*
X98952560Y-58938000D01*
X98952560Y-60188000D01*
X98996838Y-60423317D01*
X99041009Y-60491960D01*
X98903569Y-60693110D01*
X98874836Y-60835000D01*
X98488000Y-60835000D01*
X98197161Y-60892852D01*
X97950599Y-61057599D01*
X94803599Y-64204599D01*
X94638852Y-64451161D01*
X94581000Y-64742000D01*
X94581000Y-69740382D01*
X94576000Y-69740377D01*
X94576000Y-60457440D01*
X94768800Y-60457440D01*
X95004117Y-60413162D01*
X95220241Y-60274090D01*
X95282473Y-60183010D01*
X95594115Y-60245000D01*
X95943485Y-60245000D01*
X96368264Y-60160506D01*
X96728374Y-59919889D01*
X96968991Y-59559779D01*
X97053485Y-59135000D01*
X96968991Y-58710221D01*
X96728374Y-58350111D01*
X96368264Y-58109494D01*
X95943485Y-58025000D01*
X95594115Y-58025000D01*
X95403800Y-58062856D01*
X95403800Y-58060000D01*
X95340239Y-57740459D01*
X95159234Y-57469566D01*
X94888341Y-57288561D01*
X94568800Y-57225000D01*
X90781969Y-57225000D01*
X90817403Y-57171970D01*
X90903800Y-56737624D01*
X90903800Y-56132376D01*
X90896363Y-56094990D01*
X95641237Y-56094990D01*
X95633800Y-56132376D01*
G36*
X89568609Y-59559779D02*
X89809226Y-59919889D01*
X90169336Y-60160506D01*
X90594115Y-60245000D01*
X90943485Y-60245000D01*
X91245667Y-60184892D01*
X91409101Y-60348327D01*
X91642490Y-60445000D01*
X91710050Y-60445000D01*
X91868800Y-60286250D01*
X91868800Y-60141517D01*
X91880473Y-60169698D01*
X92059101Y-60348327D01*
X92181630Y-60399080D01*
X92227550Y-60445000D01*
X92360050Y-60445000D01*
X92405970Y-60399080D01*
X92491798Y-60363529D01*
X92491798Y-60445000D01*
X92606000Y-60445000D01*
X92606000Y-69213642D01*
X92238099Y-68845741D01*
X91991537Y-68680994D01*
X91700698Y-68623142D01*
X86555542Y-68623142D01*
X86531962Y-68497825D01*
X86392890Y-68281701D01*
X86376312Y-68270374D01*
X86388641Y-68252330D01*
X86439650Y-68000440D01*
X86439650Y-66750440D01*
X86395372Y-66515123D01*
X86336503Y-66423637D01*
X86388641Y-66347330D01*
X86439650Y-66095440D01*
X86439650Y-64883371D01*
X86519000Y-64899440D01*
X88019000Y-64899440D01*
X88254317Y-64855162D01*
X88470441Y-64716090D01*
X88516969Y-64647994D01*
X88659302Y-64790327D01*
X88892691Y-64887000D01*
X89483250Y-64887000D01*
X89642000Y-64728250D01*
X89642000Y-63754000D01*
X89896000Y-63754000D01*
X89896000Y-64728250D01*
X90054750Y-64887000D01*
X90645309Y-64887000D01*
X90878698Y-64790327D01*
X91057327Y-64611699D01*
X91154000Y-64378310D01*
X91154000Y-63912750D01*
X90995250Y-63754000D01*
X89896000Y-63754000D01*
X89642000Y-63754000D01*
X89622000Y-63754000D01*
X89622000Y-63500000D01*
X89642000Y-63500000D01*
X89642000Y-62525750D01*
X89896000Y-62525750D01*
X89896000Y-63500000D01*
X90995250Y-63500000D01*
X91154000Y-63341250D01*
X91154000Y-62875690D01*
X91057327Y-62642301D01*
X90878698Y-62463673D01*
X90645309Y-62367000D01*
X90054750Y-62367000D01*
X89896000Y-62525750D01*
X89642000Y-62525750D01*
X89483250Y-62367000D01*
X88892691Y-62367000D01*
X88659302Y-62463673D01*
X88518064Y-62604910D01*
X88483090Y-62550559D01*
X88295657Y-62422491D01*
X88342940Y-62189000D01*
X88342940Y-60722428D01*
X89558153Y-59507215D01*
X89568609Y-59559779D01*
X89568609Y-59559779D01*
G37*
X89568609Y-59559779D02*
X89809226Y-59919889D01*
X90169336Y-60160506D01*
X90594115Y-60245000D01*
X90943485Y-60245000D01*
X91245667Y-60184892D01*
X91409101Y-60348327D01*
X91642490Y-60445000D01*
X91710050Y-60445000D01*
X91868800Y-60286250D01*
X91868800Y-60141517D01*
X91880473Y-60169698D01*
X92059101Y-60348327D01*
X92181630Y-60399080D01*
X92227550Y-60445000D01*
X92360050Y-60445000D01*
X92405970Y-60399080D01*
X92491798Y-60363529D01*
X92491798Y-60445000D01*
X92606000Y-60445000D01*
X92606000Y-69213642D01*
X92238099Y-68845741D01*
X91991537Y-68680994D01*
X91700698Y-68623142D01*
X86555542Y-68623142D01*
X86531962Y-68497825D01*
X86392890Y-68281701D01*
X86376312Y-68270374D01*
X86388641Y-68252330D01*
X86439650Y-68000440D01*
X86439650Y-66750440D01*
X86395372Y-66515123D01*
X86336503Y-66423637D01*
X86388641Y-66347330D01*
X86439650Y-66095440D01*
X86439650Y-64883371D01*
X86519000Y-64899440D01*
X88019000Y-64899440D01*
X88254317Y-64855162D01*
X88470441Y-64716090D01*
X88516969Y-64647994D01*
X88659302Y-64790327D01*
X88892691Y-64887000D01*
X89483250Y-64887000D01*
X89642000Y-64728250D01*
X89642000Y-63754000D01*
X89896000Y-63754000D01*
X89896000Y-64728250D01*
X90054750Y-64887000D01*
X90645309Y-64887000D01*
X90878698Y-64790327D01*
X91057327Y-64611699D01*
X91154000Y-64378310D01*
X91154000Y-63912750D01*
X90995250Y-63754000D01*
X89896000Y-63754000D01*
X89642000Y-63754000D01*
X89622000Y-63754000D01*
X89622000Y-63500000D01*
X89642000Y-63500000D01*
X89642000Y-62525750D01*
X89896000Y-62525750D01*
X89896000Y-63500000D01*
X90995250Y-63500000D01*
X91154000Y-63341250D01*
X91154000Y-62875690D01*
X91057327Y-62642301D01*
X90878698Y-62463673D01*
X90645309Y-62367000D01*
X90054750Y-62367000D01*
X89896000Y-62525750D01*
X89642000Y-62525750D01*
X89483250Y-62367000D01*
X88892691Y-62367000D01*
X88659302Y-62463673D01*
X88518064Y-62604910D01*
X88483090Y-62550559D01*
X88295657Y-62422491D01*
X88342940Y-62189000D01*
X88342940Y-60722428D01*
X89558153Y-59507215D01*
X89568609Y-59559779D01*
G36*
X80960500Y-61316002D02*
X81119248Y-61316002D01*
X80960500Y-61474750D01*
X80960500Y-62315309D01*
X81057173Y-62548698D01*
X81235801Y-62727327D01*
X81244894Y-62731093D01*
X81185000Y-62875690D01*
X81185000Y-63341250D01*
X81343750Y-63500000D01*
X82443000Y-63500000D01*
X82443000Y-63480000D01*
X82697000Y-63480000D01*
X82697000Y-63500000D01*
X82717000Y-63500000D01*
X82717000Y-63754000D01*
X82697000Y-63754000D01*
X82697000Y-64341400D01*
X82669210Y-64369190D01*
X82669210Y-65343440D01*
X82689210Y-65343440D01*
X82689210Y-65597440D01*
X82669210Y-65597440D01*
X82669210Y-67248440D01*
X82689210Y-67248440D01*
X82689210Y-67502440D01*
X82669210Y-67502440D01*
X82669210Y-67522440D01*
X82415210Y-67522440D01*
X82415210Y-67502440D01*
X81315960Y-67502440D01*
X81157210Y-67661190D01*
X81157210Y-68062316D01*
X80269000Y-67174106D01*
X80269000Y-65756190D01*
X81157210Y-65756190D01*
X81157210Y-66221750D01*
X81240546Y-66422940D01*
X81157210Y-66624130D01*
X81157210Y-67089690D01*
X81315960Y-67248440D01*
X82415210Y-67248440D01*
X82415210Y-65597440D01*
X81315960Y-65597440D01*
X81157210Y-65756190D01*
X80269000Y-65756190D01*
X80269000Y-64719130D01*
X81157210Y-64719130D01*
X81157210Y-65184690D01*
X81315960Y-65343440D01*
X82415210Y-65343440D01*
X82415210Y-64756040D01*
X82443000Y-64728250D01*
X82443000Y-63754000D01*
X81343750Y-63754000D01*
X81185000Y-63912750D01*
X81185000Y-64378310D01*
X81241691Y-64515175D01*
X81157210Y-64719130D01*
X80269000Y-64719130D01*
X80269000Y-61955534D01*
X80960500Y-61264034D01*
X80960500Y-61316002D01*
X80960500Y-61316002D01*
G37*
X80960500Y-61316002D02*
X81119248Y-61316002D01*
X80960500Y-61474750D01*
X80960500Y-62315309D01*
X81057173Y-62548698D01*
X81235801Y-62727327D01*
X81244894Y-62731093D01*
X81185000Y-62875690D01*
X81185000Y-63341250D01*
X81343750Y-63500000D01*
X82443000Y-63500000D01*
X82443000Y-63480000D01*
X82697000Y-63480000D01*
X82697000Y-63500000D01*
X82717000Y-63500000D01*
X82717000Y-63754000D01*
X82697000Y-63754000D01*
X82697000Y-64341400D01*
X82669210Y-64369190D01*
X82669210Y-65343440D01*
X82689210Y-65343440D01*
X82689210Y-65597440D01*
X82669210Y-65597440D01*
X82669210Y-67248440D01*
X82689210Y-67248440D01*
X82689210Y-67502440D01*
X82669210Y-67502440D01*
X82669210Y-67522440D01*
X82415210Y-67522440D01*
X82415210Y-67502440D01*
X81315960Y-67502440D01*
X81157210Y-67661190D01*
X81157210Y-68062316D01*
X80269000Y-67174106D01*
X80269000Y-65756190D01*
X81157210Y-65756190D01*
X81157210Y-66221750D01*
X81240546Y-66422940D01*
X81157210Y-66624130D01*
X81157210Y-67089690D01*
X81315960Y-67248440D01*
X82415210Y-67248440D01*
X82415210Y-65597440D01*
X81315960Y-65597440D01*
X81157210Y-65756190D01*
X80269000Y-65756190D01*
X80269000Y-64719130D01*
X81157210Y-64719130D01*
X81157210Y-65184690D01*
X81315960Y-65343440D01*
X82415210Y-65343440D01*
X82415210Y-64756040D01*
X82443000Y-64728250D01*
X82443000Y-63754000D01*
X81343750Y-63754000D01*
X81185000Y-63912750D01*
X81185000Y-64378310D01*
X81241691Y-64515175D01*
X81157210Y-64719130D01*
X80269000Y-64719130D01*
X80269000Y-61955534D01*
X80960500Y-61264034D01*
X80960500Y-61316002D01*
G36*
X82472500Y-61062000D02*
X82492500Y-61062000D01*
X82492500Y-61316000D01*
X82472500Y-61316000D01*
X82472500Y-61336000D01*
X82218500Y-61336000D01*
X82218500Y-61316000D01*
X82198500Y-61316000D01*
X82198500Y-61062000D01*
X82218500Y-61062000D01*
X82218500Y-61042000D01*
X82472500Y-61042000D01*
X82472500Y-61062000D01*
X82472500Y-61062000D01*
G37*
X82472500Y-61062000D02*
X82492500Y-61062000D01*
X82492500Y-61316000D01*
X82472500Y-61316000D01*
X82472500Y-61336000D01*
X82218500Y-61336000D01*
X82218500Y-61316000D01*
X82198500Y-61316000D01*
X82198500Y-61062000D01*
X82218500Y-61062000D01*
X82218500Y-61042000D01*
X82472500Y-61042000D01*
X82472500Y-61062000D01*
G36*
X82098060Y-55889000D02*
X82142338Y-56124317D01*
X82281410Y-56340441D01*
X82493610Y-56485431D01*
X82745500Y-56536440D01*
X86532824Y-56536440D01*
X84277264Y-58792000D01*
X81286298Y-58792000D01*
X80946092Y-58859671D01*
X80657680Y-59052382D01*
X79504649Y-60205413D01*
X78436857Y-59137621D01*
X78536431Y-58991890D01*
X78587440Y-58740000D01*
X78587440Y-58723000D01*
X78994250Y-58723000D01*
X79153000Y-58564250D01*
X79153000Y-57615000D01*
X79407000Y-57615000D01*
X79407000Y-58564250D01*
X79565750Y-58723000D01*
X80006310Y-58723000D01*
X80239699Y-58626327D01*
X80418327Y-58447698D01*
X80515000Y-58214309D01*
X80515000Y-57773750D01*
X80356250Y-57615000D01*
X79407000Y-57615000D01*
X79153000Y-57615000D01*
X79133000Y-57615000D01*
X79133000Y-57361000D01*
X79153000Y-57361000D01*
X79153000Y-57341000D01*
X79407000Y-57341000D01*
X79407000Y-57361000D01*
X80356250Y-57361000D01*
X80515000Y-57202250D01*
X80515000Y-56761691D01*
X80418327Y-56528302D01*
X80277090Y-56387064D01*
X80331441Y-56352090D01*
X80476431Y-56139890D01*
X80527440Y-55888000D01*
X80527440Y-54688000D01*
X80483162Y-54452683D01*
X80344090Y-54236559D01*
X80147156Y-54102000D01*
X82098060Y-54102000D01*
X82098060Y-55889000D01*
X82098060Y-55889000D01*
G37*
X82098060Y-55889000D02*
X82142338Y-56124317D01*
X82281410Y-56340441D01*
X82493610Y-56485431D01*
X82745500Y-56536440D01*
X86532824Y-56536440D01*
X84277264Y-58792000D01*
X81286298Y-58792000D01*
X80946092Y-58859671D01*
X80657680Y-59052382D01*
X79504649Y-60205413D01*
X78436857Y-59137621D01*
X78536431Y-58991890D01*
X78587440Y-58740000D01*
X78587440Y-58723000D01*
X78994250Y-58723000D01*
X79153000Y-58564250D01*
X79153000Y-57615000D01*
X79407000Y-57615000D01*
X79407000Y-58564250D01*
X79565750Y-58723000D01*
X80006310Y-58723000D01*
X80239699Y-58626327D01*
X80418327Y-58447698D01*
X80515000Y-58214309D01*
X80515000Y-57773750D01*
X80356250Y-57615000D01*
X79407000Y-57615000D01*
X79153000Y-57615000D01*
X79133000Y-57615000D01*
X79133000Y-57361000D01*
X79153000Y-57361000D01*
X79153000Y-57341000D01*
X79407000Y-57341000D01*
X79407000Y-57361000D01*
X80356250Y-57361000D01*
X80515000Y-57202250D01*
X80515000Y-56761691D01*
X80418327Y-56528302D01*
X80277090Y-56387064D01*
X80331441Y-56352090D01*
X80476431Y-56139890D01*
X80527440Y-55888000D01*
X80527440Y-54688000D01*
X80483162Y-54452683D01*
X80344090Y-54236559D01*
X80147156Y-54102000D01*
X82098060Y-54102000D01*
X82098060Y-55889000D01*
M02*
