%TF.GenerationSoftware,KiCad,Pcbnew,4.0.6*%
%TF.CreationDate,2017-04-05T20:33:35-07:00*%
%TF.ProjectId,wavegen,7761766567656E2E6B696361645F7063,rev?*%
%TF.FileFunction,Soldermask,Top*%
%FSLAX46Y46*%
G04 Gerber Fmt 4.6, Leading zero omitted, Abs format (unit mm)*
G04 Created by KiCad (PCBNEW 4.0.6) date 04/05/17 20:33:35*
%MOMM*%
%LPD*%
G01*
G04 APERTURE LIST*
%ADD10C,0.100000*%
%ADD11C,3.900000*%
%ADD12R,1.900000X1.650000*%
%ADD13R,1.900000X1.700000*%
%ADD14R,1.700000X1.900000*%
%ADD15R,2.780000X2.040000*%
%ADD16R,0.650000X1.400000*%
%ADD17R,1.650000X1.900000*%
%ADD18R,1.600000X1.600000*%
%ADD19R,0.800000X1.750000*%
%ADD20O,1.650000X1.350000*%
%ADD21O,1.400000X1.950000*%
%ADD22C,2.600000*%
%ADD23C,2.400000*%
%ADD24R,2.100000X2.100000*%
%ADD25O,2.100000X2.100000*%
%ADD26R,1.300000X1.600000*%
%ADD27R,1.050000X1.960000*%
%ADD28R,1.400000X0.650000*%
%ADD29R,2.050000X2.350000*%
%ADD30R,4.200000X2.400000*%
%ADD31R,1.900000X2.400000*%
%ADD32R,3.900000X2.800000*%
%ADD33C,1.000000*%
G04 APERTURE END LIST*
D10*
D11*
X72390000Y-57150000D03*
X72390000Y-100330000D03*
X115570000Y-100330000D03*
X115570000Y-57150000D03*
D12*
X85042210Y-65470440D03*
X82542210Y-65470440D03*
D13*
X82478800Y-69383142D03*
X85178800Y-69383142D03*
D12*
X85042210Y-67375440D03*
X82542210Y-67375440D03*
D14*
X105029000Y-71421000D03*
X105029000Y-74121000D03*
D15*
X74549000Y-75311000D03*
D16*
X73549000Y-76811000D03*
X74049000Y-76811000D03*
X74549000Y-76811000D03*
X75049000Y-76811000D03*
X75549000Y-76811000D03*
X75549000Y-73811000D03*
X75049000Y-73811000D03*
X74549000Y-73811000D03*
X74049000Y-73811000D03*
X73549000Y-73811000D03*
D12*
X97937000Y-64008000D03*
X100437000Y-64008000D03*
X103231000Y-64008000D03*
X100731000Y-64008000D03*
X87269000Y-63627000D03*
X89769000Y-63627000D03*
X85070000Y-63627000D03*
X82570000Y-63627000D03*
X81046000Y-89535000D03*
X83546000Y-89535000D03*
X74402000Y-79756000D03*
X71902000Y-79756000D03*
X74402000Y-81661000D03*
X71902000Y-81661000D03*
D17*
X71882000Y-74188000D03*
X71882000Y-76688000D03*
D12*
X73553000Y-70485000D03*
X76053000Y-70485000D03*
X100350000Y-59563000D03*
X102850000Y-59563000D03*
X100350000Y-57658000D03*
X102850000Y-57658000D03*
D18*
X79280000Y-55288000D03*
X79280000Y-57488000D03*
X88519000Y-91313000D03*
X88519000Y-89113000D03*
X86544864Y-91313000D03*
X86544864Y-89113000D03*
D19*
X94568800Y-59135000D03*
X93918800Y-59135000D03*
X93268800Y-59135000D03*
X92618800Y-59135000D03*
X91968800Y-59135000D03*
D20*
X95768800Y-59135000D03*
X90768800Y-59135000D03*
D21*
X96768800Y-56435000D03*
X89768800Y-56435000D03*
D22*
X76073000Y-88265000D03*
X76073000Y-93345000D03*
X70993000Y-93345000D03*
X70993000Y-88265000D03*
D23*
X73533000Y-90805000D03*
D22*
X70993000Y-67818000D03*
X70993000Y-62738000D03*
X76073000Y-62738000D03*
X76073000Y-67818000D03*
D23*
X73533000Y-65278000D03*
D24*
X89154000Y-101854000D03*
D25*
X89154000Y-99314000D03*
X91694000Y-101854000D03*
X91694000Y-99314000D03*
X94234000Y-101854000D03*
X94234000Y-99314000D03*
X96774000Y-101854000D03*
X96774000Y-99314000D03*
X99314000Y-101854000D03*
X99314000Y-99314000D03*
X101854000Y-101854000D03*
X101854000Y-99314000D03*
X104394000Y-101854000D03*
X104394000Y-99314000D03*
X106934000Y-101854000D03*
X106934000Y-99314000D03*
X109474000Y-101854000D03*
X109474000Y-99314000D03*
D24*
X78105000Y-84455000D03*
D25*
X75565000Y-84455000D03*
X73025000Y-84455000D03*
D13*
X102950000Y-61595000D03*
X100250000Y-61595000D03*
D26*
X78486000Y-90721000D03*
X78486000Y-92921000D03*
D14*
X77290000Y-55290000D03*
X77290000Y-57990000D03*
X88519000Y-93345000D03*
X88519000Y-96045000D03*
X86544864Y-93345000D03*
X86544864Y-96045000D03*
X110236000Y-76374000D03*
X110236000Y-79074000D03*
X102997000Y-72183000D03*
X102997000Y-74883000D03*
D13*
X108665000Y-81153000D03*
X105965000Y-81153000D03*
X85144600Y-71526400D03*
X82444600Y-71526400D03*
D27*
X106492000Y-79074000D03*
X107442000Y-79074000D03*
X108392000Y-79074000D03*
X108392000Y-76374000D03*
X106492000Y-76374000D03*
X107442000Y-76374000D03*
D16*
X96841000Y-71897000D03*
X96341000Y-71897000D03*
X95841000Y-71897000D03*
X95341000Y-71897000D03*
X94841000Y-71897000D03*
X94341000Y-71897000D03*
X93841000Y-71897000D03*
X93341000Y-71897000D03*
X92841000Y-71897000D03*
X92341000Y-71897000D03*
X91841000Y-71897000D03*
X91341000Y-71897000D03*
X90841000Y-71897000D03*
X90341000Y-71897000D03*
X89841000Y-71897000D03*
X89341000Y-71897000D03*
D28*
X87391000Y-73847000D03*
X87391000Y-74347000D03*
X87391000Y-74847000D03*
X87391000Y-75347000D03*
X87391000Y-75847000D03*
X87391000Y-76347000D03*
X87391000Y-76847000D03*
X87391000Y-77347000D03*
X87391000Y-77847000D03*
X87391000Y-78347000D03*
X87391000Y-78847000D03*
X87391000Y-79347000D03*
X87391000Y-79847000D03*
X87391000Y-80347000D03*
X87391000Y-80847000D03*
X87391000Y-81347000D03*
D16*
X89341000Y-83297000D03*
X89841000Y-83297000D03*
X90341000Y-83297000D03*
X90841000Y-83297000D03*
X91341000Y-83297000D03*
X91841000Y-83297000D03*
X92341000Y-83297000D03*
X92841000Y-83297000D03*
X93341000Y-83297000D03*
X93841000Y-83297000D03*
X94341000Y-83297000D03*
X94841000Y-83297000D03*
X95341000Y-83297000D03*
X95841000Y-83297000D03*
X96341000Y-83297000D03*
X96841000Y-83297000D03*
D28*
X98791000Y-81347000D03*
X98791000Y-80847000D03*
X98791000Y-80347000D03*
X98791000Y-79847000D03*
X98791000Y-79347000D03*
X98791000Y-78847000D03*
X98791000Y-78347000D03*
X98791000Y-77847000D03*
X98791000Y-77347000D03*
X98791000Y-76847000D03*
X98791000Y-76347000D03*
X98791000Y-75847000D03*
X98791000Y-75347000D03*
X98791000Y-74847000D03*
X98791000Y-74347000D03*
X98791000Y-73847000D03*
D29*
X83396000Y-87227000D03*
X83396000Y-84477000D03*
X81196000Y-84477000D03*
X81196000Y-87227000D03*
D30*
X84645500Y-54889000D03*
D31*
X84645500Y-61189000D03*
X86945500Y-61189000D03*
X82345500Y-61189000D03*
D17*
X85725000Y-76220000D03*
X85725000Y-78720000D03*
D32*
X97984000Y-66929000D03*
X103184000Y-66929000D03*
D33*
X88011000Y-85471000D03*
X84074000Y-78740000D03*
X92618800Y-60833000D03*
X92583000Y-61595000D03*
X70358000Y-80645000D03*
X92075034Y-70739000D03*
X77470000Y-70485000D03*
X91968800Y-60853800D03*
X91968800Y-61552200D03*
X104140000Y-58420000D03*
X82550000Y-82423000D03*
X107315000Y-80518000D03*
X80645000Y-64770000D03*
X80645000Y-63754000D03*
X80645000Y-62738000D03*
X79756000Y-59055000D03*
X88900000Y-74041000D03*
X96393000Y-82169000D03*
X97663000Y-79883000D03*
X96774000Y-73406000D03*
X94869000Y-73406000D03*
X73787000Y-75692000D03*
X73787000Y-74930000D03*
X75311000Y-75692000D03*
X75311000Y-74930000D03*
X78486000Y-94107000D03*
X84963000Y-89535000D03*
X73924000Y-77744014D03*
X110236000Y-74422000D03*
X104902000Y-75819000D03*
X97394492Y-81472010D03*
X93091000Y-81407000D03*
X93726000Y-74549000D03*
X96774000Y-74422000D03*
X86106000Y-85090000D03*
X86106000Y-80645012D03*
X85217004Y-85090000D03*
X85209216Y-80681165D03*
X92583000Y-95885000D03*
X93472000Y-95885000D03*
X94361000Y-95885000D03*
X95250000Y-95885000D03*
X96139000Y-95885000D03*
X97028000Y-95885000D03*
X97917000Y-95885000D03*
X98806000Y-95885000D03*
X94716000Y-70675500D03*
X81280000Y-74803008D03*
X74549000Y-72644000D03*
X81280004Y-72644000D03*
X75437994Y-72644000D03*
X81280006Y-73787000D03*
X76200000Y-73269000D03*
M02*
