%TF.GenerationSoftware,KiCad,Pcbnew,4.0.6*%
%TF.CreationDate,2017-04-05T20:33:35-07:00*%
%TF.ProjectId,wavegen,7761766567656E2E6B696361645F7063,rev?*%
%TF.FileFunction,Soldermask,Bot*%
%FSLAX46Y46*%
G04 Gerber Fmt 4.6, Leading zero omitted, Abs format (unit mm)*
G04 Created by KiCad (PCBNEW 4.0.6) date 04/05/17 20:33:35*
%MOMM*%
%LPD*%
G01*
G04 APERTURE LIST*
%ADD10C,0.100000*%
%ADD11C,3.900000*%
%ADD12R,1.900000X1.650000*%
%ADD13R,1.650000X1.900000*%
%ADD14O,1.650000X1.350000*%
%ADD15O,1.400000X1.950000*%
%ADD16C,2.600000*%
%ADD17C,2.400000*%
%ADD18R,2.100000X2.100000*%
%ADD19O,2.100000X2.100000*%
%ADD20R,1.700000X1.900000*%
%ADD21C,1.000000*%
G04 APERTURE END LIST*
D10*
D11*
X72390000Y-57150000D03*
X72390000Y-100330000D03*
X115570000Y-100330000D03*
X115570000Y-57150000D03*
D12*
X92055000Y-83566000D03*
X89555000Y-83566000D03*
X92055000Y-85471000D03*
X89555000Y-85471000D03*
X92055000Y-87376000D03*
X89555000Y-87376000D03*
X92055000Y-81661000D03*
X89555000Y-81661000D03*
X92055000Y-79756000D03*
X89555000Y-79756000D03*
X92055000Y-77851000D03*
X89555000Y-77851000D03*
X92055000Y-75946000D03*
X89555000Y-75946000D03*
X92055000Y-74041000D03*
X89555000Y-74041000D03*
D13*
X73406000Y-78887000D03*
X73406000Y-81387000D03*
D14*
X95768800Y-59135000D03*
X90768800Y-59135000D03*
D15*
X96768800Y-56435000D03*
X89768800Y-56435000D03*
D16*
X76073000Y-88265000D03*
X76073000Y-93345000D03*
X70993000Y-93345000D03*
X70993000Y-88265000D03*
D17*
X73533000Y-90805000D03*
D16*
X70993000Y-67818000D03*
X70993000Y-62738000D03*
X76073000Y-62738000D03*
X76073000Y-67818000D03*
D17*
X73533000Y-65278000D03*
D18*
X89154000Y-101854000D03*
D19*
X89154000Y-99314000D03*
X91694000Y-101854000D03*
X91694000Y-99314000D03*
X94234000Y-101854000D03*
X94234000Y-99314000D03*
X96774000Y-101854000D03*
X96774000Y-99314000D03*
X99314000Y-101854000D03*
X99314000Y-99314000D03*
X101854000Y-101854000D03*
X101854000Y-99314000D03*
X104394000Y-101854000D03*
X104394000Y-99314000D03*
X106934000Y-101854000D03*
X106934000Y-99314000D03*
X109474000Y-101854000D03*
X109474000Y-99314000D03*
D18*
X78105000Y-84455000D03*
D19*
X75565000Y-84455000D03*
X73025000Y-84455000D03*
D20*
X96901000Y-65261500D03*
X96901000Y-67961500D03*
D21*
X88011000Y-85471000D03*
X84074000Y-78740000D03*
X92618800Y-60833000D03*
X92583000Y-61595000D03*
X70358000Y-80645000D03*
X92075034Y-70739000D03*
X77470000Y-70485000D03*
X91968800Y-60853800D03*
X91968800Y-61552200D03*
X104140000Y-58420000D03*
X82550000Y-82423000D03*
X107315000Y-80518000D03*
X80645000Y-64770000D03*
X80645000Y-63754000D03*
X80645000Y-62738000D03*
X79756000Y-59055000D03*
X88900000Y-74041000D03*
X96393000Y-82169000D03*
X97663000Y-79883000D03*
X96774000Y-73406000D03*
X94869000Y-73406000D03*
X73787000Y-75692000D03*
X73787000Y-74930000D03*
X75311000Y-75692000D03*
X75311000Y-74930000D03*
X78486000Y-94107000D03*
X84963000Y-89535000D03*
X73924000Y-77744014D03*
X110236000Y-74422000D03*
X104902000Y-75819000D03*
X97394492Y-81472010D03*
X93091000Y-81407000D03*
X93726000Y-74549000D03*
X96774000Y-74422000D03*
X86106000Y-85090000D03*
X86106000Y-80645012D03*
X85217004Y-85090000D03*
X85209216Y-80681165D03*
X92583000Y-95885000D03*
X93472000Y-95885000D03*
X94361000Y-95885000D03*
X95250000Y-95885000D03*
X96139000Y-95885000D03*
X97028000Y-95885000D03*
X97917000Y-95885000D03*
X98806000Y-95885000D03*
X94716000Y-70675500D03*
X81280000Y-74803008D03*
X74549000Y-72644000D03*
X81280004Y-72644000D03*
X75437994Y-72644000D03*
X81280006Y-73787000D03*
X76200000Y-73269000D03*
M02*
